<?xml version="1.0" encoding="utf-8"?>
<!-- Generator: Adobe Illustrator 23.0.3, SVG Export Plug-In . SVG Version: 6.00 Build 0)  -->
<svg version="1.1" id="Layer_1" xmlns="http://www.w3.org/2000/svg" xmlns:xlink="http://www.w3.org/1999/xlink" x="0px" y="0px"
	 viewBox="0 0 300 300" style="enable-background:new 0 0 300 300;" xml:space="preserve">
<style type="text/css">
	.st0{stroke:#FFFFFF;stroke-width:5;stroke-miterlimit:10;}
	.st1{fill:none;stroke:#FFFFFF;stroke-width:5;stroke-miterlimit:10;}
</style>
<g>
	<g>
		<path class="st0" d="M255,149.5c0,58.3-47.2,105.5-105.5,105.5S44,207.8,44,149.5C44,91.2,91.2,44,149.5,44S255,91.2,255,149.5z"
			/>
		<g>
			<path class="st1" d="M227.2,149.5c0-42.3-34.3-76.7-76.7-76.7h-1.1c-42.3,0-76.7,34.3-76.7,76.7h76.7l1.1,76.7
				C192.9,226.2,227.2,191.8,227.2,149.5h-38.3c0-21.8-17.6-39.4-39.4-39.4"/>
			<path class="st1" d="M149.5,188.9c21.8,0,39.4-17.6,39.4-39.4"/>
			<path class="st1" d="M81.1,184.2c12.7,24.9,38.5,42,68.4,42"/>
		</g>
	</g>
</g>
</svg>
