<?xml version="1.0" encoding="utf-8"?>
<!-- Generator: Adobe Illustrator 22.0.1, SVG Export Plug-In . SVG Version: 6.00 Build 0)  -->
<svg version="1.1" xmlns="http://www.w3.org/2000/svg" xmlns:xlink="http://www.w3.org/1999/xlink" x="0px" y="0px"
	 viewBox="0 0 1080 1080" style="enable-background:new 0 0 1080 1080;" xml:space="preserve">
<style type="text/css">
	.st0{stroke:#FFFFFF;stroke-width:15;stroke-miterlimit:10;}
	.st1{fill:none;stroke:#FFFFFF;stroke-width:15;stroke-miterlimit:10;}
</style>
<g id="Layer_1">
</g>
<g id="Layer_2">
	<g>
		<path class="st0" d="M1039.5,539.5c0,276.1-223.9,500-500,500s-500-223.9-500-500c0-276.2,223.9-500,500-500
			S1039.5,263.4,1039.5,539.5z"/>
		<g>
			<path class="st1" d="M907.9,539.5c0-200.6-162.6-363.3-363.3-363.3h-5.1c-200.6,0-363.3,162.7-363.3,363.3h363.3l5.2,363.3
				C745.3,902.8,907.9,740.2,907.9,539.5H726.3c0-103.2-83.6-186.8-186.8-186.8"/>
			<path class="st1" d="M539.5,726.3c103.2,0,186.8-83.6,186.8-186.8"/>
			<path class="st1" d="M215.4,703.9c60,118.1,182.6,198.9,324.1,198.9"/>
		</g>
	</g>
</g>
</svg>
