<svg height="558" viewBox="0 0 683 558" width="683" xmlns="http://www.w3.org/2000/svg"><path d="m246 0c-154.087 0-246 124.913-246 279s91.913 279 246 279h191c154.087 0 246-124.913 246-279s-91.913-279-246-279z"/><g fill="#fff"><path d="m201.383 54.31c-4.509 20.817-15.913 35.36-37.465 40.04-7.432 1.614-12.312 5.837-16.351 10.973l38.716 2.8c-8.707 17.146-25.646 27-55.649 17.127l-14.512 18.869c8.842-2.131 15-4.23 21.312-4.965 6.456-.752 13.068-.167 19.813-.167-3.307 14.959-20.827 27.814-36.775 27.9-17.172.1-17.175.094-23.569 16.587-.8 2.06-1.535 4.143-2.551 6.894l40.37-18.546c.641 9-3.728 14.337-6.7 19.73-7.262 13.168-17.554 23.081-33.219 25.15-6.4.846-10.017 3.864-11.286 9.913-1.588 7.569-3 15.175-4.729 24.006l35.8-33.4c1.168 4.981 2.555 7.525 2.164 9.757-3.639 20.78-11.907 38.647-31.433 49.528-3.076 1.714-6.879 5.129-7.242 8.133-1 8.255-.344 16.71-.344 27.341l29.467-42.68 3.071.844c.683 3.578 1.993 7.165 1.945 10.734-.279 20.618-5.453 39.331-21.988 53.3-4.564 3.855-6.661 8.689-5.025 14.595 2.386 8.609 5.009 17.153 7.651 26.135l15.791-50.754 3.334-.359c1.694 3.917 4.013 7.687 4.971 11.776 3.906 16.657 4.648 33.146-3.23 49.169-8.674 17.643-7.805 21.636 7.718 37.9 0-9.536-.338-17.9.094-26.221.44-8.465 1.638-16.889 2.5-25.331l2.521-.906c2.237 2.837 4.8 5.477 6.657 8.542 9.638 15.884 15.159 32.883 9.361 51.293-3.953 12.553-.954 21.124 10.35 27.472 4.3 2.414 8.083 5.739 12.8 8.148-10.408-15.376-10.534-32.922-12.98-51.191 10.848 2.09 17.069 8.983 22.067 16.491 6.536 9.819 10.752 20.628 10.455 32.976-.314 13.022.426 13.66 12.328 17.649 5.164 1.731 10.57 2.727 15.778 4.341 3.745 1.16 7.345 2.79 11.011 4.211l-.918 3.822c-4.622-.668-9.31-1.046-13.85-2.075-5.705-1.292-11.333-2.981-16.914-4.75-5.546-1.758-9.28-.236-13.272 4.235a33.183 33.183 0 0 1 -13.336 8.747c-17.974 6.283-39.008 2.139-51.118-10.052 12.714-12.982 28.355-17.616 46.381-18.356-6.007-4.717-11.666-10.031-18.2-13.844-2.457-1.433-7.563-.429-10.407 1.25-17.2 10.156-53.04-2.075-61.115-20.169 10.261-8.426 16.376-8.99 49.8-4.027-6.124-8.373-10.969-15.7-16.651-22.312-1.585-1.845-5.821-2.573-8.534-2.089-13.28 2.369-24.1-2.58-32.906-11.544-6.481-6.6-11.711-14.492-16.976-22.167-1.489-2.172-1.139-5.6-1.635-8.475 13.451-2.111 18.025-.575 45.733 15.137-3.874-10.99-6.956-20.7-10.835-30.074a10.486 10.486 0 0 0 -6.889-5.425c-15.324-2.336-23.418-13.04-30.251-25.217-3.621-6.451-6.63-13.245-9.916-19.884v-14.069c18.829 5.201 31.029 18.324 40.859 36.124-.455-9.994-.919-18.093-1.16-26.2-.176-5.892-2.141-10.094-7.695-13.292a35.746 35.746 0 0 1 -11.775-10.959c-10.133-15.527-13.178-33.128-13.121-51.373.006-1.749.948-3.5 1.744-6.235 16.8 9.423 23.646 24.865 30 41.105 6.223-14.786 5.181-23.171-3.91-34.189-11.469-13.9-13.406-50.312-2.951-67.684 14.5 12.6 17.1 29.466 17.926 48.258 9.654-20.225 9.414-20.136 2.336-39.256-1.982-5.352-3.678-11.67-2.747-17.07 2.3-13.354 6.046-26.475 9.6-39.584.6-2.218 3.161-3.905 5.413-6.534 5.574 7.75 7.591 15.543 8.152 23.685.559 8.1.506 16.245.721 24.37 5.147-4.442 8.967-8.589 11.059-13.475 1.7-3.972 2.8-9.26 1.635-13.226-6.736-23.037 1.158-49.472 20.188-64.717.391-.312 1.436.193 3.043.461a114.993 114.993 0 0 1 -2.51 46.8c7.89-5.9 15.452-10.942 18.11-21.611 1.525-6.12 6.88-12.446 12.249-16.179 8.193-5.7 17.891-9.231 26.95-13.684z"/><path d="m538.549 107.758a43.927 43.927 0 0 0 -21.74-14.077c-19.433-5.617-31.429-18.7-34.067-39.371h4.689c5.282 2.384 10.584 4.724 15.842 7.159 11.71 5.424 20.749 13.188 24.263 26.339.829 3.1 3.361 5.794 5.3 8.544 2.846 4.042 5.861 7.967 8.8 11.942z"/><path d="m538.549 107.758 3.087.536 5.46 3.077c-4.679-17.689-11.565-34.331-5.373-52.929 8.525 3.33 12.706 9.883 16.417 16.423 8.644 15.235 15.474 30.743 6.558 48.7-1.51 3.043-.253 8.411 1.431 11.876 2.848 5.856 7.058 11.051 11.807 16.575-2.734-17.589-1.064-34.11 7.756-49.667 2.282 1.221 3.281 1.407 3.58 1.966 9.6 17.944 14.851 36.747 10.892 57.26-.44 2.277-.89 4.851-2.228 6.607-7.978 10.472-4.458 20.467 1.726 30.986 2.932-15.59 5.08-31.472 19.563-43.193 1.42 2.711 3.252 5.03 3.9 7.642 3.821 15.428 4.074 31.019-.139 46.338a33.5 33.5 0 0 1 -7.938 14c-5.452 5.581-7.7 11.2-6.2 18.921 1.029 5.292.75 10.838 1.672 16.584 6.409-16.552 14.93-31.408 32.053-43.212.729 6.141 2.319 10.885 1.606 15.254a270.726 270.726 0 0 1 -6.941 30.8c-2.763 9.658-8.671 17.136-17.343 22.793-3.475 2.267-6.816 6.76-7.582 10.747-1.669 8.692-1.647 17.71-2.451 28.382 10.437-15.921 20.954-29.606 40.231-34.569.4 3.149 1.439 5.784.915 8.059-3.955 17.161-11.479 32.49-25.4 43.755-3.736 3.023-9.217 3.786-13.507 6.262-3.462 2-7.717 4.393-9.2 7.7-3.789 8.425-6.226 17.458-9.756 27.876 8.536-5.018 15.057-10.007 22.409-12.841 6.933-2.672 14.74-3.074 23.826-4.789-.957 5.011-1.08 7.653-1.973 10-4.77 12.544-14.306 21.3-24.412 29.368-7.088 5.656-15.725 6.861-24.5 5.52-5.137-.786-9.194-.11-12.3 4.355-4.864 6.981-9.856 13.873-16.233 22.825 18.7-8 35.434-8.678 53.112-.64-1.8 3.333-2.606 6.009-4.323 7.823-15.77 16.66-38.46 21.145-59.936 12.619-2.622-1.041-6.9-.3-9.41 1.239-6.287 3.858-12 8.65-20.475 14.948 19.987-.888 36.749 1.925 49.039 16.029-.145 1.046.038 2.137-.395 2.5-16.816 14.3-49.147 13.641-64.335-1.752-4.268-4.326-8.293-5.062-13.619-3.461-6.73 2.022-13.5 3.934-20.327 5.593-2.8.68-5.783.574-8.684.825l-1.083-2.773c3.1-1.514 6.077-3.386 9.319-4.468 6.65-2.219 13.469-3.929 20.169-6.011 6.792-2.11 9.437-5.988 9.086-13.9-.953-21.562 8.84-38.278 26.389-50.515 1.4-.98 3.441-1.056 6.146-1.826-1.094 18.5-3.394 35.584-11.569 52.086 7.193-5.677 15.14-10.667 21.221-17.355 2.55-2.805 2.508-9.583 1.31-13.908-6.206-22.414-1.637-42.418 11.7-60.948 1.12-1.557 1.426-3.7 2.11-5.572l4.482 2.183 3.8 49.161c13.223-9.783 14.739-17.145 7.534-31.366-10.764-21.249-9.524-42.634.461-66.913 9.342 18.264 15.858 34.674 18.829 53.069 2.4-7.731 4.759-15.475 7.211-23.189 2.27-7.14.249-12.441-5.3-17.679-17.9-16.9-22.914-38.287-19.954-62.055.075-.607.945-1.116 2.08-2.376 12 13.445 23.138 27.026 29.174 45.787 1.171-5.8 2.314-9.948 2.8-14.169 1.309-11.352.3-20.5-12.155-27.151-17.838-9.532-30.4-36.932-25.6-54.013 13.676 8.2 25.426 17.625 35.6 30.5-1.577-8.445-2.851-16.961-4.823-25.312-1.706-7.224-8.418-7.478-14.064-8.353-14.346-2.225-35.259-23.282-35.831-42.518 14.337 4.041 27.289 8.994 40.28 17.687-3.429-7.714-6.283-15.78-10.647-22.923-1.271-2.08-6.92-2.337-10.448-2.046a42.534 42.534 0 0 1 -43.661-27.049c12.831-2.974 25.178.336 37.541 3.232l1.346-2.092c-3.03-4.249-5.791-8.727-9.165-12.683-3.442-4.034-7.577-2.157-11.829-.74-17.516 5.84-34-.134-45.3-16.752 13.472-6.15 27.012-5.708 40.781-2.76z"/><text font-family="AbadiMT-CondensedExtraBold, Abadi MT Condensed Extra Bold" font-size="186.847" transform="translate(172.702 290.554)">VSFF</text><text font-family="AbadiMT-CondensedExtraBold, Abadi MT Condensed Extra Bold" font-size="22.771" transform="translate(215.513 331.396)"><tspan letter-spacing="-.01em">V</tspan><tspan x="11.396" y="0">i</tspan><tspan letter-spacing=".013em" x="17.323" y="0">r</tspan><tspan letter-spacing="0em" x="24.972" y="0">ginia Student Film</tspan><tspan letter-spacing="-.01em" x="193.485" y="0">F</tspan><tspan x="203.459" y="0">est</tspan><tspan letter-spacing=".02em" x="230.732" y="0">iv</tspan><tspan x="246.588" y="0">al</tspan></text><text font-family="BrushScriptMT, Brush Script MT" font-size="57.263" font-style="italic" transform="translate(264.212 403.936)"><tspan letter-spacing=".012em">A<tspan letter-spacing="0em" x="37.047" y="0">udience</tspan></tspan><tspan x="23.585" y="50">Choice</tspan></text></g></svg>