<svg xmlns="http://www.w3.org/2000/svg" width="683" height="558" viewBox="0 0 683 558">
  <defs>
    <style>
      .cls-1 {
        fill: #fff;
      }
    </style>
  </defs>
  <title>VirginiaFilmFestival</title>
  <g id="Layer_2" data-name="Layer 2">
    <g id="VirginiaFilmFestival">
      <path d="M246,0C91.913,0,0,124.913,0,279S91.913,558,246,558H437c154.087,0,246-124.913,246-279S591.087,0,437,0Z"/>
      <g>
        <path class="cls-1" d="M201.383,54.31c-4.509,20.817-15.913,35.36-37.465,40.04-7.432,1.614-12.312,5.837-16.351,10.973l38.716,2.8c-8.707,17.146-25.646,27-55.649,17.127l-14.512,18.869c8.842-2.131,15-4.23,21.312-4.965,6.456-.752,13.068-.167,19.813-.167-3.307,14.959-20.827,27.814-36.775,27.9-17.172.1-17.175.094-23.569,16.587-.8,2.06-1.535,4.143-2.551,6.894l40.37-18.546c.641,9-3.728,14.337-6.7,19.73-7.262,13.168-17.554,23.081-33.219,25.15-6.4.846-10.017,3.864-11.286,9.913-1.588,7.569-3,15.175-4.729,24.006l35.8-33.4c1.168,4.981,2.555,7.525,2.164,9.757-3.639,20.78-11.907,38.647-31.433,49.528-3.076,1.714-6.879,5.129-7.242,8.133-1,8.255-.344,16.71-.344,27.341L107.2,269.3l3.071.844c.683,3.578,1.993,7.165,1.945,10.734-.279,20.618-5.453,39.331-21.988,53.3-4.564,3.855-6.661,8.689-5.025,14.595,2.386,8.609,5.009,17.153,7.651,26.135l15.791-50.754,3.334-.359c1.694,3.917,4.013,7.687,4.971,11.776,3.906,16.657,4.648,33.146-3.23,49.169-8.674,17.643-7.805,21.636,7.718,37.9,0-9.536-.338-17.9.094-26.221.44-8.465,1.638-16.889,2.5-25.331l2.521-.906c2.237,2.837,4.8,5.477,6.657,8.542,9.638,15.884,15.159,32.883,9.361,51.293-3.953,12.553-.954,21.124,10.35,27.472,4.3,2.414,8.083,5.739,12.8,8.148-10.408-15.376-10.534-32.922-12.98-51.191,10.848,2.09,17.069,8.983,22.067,16.491,6.536,9.819,10.752,20.628,10.455,32.976-.314,13.022.426,13.66,12.328,17.649,5.164,1.731,10.57,2.727,15.778,4.341,3.745,1.16,7.345,2.79,11.011,4.211l-.918,3.822c-4.622-.668-9.31-1.046-13.85-2.075-5.705-1.292-11.333-2.981-16.914-4.75-5.546-1.758-9.28-.236-13.272,4.235a33.183,33.183,0,0,1-13.336,8.747c-17.974,6.283-39.008,2.139-51.118-10.052,12.714-12.982,28.355-17.616,46.381-18.356-6.007-4.717-11.666-10.031-18.2-13.844-2.457-1.433-7.563-.429-10.407,1.25-17.2,10.156-53.04-2.075-61.115-20.169,10.261-8.426,16.376-8.99,49.8-4.027-6.124-8.373-10.969-15.7-16.651-22.312-1.585-1.845-5.821-2.573-8.534-2.089-13.28,2.369-24.1-2.58-32.906-11.544-6.481-6.6-11.711-14.492-16.976-22.167-1.489-2.172-1.139-5.6-1.635-8.475,13.451-2.111,18.025-.575,45.733,15.137-3.874-10.99-6.956-20.7-10.835-30.074a10.486,10.486,0,0,0-6.889-5.425c-15.324-2.336-23.418-13.04-30.251-25.217-3.621-6.451-6.63-13.245-9.916-19.884V288.776C51.4,293.977,63.6,307.1,73.43,324.9c-.455-9.994-.919-18.093-1.16-26.2-.176-5.892-2.141-10.094-7.695-13.292A35.746,35.746,0,0,1,52.8,274.449c-10.133-15.527-13.178-33.128-13.121-51.373.006-1.749.948-3.5,1.744-6.235,16.8,9.423,23.646,24.865,30,41.105,6.223-14.786,5.181-23.171-3.91-34.189-11.469-13.9-13.406-50.312-2.951-67.684,14.5,12.6,17.1,29.466,17.926,48.258,9.654-20.225,9.414-20.136,2.336-39.256-1.982-5.352-3.678-11.67-2.747-17.07,2.3-13.354,6.046-26.475,9.6-39.584.6-2.218,3.161-3.905,5.413-6.534,5.574,7.75,7.591,15.543,8.152,23.685.559,8.1.506,16.245.721,24.37,5.147-4.442,8.967-8.589,11.059-13.475,1.7-3.972,2.8-9.26,1.635-13.226-6.736-23.037,1.158-49.472,20.188-64.717.391-.312,1.436.193,3.043.461a114.993,114.993,0,0,1-2.51,46.8c7.89-5.9,15.452-10.942,18.11-21.611,1.525-6.12,6.88-12.446,12.249-16.179,8.193-5.7,17.891-9.231,26.95-13.684Z"/>
        <path class="cls-1" d="M538.549,107.758a43.927,43.927,0,0,0-21.74-14.077c-19.433-5.617-31.429-18.7-34.067-39.371h4.689c5.282,2.384,10.584,4.724,15.842,7.159,11.71,5.424,20.749,13.188,24.263,26.339.829,3.1,3.361,5.794,5.3,8.544,2.846,4.042,5.861,7.967,8.8,11.942Z"/>
        <path class="cls-1" d="M538.549,107.758l3.087.536,5.46,3.077c-4.679-17.689-11.565-34.331-5.373-52.929,8.525,3.33,12.706,9.883,16.417,16.423,8.644,15.235,15.474,30.743,6.558,48.7-1.51,3.043-.253,8.411,1.431,11.876,2.848,5.856,7.058,11.051,11.807,16.575-2.734-17.589-1.064-34.11,7.756-49.667,2.282,1.221,3.281,1.407,3.58,1.966,9.6,17.944,14.851,36.747,10.892,57.26-.44,2.277-.89,4.851-2.228,6.607-7.978,10.472-4.458,20.467,1.726,30.986,2.932-15.59,5.08-31.472,19.563-43.193,1.42,2.711,3.252,5.03,3.9,7.642,3.821,15.428,4.074,31.019-.139,46.338a33.5,33.5,0,0,1-7.938,14c-5.452,5.581-7.7,11.2-6.2,18.921,1.029,5.292.75,10.838,1.672,16.584,6.409-16.552,14.93-31.408,32.053-43.212.729,6.141,2.319,10.885,1.606,15.254a270.726,270.726,0,0,1-6.941,30.8c-2.763,9.658-8.671,17.136-17.343,22.793-3.475,2.267-6.816,6.76-7.582,10.747-1.669,8.692-1.647,17.71-2.451,28.382,10.437-15.921,20.954-29.606,40.231-34.569.4,3.149,1.439,5.784.915,8.059-3.955,17.161-11.479,32.49-25.4,43.755-3.736,3.023-9.217,3.786-13.507,6.262-3.462,2-7.717,4.393-9.2,7.7-3.789,8.425-6.226,17.458-9.756,27.876,8.536-5.018,15.057-10.007,22.409-12.841,6.933-2.672,14.74-3.074,23.826-4.789-.957,5.011-1.08,7.653-1.973,10-4.77,12.544-14.306,21.3-24.412,29.368-7.088,5.656-15.725,6.861-24.5,5.52-5.137-.786-9.194-.11-12.3,4.355-4.864,6.981-9.856,13.873-16.233,22.825,18.7-8,35.434-8.678,53.112-.64-1.8,3.333-2.606,6.009-4.323,7.823-15.77,16.66-38.46,21.145-59.936,12.619-2.622-1.041-6.9-.3-9.41,1.239-6.287,3.858-12,8.65-20.475,14.948,19.987-.888,36.749,1.925,49.039,16.029-.145,1.046.038,2.137-.395,2.5-16.816,14.3-49.147,13.641-64.335-1.752-4.268-4.326-8.293-5.062-13.619-3.461-6.73,2.022-13.5,3.934-20.327,5.593-2.8.68-5.783.574-8.684.825l-1.083-2.773c3.1-1.514,6.077-3.386,9.319-4.468,6.65-2.219,13.469-3.929,20.169-6.011,6.792-2.11,9.437-5.988,9.086-13.9-.953-21.562,8.84-38.278,26.389-50.515,1.4-.98,3.441-1.056,6.146-1.826-1.094,18.5-3.394,35.584-11.569,52.086,7.193-5.677,15.14-10.667,21.221-17.355,2.55-2.805,2.508-9.583,1.31-13.908-6.206-22.414-1.637-42.418,11.7-60.948,1.12-1.557,1.426-3.7,2.11-5.572l4.482,2.183,3.8,49.161c13.223-9.783,14.739-17.145,7.534-31.366-10.764-21.249-9.524-42.634.461-66.913,9.342,18.264,15.858,34.674,18.829,53.069,2.4-7.731,4.759-15.475,7.211-23.189,2.27-7.14.249-12.441-5.3-17.679-17.9-16.9-22.914-38.287-19.954-62.055.075-.607.945-1.116,2.08-2.376,12,13.445,23.138,27.026,29.174,45.787,1.171-5.8,2.314-9.948,2.8-14.169,1.309-11.352.3-20.5-12.155-27.151-17.838-9.532-30.4-36.932-25.6-54.013,13.676,8.2,25.426,17.625,35.6,30.5-1.577-8.445-2.851-16.961-4.823-25.312-1.706-7.224-8.418-7.478-14.064-8.353-14.346-2.225-35.259-23.282-35.831-42.518,14.337,4.041,27.289,8.994,40.28,17.687-3.429-7.714-6.283-15.78-10.647-22.923-1.271-2.08-6.92-2.337-10.448-2.046a42.534,42.534,0,0,1-43.661-27.049c12.831-2.974,25.178.336,37.541,3.232l1.346-2.092c-3.03-4.249-5.791-8.727-9.165-12.683-3.442-4.034-7.577-2.157-11.829-.74-17.516,5.84-34-.134-45.3-16.752C511.24,104.368,524.78,104.81,538.549,107.758Z"/>
      </g>
      <g>
        <path class="cls-1" d="M486.125,234.259a62.944,62.944,0,0,0,7.866,3.364c1.035,3.757,4.767,7.68-.056,12.229h-5c-1.375-3.659-3.478-7.073-8.909-8.08l3.877,6.053c.223.821-1.993,1.618-.157,3.014.624.475.1,2.459.1,4.441,3.2-5.193,3.58-5.245,7.99-1.457l3.311-2.571,10.542,1.576c4.776,6.39,3.55,14.388,3.669,22.263l-1.644,1.406H170.393c2.483-5.382,6.738-5.9,10.88-5.523,3.581-1.536,6.236-4.066,10.126-3.482L195.108,261c2.406-.589,4.493-1.218,6.626-1.58,1.518-.258,2.7-1.023,2.6-2.425-.178-2.46,1.958-3.094,2.967-4.58h3.787v-6.249a6.185,6.185,0,0,0,1.547-.715,32.073,32.073,0,0,1,7.354-4.633,47.017,47.017,0,0,1,7.788-3.636c2.32-.725,4.252-2.85,6.215-4.52,3.581-3.046,7.058-6.214,10.921-9.635l4.056,2.051-1.867,2.956,2.467,3.095v3.54l7.647,6.135h5.774L265.3,238.5c1.742.344,3.881-.767,5.657.985.747-1.094,1.522-2.232,2.292-3.361l5.254,1.695c.117.528.232,1.056.392,1.786l3.524-4.532h8.447l3.2-4.5,6.922,1.331,3.237-4.219,6.818,1.549,7.172-4.354c-1.329-2.227-2.219-4.611-.173-7-1.5-2.9.861-5.2,1.2-7.814,2.83-1.2,1.712-4.792,4.042-6.489,2.157-1.571,3.861-3.762,5.739-5.654h2.187l3.058-6.174v-3.557c3.033-3.851,6.239-7.491,8.938-11.476,2.441-3.6,3.139-7.98,4.078-12.308a32.108,32.108,0,0,0,4.252,2.167c1.4.477,2.562,1.159,2.395,2.65-.253,2.271,1.956,2.667,2.592,4.237h6.511c1.412-3.074,4.236-5.318,4.946-8.954.478-2.449,1.961-3.205,5.57-3.966-.051-1.568.912-3.274-.984-4.869,1.185-1.717,2.388-3.46,3.8-5.509a11.379,11.379,0,0,0,2.077,2,12.436,12.436,0,0,0,2.844.734l4.661-7.024c.608-.078,2,.141,2.354-.367,2.149-3.04,6.429-3.639,7.971-7.59.695-1.778,3.326-2.8,4.821-3.964.562-2.948,1.076-5.646,1.7-8.918l3.419-2.919v-6.271h2.809L428.4,131.221l8.914-9.658h2.646l5.687,5.686c-.41,1.433-.907,3.167-1.357,4.741,2.337,3.919,8.388,2.651,9.737,7.6,3.491.647,6.175,2.835,8.817,5.406v8.594l-1.91.447c-.139,1.227-.3,2.663-.483,4.271-3.914.236-3.971,4.5-6.618,6.327v6.043c2.177,3.42,6.04,3.834,10.323,4.285,1.209,2.346,2.523,4.9,4.061,7.885,2.487-.428,4.731,1.412,7.256,2.124,2.6.733,5.567.138,7.782,2.511,1.09,2.925,2.211,5.936,3.285,8.82l4.792-.842c4.6,4.752,2.644,10.334,2.786,15.445a3.661,3.661,0,0,1-3.5,3.732c2.04.9,4.013,1.574,3.713,4.2-.048.425.431,1.009.809,1.37,2.542,2.424,3.009,5.4,2.5,8.568l-1.293,1.293-4.769-1.191c.62,1.63.958,2.52,1.322,3.478l-1.515,1.515h-5.22c-.024.258-.049.516-.037.388A4.727,4.727,0,0,0,485,232.713l-1.159-1.159a2.479,2.479,0,0,0-1.448-.872c-.083.095.123-.1.328-.292l-.168-2.3-2.212.148a7.639,7.639,0,0,0,2.052,2.44,2.479,2.479,0,0,1,1.448.872L485,232.713A4.727,4.727,0,0,1,486.125,234.259Zm-6.561-30.3c3.017,7.224,5.723,9.691,10.086,9.681A2.556,2.556,0,0,0,487,210.764a2.924,2.924,0,0,1-3.067-1.993C483.3,206.31,481.013,205.532,479.564,203.962Zm-51.409-45.639h3.438c.3-2.448-.189-4.128-3.222-4.627C428.3,155.267,428.232,156.68,428.155,158.323Zm-32.465,1.16h3.285c.637-2.565-.1-4.089-3.068-4.648Zm8.239.365c2.791-.429,3.6-1.834,3.364-3.977-.033-.3-.4-.563-.456-.639h-2.908Zm-20.639.808a9.942,9.942,0,0,1-1.195-2.517c-.074-.536.457-1.154.725-1.751h-3.049v4.268Zm71.577-8.082c-2.4,1.341-2.771,2.773-1.917,4.8l3.569-.2ZM440.516,156.2l-4.338-3.222c.2,2.609.314,4.091.487,6.347Zm-53.055-2.375c.23,2.972.343,4.437.525,6.787l3.777-3.325Zm28.447,1.392h-4.426l2.213,5.709C414.665,158.423,415.21,157.015,415.908,155.216Zm31.8,2.031v-3.431l-3.1.245v3.186Zm-24.26-2.029h-3.431q.149,1.883.244,3.1h3.187Zm-68.712,38.966c-1.777,2.355-.438,3.632,1.08,4.943l2.1-2.7Zm75.574,3.644v-4.436h-1.928v4.436ZM462.144,193l-1.2.291v3.656l3.928-.7Zm6.626,51.37v-1.762l-.634.614c-.327-.841-.655-1.681-1.1-2.832-.893,1.445-1.436,2.324-2.285,3.7Zm-81.592-49.815c1.078,1.252-.921,3.574,2.547,3.274v-3.274Zm-22.961,3.27v-3.27H362.3v3.27Zm5.8,44.059v-3.269H368.1v3.269Zm107.9-45.851,3.284-1.116-5.176-2.251Zm-7.4-2.733c-.752,1.028-2.742,1.622-.994,3.747l2.77-1.972Zm-15.854,3.373v-3.285h-1.932v3.285ZM444.8,193.4c-.252,2.847-.252,2.847,1.738,3.194V193.4Zm-7.862,3.529,1.384-.156v-3.62l-2.179.441C436.437,194.818,436.688,195.871,436.939,196.925Zm-42.755,46.119c.252-2.848.252-2.848-1.738-3.2v3.2Zm8.295,0v-3.27h-1.917v3.27Zm7.687-3.515-1.388.141v3.62l2.179-.441C410.66,241.6,410.413,240.567,410.166,239.529Zm6.729.141v3.62l2.072-.419c-.1-1.186-.193-2.21-.279-3.2Zm24.241,1.256v3.285h1.932v-3.285ZM451,244.2c.252-2.847.252-2.847-1.738-3.194V244.2Zm8.116,0c.252-2.847.252-2.847-1.738-3.194V244.2Zm15.645-3.49-2.032,4.414c2.24-1.2,3.242-1.736,4.457-2.388Zm-112.854,1.179v-3.285h-1.932v3.285Zm-8.3-.008c.253-2.847.253-2.847-1.737-3.194v3.194Zm-9.854-3.269v3.269h1.917v-3.269Zm-22.432,2.11v-3.27H319.4v3.27Zm-9.854-3.27c-.252,2.848-.252,2.848,1.738,3.195v-3.195Zm85.949-43.145-1.387.141v3.62l2.179-.441C397.906,196.385,397.659,195.348,397.411,194.31Zm6.63.245v3.27h1.916v-3.27Zm10.137-.275-2.271.44c.094,1.17.176,2.205.268,3.356l2-.388Zm6.1.275v3.27h1.917v-3.27Zm-37.909,2.912L379.7,193.9v4.153Zm-9.929-3.68-2.91,3.534,2.91.72ZM338.3,240.421l-2.682-3.67v4.163Zm-10.79-3.646v4.156l2.675-.537Zm9.683-40.756c.927,1.267,1.58,2.161,2.682,3.669v-4.162Zm95.077,45.219,2.682,3.67v-4.163Zm-5.435-2.168-2.681,3.67,2.681.493Zm-123.773,2.423,2.909-3.534-2.909-.72Zm-8.338-4.237c.2,1.4.347,2.41.6,4.183l2.294-3.747Zm-8.116,0,.6,4.183,2.293-3.747Zm99.745.487-2.9,3.69,2.9.645Zm-38.37-38.078v-4.157l-2.675.537Zm30.041,42.324v-2.461l-2.1.426.424,2.035Z"/>
        <path class="cls-1" d="M416.579,317.648c1.59-8.647,1.679-22.365.06-26.53,3.712-3.363,8.239-.668,12.481-1.771v52.211h-9.829c-7.84-9.326-15.172-19.688-23.286-30.457-.54,5.385-.209,10.2-.268,15-.061,5.012-.014,10.025-.014,15.322H384.45c-1.978-.989-1.472-2.863-1.473-4.537q-.021-19.382-.008-38.764v-6.853l1.72-1.719h9.716c7.125,9.212,14.448,18.68,22.174,28.1.044-.34-.031-.264-.107-.189l.809.948.365-.366C417.33,317.772,417.015,317.5,416.579,317.648Z"/>
        <path class="cls-1" d="M250.994,291.062l1.535-1.535c7.614,0,15.34-.228,23.04.106a35.237,35.237,0,0,1,10.023,2.312,11.48,11.48,0,0,1,5.35,3.7c3.393,4.769,5.33,10.037,3.238,16.044a27.954,27.954,0,0,0-.743,4.19c-2.869,2.361-5.066,6.1-8.76,7.788,3.845,5.694,7.717,11.429,11.831,17.524-2.61.855-4.882.424-7.092.5-2.123.073-4.25.016-6.778.016-4.376-4.615-7.229-10.637-11.289-16.044h-7.668V341.55H252.375l-1.381-1.382Zm29.667,21.417c.32-.9.486-1.409.685-1.908,1.732-4.339.389-6.632-3.888-8.37-4.639-1.884-9.208-.657-13.767-1.077v12.993C269.391,313.074,275.114,315.3,280.661,312.479Z"/>
        <path class="cls-1" d="M337.546,321.963H327.489V311.82h22.864v22.852l-11.7,6.812c-3.566.483-6.854,1.2-10.166,1.327-8.4.33-15.383-3.094-21.139-8.977a22.3,22.3,0,0,1-5.594-10.991c-.57-2.535-1.389-4.988-1.124-7.642a69.887,69.887,0,0,1,2.345-9.458c1.137-2.244,1.407-4.865,3.643-6.638,2.254-1.788,3.831-4.641,6.283-5.9,2.121-1.092,4.26-2.593,6.977-2.857,1.022-.1,2.356-.793,3.645-.809q3.476-.045,6.95,0c2.293.029,4.821-.489,6.825.3,3.82,1.507,7.339,3.774,10.857,5.658v2.578l-6.994,7.631c-2.678-.332-4.608-3.072-7.748-3.9-6.7-1.772-13.714-.052-17.376,5.475a11.289,11.289,0,0,0-1.424,4.594c-.238,1.7.161,3.5-.095,5.2-.695,4.6,1.9,8.271,5.944,11.332,3.658,2.772,7.657,4.254,12.245,1.759,1.382-.752,3.089-.9,4.838-1.385Z"/>
        <path class="cls-1" d="M496.926,330.245h-19.4c-1.545,3.685-3.059,7.3-4.715,11.25H460.88c0-.833-.334-2.025.056-2.891,2.051-4.562,3.882-9.213,5.822-13.812s3.874-9.2,5.745-13.844c1.519-3.769,3.651-7.35,5.171-11.182,1.315-3.317,2.7-6.605,4.123-10.067h11.362q10.776,25.429,21.971,51.844c-2.009.053-4.039.128-6.069.154-2.1.027-4.195.006-6.686.006Zm-4.008-10.7c-1.868-4.541-3.576-8.691-5.626-13.673l-5.719,13.673Z"/>
        <path class="cls-1" d="M169.216,289.643h13.158c4.2,11.1,8.439,22.283,12.912,34.092,4.369-11.872,8.455-22.975,12.539-34.071h12.6c.871,2.482-.576,4.692-1.483,6.637-4,8.587-6.476,17.808-10.965,26.18.142,3.676-2.819,6.152-3.658,9.511-.815,3.265-2.358,6.347-3.611,9.585H189.445q-9.294-23.236-18.641-46.653C170.207,293.422,169.862,291.82,169.216,289.643Z"/>
        <path class="cls-1" d="M490.8,349.24l1.59-1.59h6.1l1.571,1.572v23.585h14.8v8.318h-7.892c-2.895,0-5.793.083-8.684-.025-2.475-.093-4.946-.61-7.412-.563-2.583.048-5.157.544-8.017.878-1.059-2.621-1.993-4.935-2.919-7.228H467.146l-2.92,6.81h-8.3c1.486-6.032,4.874-11.1,6.975-16.671,2.148-5.692,4.436-11.3,7.016-16.724h7.016c4.789,10.08,9.064,20.474,13.271,31-.07,0,.1.058.2,0,.156-.094.378-.267.379-.406Q490.809,363.721,490.8,349.24Zm-19.985,16.812c1.779,0,3.058.041,4.329-.04.212-.013.39-.556.583-.854.047-2.238-.421-4.167-2.881-5.118C472.212,361.915,471.652,363.573,470.815,366.052Z"/>
        <path class="cls-1" d="M270.577,379.675c2.1-3.1.631-6.407,1.083-9.5-2.162-1.8-.84-3.572-.044-5.426.252-.587-.022-1.4-.107-3.225l-8.486,13.254L255.8,364.429c-.645,2.84-.306,5.3-.362,7.722-.057,2.48-.012,4.963-.012,7.221-2.647,3.2-5.942,1.1-9.276,2V369.654c0-3.666-.24-7.352.067-10.992.308-3.659-1.43-7.634,1.274-11.056h7.39l8.015,12.869,8.753-12.964h7.517a2.6,2.6,0,0,1,.4.376.936.936,0,0,1,.2.492c.009,10.781.008,21.562.008,32.851C276.718,380.663,273.682,382.212,270.577,379.675Z"/>
        <path class="cls-1" d="M337.863,368.167v4.686h15.384l1.722,1.723v4.983l-1.455,1.455H329.863c-.222-10.42-.437-20.734-.688-31.047-.007-.275-.4-.541-.95-1.23,1.36-.453,2.53-1.164,3.712-1.184q9.84-.165,19.684,0a12.36,12.36,0,0,1,3.385,1.023v5.44l-1.562,1.561H337.962v4.3c-.081-.086.049.174.18.175,4.385.021,8.771.017,12.549.017,3.068,2.035,1.9,4.5,2.1,6.6l-1.5,1.5Z"/>
        <path class="cls-1" d="M240.354,341.583H227.815V289.665h10.924c1.45.921,1.667,2.27,1.655,3.934-.077,10.8-.04,21.593-.04,32.389Z"/>
        <path class="cls-1" d="M441.035,341.5V289.747h11.174l1.4,1.589V341.5Z"/>
        <path class="cls-1" d="M361.092,289.55h9.726l1.6,1.6v50.387H359.78V310.1c0-3.468-.17-6.946.049-10.4C360.037,296.4,358.761,292.867,361.092,289.55Z"/>
        <path class="cls-1" d="M366.868,347.56c5.51-.522,11.575-.234,16.088,5.21l-4.043,5.571c-3.346-2.208-6.766-3.408-10.206-2.619l-2.021,1.563c2.411,2.849,5.859,3.151,8.915,4.036a14.226,14.226,0,0,1,7.108,5.151c2.266,2.78,1.907,7.334-.508,10.166-1.249,1.464-2.71,2.748-4.075,4.113-7.966,2.515-14.877.865-21.192-5.329l4.826-5.044c.981.44,2.335.69,3.154,1.489,1.733,1.691,4.065,1.45,6.062,2.2,1.682.636,3.307-.208,4.039-2.728a16.353,16.353,0,0,0-11.209-4.163l-5.05-5.05v-7A13.278,13.278,0,0,1,366.868,347.56Z"/>
        <path class="cls-1" d="M173.308,349.037l1.436-1.436c22.008-.5,22.008-.5,24.845,1.448-.871,1.605-1.924,3.23.266,4.874-.612.475-1.2.933-2.232,1.733H182.549v5.264c6.876.927,10.235.769,13.572-.847.341,3.141.092,6.116.2,9.291H182.515v9.888l-1.756,1.756h-7.451Z"/>
        <path class="cls-1" d="M429.591,348.884c2.674-2.665,5.827-.82,9.007-1.549,2.57,7.118,5.049,13.985,7.517,20.824,4.132-6.138,4.345-14.121,8.881-20.429h8.393c-4.079,11.512-9.15,22.267-13.1,33.267H442.65C438.283,370.257,433.993,359.708,429.591,348.884Z"/>
        <path class="cls-1" d="M307.808,361.443H322.5v6.523l-1.721,1.721H307.624v11.239h-7.85V348.454a13.188,13.188,0,0,1,3.372-.908c7.128-.092,14.257-.045,21.617-.045v8.086H307.808Z"/>
        <path class="cls-1" d="M413,347.7v7.777h-9.054v25.507h-7.8c-2.5-5.582-1.347-11.509-1.562-17.3-.092-2.5-.015-5.014-.015-7.93h-9.122v-6.668l1.382-1.382Z"/>
        <path class="cls-1" d="M227.4,373.042h13.571l1.57,1.57V380.9H218.7c.11.1-.057-.01-.166-.158a.924.924,0,0,1-.2-.49c-.009-10.406-.008-20.812-.008-30.923,2.2-3.23,5.2-1.058,7.382-1.987l1.689,1.689Z"/>
        <path class="cls-1" d="M502.394,244.99l-2.356,2.058c-.837-.89-1.906-1.542-2.209-2.45-.627-1.879-1.388-3.984-1.083-5.829.322-1.951.447-4.175,1.175-5.83,1.644-3.738.535-7.467,1.076-11.246,4.018-4.635,5.486-7.541,5.71-11.274l4.659-3.58V198.61l4.156-2.808h7.322a48.236,48.236,0,0,1-4.872,13.677c-2.264,3.989-3.473,8.578-5.837,12.59-2.473,4.2-4.967,8.384-7.741,13.06Z"/>
        <path class="cls-1" d="M204.694,347.6h6.191l1.642,1.642c0,9.427.037,19.181-.057,28.933-.009.98-.814,1.953-1.209,2.839h-8.01c0-10.434-.03-20.76.062-31.084C203.32,349.152,204.206,348.385,204.694,347.6Z"/>
        <path class="cls-1" d="M425.869,381.023H417.95v-33.4H424.2c1.61.955,1.712,2.37,1.7,4C425.837,361.245,425.869,370.872,425.869,381.023Z"/>
        <path class="cls-1" d="M262.171,398.409c-.892.605-1.465,1.04-2.222,1.614a6.559,6.559,0,0,1-1.7-3.02c-1.076,2.191.537,4.875-2.351,5.923l-.99-.82-1.876,1.335-2.914-2.556h-3.438l-1.84,1.839-5.237-1.02-2.922-2.527L235.048,402l-1.4-.088V391.706h7.428c.5.5,1.045,1.045,1.592,1.59a4.684,4.684,0,0,1-.032,1.718c-.617,1.448-1.387,2.83-1.64,3.332.525,1.113.937,1.987,1.263,2.68.76-.329,1.285-.389,1.382-.625.878-2.141,1.608-4.345,2.54-6.46a18.946,18.946,0,0,1,2.017-2.872c3.493,2.592,4.294,6.275,6,9.691v-9.076h2.814c.941,1.3,1.761,2.434,2.963,4.093l3.17-4.217h2.425v10.168l-1.581,1.477c-.646-1.622-1.239-3.11-1.821-4.8a.986.986,0,0,1,.318.23l.948-.809-.366-.365A8.262,8.262,0,0,1,262.171,398.409Zm-23.08-4.15c-2.848-.252-2.848-.252-3.2,1.738h3.2Zm8.4,2.137.116,1,1.9-.453-.091-.551Z"/>
        <path class="cls-1" d="M383.948,391.764c.511.751,1.206,1.325,1.285,1.975a10.559,10.559,0,0,1-.92,4.793c-.4,1.133,1.821,2.729.393,4.9l-2.884-3.715h-3.215c-.17,1.061-.341,2.124-.547,3.408L376.3,402c-3.166,1.4-6.3,2.067-9.443-.17V391.764Zm-8.14,8.556v-7.115l-6.8,1.084.232,1.875h5.508v2.353c-1.013,0-1.932-.054-2.842.016s-1.779.263-2.668.4l.085.433ZM378.432,396h4.436v-1.928h-4.436Z"/>
        <path class="cls-1" d="M202.63,399.021l-.978,4.635-2.487-3.8.924-8.182h7.884l1.626,4.536,1.654-4.443h6.709l2.651,2.726v4.674l-4.292,3.894c-3.269-.453-6.125-2-7.713-6.342l-1.688,2.57,2.276,2.277-2.285.987Zm10.067-5.053v5.589c1.447,0,2.725,0,4,0,2.233-2.733,2.228-2.741-.007-5.594Zm-4.9.21h-5.85l.384,1.9C203.959,395.915,205.7,396.993,207.8,394.178Z"/>
        <path class="cls-1" d="M301.8,403.041h-2.158v-8.814l-3.454-.6-.2-1.822h12.652c.073,1.348.144,2.645.226,4.167H312c.119-1.153.267-2.578.436-4.207h3.151c.362,3.128-.024,6.5.165,9.621L314.135,403c-1.7-.762-2.192-2.115-1.818-4.3l-4.915-.241,1.582,2.263-1.888,2.5-1.911-1.911v-8.482l-3.383,1.423Z"/>
        <path class="cls-1" d="M351.866,391.671h5.493l3.195,5.991,3.369-6.088c2.226-.155,1.937,1.524,1.583,2.325-1.373,3.111-3.024,6.1-4.793,9.567-3.435-3.135-3.37-7.336-5.148-10.981-1.291,3.465.833,7.4-2.253,11.2l-.576-2.527-.87.675Z"/>
        <path class="cls-1" d="M412.038,403.421v-5.328c-1.356-1.923-2.523-3.578-3.689-5.234l-3.172,1.305v7.328l-2,.721c-1.018-2.634-.206-5.294-.595-8.062l-3.242-.525V390.77c3.536,1.488,7.246.46,10.934.847l3.459,3.484,2.292-3.381h2.723c-.781,1.346-1.525,2.5-2.141,3.722-.657,1.3-2.63,1.779-2.326,3.654C414.555,400.771,414.085,402.1,412.038,403.421Z"/>
        <path class="cls-1" d="M281.9,399.122c-1.518,3.059-3.741,4.521-6.749,3.994-1.349-1.431-2.644-2.805-4.512-4.785v-4.139l4.164-2.6h4.424l2.673,2.674Zm-3.752.458c2.237-2.828,2.238-2.836.006-5.588h-3.981v5.588Z"/>
        <path class="cls-1" d="M488.756,391.883c1.936-1.444,3.305.794,5.064,1.045a33.052,33.052,0,0,0,2.825,4.618v-5.813l1.6-.184c.2.22.635.48.638.746.047,3.457.031,6.915.031,10.713-3.441-.543-3.886-4.413-6.686-5.513-.8,1.8.742,4.458-2.111,5.473-1.247-.587-.8-1.724-.982-2.957-.173-1.176-.875-2.277-.32-3.577a2.931,2.931,0,0,0,.388-1.223C489.125,394.112,488.918,393.021,488.756,391.883Z"/>
        <path class="cls-1" d="M471.176,398.422c.494,1.516.788,2.415,1.191,3.649-3-.123-3.7-2.522-5.4-3.477-.516,1.469-1.039,2.962-1.946,5.551-1.022-1.953-1.907-2.909-1.981-3.925-.2-2.805-.071-5.635-.071-8.55h7.643C473.251,393.818,472.581,396.163,471.176,398.422Zm-1.247-4.242h-3.62l.42,2.072,3.2-.278Z"/>
        <path class="cls-1" d="M473.408,398.68c0-1.514,0-2.866,0-4.219.957-.954,1.915-1.907,3-2.989,2.327.71,5.354-1.375,7.3,1.885-.383.415-.864.935-1.152,1.248l-4.835-.822c-1.868,1.335-2.594,2.745-1.807,4.265,1.251,2.417,3.494,1.464,5.553.849l-3.343-.7c-.035-.571-.058-.948-.106-1.755l5.621-.321v4.341l-2.879,2.86C478.454,401.783,474.978,402.234,473.408,398.68Z"/>
        <path class="cls-1" d="M226.441,398.193v-1.7h5.611v4.33l-5.814,2.749-4.418-4.613v-4.567l3.061-2.693h6.045v2.826l-4.873-.819c-2.33,2.9-2.33,2.9-.458,5.707h4.278l.049-.543Z"/>
        <path class="cls-1" d="M431.148,391.6l2.794,2.88v5.6l-4.5,3.13c-3.191-.524-6.2-1.537-6.7-6.5.152-.463.645-1.971,1.234-3.769C425.906,391.467,428.46,391.412,431.148,391.6Zm-5.179,7.883h5.6v-3.919c-1.512-2.326-3.53-1.774-5.6-1.425Z"/>
        <path class="cls-1" d="M343.623,395.164v7.642l-1.689.426c-.274-.359-.674-.639-.678-.925q-.066-4.916,0-9.832c0-.308.362-.61.693-1.131,2.627,1.223,4.472,3.149,5.823,6.736l.7-6.429c.586-.042.961-.068,1.336-.093.232.269.662.533.666.8.046,3.451.03,6.9.03,10.453C345.975,399.566,345.975,399.566,343.623,395.164Z"/>
        <path class="cls-1" d="M185.864,401.412l-1.42,1.419-1.219-1.864h-5.033l-2.3,2.3-1.587-2.662c1.456-2.749,3.187-6.017,5-9.438C184.416,393.245,182.635,398.871,185.864,401.412Zm-4.642-4.344v-.58H178.9v.58Z"/>
        <path class="cls-1" d="M317.082,391.669h7.687l.331,2.082h-5.686l-.241,2.379h4.542v2.379h-4.657c.462.674.624,1.128.8,1.135,1.533.057,3.07.033,4.991.033.057,1.076.112,2.122.176,3.331h-6.556l-1.39-1.389Z"/>
        <path class="cls-1" d="M513.409,403.155l-2.176-2.176h-5l-.957,2.7c-.54-1.136-.92-1.935-1.562-3.287l4.87-9.163c5.2,1.891,3.285,7.667,6.578,10.175C514.494,402.071,513.952,402.613,513.409,403.155Zm-5.05-6.21.413.413a3.679,3.679,0,0,0,.362-.779c.021-.1-.234-.252-.362-.381Z"/>
        <path class="cls-1" d="M336.59,391.67h3.544c-.325,3.389.791,6.76-1.878,10.193l-4.3,1.593c-1.194-1.238-2.127-2.205-3.007-3.119v-8.62l2.122-.13v7.98h3.516Z"/>
        <path class="cls-1" d="M394.513,396.821v4.591l-3.929,1.992c-1.3-1.114-3.9-.431-4.254-3.659h7l-6.26-3.359c-1.312-2.185-.514-3.532.983-4.69h6.317c.067.648.122,1.172.22,2.114h-5.636l-.107.8Z"/>
        <path class="cls-1" d="M192.3,403.417c-3.414-3.613-.973-7.684-2.022-11.563h6.924c1.933,1.189,1.451,3.155,1.26,5.572-1.305.452-2.824.935-4.31,1.5C192.26,399.655,193.133,401.579,192.3,403.417Zm3.894-9.344h-3.285v1.932H196.2Z"/>
        <path class="cls-1" d="M453.819,398.9c1.455-3.5,1.22-6.339,4.284-8.09.1,1.995.73,3.87.132,4.425-2.381,2.212-1.953,6.128-5.56,7.923L448.163,391.8l2.692-.374Z"/>
        <path class="cls-1" d="M435.327,391.664h7.655c.122.527.242,1.047.455,1.966l-5.725.417c-.1.482-.216,1-.413,1.92l5.728.392.391,1.948-5.96.373v4.367h-2.131Z"/>
        <path class="cls-1" d="M282.134,400.037c1.8-1.171.972-2.822,1.094-4.135s.027-2.628.027-4.142h8.008v2.111h-5.59v2.337h5.646c-1.029,3.118-3.423,2.035-5.492,2.436l-.489,3.139C283.27,402.506,282.769,400.956,282.134,400.037Z"/>
        <path class="cls-1" d="M501.9,403.312c-3.566-3.721-.851-7.9-1.085-12.009l2.978,2.114a5.74,5.74,0,0,0-.747,4.914C503.411,399.692,502.392,401.419,501.9,403.312Z"/>
        <path class="cls-1" d="M459.683,391.676h1.7a3.209,3.209,0,0,1,.417,1.024c.03,8.238.026,8.238-2.113,10.447Z"/>
        <path class="cls-1" d="M397.752,403.445l-1.923-1.923v-9.731l1.923-.329Z"/>
        <path class="cls-1" d="M485.2,391.664h1.932v10.228H485.2Z"/>
        <path class="cls-1" d="M422.391,393.3a3.554,3.554,0,0,1-.778.362c-.1.021-.253-.234-.381-.362a3.6,3.6,0,0,1,.778-.363C422.105,392.916,422.262,393.171,422.391,393.3Z"/>
      </g>
    </g>
  </g>
</svg>
