<svg xmlns="http://www.w3.org/2000/svg" width="800" height="800" viewBox="0 0 800 800">
  <title>Facebook</title>
  <g id="Layer_2" data-name="Layer 2">
    <g id="Facebook">
      <path d="M692.913,0H107.087A107.088,107.088,0,0,0,0,107.087V692.913A107.088,107.088,0,0,0,107.087,800H395.213V510.631H298.464c0-17.736,0-33.582,0-49.428,0-18.061.448-36.138-.159-54.178-.337-9.992,3.526-13.2,13.143-13,22.066.441,44.147.125,66.222.117,5.408,0,10.815,0,18.554,0,0-11.341-.388-21.208.072-31.034,1.473-31.483.052-63.529,5.6-94.3,11.06-61.307,57.736-102.3,119.829-106.293,33.376-2.144,67.106.851,100.648,2.2,3.637.147,10.114,4.719,10.172,7.352.71,31.888.46,63.8.46,97.2-18.212,0-34.183-.221-50.144.083a246.37,246.37,0,0,0-28.463,1.925c-21.663,2.943-34.271,13.1-35.706,34.173-1.96,28.8-.489,57.839-.489,88.692,30.69,0,60.641-.016,90.592,0,20.806.015,20.589.009,17.84,20.658-3.571,26.823-7.182,53.655-9.9,80.571-1.126,11.163-5.107,15.444-16.846,15.079-26.943-.839-53.93-.266-81.756-.266V800H692.913A107.088,107.088,0,0,0,800,692.913V107.087A107.088,107.088,0,0,0,692.913,0Z"/>
    </g>
  </g>
</svg>
