<svg id="Layer_6" data-name="Layer 6" xmlns="http://www.w3.org/2000/svg" width="800" height="800" viewBox="0 0 800 800"><title>instagram</title><path d="M792.913,900H207.087A107.088,107.088,0,0,1,100,792.913V207.087A107.088,107.088,0,0,1,207.087,100H792.913A107.088,107.088,0,0,1,900,207.087V792.913A107.088,107.088,0,0,1,792.913,900ZM649.765,751.246c32.236-.016,59.431-12.214,81.018-35.727,17.661-19.239,25.406-42.851,25.421-68.893.053-96.177.235-192.356-.1-288.532-.118-34.038-12.7-62.4-40.885-83.14-18.927-13.926-39.8-21.673-63.192-21.71q-150.75-.24-301.5-.012a100.338,100.338,0,0,0-49.011,12.814c-36.125,20.11-54.2,52.457-54.691,92.7-1.143,93.786-.309,187.6-.428,281.4-.017,13.863.553,27.521,6.688,40.265,4.384,9.105,8.047,18.772,13.767,26.979,20.564,29.5,50.058,43.19,85.3,43.682,49.916.7,99.85.178,149.776.18Q575.847,751.254,649.765,751.246Zm-148.879-103.7c-82.253-.1-148.376-68.982-148.215-145.642.161-76.724,66.826-145.941,150.109-145.048,79.377.852,147.488,63.6,147.075,145.641C650.038,584.2,581.506,647.649,500.886,647.547ZM671.763,377.676c-23.686-.028-42.631-18.378-42.67-41.33-.039-23.341,18.909-41.717,42.982-41.685,22.451.03,41.293,18.875,41.333,41.342A41.807,41.807,0,0,1,671.763,377.676ZM608.172,502.705c.283-53.447-43.723-103.965-105.884-104.246C445.5,398.2,395.835,442.259,395.6,501.7c-.236,60.043,49.354,104.163,106.327,104.274C564.431,605.7,607.893,555.452,608.172,502.705Z" transform="translate(-100 -100)"/></svg>