<svg id="Twitter" xmlns="http://www.w3.org/2000/svg" width="800" height="800" viewBox="0 0 800 800">
  <title>twitter</title>
  <path d="M792.913,100H207.087A107.088,107.088,0,0,0,100,207.087V792.913A107.088,107.088,0,0,0,207.087,900H792.913A107.088,107.088,0,0,0,900,792.913V207.087A107.088,107.088,0,0,0,792.913,100Zm-43.2,251.438c-12.193,12.863-24.076,26.091-37.122,38.04-5.478,5.017-8.1,9.477-8.026,16.833.754,72.339-21.523,136.96-67.5,192.71C584.324,662.962,516.306,699.414,433.6,707.605c-64.341,6.373-124.364-7.377-180.224-39.732-1.924-1.114-3.78-2.345-5.662-3.531-.7-.443-1.39-.912-2.084-1.368,55.852,2.568,106.152-10.886,152.9-44.671-47.938-4.191-80.165-27.054-97.637-70.872l44.118-2.605.426-3.088c-23.348-6.531-43.693-17.635-58.759-36.947-14.825-19-22.553-40.311-22.574-64.846l42.867,11.92,1.518-2.255c-45.1-38.322-56.6-83.657-31.9-136.546l3.726-1.933c8.313,8.813,16.186,18.1,25.011,26.363,51.115,47.883,111.8,74.718,181.383,81.892,6.614.682,7.382-1.678,6.786-7.455-4.7-45.645,12.075-81.807,51.286-105.265,38.4-22.971,77.432-20.271,114.906,4.134,1.627,1.06,3.531,2.018,4.628,3.52,8.467,11.589,19.323,11.128,31.076,6.424,14.894-5.961,29.771-11.965,45.467-18.277-6.265,22.539-20.764,38.905-39,52.64q.48,1.314.959,2.627l51.543-13.986C752.644,346.658,751.6,349.448,749.715,351.438Z" transform="translate(-100 -100)"/>
</svg>
