<svg xmlns="http://www.w3.org/2000/svg" width="800" height="800" viewBox="0 0 800 800">
  <title>Vimeo</title>
  <g id="Layer_2" data-name="Layer 2">
    <g id="YouTube">
      <path d="M692.913,0H107.087A107.088,107.088,0,0,0,0,107.087V692.913A107.088,107.088,0,0,0,107.087,800H692.913A107.088,107.088,0,0,0,800,692.913V107.087A107.088,107.088,0,0,0,692.913,0Zm-9.2,272.584c-17.536,53.2-41.089,103.758-68.481,152.46-21.589,38.386-45.485,75.311-73.73,109.377-22.323,26.923-45.969,52.418-73.288,74.22-22.772,18.173-46.677,34.735-75.352,42.689-13.362,3.706-26.944,5.543-40.594,2.62-19.208-4.114-32.229-17.094-42.878-32.517-18.765-27.179-28.6-58.217-36.859-89.712-14.7-56.047-27.515-112.612-46.545-167.446-4.755-13.7-9.522-27.456-15.4-40.692-8.59-19.349-20.763-24.229-41.1-18.226-9.013,2.66-18.092,5.228-27.29,7.11-14.743,3.015-22.164-.471-30.306-13.215-.8-1.259-1.463-2.619-2.342-3.821-6.726-9.2-6.7-9.15,2.089-16.73,25.1-21.641,49.954-43.568,75.307-64.9,19.479-16.393,39.77-31.9,63.057-42.56a126.07,126.07,0,0,1,29.874-9.226c24.1-4.346,41.722,6.162,54.873,25.942,11.344,17.064,17.956,36.038,21.868,55.808,5.354,27.057,9.88,54.3,14,81.574,3.448,22.835,5.011,45.969,8.866,68.724,3.763,22.209,9.775,44.06,25.034,61.652,5.084,5.861,11.2,11.529,18,15.041,11.977,6.183,25.358,3.017,35.318-8.443A236.062,236.062,0,0,0,481.51,429.8c13.288-21.964,25.692-44.631,31.79-69.754a153.415,153.415,0,0,0,4.2-39.333c-.607-26.145-15.33-39.934-41.94-41.088-10.171-.441-20.378-.072-32.364-.072,5.327-11.83,9.318-22.9,15.027-33,26-45.974,64.1-78.571,113.954-95.324a121.932,121.932,0,0,1,88.585,3.62c21.879,9.464,32.231,27.844,34.139,51.126C696.8,229.084,690.847,250.935,683.711,272.584Z"/>
    </g>
  </g>
</svg>
