<?xml version="1.0" encoding="utf-8"?>
<!-- Generator: Adobe Illustrator 25.0.1, SVG Export Plug-In . SVG Version: 6.00 Build 0)  -->
<svg version="1.1" id="Layer_1" xmlns="http://www.w3.org/2000/svg" xmlns:xlink="http://www.w3.org/1999/xlink" x="0px" y="0px"
	 viewBox="0 0 683 558" style="enable-background:new 0 0 683 558;" xml:space="preserve">
<style type="text/css">
	.st0{fill:#FFFFFF;}
</style>
<g>
	<path d="M342.9,122.7c-20.5-0.4-37.8,6.7-49.7,24.4c-13.5,19.8-16.7,42.2-17.6,65.6c1.3,10.9,1.9,22,4.2,32.7
		c3.3,15.5,8.5,30.3,20,42c21.9,22.5,77.3,25.1,95.8-19.5c15.6-37.8,15.2-76.1-1.4-113.5C384.5,132.9,366,123.1,342.9,122.7z
		 M341.4,246.6c-18.2,0.1-32.1-14.4-32.5-33.6c-0.3-18.8,13.9-33.7,32.2-33.8c18.4-0.1,32.2,14.3,32.3,33.5
		C373.5,231.8,359.6,246.5,341.4,246.6z"/>
	<path d="M437,0H246C91.9,0,0,124.9,0,279s91.9,279,246,279h191c154.1,0,246-124.9,246-279S591.1,0,437,0z M223.5,493.9
		c-4.6-0.7-9.3-1-13.9-2.1c-5.7-1.3-11.3-3-16.9-4.8c-5.5-1.8-9.3-0.2-13.3,4.2c-3.7,4-8.2,7-13.3,8.7c-18,6.3-39,2.1-51.1-10.1
		c12.7-13,28.4-17.6,46.4-18.4c-6-4.7-11.7-10-18.2-13.8c-2.5-1.4-7.6-0.4-10.4,1.3c-17.2,10.2-53-2.1-61.1-20.2
		c10.3-8.4,16.4-9,49.8-4c-6.1-8.4-11-15.7-16.7-22.3c-1.6-1.8-5.8-2.6-8.5-2.1c-13.3,2.4-24.1-2.6-32.9-11.5
		c-6.5-6.6-11.7-14.5-17-22.2c-1.5-2.2-1.1-5.6-1.6-8.5c13.5-2.1,18-0.6,45.7,15.1c-3.9-11-7-20.7-10.8-30.1
		c-1.4-2.7-3.9-4.7-6.9-5.4c-15.3-2.3-23.4-13-30.3-25.2c-3.6-6.5-6.6-13.2-9.9-19.9v-14.1c18.8,5.2,31,18.3,40.9,36.1
		c-0.5-10-0.9-18.1-1.2-26.2c-0.2-5.9-2.1-10.1-7.7-13.3c-4.7-2.7-8.7-6.5-11.8-11c-10.1-15.5-13.2-33.1-13.1-51.4
		c0-1.7,0.9-3.5,1.7-6.2c16.8,9.4,23.6,24.9,30,41.1c6.2-14.8,5.2-23.2-3.9-34.2c-11.5-13.9-13.4-50.3-3-67.7
		c14.5,12.6,17.1,29.5,17.9,48.3c9.7-20.2,9.4-20.1,2.3-39.3c-2-5.4-3.7-11.7-2.7-17.1c2.3-13.4,6-26.5,9.6-39.6
		c0.6-2.2,3.2-3.9,5.4-6.5c5.6,7.8,7.6,15.5,8.2,23.7c0.6,8.1,0.5,16.2,0.7,24.4c5.1-4.4,9-8.6,11.1-13.5c1.7-4,2.8-9.3,1.6-13.2
		c-6.7-23,1.2-49.5,20.2-64.7c0.4-0.3,1.4,0.2,3,0.5c2.4,15.6,1.5,31.5-2.5,46.8c7.9-5.9,15.5-10.9,18.1-21.6
		c1.5-6.1,6.9-12.4,12.2-16.2c8.2-5.7,17.9-9.2,27-13.7l4.7,0c-4.5,20.8-15.9,35.4-37.5,40c-7.4,1.6-12.3,5.8-16.4,11l38.7,2.8
		c-8.7,17.1-25.6,27-55.6,17.1l-14.5,18.9c8.8-2.1,15-4.2,21.3-5c6.5-0.8,13.1-0.2,19.8-0.2c-3.3,15-20.8,27.8-36.8,27.9
		c-17.2,0.1-17.2,0.1-23.6,16.6c-0.8,2.1-1.5,4.1-2.6,6.9l40.4-18.5c0.6,9-3.7,14.3-6.7,19.7c-7.3,13.2-17.6,23.1-33.2,25.1
		c-6.4,0.8-10,3.9-11.3,9.9c-1.6,7.6-3,15.2-4.7,24l35.8-33.4c1.2,5,2.6,7.5,2.2,9.8c-3.6,20.8-11.9,38.6-31.4,49.5
		c-3.1,1.7-6.9,5.1-7.2,8.1c-1,8.3-0.3,16.7-0.3,27.3l29.5-42.7l3.1,0.8c0.7,3.6,2,7.2,1.9,10.7c-0.3,20.6-5.5,39.3-22,53.3
		c-4.6,3.9-6.7,8.7-5,14.6c2.4,8.6,5,17.2,7.7,26.1l15.8-50.8l3.3-0.4c1.7,3.9,4,7.7,5,11.8c3.9,16.7,4.6,33.1-3.2,49.2
		c-8.7,17.6-7.8,21.6,7.7,37.9c0-9.5-0.3-17.9,0.1-26.2c0.4-8.5,1.6-16.9,2.5-25.3l2.5-0.9c2.2,2.8,4.8,5.5,6.7,8.5
		c9.6,15.9,15.2,32.9,9.4,51.3c-4,12.6-1,21.1,10.4,27.5c4.3,2.4,8.1,5.7,12.8,8.1c-10.4-15.4-10.5-32.9-13-51.2
		c10.8,2.1,17.1,9,22.1,16.5c6.5,9.8,10.8,20.6,10.5,33c-0.3,13,0.4,13.7,12.3,17.6c5.2,1.7,10.6,2.7,15.8,4.3
		c3.7,1.2,7.3,2.8,11,4.2L223.5,493.9z M409.9,327.9C359,362.2,286.4,352.1,246,305.2c-22.9-26.6-34.8-57.2-34.7-92.3
		c0.1-65.9,43.2-119.7,106.9-133.3c49-10.5,103.9,13.8,131.8,58.4C490.4,202.7,473,285.3,409.9,327.9z M615.6,370.5
		c6.9-2.7,14.7-3.1,23.8-4.8c-1,5-1.1,7.7-2,10c-4.8,12.5-14.3,21.3-24.4,29.4c-7.1,5.7-15.7,6.9-24.5,5.5
		c-5.1-0.8-9.2-0.1-12.3,4.4c-4.9,7-9.9,13.9-16.2,22.8c18.7-8,35.4-8.7,53.1-0.6c-1.8,3.3-2.6,6-4.3,7.8
		c-15.8,16.7-38.5,21.1-59.9,12.6c-2.6-1-6.9-0.3-9.4,1.2c-6.3,3.9-12,8.6-20.5,14.9c20-0.9,36.7,1.9,49,16c-0.1,1,0,2.1-0.4,2.5
		c-16.8,14.3-49.1,13.6-64.3-1.8c-4.3-4.3-8.3-5.1-13.6-3.5c-6.7,2-13.5,3.9-20.3,5.6c-2.8,0.7-5.8,0.6-8.7,0.8l-1.1-2.8
		c3.1-1.5,6.1-3.4,9.3-4.5c6.6-2.2,13.5-3.9,20.2-6c6.8-2.1,9.4-6,9.1-13.9c-1-21.6,8.8-38.3,26.4-50.5c1.4-1,3.4-1.1,6.1-1.8
		c-1.1,18.5-3.4,35.6-11.6,52.1c7.2-5.7,15.1-10.7,21.2-17.4c2.5-2.8,2.5-9.6,1.3-13.9c-6.2-22.4-1.6-42.4,11.7-60.9
		c1.1-1.6,1.4-3.7,2.1-5.6l4.5,2.2l3.8,49.2c13.2-9.8,14.7-17.1,7.5-31.4c-10.8-21.2-9.5-42.6,0.5-66.9
		c9.3,18.3,15.9,34.7,18.8,53.1c2.4-7.7,4.8-15.5,7.2-23.2c2.3-7.1,0.2-12.4-5.3-17.7c-17.9-16.9-22.9-38.3-20-62.1
		c0.1-0.6,0.9-1.1,2.1-2.4c12,13.4,23.1,27,29.2,45.8c1.2-5.8,2.3-9.9,2.8-14.2c1.3-11.4,0.3-20.5-12.2-27.2
		c-17.8-9.5-30.4-36.9-25.6-54c13.7,8.2,25.4,17.6,35.6,30.5c-1.6-8.4-2.9-17-4.8-25.3c-1.7-7.2-8.4-7.5-14.1-8.4
		c-14.3-2.2-35.3-23.3-35.8-42.5c14.3,4,27.3,9,40.3,17.7c-3.4-7.7-6.3-15.8-10.6-22.9c-1.3-2.1-6.9-2.3-10.4-2
		c-19,1.8-36.8-9.3-43.7-27c12.8-3,25.2,0.3,37.5,3.2l1.3-2.1c-3-4.2-5.8-8.7-9.2-12.7c-3.4-4-7.6-2.2-11.8-0.7
		c-17.5,5.8-34-0.1-45.3-16.8c13.5-6.2,27-5.7,40.8-2.8c-5.7-6.8-13.2-11.7-21.7-14.1c-19.4-5.6-31.4-18.7-34.1-39.4h4.7
		c5.3,2.4,10.6,4.7,15.8,7.2c11.7,5.4,20.7,13.2,24.3,26.3c0.8,3.1,3.4,5.8,5.3,8.5c2.8,4,5.9,8,8.8,11.9l5.5,3.1
		c-4.7-17.7-11.6-34.3-5.4-52.9c8.5,3.3,12.7,9.9,16.4,16.4c8.6,15.2,15.5,30.7,6.6,48.7c-1.5,3-0.3,8.4,1.4,11.9
		c2.8,5.9,7.1,11.1,11.8,16.6c-2.7-17.6-1.1-34.1,7.8-49.7c2.3,1.2,3.3,1.4,3.6,2c9.6,17.9,14.9,36.7,10.9,57.3
		c-0.4,2.3-0.9,4.9-2.2,6.6c-8,10.5-4.5,20.5,1.7,31c2.9-15.6,5.1-31.5,19.6-43.2c1.4,2.7,3.3,5,3.9,7.6c3.8,15.4,4.1,31-0.1,46.3
		c-1.5,5.2-4.2,10-7.9,14c-5.5,5.6-7.7,11.2-6.2,18.9c1,5.3,0.8,10.8,1.7,16.6c6.4-16.6,14.9-31.4,32.1-43.2
		c0.7,6.1,2.3,10.9,1.6,15.3c-1.7,10.4-4,20.7-6.9,30.8c-2.8,9.7-8.7,17.1-17.3,22.8c-3.5,2.3-6.8,6.8-7.6,10.7
		c-1.7,8.7-1.6,17.7-2.5,28.4c10.4-15.9,21-29.6,40.2-34.6c0.4,3.1,1.4,5.8,0.9,8.1c-4,17.2-11.5,32.5-25.4,43.8
		c-3.7,3-9.2,3.8-13.5,6.3c-3.5,2-7.7,4.4-9.2,7.7c-3.8,8.4-6.2,17.5-9.8,27.9C601.7,378.3,608.2,373.3,615.6,370.5z"/>
</g>
<g>
	<path class="st0" d="M220.7,387.5h43.4v11.4h-14.6v34.8h-14.3v-34.8h-14.6V387.5z"/>
	<path class="st0" d="M266.6,410.7c0-7.5,2.1-13.4,6.3-17.6c4.2-4.2,10.1-6.3,17.6-6.3c7.7,0,13.6,2.1,17.8,6.2
		c4.2,4.1,6.2,9.9,6.2,17.4c0,5.4-0.9,9.8-2.7,13.3c-1.8,3.5-4.4,6.1-7.9,8.1s-7.7,2.9-12.8,2.9c-5.2,0-9.5-0.8-12.9-2.5
		s-6.2-4.3-8.3-7.9C267.7,420.6,266.6,416.1,266.6,410.7z M280.9,410.7c0,4.7,0.9,8,2.6,10.1c1.7,2,4.1,3.1,7.1,3.1
		c3.1,0,5.4-1,7.1-3c1.7-2,2.5-5.6,2.5-10.7c0-4.4-0.9-7.5-2.6-9.5c-1.8-2-4.1-3-7.1-3c-2.9,0-5.2,1-6.9,3.1
		C281.8,402.6,280.9,406,280.9,410.7z"/>
	<path class="st0" d="M322.1,387.5h23.7c5.2,0,9,1.2,11.6,3.7s3.9,6,3.9,10.5c0,4.7-1.4,8.3-4.2,10.9s-7.1,3.9-12.8,3.9h-7.8v17.1
		h-14.3V387.5z M336.5,407.2h3.5c2.8,0,4.7-0.5,5.8-1.4c1.1-1,1.7-2.2,1.7-3.7c0-1.5-0.5-2.7-1.5-3.7s-2.8-1.5-5.5-1.5h-4.1V407.2z"
		/>
	<path class="st0" d="M417.3,386.7v47h-13v-30.8c-2.1,1.6-4.1,2.9-6.1,3.9c-2,1-4.4,1.9-7.4,2.8v-10.5c4.4-1.4,7.8-3.1,10.2-5.1
		s4.3-4.4,5.7-7.3H417.3z"/>
	<path class="st0" d="M431.3,410.4c0-8.8,1.6-14.9,4.7-18.4c3.2-3.5,8-5.3,14.5-5.3c3.1,0,5.7,0.4,7.7,1.2c2,0.8,3.6,1.8,4.9,3
		c1.3,1.2,2.3,2.5,3,3.9c0.7,1.4,1.3,2.9,1.7,4.7c0.9,3.4,1.3,7,1.3,10.8c0,8.4-1.4,14.5-4.3,18.4c-2.8,3.9-7.7,5.8-14.7,5.8
		c-3.9,0-7-0.6-9.4-1.9c-2.4-1.2-4.4-3.1-5.9-5.5c-1.1-1.7-2-4-2.6-7C431.6,417.3,431.3,414,431.3,410.4z M444,410.5
		c0,5.9,0.5,9.9,1.6,12.1c1,2.2,2.5,3.2,4.5,3.2c1.3,0,2.4-0.5,3.4-1.4c1-0.9,1.7-2.4,2.1-4.3c0.5-2,0.7-5.1,0.7-9.2
		c0-6.1-0.5-10.3-1.6-12.4c-1-2.1-2.6-3.2-4.7-3.2c-2.1,0-3.7,1.1-4.6,3.2C444.5,400.7,444,404.7,444,410.5z"/>
</g>
</svg>
