<?xml version="1.0" encoding="utf-8"?>
<!-- Generator: Adobe Illustrator 25.0.1, SVG Export Plug-In . SVG Version: 6.00 Build 0)  -->
<svg version="1.1" id="Layer_1" xmlns="http://www.w3.org/2000/svg" xmlns:xlink="http://www.w3.org/1999/xlink" x="0px" y="0px"
	 viewBox="0 0 683 558" style="enable-background:new 0 0 683 558;" xml:space="preserve">
<style type="text/css">
	.st0{fill:#FFFFFF;}
</style>
<g id="Layer_2_1_">
	<g id="VirginiaStudentFilmFest">
		<path d="M246,0C91.9,0,0,124.9,0,279s91.9,279,246,279h191c154.1,0,246-124.9,246-279S591.1,0,437,0H246z"/>
		<g>
			<path class="st0" d="M201.4,54.3c-4.5,20.8-15.9,35.4-37.5,40c-7.4,1.6-12.3,5.8-16.4,11l38.7,2.8c-8.7,17.1-25.6,27-55.6,17.1
				l-14.5,18.9c8.8-2.1,15-4.2,21.3-5c6.5-0.8,13.1-0.2,19.8-0.2c-3.3,15-20.8,27.8-36.8,27.9c-17.2,0.1-17.2,0.1-23.6,16.6
				c-0.8,2.1-1.5,4.1-2.6,6.9l40.4-18.5c0.6,9-3.7,14.3-6.7,19.7c-7.3,13.2-17.6,23.1-33.2,25.1c-6.4,0.8-10,3.9-11.3,9.9
				c-1.6,7.6-3,15.2-4.7,24l35.8-33.4c1.2,5,2.6,7.5,2.2,9.8c-3.6,20.8-11.9,38.6-31.4,49.5c-3.1,1.7-6.9,5.1-7.2,8.1
				c-1,8.3-0.3,16.7-0.3,27.3l29.5-42.7l3.1,0.8c0.7,3.6,2,7.2,1.9,10.7c-0.3,20.6-5.5,39.3-22,53.3c-4.6,3.9-6.7,8.7-5,14.6
				c2.4,8.6,5,17.2,7.7,26.1l15.8-50.8l3.3-0.4c1.7,3.9,4,7.7,5,11.8c3.9,16.7,4.6,33.1-3.2,49.2c-8.7,17.6-7.8,21.6,7.7,37.9
				c0-9.5-0.3-17.9,0.1-26.2c0.4-8.5,1.6-16.9,2.5-25.3l2.5-0.9c2.2,2.8,4.8,5.5,6.7,8.5c9.6,15.9,15.2,32.9,9.4,51.3
				c-4,12.6-1,21.1,10.4,27.5c4.3,2.4,8.1,5.7,12.8,8.1c-10.4-15.4-10.5-32.9-13-51.2c10.8,2.1,17.1,9,22.1,16.5
				c6.5,9.8,10.8,20.6,10.5,33c-0.3,13,0.4,13.7,12.3,17.6c5.2,1.7,10.6,2.7,15.8,4.3c3.7,1.2,7.3,2.8,11,4.2l-0.9,3.8
				c-4.6-0.7-9.3-1-13.9-2.1c-5.7-1.3-11.3-3-16.9-4.8c-5.5-1.8-9.3-0.2-13.3,4.2c-3.7,4-8.2,7-13.3,8.7c-18,6.3-39,2.1-51.1-10.1
				c12.7-13,28.4-17.6,46.4-18.4c-6-4.7-11.7-10-18.2-13.8c-2.5-1.4-7.6-0.4-10.4,1.3c-17.2,10.2-53-2.1-61.1-20.2
				c10.3-8.4,16.4-9,49.8-4c-6.1-8.4-11-15.7-16.7-22.3c-1.6-1.8-5.8-2.6-8.5-2.1c-13.3,2.4-24.1-2.6-32.9-11.5
				c-6.5-6.6-11.7-14.5-17-22.2c-1.5-2.2-1.1-5.6-1.6-8.5c13.5-2.1,18-0.6,45.7,15.1c-3.9-11-7-20.7-10.8-30.1
				c-1.4-2.7-3.9-4.7-6.9-5.4c-15.3-2.3-23.4-13-30.3-25.2c-3.6-6.5-6.6-13.2-9.9-19.9v-14.1c18.8,5.2,31,18.3,40.9,36.1
				c-0.5-10-0.9-18.1-1.2-26.2c-0.2-5.9-2.1-10.1-7.7-13.3c-4.7-2.7-8.7-6.5-11.8-11c-10.1-15.5-13.2-33.1-13.1-51.4
				c0-1.7,0.9-3.5,1.7-6.2c16.8,9.4,23.6,24.9,30,41.1c6.2-14.8,5.2-23.2-3.9-34.2c-11.5-13.9-13.4-50.3-3-67.7
				c14.5,12.6,17.1,29.5,17.9,48.3c9.7-20.2,9.4-20.1,2.3-39.3c-2-5.4-3.7-11.7-2.7-17.1c2.3-13.4,6-26.5,9.6-39.6
				c0.6-2.2,3.2-3.9,5.4-6.5c5.6,7.8,7.6,15.5,8.2,23.7c0.6,8.1,0.5,16.2,0.7,24.4c5.1-4.4,9-8.6,11.1-13.5c1.7-4,2.8-9.3,1.6-13.2
				c-6.7-23,1.2-49.5,20.2-64.7c0.4-0.3,1.4,0.2,3,0.5c2.4,15.6,1.5,31.5-2.5,46.8c7.9-5.9,15.5-10.9,18.1-21.6
				c1.5-6.1,6.9-12.4,12.2-16.2c8.2-5.7,17.9-9.2,26.9-13.7L201.4,54.3z"/>
			<path class="st0" d="M538.5,107.8c-5.7-6.8-13.2-11.7-21.7-14.1c-19.4-5.6-31.4-18.7-34.1-39.4h4.7c5.3,2.4,10.6,4.7,15.8,7.2
				c11.7,5.4,20.7,13.2,24.3,26.3c0.8,3.1,3.4,5.8,5.3,8.5c2.8,4,5.9,8,8.8,11.9L538.5,107.8z"/>
			<path class="st0" d="M538.5,107.8l3.1,0.5l5.5,3.1c-4.7-17.7-11.6-34.3-5.4-52.9c8.5,3.3,12.7,9.9,16.4,16.4
				c8.6,15.2,15.5,30.7,6.6,48.7c-1.5,3-0.3,8.4,1.4,11.9c2.8,5.9,7.1,11.1,11.8,16.6c-2.7-17.6-1.1-34.1,7.8-49.7
				c2.3,1.2,3.3,1.4,3.6,2c9.6,17.9,14.9,36.7,10.9,57.3c-0.4,2.3-0.9,4.9-2.2,6.6c-8,10.5-4.5,20.5,1.7,31
				c2.9-15.6,5.1-31.5,19.6-43.2c1.4,2.7,3.3,5,3.9,7.6c3.8,15.4,4.1,31-0.1,46.3c-1.5,5.2-4.2,10-7.9,14
				c-5.5,5.6-7.7,11.2-6.2,18.9c1,5.3,0.8,10.8,1.7,16.6c6.4-16.6,14.9-31.4,32.1-43.2c0.7,6.1,2.3,10.9,1.6,15.3
				c-1.7,10.4-4,20.7-6.9,30.8c-2.8,9.7-8.7,17.1-17.3,22.8c-3.5,2.3-6.8,6.8-7.6,10.7c-1.7,8.7-1.6,17.7-2.5,28.4
				c10.4-15.9,21-29.6,40.2-34.6c0.4,3.1,1.4,5.8,0.9,8.1c-4,17.2-11.5,32.5-25.4,43.8c-3.7,3-9.2,3.8-13.5,6.3
				c-3.5,2-7.7,4.4-9.2,7.7c-3.8,8.4-6.2,17.5-9.8,27.9c8.5-5,15.1-10,22.4-12.8c6.9-2.7,14.7-3.1,23.8-4.8c-1,5-1.1,7.7-2,10
				c-4.8,12.5-14.3,21.3-24.4,29.4c-7.1,5.7-15.7,6.9-24.5,5.5c-5.1-0.8-9.2-0.1-12.3,4.4c-4.9,7-9.9,13.9-16.2,22.8
				c18.7-8,35.4-8.7,53.1-0.6c-1.8,3.3-2.6,6-4.3,7.8c-15.8,16.7-38.5,21.1-59.9,12.6c-2.6-1-6.9-0.3-9.4,1.2
				c-6.3,3.9-12,8.6-20.5,14.9c20-0.9,36.7,1.9,49,16c-0.1,1,0,2.1-0.4,2.5c-16.8,14.3-49.1,13.6-64.3-1.8
				c-4.3-4.3-8.3-5.1-13.6-3.5c-6.7,2-13.5,3.9-20.3,5.6c-2.8,0.7-5.8,0.6-8.7,0.8l-1.1-2.8c3.1-1.5,6.1-3.4,9.3-4.5
				c6.6-2.2,13.5-3.9,20.2-6c6.8-2.1,9.4-6,9.1-13.9c-1-21.6,8.8-38.3,26.4-50.5c1.4-1,3.4-1.1,6.1-1.8
				c-1.1,18.5-3.4,35.6-11.6,52.1c7.2-5.7,15.1-10.7,21.2-17.4c2.5-2.8,2.5-9.6,1.3-13.9c-6.2-22.4-1.6-42.4,11.7-60.9
				c1.1-1.6,1.4-3.7,2.1-5.6l4.5,2.2l3.8,49.2c13.2-9.8,14.7-17.1,7.5-31.4c-10.8-21.2-9.5-42.6,0.5-66.9
				c9.3,18.3,15.9,34.7,18.8,53.1c2.4-7.7,4.8-15.5,7.2-23.2c2.3-7.1,0.2-12.4-5.3-17.7c-17.9-16.9-22.9-38.3-20-62.1
				c0.1-0.6,0.9-1.1,2.1-2.4c12,13.4,23.1,27,29.2,45.8c1.2-5.8,2.3-9.9,2.8-14.2c1.3-11.4,0.3-20.5-12.2-27.2
				c-17.8-9.5-30.4-36.9-25.6-54c13.7,8.2,25.4,17.6,35.6,30.5c-1.6-8.4-2.9-17-4.8-25.3c-1.7-7.2-8.4-7.5-14.1-8.4
				c-14.3-2.2-35.3-23.3-35.8-42.5c14.3,4,27.3,9,40.3,17.7c-3.4-7.7-6.3-15.8-10.6-22.9c-1.3-2.1-6.9-2.3-10.4-2
				c-19,1.8-36.8-9.3-43.7-27c12.8-3,25.2,0.3,37.5,3.2l1.3-2.1c-3-4.2-5.8-8.7-9.2-12.7c-3.4-4-7.6-2.2-11.8-0.7
				c-17.5,5.8-34-0.1-45.3-16.8C511.2,104.4,524.8,104.8,538.5,107.8z"/>
		</g>
	</g>
</g>
<g>
	<path class="st0" d="M259.8,249.8c7.8,0,15.6,0,23.4,0c1.8,0,3.7-0.1,5.5,0c0.6,0,1.2,0.5,1.8,0.8c-0.5,0.4-0.9,1.1-1.5,1.2
		c-5.7,1.4-6.7,2.5-4.7,8c4,11.2,8.4,22.2,12.6,33.4c0.4-0.3,0.6-0.4,0.6-0.5c3.9-10.4,7.8-20.9,11.7-31.3c0.3-0.7,0.4-1.5,0.5-2.2
		c0.8-4.6-0.4-6.4-5-7.2c-1.8-0.4-1.8-0.4-1.9-2.1c2.5,0,5,0.1,7.5,0c10.2-0.3,20.5-0.8,30.7-1.1c3.5-0.1,3.5,0,3.5,3.4
		c0,1.6,0,3.2,0,5.3c1-0.8,1.7-1.3,2.3-1.8c5.1-4,10.5-7.1,17.3-7c10.1,0.2,15.8,5.4,16.1,15.6c0.2,9.1,0.1,18.1,0.1,27.2
		c0,2.7,0.2,5.4,0.4,8c0.4,3.7,1.5,4.9,5.1,5.8c1,0.3,2.6,0.1,1.8,2.2c-9.4,0-18.9,0-29.3,0c1-1,1.4-1.7,2-1.9
		c5.3-1.6,6.2-2.2,6.3-7.8c0.2-10.5,0.4-21-0.1-31.5c-0.4-8.2-6-11.7-14-9.9c-0.8,0.2-1.6,0.5-2.4,0.8c-5.4,2.1-5.8,2.5-5.8,8.3
		c0,9.1,0,18.1,0,27.2c0,1.9,0,3.9,0.2,5.8c0.5,4.9,1.3,5.7,6.1,7c0.7,0.2,1.3,0.8,2,1.2c-0.1,0.2-0.2,0.5-0.4,0.7
		c-9.6,0-19.2,0-28.8,0c-0.2-0.2-0.3-0.4-0.5-0.5c0.6-0.5,1.1-1.2,1.8-1.4c4.5-1.1,5.9-2.3,5.9-7c0.2-12.3,0.2-24.5,0-36.8
		c0-2.2-0.8-4.5-1.9-6.4c-2.7-4.6-8.5-4.6-11.4-0.1c-1.5,2.3-2.6,4.9-3.7,7.4c-7.8,18.3-15.5,36.6-23.4,54.8
		c-1.7,3.8-3.8,7.5-6.1,10.9c-2,3-5,4.7-8.7,4.9c-3.2,0.1-5.5-1.6-6.3-4.7c-0.8-3.2,0.2-5.9,3.3-7c3.1-1.1,6.5-1.5,9.8-1.8
		c1.8-0.1,2.7-0.7,3.5-2.1c5.1-9.3,5.1-9.3,0.9-19c-5.3-12.1-10.6-24.1-15.9-36.2c-0.7-1.7-1.6-3.3-2.4-5c-1.5-3.1-3.8-5.2-7.4-5.8
		c-0.7-0.1-1.3-0.9-2-1.4C259.5,250.3,259.6,250,259.8,249.8z"/>
	<path class="st0" d="M179.1,307.1c-12.5,0-25,0-37.4,0c-0.1-0.2-0.2-0.4-0.3-0.7c0.6-0.4,1.2-1,1.9-1.1c7.6-1.7,8.9-2.7,8.9-10.5
		c0.2-19.5,0-39,0-58.4c0-1-0.2-2-0.4-3c-0.9-4.3-2.2-5.6-6.6-6.4c-3.3-0.6-3.3-0.6-3.5-2.4c3.3,0,6.5,0,9.8,0
		c10.5,0.1,21,0,31.5,0.5c3.7,0.2,7.4,1.4,10.9,2.8c16.3,6.6,16.7,29.2,3.7,38c-6.2,4.1-13.1,5.9-20.3,6.9c-0.5,0.1-1-0.5-1.5-0.7
		c0.4-0.4,0.7-0.9,1.2-1.2c0.7-0.4,1.6-0.6,2.4-0.9c7.4-2.6,11.6-8,12.2-15.7c0.3-4.6,0.3-9.4-0.6-14c-1.4-7.5-6.3-11.7-13.9-12.4
		c-3.4-0.3-6.9,0.2-10.4,0.3c-0.1,1.2-0.2,1.8-0.2,2.4c0,19.7,0,39.3,0.1,59c0,2.8,0.3,5.5,0.6,8.3c0.4,4,2.8,6.1,6.7,6.8
		c1.4,0.3,2.8,0.4,4.2,0.8c0.6,0.2,1.1,0.8,1.6,1.1C179.4,306.7,179.3,306.9,179.1,307.1z"/>
	<path class="st0" d="M207.3,278.1c-0.6-25.6,23.1-36.3,41.9-27.1c8.4,4.1,12.4,11.5,13.8,20.4c1,6.6,0.4,13.1-2.5,19.2
		c-5.5,11.7-17.8,17.5-31.6,15c-12-2.1-20.3-11.7-21.3-24.4C207.4,280.1,207.4,279,207.3,278.1z M220.9,273.4c0.1,0,0.3,0.1,0.4,0.1
		c0.1,2.3,0.1,4.7,0.4,7c0.6,5.6,1.6,11.1,4.6,16.1c2.2,3.6,5.1,6.3,9.5,6.6c6.3,0.4,10.3-2.9,12-10.1c1.6-7,1.5-14.2,0.7-21.3
		c-0.6-5.5-1.8-10.8-5-15.4c-2.7-4-6.4-6.1-11.4-5.5c-5,0.6-7.8,3.9-8.9,8.4C222.1,263.9,221.7,268.7,220.9,273.4z"/>
	<path class="st0" d="M479.6,271.9c-13.2,0-26.2,0-39.1,0c-1.6,11.4,5.8,23.4,16,25.9c7.4,1.8,13.9,0,19.6-5.1
		c0.9-0.8,1.8-2,2.9-0.2c-9.9,15.7-33.2,18.4-45,5.1c-9.3-10.5-8.6-29.7,1.6-40.5c8.1-8.6,18-11.2,29.4-8.3
		c8.7,2.3,13.9,9.6,14.6,19.8C479.7,269.6,479.6,270.6,479.6,271.9z M466.2,268.4c-1.2-4.2-1.9-8.1-3.3-11.7c-1.1-3-3.6-4.9-6.9-5.6
		c-8.7-1.8-17.2,7.8-15.3,17.3C448.8,268.4,457,268.4,466.2,268.4z"/>
	<path class="st0" d="M395.5,255.8c-3,0-5.6,0-8.3,0c-0.5-1.4-0.3-2.3,1.2-2.7c0.1,0,0.1-0.1,0.2-0.1c6-1,9.3-4.9,11.3-10.4
		c1-2.7,2.8-5.2,3.8-7.9c0.9-2.4,2.4-3,5-2.2c0,5.9,0,11.9,0,18.1c5.2,0,10.2,0,15.3,0c0,1.7,0,3.3,0,5.1c-4.9,0-9.9,0-15.1,0
		c-0.1,1.1-0.2,1.9-0.2,2.7c0,11.3,0,22.5,0,33.8c0,0.3,0,0.5,0,0.8c0.2,8.4,5.9,11.6,13.3,7.6c0.6-0.4,1.3-0.7,2.1-1.2
		c0.5,0.6,0.8,1.1,1.2,1.5c-0.1,0.3-0.1,0.5-0.2,0.6c-4.8,4.3-10.3,6.9-16.9,6.6c-8.3-0.4-12.7-4.7-12.8-13
		c-0.1-12.1,0-24.2-0.1-36.3C395.5,257.9,395.5,257,395.5,255.8z"/>
	<path class="st0" d="M505.5,258.6c2.4-2.3,4.5-4.3,6.7-6.3c3.2-2.9,6.9-4.7,11.4-4.5c3.5,0.2,5.6,1.7,6.3,4.4
		c0.8,3.2-0.5,8.2-2.8,9.4c-1.1,0.6-2.6,0.8-3.8,0.5c-2.9-0.8-5.8-1.8-8.5-3c-1.5-0.7-2.7-0.7-3.9,0.2c-0.5,0.3-1,0.6-1.5,0.9
		c-2.9,1.3-4,3.4-3.9,6.7c0.4,9.1,0.2,18.3,0.4,27.4c0.2,5.1,1.6,6.5,6.7,7.5c0.8,0.2,1.7,0.2,2.5,0.5c0.6,0.2,1.1,0.8,1.6,1.2
		c-0.1,0.2-0.2,0.4-0.3,0.6c-10.8,0-21.5,0-32.3,0c-0.1-0.2-0.3-0.3-0.4-0.5c0.6-0.4,1.1-1.2,1.7-1.3c4.7-0.5,6.2-2,6.3-7.2
		c0.3-11.2,0.1-22.3,0.1-33.5c0-3.5-2.1-5.4-5.1-6.8c-1.1-0.5-2-1.3-2.9-2c1.2-0.5,2.3-1.2,3.5-1.4c5.1-1.1,10.2-2.2,15.3-3.2
		c2.4-0.5,3,0.1,3,2.5C505.5,253.2,505.5,255.8,505.5,258.6z"/>
	<path class="st0" d="M541.6,298.5c-0.1,4.4-3.6,7.8-7.9,7.7c-4.3-0.1-7.7-3.7-7.6-8c0.1-4.2,3.6-7.6,7.8-7.6
		C538.3,290.6,541.7,294.1,541.6,298.5z"/>
</g>
<g>
	<path class="st0" d="M204.7,178.4v-6h13.7v12.2c-2.6,1.8-4.9,3-6.9,3.6s-4.4,1-7.2,1c-3.4,0-6.2-0.6-8.3-1.7
		c-2.1-1.2-3.8-2.9-5-5.2c-1.2-2.3-1.8-4.9-1.8-7.9c0-3.1,0.6-5.8,1.9-8.2c1.3-2.3,3.2-4.1,5.7-5.3c1.9-0.9,4.6-1.4,7.8-1.4
		c3.2,0,5.5,0.3,7.1,0.9c1.6,0.6,2.9,1.5,3.9,2.7c1,1.2,1.8,2.7,2.3,4.6l-8.5,1.5c-0.4-1.1-0.9-1.9-1.8-2.5
		c-0.8-0.6-1.9-0.9-3.2-0.9c-1.9,0-3.5,0.7-4.6,2c-1.2,1.3-1.7,3.5-1.7,6.4c0,3.1,0.6,5.3,1.7,6.6c1.2,1.3,2.8,2,4.9,2
		c1,0,1.9-0.1,2.8-0.4c0.9-0.3,1.9-0.8,3.1-1.5v-2.7H204.7z"/>
	<path class="st0" d="M223.6,160.1h8.8v21.6h13.8v7.1h-22.7V160.1z"/>
	<path class="st0" d="M248.5,174.4c0-4.7,1.3-8.3,3.9-10.9c2.6-2.6,6.2-3.9,10.9-3.9c4.8,0,8.4,1.3,11,3.8c2.6,2.6,3.9,6.1,3.9,10.8
		c0,3.3-0.6,6.1-1.7,8.2c-1.1,2.1-2.8,3.8-4.9,5c-2.1,1.2-4.8,1.8-8,1.8c-3.2,0-5.9-0.5-8-1.5c-2.1-1-3.8-2.7-5.1-4.9
		C249.2,180.6,248.5,177.8,248.5,174.4z M257.4,174.5c0,2.9,0.5,5,1.6,6.2c1.1,1.3,2.5,1.9,4.4,1.9c1.9,0,3.4-0.6,4.4-1.9
		s1.6-3.5,1.6-6.7c0-2.7-0.5-4.7-1.6-5.9c-1.1-1.2-2.6-1.9-4.4-1.9c-1.8,0-3.2,0.6-4.3,1.9C257.9,169.5,257.4,171.6,257.4,174.5z"/>
	<path class="st0" d="M283,160.1h16.6c2.8,0,4.9,0.7,6.4,2.1c1.5,1.4,2.2,3.1,2.2,5.1c0,1.7-0.5,3.1-1.6,4.4
		c-0.7,0.8-1.7,1.4-3.1,1.9c2.1,0.5,3.6,1.3,4.5,2.5c1,1.2,1.5,2.7,1.5,4.5c0,1.5-0.3,2.8-1,4c-0.7,1.2-1.6,2.1-2.8,2.8
		c-0.7,0.4-1.9,0.7-3.4,0.9c-2,0.3-3.3,0.4-4,0.4H283V160.1z M291.9,171.3h3.8c1.4,0,2.3-0.2,2.9-0.7c0.5-0.5,0.8-1.2,0.8-2.1
		c0-0.8-0.3-1.5-0.8-2c-0.5-0.5-1.5-0.7-2.8-0.7h-3.9V171.3z M291.9,182.6h4.5c1.5,0,2.6-0.3,3.2-0.8c0.6-0.5,0.9-1.3,0.9-2.2
		c0-0.8-0.3-1.5-0.9-2c-0.6-0.5-1.7-0.8-3.3-0.8h-4.5V182.6z"/>
	<path class="st0" d="M331,184h-10l-1.4,4.7h-9l10.8-28.6h9.7l10.8,28.6h-9.3L331,184z M329.1,177.8l-3.2-10.3l-3.1,10.3H329.1z"/>
	<path class="st0" d="M344.5,160.1h8.8v21.6h13.8v7.1h-22.7V160.1z"/>
	<path class="st0" d="M384.5,160.1h21.9v6.2h-13v5h11.1v5.8h-11.1v11.7h-8.9V160.1z"/>
	<path class="st0" d="M425,184h-10l-1.4,4.7h-9l10.8-28.6h9.7l10.8,28.6h-9.3L425,184z M423.2,177.8l-3.2-10.3l-3.1,10.3H423.2z"/>
	<path class="st0" d="M456.9,177l7.8,2.3c-0.5,2.2-1.3,4-2.5,5.4c-1.1,1.5-2.5,2.6-4.2,3.3c-1.7,0.7-3.8,1.1-6.3,1.1
		c-3.1,0-5.7-0.5-7.6-1.4c-2-0.9-3.7-2.5-5.1-4.8s-2.1-5.2-2.1-8.7c0-4.7,1.3-8.4,3.8-10.9c2.5-2.5,6.1-3.8,10.7-3.8
		c3.6,0,6.4,0.7,8.5,2.2c2.1,1.5,3.6,3.7,4.6,6.7l-7.8,1.7c-0.3-0.9-0.6-1.5-0.9-1.9c-0.5-0.7-1.1-1.2-1.8-1.6
		c-0.7-0.4-1.5-0.5-2.4-0.5c-2,0-3.5,0.8-4.6,2.4c-0.8,1.2-1.2,3.1-1.2,5.6c0,3.2,0.5,5.3,1.4,6.5c1,1.2,2.3,1.8,4.1,1.8
		c1.7,0,3-0.5,3.8-1.4C455.8,180.2,456.5,178.8,456.9,177z"/>
	<path class="st0" d="M466.9,160.1h26.9v7.1h-9v21.6h-8.8v-21.6h-9V160.1z"/>
</g>
<g>
	<path class="st0" d="M185.8,365h16.5c2.7,0,4.9,0.7,6.3,2c1.5,1.4,2.2,3,2.2,5c0,1.7-0.5,3.1-1.6,4.3c-0.7,0.8-1.7,1.4-3.1,1.9
		c2,0.5,3.6,1.3,4.5,2.5c1,1.2,1.4,2.7,1.4,4.5c0,1.5-0.3,2.8-1,4c-0.7,1.2-1.6,2.1-2.8,2.8c-0.7,0.4-1.9,0.7-3.3,0.9
		c-2,0.3-3.3,0.4-3.9,0.4h-15.2V365z M194.7,376.2h3.8c1.4,0,2.3-0.2,2.9-0.7c0.5-0.5,0.8-1.2,0.8-2c0-0.8-0.3-1.5-0.8-1.9
		c-0.5-0.5-1.5-0.7-2.8-0.7h-3.9V376.2z M194.7,387.4h4.5c1.5,0,2.6-0.3,3.2-0.8c0.6-0.5,0.9-1.3,0.9-2.2c0-0.8-0.3-1.5-0.9-2
		c-0.6-0.5-1.7-0.8-3.2-0.8h-4.5V387.4z"/>
	<path class="st0" d="M216.7,365h23.6v6.1h-14.8v4.5h13.7v5.8h-13.7v5.6h15.2v6.4h-24V365z"/>
	<path class="st0" d="M243.9,384.1l8.4-0.5c0.2,1.4,0.6,2.4,1.1,3.1c0.9,1.2,2.2,1.7,3.9,1.7c1.3,0,2.2-0.3,2.9-0.9
		c0.7-0.6,1-1.3,1-2c0-0.7-0.3-1.4-1-2c-0.6-0.6-2.1-1.1-4.5-1.7c-3.9-0.9-6.6-2-8.3-3.5c-1.7-1.4-2.5-3.3-2.5-5.5
		c0-1.5,0.4-2.8,1.3-4.1c0.8-1.3,2.1-2.3,3.8-3.1c1.7-0.7,4-1.1,7-1.1c3.6,0,6.4,0.7,8.3,2c1.9,1.4,3,3.5,3.4,6.5l-8.3,0.5
		c-0.2-1.3-0.7-2.2-1.4-2.8c-0.7-0.6-1.7-0.9-2.9-0.9c-1,0-1.8,0.2-2.3,0.7c-0.5,0.4-0.8,1-0.8,1.6c0,0.5,0.2,0.9,0.6,1.2
		c0.4,0.4,1.4,0.7,3,1c3.8,0.8,6.6,1.7,8.3,2.5c1.7,0.8,2.9,1.9,3.6,3.2c0.8,1.3,1.1,2.7,1.1,4.2c0,1.8-0.5,3.5-1.5,5
		c-1,1.5-2.4,2.7-4.2,3.5c-1.8,0.8-4.1,1.2-6.9,1.2c-4.8,0-8.2-0.9-10.1-2.8C245.2,389.3,244.1,386.9,243.9,384.1z"/>
	<path class="st0" d="M272.1,365h26.7v7h-9v21.4h-8.8V372h-9V365z"/>
	<path class="st0" d="M316.2,365h21.8v6.1H325v5h11v5.7h-11v11.6h-8.8V365z"/>
	<path class="st0" d="M341.6,379.3c0-4.6,1.3-8.3,3.9-10.9c2.6-2.6,6.2-3.9,10.8-3.9c4.7,0,8.4,1.3,11,3.8c2.6,2.5,3.8,6.1,3.8,10.7
		c0,3.3-0.6,6.1-1.7,8.2c-1.1,2.1-2.7,3.8-4.9,5c-2.1,1.2-4.8,1.8-7.9,1.8c-3.2,0-5.9-0.5-8-1.5c-2.1-1-3.8-2.6-5.1-4.9
		C342.2,385.4,341.6,382.6,341.6,379.3z M350.4,379.3c0,2.9,0.5,4.9,1.6,6.2c1.1,1.3,2.5,1.9,4.4,1.9c1.9,0,3.4-0.6,4.4-1.8
		c1-1.2,1.6-3.4,1.6-6.6c0-2.7-0.5-4.6-1.6-5.9c-1.1-1.2-2.5-1.9-4.4-1.9c-1.8,0-3.2,0.6-4.3,1.9
		C350.9,374.3,350.4,376.4,350.4,379.3z"/>
	<path class="st0" d="M375.9,393.5V365h14.7c2.7,0,4.8,0.2,6.2,0.7c1.4,0.5,2.6,1.3,3.5,2.6c0.9,1.3,1.3,2.8,1.3,4.6
		c0,1.6-0.3,2.9-1,4.1c-0.7,1.1-1.6,2.1-2.8,2.8c-0.8,0.5-1.8,0.8-3.1,1.1c1,0.3,1.8,0.7,2.3,1c0.3,0.2,0.8,0.7,1.4,1.5
		c0.6,0.8,1,1.4,1.2,1.8l4.3,8.2H394l-4.7-8.7c-0.6-1.1-1.1-1.9-1.6-2.2c-0.6-0.4-1.4-0.7-2.2-0.7h-0.8v11.6H375.9z M384.8,376.5
		h3.7c0.4,0,1.2-0.1,2.3-0.4c0.6-0.1,1.1-0.4,1.4-0.9c0.4-0.5,0.6-1,0.6-1.7c0-0.9-0.3-1.6-0.9-2.1c-0.6-0.5-1.7-0.7-3.3-0.7h-3.9
		V376.5z"/>
	<path class="st0" d="M406.6,365h11.6l4.5,17.3l4.4-17.3h11.6v28.5h-7.2v-21.7l-5.6,21.7h-6.5l-5.5-21.7v21.7h-7.2V365z"/>
	<path class="st0" d="M461.8,388.8h-10l-1.4,4.7h-9l10.7-28.5h9.6l10.7,28.5h-9.2L461.8,388.8z M460,382.6l-3.1-10.2l-3.1,10.2H460z
		"/>
	<path class="st0" d="M470.5,365h26.7v7h-9v21.4h-8.8V372h-9V365z"/>
</g>
</svg>
