<?xml version="1.0" encoding="utf-8"?>
<!-- Generator: Adobe Illustrator 25.0.1, SVG Export Plug-In . SVG Version: 6.00 Build 0)  -->
<svg version="1.1" id="Layer_1" xmlns="http://www.w3.org/2000/svg" xmlns:xlink="http://www.w3.org/1999/xlink" x="0px" y="0px"
	 viewBox="0 0 683 396" style="enable-background:new 0 0 683 396;" xml:space="preserve">
<style type="text/css">
	.st0{fill:#FFFFFF;}
</style>
<g>
	<path class="st0" d="M650,0H33C14.8,0,0,14.8,0,33v330c0,18.2,14.8,33,33,33h617c18.2,0,33-14.8,33-33V33C683,14.8,668.2,0,650,0z"
		/>
</g>
<g>
	<path d="M483.4,197.2c4.3-0.4,6.5-3.9,6.2-7.9c-0.3-3.8-2.5-6.4-6.8-6.7c-5.9-0.4-11.8-0.1-18-0.1c0,5.2,0,9.9,0,14.9
		C471.2,197.4,477.4,197.8,483.4,197.2z"/>
	<path d="M523,289.5c-0.3-6.1-4.3-11.3-10.8-12.8c-9.7-2.1-19.6-1-29.8-0.8c0,9.9,0,19,0,28.8c9.1,0,17.4,0.1,25.6-0.1
		c1.8,0,3.7-0.7,5.4-1.4C519.5,300.9,523.2,295.5,523,289.5z"/>
	<path d="M280.7,277.5c-5.3,11.6-10.6,23.2-16.2,35.6c11.7,0,22.3,0,34,0c-5.6-12.3-10.9-23.9-16.2-35.5
		C281.7,277.6,281.2,277.6,280.7,277.5z"/>
	<path d="M434.5,277.4c-5.4,11.7-10.7,23.5-16.4,35.9c11.7,0,22.4,0,34.1,0c-5.6-12.3-10.9-24.1-16.2-35.9
		C435.5,277.4,435,277.4,434.5,277.4z"/>
	<path d="M492,220.2c0-4.1-2.6-8-6.8-8.4c-6.7-0.5-13.4-0.1-20.4-0.1c0,6,0,11.3,0,18c7.3-0.4,13.9-0.4,20.4-1.2
		C489.6,227.9,492,224.4,492,220.2z"/>
	<path d="M562,197.4c4.9-0.5,7.1-3.5,6.9-7.9c-0.2-4.2-2.3-6.6-7.2-6.9c-5.5-0.4-11.1-0.1-17.4-0.1c0,5.3,0,10.1,0,15.1
		C550.5,197.5,556.3,197.9,562,197.4z"/>
	<path d="M569.9,276.4c-7.3-1-14.8-0.2-22.8-0.2c0,18.6,0,36.8,0,55.2c7.3,0,14.2,0.5,20.9-0.1c14.4-1.3,24.5-12.1,25.1-26.3
		C593.7,290.6,584.3,278.4,569.9,276.4z"/>
	<path d="M411.1,196.4c-1.3-9.8-6.3-14.5-14.2-14.3c-7.6,0.2-13.3,5.8-13.8,14.3c7,0,14,0,20.9,0
		C406.2,196.4,408.4,196.4,411.1,196.4z"/>
	<path d="M650,0H33C14.8,0,0,14.8,0,33v330c0,18.2,14.8,33,33,33h617c18.2,0,33-14.8,33-33V33C683,14.8,668.2,0,650,0z M526.6,169
		c1.1-0.2,2.1-0.4,3.1-0.4c10.4,0,20.8-0.3,31.2,0.1c4.9,0.2,10,0.7,14.7,2.2c7.5,2.4,11.4,8.2,11.7,16c0.3,7.3-2.8,12.9-9.7,16
		c-0.7,0.3-1.5,0.7-3.2,1.6c1.6,0.8,2.3,1.2,3,1.4c8.9,3.4,12.4,7.8,12.6,15.8c0.2,8.3-4.4,15.3-12.3,18.4c-2.9,1.1-6,2.1-9,2.2
		c-13.3,0.3-26.6,0.3-39.9,0.3c-0.6,0-1.1-0.4-2.1-0.7C526.6,217.7,526.6,193.5,526.6,169z M447.1,168.1c15.1,0.5,29.9,0.3,44.5,1.6
		c11.3,1,17.3,9.6,16,20.5c-0.7,6.3-3.5,9.6-12.3,14.2c1.3,0.6,2.1,1.3,3.2,1.6c15.6,4.6,14.7,23.2,6,29.9
		c-3.8,2.9-8.7,4.8-13.3,6.1c-3.7,1-7.8,0.6-11.8,0.7c-10.6,0.1-21.1,0-32.3,0C447.1,217.4,447.1,193.2,447.1,168.1z M372,72
		c14.8,0,29.3,0,43.8,0c0.8,0,1.5,0.6,2.3,0.9c-0.2,0.7-0.5,1.3-0.7,2c-1.8,0.3-3.6,0.9-5.4,0.9c-9.3,0.1-18.7,0-28,0
		c-2.3,0-4.5,0-7.3,0c0,8.7,0,16.8,0,25.7c12.1,0,23.8,0,35.4,0c1.5,3.8-0.5,4.2-2.8,4.2c-7.7,0-15.4,0-23.1,0c-3.1,0-6.1,0-9.6,0
		c0,9,0,17.1,0,26c13.7,0.6,27.3-0.2,40.8,0.4c0.2,0.7,0.3,1.3,0.5,2c-1.1,0.7-2.3,1.9-3.4,1.9c-13.9,0.1-27.8,0.1-42.4,0.1
		C372,114.3,372,93.4,372,72z M368.2,180.4c8.9-12.2,21.7-14.7,35.6-12.8c13.5,1.8,22.7,9.6,26.8,22.8c1.9,5.9,2.9,12,2.2,18.9
		c-16.8,0-33.3,0-49.7,0c-1.4,7.4,2,13.8,8.4,16.6c8.8,3.8,16.4,0.7,25.6-11c4.7,2.4,9.7,4.9,14.9,7.6c-3.9,7.8-9.6,13.3-17.1,16.9
		c-10,4.7-20.4,5.4-30.9,2.3c-12.5-3.7-20-12.3-22.5-25C359,203.8,360.3,191.3,368.2,180.4z M304,72.2c4.1-0.7,4,1.5,4,3.7
		c0,6.2,0,12.5,0,18.7c0,2,0.2,4.1,0.3,6.6c13.8,0,27.1,0,41.5,0c0-5.5,0-10.8,0-16.1c0-3.3-0.2-6.7,0.1-10c0.1-1.3,1.6-2.4,2.4-3.6
		c0.5,0.2,1,0.4,1.4,0.6c0,21.2,0,42.4,0,63.4c-3.7,0.9-3.9-1.3-3.9-3.5c0-6.2,0-12.5,0-18.7c0-2.2,0-4.5,0-7.2
		c-14.1,0-27.4,0-41.8,0c0,4.9,0,9.6,0,14.2c0,3.9,0.1,7.9-0.1,11.8c-0.1,2.6-0.2,2.6-4,3.4C304,114.5,304,93.5,304,72.2z
		 M312.1,168.8c4.6,16.5,9.2,33.2,14.2,50.9c3.7-17.4,7.2-33.9,10.7-50.8c6,0,11.8,0,18.4,0c-6.2,24.5-12.4,48.9-18.7,73.4
		c-6.5,0-12.5,0-19.4,0c-4.3-14.9-8.6-30-12.9-45.1c-0.3-0.1-0.6-0.1-0.9-0.2c-4.3,14.9-8.6,29.9-13,45.1c-6.5,0-12.6,0-19.4,0
		c-6.2-24.2-12.4-48.5-18.8-73.5c6.8,0,12.4,0,18.7,0c3.6,17,7.2,33.9,11,51.5c4.6-17.7,8.9-34.5,13.3-51.5
		C301.1,168.8,306.2,168.8,312.1,168.8z M27.6,54.1c1.6-0.1,3.4-0.4,5.1-0.4c31.2-0.1,62.3-0.1,93.5-0.1c3.6,0,7,0.5,10.4,4.8
		c-3.9,1.2-7,2.6-10.1,3c-18.9,2.5-37.8,5-56.8,7.1c-11.6,1.3-23.2,1.9-34.8,2.7c-2.3,0.2-4.5,0-7.3,0
		C27.6,65.8,27.6,60.3,27.6,54.1z M27.5,89.3c17.8-2.9,99.4,6.9,106.9,14.4c-4,1.3-8,3.1-12.1,3.7c-17.6,2.6-35.3,5-53,7
		c-11.5,1.3-23.1,2-34.7,2.9c-2.2,0.2-4.4,0-7,0C27.5,107.7,27.5,98.5,27.5,89.3z M29.9,161.8c-0.6,0.1-1.2-0.1-2.3-0.2
		c0-8.6,0-17.2,0-26.7c31.4,2.5,62,4.8,92.6,7.4c5,0.4,9.9,2,15.3,3.2c-1.7,4.4-4.8,4.8-7.4,5.2c-10.8,2-21.6,4.2-32.5,5.3
		C73.7,158.4,51.8,160,29.9,161.8z M135.6,192.5c-3.9,1.5-6.5,3.1-9.4,3.6c-14.3,2.5-28.5,5.2-42.9,7c-16.9,2.1-33.8,3.3-50.8,4.8
		c-1.4,0.1-2.9,0-4.8,0c0-9.6,0-19,0-28.4C40.2,176.4,125.9,185.9,135.6,192.5z M92.9,245.3c-20.8,2.6-41.6,4.5-62.5,6.6
		c-0.8,0.1-1.6-0.1-3.1-0.1c0-9.1,0-17.5,0-25.9c12.9-3.9,99.5,3.3,107.5,9.4c-2.7,1.3-4.8,2.9-7.2,3.4
		C116.1,241.1,104.6,243.8,92.9,245.3z M213.8,335.4c-12.8,0-25.2,0-38.4,0c0-2.6,0-4.8,0-7c0-14.5-0.2-29.1,0.1-43.6
		c0.1-5.9-2.1-10.4-7.1-12.8c-6.9-3.3-14-6.1-21.3-8.5c-5.4-1.8-11.1-2.7-16.6-5c1.3-0.4,2.6-0.8,3.9-1.2c7.1-2.2,14.3-4.2,21.4-6.6
		c2.5-0.8,4.9-2.2,7.2-3.7c4.8-3.1,9.5-6.5,9.1-13.1c-0.4-6.4-5.6-8.9-10.6-11.1c-11.3-5-23.4-6.9-35.8-9.1c1.4-0.5,2.8-1.1,4.2-1.5
		c9.1-2.8,18.3-5.3,27.3-8.6c3.8-1.4,7.5-3.7,10.6-6.3c5.6-4.7,5.3-9.2-0.9-13c-3.8-2.4-8.1-4.3-12.4-5.6c-10.7-3.2-21.6-5.8-33-8.9
		c1.8-0.6,3.2-1.1,4.6-1.5c9-2.5,18.2-4.4,27-7.5c5-1.7,9.8-4.7,13.9-8.1c5.1-4.2,4.8-9.2-0.5-13.1c-4-2.9-8.5-5.3-13.2-6.9
		c-7.4-2.5-15.2-4.2-22.8-6.3c-1.3-0.4-2.6-0.8-5.1-1.6c7.4-1.8,13.7-2.9,19.7-4.8c5.5-1.8,10.8-4.2,16-6.8c2.3-1.2,4.3-3.3,5.9-5.4
		c3.1-4.2,2.7-8.4-1.4-11.5c-3.9-2.9-8.3-5.6-12.9-7.2c-9.6-3.4-19.4-6-29.7-9c1.8-0.5,3.2-1,4.7-1.4c9.2-2.6,18.4-5,27.5-7.8
		c2.7-0.8,5.3-2.5,7.7-4.1c4.3-2.9,6.6-6.8,5-12.8c15.3,0,30.4,0,45.9,0C213.8,147.6,213.8,241.2,213.8,335.4z M242.8,73.7
		c1-0.6,2-1.8,3-1.8c15.1-0.1,30.3,0,45.4,0.1c0.3,0,0.7,0.4,1.1,0.7c1,2.8-0.8,3.1-2.9,3.1c-6,0-12,0-19,0c0,20.3,0,40,0,59.8
		c-0.6,0.3-1.2,0.5-1.7,0.8c-0.9-0.9-2.4-1.6-2.7-2.7c-0.5-1.5-0.2-3.3-0.2-4.9c0-15.1,0-30.3,0-45.4c0-2.2-0.2-4.4-0.3-7.7
		c-7.7,0-15,0-22.2,0C243,74.9,242.9,74.3,242.8,73.7z M305.6,328.3c-1.9-3.2-3.2-6.7-4.9-10.4c-12.7,0-25.3,0-37.9,0
		c-3.2,5.9-6.5,11.8-9.8,17.6c-0.2,0.3-1.5,0-2.8,0c0.4-1.6,0.6-2.8,1.1-3.8c8.8-19,17.6-38,26.5-57c0.7-1.5,2.3-3.4,3.6-3.4
		c1.2-0.1,3.2,1.7,3.8,3.1c9.2,19.5,18.2,39.1,27.3,58.7c0.2,0.5,0.2,1.2,0.4,2.5C306.9,336.1,307.2,331.1,305.6,328.3z
		 M375.8,331.3c-4.8-14.1-9.6-28.3-14.4-42.5c-0.7-2.1-1.5-4.2-2.7-7.6c-1.2,2.3-2,3.6-2.4,5c-5,14.7-10,29.5-15,44.3
		c-0.7,2-1.7,4-3.2,7.4c-1.9-2.6-3.2-3.9-3.7-5.4c-7.1-19.5-14.2-39-21.2-58.6c-0.1-0.4,0-0.8,0-1.3c3.7-2.2,4.7,0.5,5.6,3.1
		c4.1,11.5,8.2,23.1,12.3,34.6c1.9,5.5,3.9,10.9,6.5,16.5c7.9-18.1,12.4-37.3,19.6-55.4c4.2,0.1,4.1,3.2,4.8,5.3
		c4.9,14.8,9.7,29.6,14.6,44.4c0.6,1.9,1.4,3.8,2.7,7c1.2-2.7,2-4.3,2.6-5.8c5.5-15.2,10.9-30.5,16.3-45.8c0.8-2.3,1.1-5.5,6-4.1
		c-7.8,21.4-15.4,42.6-22.9,63.3C376.6,336.6,376.6,333.5,375.8,331.3z M461.1,332.5c-2.2-4.9-4.5-9.7-6.8-14.7
		c-12.8,0-25.2,0-37.7,0c-3.3,6-6.5,12-9.9,17.8c-0.2,0.3-1.5-0.1-2.6-0.1c0.2-1.1,0.1-1.9,0.4-2.6c9-19.4,17.9-38.9,27-58.2
		c0.7-1.5,2.4-3.3,3.7-3.3c1.2-0.1,3.1,1.7,3.8,3.1c9.3,19.7,18.4,39.6,27.5,59.4c0.2,0.4,0.1,0.8,0.1,1.3
		C463.5,336.9,462.2,334.9,461.1,332.5z M521.8,333.1c-4.9-6.4-10.1-12.7-14.8-19.3c-2.7-3.9-5.8-5.4-10.4-5
		c-4.5,0.4-9,0.1-14.7,0.1c0,6.8,0,13,0,19.1c0,1.9,0.3,3.8-0.2,5.6c-0.3,1.1-1.9,1.8-2.9,2.7c-0.4-0.4-0.8-0.9-1.2-1.3
		c0-20.7,0-41.4,0-62.6c1.7-0.2,3.3-0.6,4.8-0.6c7.5-0.1,15-0.3,22.4,0.1c3.9,0.2,7.9,0.9,11.5,2.2c7.4,2.7,11.1,8.8,11,16.4
		c-0.2,7.7-4.2,12.8-11.1,15.8c-2.1,0.9-4.2,1.5-7.4,2.6c6.8,8.9,13.3,17.4,20,26C525.4,336.9,523.6,335.3,521.8,333.1z
		 M572.8,334.5c-9.7,1.8-19.7,1.3-30.2,1.9c0-22,0-42.9,0-65c10.2,0.4,20.2-0.2,29.9,1.4c15.4,2.6,25.1,15.2,25.2,30.4
		C597.9,318.7,588.2,331.7,572.8,334.5z M645.7,333.6c-5.7,3.2-11.8,3.7-18.1,2.8c-7.6-1.1-14.3-4-20.7-10.4
		c1.2-1.1,1.9-1.8,2.7-2.6c2.2,1.6,3.9,2.8,5.5,3.9c6.8,4.9,14.5,6.2,22.5,5c6.9-1,11.4-5.7,11.9-11.7c0.4-4.8-1.3-8.7-5.8-10.8
		c-3.6-1.6-7.4-2.6-11.1-3.8c-4.7-1.5-9.7-2.4-14.2-4.6c-11-5.3-12.1-19.5-2-26.5c9.3-6.4,19.3-5.2,29.1-0.9c2.2,1,4.1,2.5,6.2,3.8
		c-1.2,3.7-2.9,3.6-5.2,1.9c-5.2-3.8-11.2-5.6-17.6-4.9c-3.4,0.4-7.1,1.4-9.8,3.3c-7.3,5-6.7,14.7,1.1,18.9c4,2.1,8.6,3.1,12.9,4.5
		c3.9,1.3,8,2.2,11.8,3.8c5.8,2.4,9.2,6.9,9.3,13.5C654.3,325.3,651.5,330.3,645.7,333.6z M660.2,174.4
		c-6.9,9.6-13.7,19.3-20.8,28.8c-2.5,3.4-3.5,6.8-3.4,10.9c0.2,7.3,0.1,14.5,0,21.8c0,2-0.2,4-0.4,6.4c-6,0-11.5,0-18,0
		c0-4.4-0.5-8.8,0.1-13c1.9-14.6-1.8-27.2-11.9-38.2c-4.6-5-8-11.1-11.9-16.7c-1.1-1.6-2.1-3.4-3.4-5.6c2-0.1,3.2-0.3,4.4-0.3
		c5.4,0,10.7,0,16.3,0c5.2,8.2,10.3,16.1,15.9,24.9c5.6-8.7,10.7-16.6,15.9-24.6c6.8,0,13.3,0,20.8,0
		C662.3,171,661.3,172.7,660.2,174.4z"/>
	<path d="M571.3,220.2c-0.1-4.2-2.6-8-6.8-8.4c-6.7-0.5-13.4-0.1-20.3-0.1c0,6,0,11.3,0,18.1c7.3-0.4,13.9-0.4,20.4-1.3
		C569.1,227.8,571.3,224.5,571.3,220.2z"/>
</g>
</svg>
