<?xml version="1.0" encoding="utf-8"?>
<!-- Generator: Adobe Illustrator 25.0.1, SVG Export Plug-In . SVG Version: 6.00 Build 0)  -->
<svg version="1.1" id="Layer_1" xmlns="http://www.w3.org/2000/svg" xmlns:xlink="http://www.w3.org/1999/xlink" x="0px" y="0px"
	 viewBox="0 0 683 679" style="enable-background:new 0 0 683 679;" xml:space="preserve">
<style type="text/css">
	.st0{fill:#FFFFFF;}
</style>
<g>
	<circle cx="341.5" cy="339.5" r="334"/>
	<g>
		<path class="st0" d="M78.8,223.8c4.3,2,8.9,3.9,13.2,6.2c4.7,2.4,9.7,3.7,14.3,6.1c4.4,2.3,8.8,4.5,13.4,6.9
			c1.5-1.7,2.9-3.4,4.3-5.1c-3.3-1.6-6.1-3.1-9.1-4.4c-11.9-5.5-23.6-11-36.1-16.9C78.8,219.2,78.8,221.2,78.8,223.8z"/>
		<path class="st0" d="M571.9,212.4c-6.6,6-15.7,7.8-22.8,12.9c-1.1,0.7-2.6,1.2-3.8,1.8c0.7,1.6,1.5,2.9,2.2,4.5
			c0.9,0,2.3,0.4,2.8-0.1c2.8-2.9,6.6-3.4,10-4.8c3.4-1.3,5.6-5.3,9.9-5c6.7-4.8,14.3-8,21.6-11.9c0.6-0.2,1.1-1,1.3-1.1
			c-0.7-2.2-1.3-4-1.8-5.6C584.5,205.6,579.2,211,571.9,212.4z"/>
		<path class="st0" d="M80.5,208.7c5.3,2.7,10.8,5.5,16.3,8.3c3.6,1.7,7.2,3.7,10.4,5.8c4.7,2.9,9.8,5,14.6,7.6
			c3.8,2.1,3.9,2,6.9-2.8c-14.6-9.7-30.7-16.2-45.8-24.9c-0.5-0.2-1.5,0.1-2.3,0.1C80.5,204.8,80.5,206.6,80.5,208.7z"/>
		<path class="st0" d="M132.7,221.9c0.7-1.5,1.3-2.9,2.2-4.7c-17.6-10.4-34.9-20.7-52.8-31.4c0,2.7,0,4.5,0,7.1
			c12.2,7.8,25,16,38.8,22.8C124.5,218.5,127.3,222.5,132.7,221.9z"/>
		<path class="st0" d="M585.7,220.9c-8.1,3.7-16,7.5-24.3,10.9c-3.8,1.6-8.9,2.6-11,6.9c1.3,1.5,2.4,2.8,3.6,4
			c5-2.2,9.8-4.2,14.5-6.4c3.9-2,7.6-5.1,11.8-6.1c4.4-1.1,7.6-4.4,12.3-5.3c2.4-0.4,3.9-3.3,2.1-5.9
			C591,217.9,588.3,219.7,585.7,220.9z"/>
		<path class="st0" d="M595.1,231.5c-12.5,6-26,10-38.6,16.4c0.1,2.2,0.2,3.9,0.4,5.8c0,0.2,0.4,0.4,0.7,0.6c4.4-2,8.9-4,13.5-5.8
			s9.2-3.3,13.6-5.6c4.3-2.2,9.6-2.4,13.6-5.6C598.7,234.7,597.8,232.7,595.1,231.5z"/>
		<path class="st0" d="M560,264.3c2.6-0.6,4.5-1,6.5-1.6c4.8-1.6,9.7-2.3,13.8-5.4c4.2,1.1,7-3.1,10.7-3.1c4.2,0.1,6.7-3.2,11.3-3.9
			c-1-2.2-1.8-4-2.5-5.5c-13.6,4.5-26.6,8.9-39.8,13.5C560,259.5,560,261.4,560,264.3z"/>
		<path class="st0" d="M591.1,260.7c-7.1,3.7-15.1,4.5-22.4,7.7c-1.8,0.7-4.3,0-5.5,2.4c0.9,1.7,1.6,2.9,2.3,4.4
			c13.8-3.3,27.4-7.2,40.3-12c-0.5-2-1.1-3.8-1.7-5.5C599.9,259.5,595.9,261.4,591.1,260.7z"/>
		<path class="st0" d="M541.1,222c4.7,1.1,6.9-3.6,10.5-4.9c3.7-1.2,6.9-4,10.3-6c3.4-2,7.1-3.6,10.4-5.8c3.3-2.2,6-5,10.3-6.1
			c3.6-1,6.4-4.7,8.9-6.6c0-2.7,0-4.2,0.1-6.7c-17.9,11.8-35.9,21.1-52.8,31.7C539.8,219.3,540.4,220.6,541.1,222z"/>
		<path class="st0" d="M566.3,312.3c1-8.1-1.3-15.9-3.4-23.5c-1.5-5.5-2.7-11.1-4.3-16.7c-0.9-2.9-2.7-5.3-3.4-8.2
			c-4.3-16.8-13.4-31.6-21.8-46.4c-7.5-13-17.3-24.4-27.3-35.3c-7.2-7.7-15.4-14.5-23.2-21.7c-4.5-1-6.5-5.6-10.4-7.7
			c-7.1-3.8-13.4-9.2-20.3-13.2c-8-4.5-16.3-8.6-24.7-12.1c-8.9-3.7-18.1-6.7-27.4-9.4c-8.2-2.4-16.4-5.5-25.2-5.1
			c-0.7,0-1.7,0.2-2.3-0.1c-5.5-2.6-11.5-2.6-17.3-2.9c-12-0.7-24.1-0.2-36.1-0.2c-1.5,0-3.2-0.2-4.7,0.2c-5.6,2-11.5,1.7-17.3,2.8
			c-3.9,0.9-8.1,1-12.1,1.7c-2.2,0.4-4.3,1.3-6.4,2.2c-2.1,0.7-4,2.2-6.1,2.4c-8.2,1.1-15.6,4.9-23.4,7.5c-12.2,4-23,10.8-33.9,17
			c-13.5,7.8-25.5,18.3-37.1,28.8c-7.3,6.7-13.7,14.6-20.6,21.9c-0.4,0.4-0.9,0.6-1.1,1.1c-5.9,9.7-13.5,18.3-19,28.3
			c-6.2,11.4-12.4,22.8-16.5,35c-2.2,6.6-4.4,13.2-6.4,19.8c-2.4,8-5.1,15.9-4.9,24.5c0,0.6,0.2,1.3,0,1.6c-3.1,2.9-0.1,7.2-1.8,9.7
			c-2.6,3.7-1.2,7.2-1.3,10.8c-0.2,10.9,0.1,21.9-0.1,33c-0.1,5.8,2.9,11.1,1.7,17c3.7,3.2-0.5,8.5,3.1,11.6
			c-0.5,5.3,2.6,9.8,3.3,14.7c1.6,10.7,5.6,20.7,10,30.4c4,8.9,8.8,17.8,13.8,26.5c8.3,14.3,18.1,27.3,29.2,39.3
			c8.3,9.2,18,17.1,27.1,25.7c0.4,0.4,0.6,0.9,1.1,1.1c13.4,7.3,25.1,17.5,39.3,23.5c8.7,3.6,17,8.2,26,11.1
			c7.1,2.3,14.6,3.8,21.7,6c12.1,3.7,24.5,4.7,36.9,5.9c7.7,0.7,15.6,0.2,23.3,0.1c7.5-0.1,15.1-0.1,22.7-1.2
			c7.8-1.1,15.7-2.3,23.5-3.7c5.1-0.9,10.2-2.6,15.2-4.2c8.9-2.9,18.4-4.8,26.3-10.2c6.2-0.4,11.5-4,16.3-7.1
			c8.7-5.6,18.3-10,26.1-17c5.6-5,12.6-8.8,18.1-14.1c12.4-12,24.9-23.9,34.4-38.7c3.3-5.1,6.9-10,10-15.2
			c3.1-5.1,6.2-10.2,8.5-15.8c2.6-6.4,5.9-12.5,8.7-18.9c6.6-15.2,9.8-31.4,13.5-47.4c1.7-7.5,1.3-15.6,1.7-23.4
			c0.2-4.5,0-9.1,0-15.1C567,331.1,569.2,321.5,566.3,312.3z M241.4,323.5c3.1,0.6,5.9,1.3,9.4,2.1c-0.7,2.8,1.6,6.4-2.4,8.9
			c-2.1,0-4.4,0-7,0C241.4,330.8,241.4,327.3,241.4,323.5z M209.1,325.8c2.9-4.9,6.1-1.2,9.3-0.2c0,2.8,0,5.6,0,8.7
			c-3.1,0-6.1,0-9.3,0C209.1,331.3,209.1,328.4,209.1,325.8z M177,322.9c2,0.6,3.4,1.2,5,1.7c1.3,0.5,2.9,0.6,4.3,0.9
			c0,2.9,0,5.6,0,8.7c-2.9,0-6,0-9.3,0C177,330.8,177,327.3,177,322.9z M144.8,325.4c2.7-4.9,6-0.5,9.1-0.1c0,3.3,0,6.1,0,9.1
			c-3.1,0-5.9,0-9.1,0C144.8,331.7,144.8,328.9,144.8,325.4z M282.5,450.5c-4.3,0-8.5,0-12.7,0c-3.9,0-8,0-12,0c-4.3,0-8.6,0-12.9,0
			c-3.9,0-8,0-12,0c-4.3,0-8.6,0-12.9,0c-3.9,0-8,0-12,0c-4.3,0-8.6,0-12.9,0c-3.9,0-8,0.1-12-0.1c-4-0.4-8.3,1.5-12.1-1.5
			c-3.4,3.1-7.6,1.2-11.4,1.5c-4.3,0.4-8.6,0.1-12.6,0.1c-0.9-0.9-1.3-1.3-2.2-2.2c0-32.1,0-64.3-0.1-97.4c46.1,0,91.8,0,137.8,0
			C282.5,384,282.5,416.9,282.5,450.5z M282.6,346c-12.5,0-25.1-0.1-37.6,0c-2.7,0-5.5-0.7-8.3,1.3c-1.3,1.1-4.5,0.2-6.7-0.5
			c-4.7-1.5-9.1-1.5-13.4,0.7c-0.9-0.6-1.6-1.2-2.6-1.8c-1.2,0.6-2.2,1.2-3.3,1.8c-5.3-2.8-10.7-1.8-16-1.1
			c-1.6,0.1-3.3,1.3-4.4,0.9c-7.2-2.8-14.7-1.3-21.9-1.3c-5.4,0-10.9-1.2-16.4,1c-1.8,0.7-4.7-1.1-7.2-1.8c0-2,0-4.3-0.1-6.9
			c45.9,0,91.9,0,138.1,0C282.6,340.7,282.6,343.1,282.6,346z M282.9,332.3c-2.6,3.9-6.1,1.7-9.4,2.4c0-3.6,0-6.4,0-9.2
			c2.1-0.6,4.2-1.3,7-2.2c0.5,0.5,1.5,1.3,2.4,2.3C282.9,327.9,282.9,330.1,282.9,332.3z M302.7,326.5c3.3-3.1,7.6-4.3,10.7-7.7
			c2.9-3.3,8.2-4.4,12.2-6.9c3.8-2.5,7.4-5.3,10.7-7.7c8.9,3.3,15.3,10.2,23.2,14.6c8.1,4.5,15.6,9.8,24.5,15.6c-32,0-62.5,0-94.7,0
			C294.9,331.3,299.5,329.6,302.7,326.5z M291,338c31.1,0,62,0,93.1,0c0,1.5,0,2.8,0,4.3c-31.5,0-63,0-95.2,0
			C289.7,340.6,290.4,339.4,291,338z M387.3,350.8c0,32.1,0,64.2,0,96.3c-1.5,0-2.8,0-4.3,0c0-32.1,0-64.1,0-96.3
			C384.4,350.8,385.8,350.8,387.3,350.8z M381.1,379.7c0.1,20.3,0,40.7,0,61c0,2.1,0,4.2,0,6.4c-7.1,0-13.7,0-20.9,0
			c0-2.3,0-4.7,0-7c0-26.5,0-52.9-0.1-79.4c0-6.2,1.2-11.1,8-13.2c4.9,1.2,7.8,5.5,10.9,8.3C382.2,364,381,371.9,381.1,379.7z
			 M356.6,350.9c0,32,0,64.1,0,96.2c-0.9,0-1.6,0-2.7,0c0-32,0-64.1,0-96.2C354.9,350.9,355.6,350.9,356.6,350.9z M321.5,366.1
			c-0.1-4.7,2-8.3,4.2-11.9c2-3.3,5.5-5.3,9.8-5c2.1,0.1,4.2,0,7.1,0c2.4,2.5,5.3,5.3,7.8,7.8c0,30.7,0,60.1,0,89.9
			c-9.6,0-19,0-28.9,0c0-1.1,0-2.1,0.1-3.1C321.6,417.9,321.7,392.1,321.5,366.1z M313.6,397.7c0,16.3,0,32.6,0,49.2
			c-3.6,0.7-7,0.2-10.3,0.4c-3.4,0.1-7,0-10.9,0c0-2.8,0-5.5,0-8.1c0-23.9,0.1-47.7,0-71.5c-0.1-7.6,1.7-14.1,9.4-17.6
			c1.1-0.5,1.6-2.2,2-2.7c8.6,1.1,8.9,8.2,12.7,12.9c0-3.1,0-6.1,0-9.3c1.3,0,2.1,0,3.1,0c0,32,0,63.9,0,96.2c-0.9,0-1.6,0-3.1,0.2
			c0-16.5,0-33,0-49.6C315.3,397.7,314.6,397.7,313.6,397.7z M286.1,358.9c0-3.4,0.6-6.2,4.7-9.6c0,33.7,0,65.7,0,97.8
			c-1.6,0-2.8,0-4.4,0c0-0.9-0.2-1.6-0.2-2.3C286.1,416.2,286.2,387.5,286.1,358.9z M386.6,453.7c-33.2,0-66.4,0-99.6,0
			c-0.1,0-0.4-0.4-0.7-0.6c0-1.1,0-2.3,0-3.9c33,0,65.8,0,99.1,0c0.6,0.7,1.6,1.8,2.5,2.9C387.3,452.9,386.9,453.7,386.6,453.7z
			 M519.7,325.4c3.1-0.6,5.9-4.5,9.2,0.4c0,1.7,0,4,0,6.6c-3.2,3.2-4.7,3.3-9.2-0.1C519.7,330.1,519.7,327.8,519.7,325.4z
			 M489.3,325.2c1.1-0.4,2.2-0.9,3.3-1.3c-0.1,0-0.1-0.1-0.1-0.2c0.2-0.1,0.5-0.2,0.6-0.2c5.6,3.3,11.9,0.4,18,1.8
			c0,2.8,0,5.9,0,8.9c-4.3-0.9-4.3-0.9-5-7.3c-4.2,1.2-2,5.3-3.1,7.7c-3.8,0.2-4.3-2.6-5.4-6.1c-0.5,2.8-0.7,4.3-1,5.8
			c-2.3,0-4.7,0-7.3,0C489.3,331.3,489.3,328.2,489.3,325.2z M455.1,325.8c0.9-1,1.6-1.7,2.3-2.4c2.2,0.7,4.3,1.3,6.9,2.2
			c0,2.7,0,5.9,0,9.2c-3.3-0.5-6.9,1.2-9.2-2.4C455.1,330.2,455.1,327.9,455.1,325.8z M424.9,324.2c1.5-0.1,3.3-1,3.9-0.4
			c1.8,1.8,4,1,6,1.1c1.8,0.1,3.7,0,5.6,0c0,2.8,0,5.1,0,7.7c-1.1,0.7-2.3,1.5-4.3,2.8c-0.2-3.4-0.5-6.2-0.7-9.7
			c-2.3,3.1,0.4,6.9-4,8.6c-1.5,0-3.8,0-6.5,0C424.9,330.8,424.9,327.3,424.9,324.2z M390.7,325.7c0.9-0.9,1.6-1.6,2.3-2.3
			c2.7,0.7,5.3,1.3,8.2,2.1c-0.2,1.1-0.7,2.6-0.9,4.2c-0.1,1.6,0,3.2,0,5.3c-3.4-0.9-6.7,1.1-9.7-2.9
			C390.7,329.8,390.7,327.8,390.7,325.7z M526.7,450.3c-44.3,0-88.9,0-133.6,0c-0.5-0.5-1.1-1.1-2-2c0-32.1,0-64.4,0-97.5
			c45.9,0,91.6,0,138.1,0c0,2.3,0,4.7,0,7c0,28.4,0,56.8,0,85.1C529.1,445.5,530,448.4,526.7,450.3z M527,347.1
			c-2.8-0.5-5.5-1.3-8.2-1.3c-12-0.1-24.1-0.1-36.1,0c-2.6,0.1-4.9-0.1-7.6,1.2c-2.3,1.1-5.9,0.4-9.1-0.5c-5.6-1.5-11.8-2-17.9,1
			c-1-0.7-1.6-1.2-2.5-2.1c-3.1,2.2-6.4,3.2-9.9,0.1c-0.9,0.5-1.6,1.1-2.6,1.7c-6.5-2-13.2-2.5-19.8,0c-7-2.3-13.7-1.8-20.8-0.5
			c-2.7-3.7-2.7-4.5,0.5-8.8c45.2,0,90.4,0,136.2,0C528.5,341.2,530.7,344.8,527,347.1z"/>
		<path class="st0" d="M588.6,469.7c-4.3-2.5-8.5-5.1-13-7.2c-9.4-4.4-18.3-9.9-27.9-14c-0.9,1.7-1.6,3.2-2.6,5.1
			c11.8,6.6,23.8,12.6,35.4,19.2c3.8,2.2,8.1,3.6,12.3,5.3C594.5,473.3,591.6,471.4,588.6,469.7z"/>
		<path class="st0" d="M540.3,464c8.1,6.7,17.4,10,25.6,15.3c8.1,5.3,16.5,10,25.7,15.6c0.1-2.9,0.2-4.9,0.4-7.1
			c-16.7-9.8-32.5-20.5-50.1-29.6C541.2,460.5,540.7,462.4,540.3,464z"/>
		<path class="st0" d="M83.2,494.2c17-10.7,35.3-19.6,51.9-31.4c-1.6-1.6-2.7-2.7-4.2-4.2c-16.5,9.6-33.1,19-49.5,29.3
			c0.2,2.1,0.4,3.8,0.6,5.6C82.1,493.7,82.6,493.9,83.2,494.2z"/>
		<path class="st0" d="M514.9,390.2c-3.4-1.3-5-2-6.2-2.4c-2.8,0.7-5.3,1.2-8.7,2.1c-1.2,1.7-2.9,4.3-4.7,6.9
			c2.8-0.7,4.5-2.6,6.5-4.2c2.7-2.2,5.9-1.8,8-1.6c4.5,1.8,7.6,3.9,8.9,8c0,0.1,1.3-0.1,2.5-0.4c-1.2-1.8-2-3.7-3.2-5.1
			C516.6,391.7,515,390.4,514.9,390.2z"/>
		<path class="st0" d="M536.5,212.7c18.9-12.1,37.2-24,54.4-35c2.9-10.2,2.7-18.4,6.2-26.6c-3.4,0-6.4,0.2-9.2,0
			c-3.1-0.2-6.4-0.4-8.9-1.7c-3.3-1.6-6.2-1.5-9.1-0.1c-16.2,13.5-32.5,26.9-49.6,41C525.6,197.5,531.3,204.9,536.5,212.7z"/>
		<path class="st0" d="M92.8,458c2.7-1.6,5.5-3.7,8.6-4.2c3.6-0.5,5-4.9,8.9-3.8c4.3-2.7,9.7-3.6,13.7-7.8c-1.5-1.5-2.9-3.1-3.7-3.9
			c-5.8,1.1-9.6,4.4-14.5,6c-4.8,1.5-9.1,4.8-14,6.6c-4.5,1.7-8.8,4.5-13.8,7.1c0.9,1.8,1.7,3.8,3.3,7.1
			C84.8,459.7,89.3,459.9,92.8,458z"/>
		<path class="st0" d="M105.6,465.9c7.5-3.9,15.1-7.6,23.3-11.8c-0.9-1.8-1.8-3.8-2.7-5.6c-3.1,1.1-5.5,1.6-7.6,2.9
			c-5.6,3.7-11.6,6.7-17.6,9.7c-7.1,3.4-13.8,7.5-21.3,11.4c1,2,2.1,3.7,3.1,5.5C90.7,473.9,98.2,469.9,105.6,465.9z"/>
		<path class="st0" d="M594.9,457.4c-13.7-6.6-27.4-13.1-41.3-19.6c-1.3,1.6-2.7,3.2-4.2,4.9c5,2.7,9.4,6.1,14.2,7.3
			c4.9,1.2,9.3,3.6,13.5,6c4.5,2.7,10.2,3.1,14,7.1c0.5,0.7,2.5,0.1,3.8,0.1C594.9,461,594.9,459.2,594.9,457.4z"/>
		<path class="st0" d="M483.7,154.3c8.6-11.4,17.3-23,26-34.7c-1-0.5-2.1-0.6-2.8-1.2c-0.9-0.9-1.5-2.1-2-2.7
			c-8.9,11.8-17.5,22.9-26.2,34.4C480.4,151.6,481.9,152.8,483.7,154.3z"/>
		<path class="st0" d="M385.9,107.5c0,0.4-0.1,0.6,0,0.9c0.1,0.2,0.4,0.4,0.6,0.7c1.7,0,3.6,0,5.1,0c1.2-5,3.2-9.8,3.7-14.7
			c0.5-5,2-9.8,3.3-14.7c1.3-4.8,2.7-9.7,3.2-14.7c0.5-5,2.2-9.7,3.3-14.6c-1.6-1.1-1.6,1-2.5,1c-1.2,0-2.4,0-3.3,0
			c-0.7,1.6-1.2,2.4-1.6,3.2c-4.7,16.9-7.5,34.3-11.9,51.3C385.8,106.4,385.9,107,385.9,107.5z"/>
		<path class="st0" d="M369.4,105.3c0.7-8.6,0.7-16,2.3-23c0.9-3.7,1-7.1,1.3-10.7c0.5-3.8,1.1-7.6,1.6-11.4c0-0.7-0.4-1.5-0.5-2
			c-2.1,0-3.9,0-5.8,0c-0.6,4.2-1.5,8.2-1.8,12.2c-0.6,7-1.1,14-1.6,20.9c0,0.2,0.1,0.6,0,0.7c-3.1,4.3-1,8.9-1.8,14.7
			C365.7,106.2,367.5,105.8,369.4,105.3z"/>
		<path class="st0" d="M378.7,107.4c0.5-0.6,1.7-1.2,2-2.1c0.9-3.6,1.3-7,1.8-10.5c0.2-1.5,0.1-3.1,0.6-4.5
			c1.5-4.9,3.1-9.7,2.7-14.9c-0.1-1.7,0.5-3.4,1-5.1c1.5-4.8,1.7-9.9,2.8-16.8c-3.4,1.3-5.3,2.2-6,2.4c-1.6,6.5-3.6,11.9-4,17.3
			c-0.5,5.4-2.1,10.4-3.2,15.6c-1.1,5.5-1.1,11.3-1.7,16.7C376,106,377.3,106.6,378.7,107.4z"/>
		<path class="st0" d="M442.1,87.9c-1.8,3.7-2.2,8-4.5,11.8c-2,3.2-3.3,7.1-5,10.7c-1.8,3.7-2.9,7.7-4.4,11.5
			c1.6,0.7,3.4,1.5,5.5,2.3c3.4-5.6,4.2-12.4,7.5-17.3c3.7-5.6,4.7-12,8.5-17.5c3.4-4.9,4.5-11.4,6.9-17.5c-1.1-1.6-2.5-3.7-4-5.9
			c-1.8,3.7-4.2,7.2-5.4,11.1C445.8,81,444,84.3,442.1,87.9z"/>
		<path class="st0" d="M400.5,95.6c-0.5,5.6-2.9,11-3.1,17.4c6.2-2.6,10,2.9,15.3,2.8c1.1,0,2.1,1.1,3.3,1.5c2.6,0.7,5.3,1.3,7.5,2
			c1.8-4.9,2.8-9.6,5.3-13.1c2.5-3.7,0.7-8.9,4.9-11.6c0.1-4.7,3.6-8.1,4-12.9c0.5-4.2,3.6-8.1,6-13.1c-1.6-3.3,2.9-6.1,3.7-10.8
			c-5.5-6.4-7-15.4-11.8-22.2c-5.1,1.5-8.1,5.9-13.2,6.2c-2.5,4.3-10.2,2.2-10.2,8.8c-1,4.5-1.7,9.1-2.8,13.5
			c-1.2,4.5-3.4,8.9-3.8,13.5c-0.4,3.1-0.7,6.4-2.1,8.8C401.7,89.4,403.4,93.2,400.5,95.6z"/>
		<path class="st0" d="M327.7,89.2c0.4,4.8,0,9.6,0.1,14.3c0.1,0.4,0.7,0.6,1.2,1c1.6-0.6,3.2-1.3,5.3-2.2c0-7,0-13.7,0-20.3
			c0-6.5-2.7-12.7-1.6-19.4c0.1-0.5-0.4-1-0.6-1.7c-1.8,0.1-3.8,0.2-5.8,0.4c0,5.4-1.3,10.7,0.1,14.8
			C328.3,80.8,327.3,85,327.7,89.2z"/>
		<path class="st0" d="M358.3,94c1.2-9.1,1.3-18.3,1.8-27.4c0.1-2.1,0-4.3,0-6.5c-2.9-2-4.9-0.4-6.1,1.5c-0.4,7.7-0.6,14.8-1.1,21.9
			c-0.5,6.9-1.2,13.7-1.8,20.6c1.8,0,3.8,0,5.9,0C357,100.5,357.9,97.2,358.3,94z"/>
		<path class="st0" d="M346.9,77.7c1.3-5.1,0.2-10.9,0.2-16.8c-2.4,0.1-4.4,0.2-5.9,0.4c-0.7,14.8-1.5,28.9-2.3,43
			c2.6,0,4.3,0,6.4,0C346.5,95,344.6,86.4,346.9,77.7z"/>
		<path class="st0" d="M450.3,132.9c1.5,0.7,2.8,1.3,3.8,1.8c7.8-12,14.3-25,21.8-38.2c0-0.7,0-2.3,0-4.2c-1.1-0.9-2.3-1.7-3.6-2.8
			c-7.5,13.2-14.7,26.1-22,39.3C450.3,129.8,450.3,131.4,450.3,132.9z"/>
		<path class="st0" d="M504.2,155.9c-2.6,3.3-6.4,6-7.2,9.2c1.1,2,1.7,3.2,2.9,5.3c10.3-11,19.5-20.9,28.7-30.7
			c1.7-1.8,3.6-3.6,5.6-5.6c-3.1-1-5.3-1.7-7.2-2.4c-6.1,6.6-11.6,12.6-17.1,18.6C508,152.1,505.8,153.8,504.2,155.9z"/>
		<path class="st0" d="M497,405.2c0,12.1,0,25,0,37.7c0,0.1,0.1,0.4,0.2,0.6c0.1,0.2,0.4,0.4,0.2,0.2c6.9,0,13.5,0,20.2,0
			c0-13.8,0-27.4,0.1-40.8c-2.3-2.3-4.7-4.7-7.1-7.1C503.6,395.4,499.8,399.2,497,405.2z"/>
		<path class="st0" d="M487.3,157c1.6,1.5,3.1,2.9,4.8,4.5c9.9-11.6,19.4-22.7,28.8-33.8c-1.2-1.2-2.3-2.3-3.8-3.8
			c-6.9,3.9-9.9,10.9-14.9,16.3C497.1,145.7,492.4,151.4,487.3,157z"/>
		<path class="st0" d="M530.1,147.9c-6.7,6.6-13.4,13.2-20,19.8c-1.2,1.2-2.1,3.2-4.4,2.9c-0.2,0-0.5,0.7-0.7,1.2
			c0,0.7-0.2,1.7,0.1,2.3c0.6,1.1,1.6,2,2.8,3.3c4-3.3,7.7-5.9,10.8-8.8c3.2-3.1,5.8-6.7,8.9-9.9c3.3-3.3,7.1-6,10.3-9.3
			c3.1-3.3,7.5-5.8,9.3-10.9c-3.1,0-5.6,0-7.6,0c-1.2,1.6-1.8,3.6-2.9,4C533.8,143.6,532,146,530.1,147.9z"/>
		<path class="st0" d="M469.1,143.5c1.8,1.7,3.2,3.1,4.7,4.5c8.5-12.4,16.7-24.4,25.1-36.7c-2.1-1-3.7-1.7-5.4-2.4
			c-5.3,5.3-8.5,11.6-12.5,17.4S473,137.8,469.1,143.5z"/>
		<path class="st0" d="M447.2,111.5c-4.2,4.2-5.8,9.8-8,15.7c1.7,0.6,3.6,1.3,5.4,2.1c7.7-15.7,15.1-30.9,22.5-45.9
			c-1.7-1.5-2.9-2.4-4.3-3.6c-3.3,5.3-7.3,9.8-8.9,15.2C452.1,100.8,447.4,105.3,447.2,111.5z"/>
		<path class="st0" d="M520,176.7c-4.2-0.6-5.6,2.4-6.9,4.5c2,1.8,3.4,3.1,4.7,4.3c14.6-13.1,29.6-26.7,44.7-40.2
			c-1.8-0.6-4-1.3-6.7-2.4c-6.2,5.8-12.3,11.6-18.7,17C530.9,165,524.5,169.6,520,176.7z"/>
		<path class="st0" d="M462.8,140.1c7.6-3.7,8.5-11.8,13-17.3c4.7-5.5,7.7-12.2,11.1-18c-1.5-1.6-2.8-3.1-4.7-5
			c-7.6,12.1-15.3,24.6-23.2,37.2C460.9,138.4,462,139.3,462.8,140.1z"/>
		<path class="st0" d="M595.9,299.3c-1.1,0-2.7-0.4-3.2,0.1c-2.9,2.9-7.2,0-9.7,1.7c-3.4,2.4-6.7,0.5-10,1.6
			c-0.5,0.5-1.3,1.3-2.1,2.1c0,1,0,2.1,0,4c7.7-0.5,15.1,1.2,21.7-3.2c0.5-0.4,1.6-0.2,2.3-0.1c9.9,1.2,19.2-2.8,29.5-3.7
			c-1.1-2.2-2-4.2-2.9-5.9C612.8,297.7,604.4,299.8,595.9,299.3z"/>
		<path class="st0" d="M201.9,391c1.5,2.7,5.3,3.2,6.6,6.4c0.1,0,1.3-0.4,2.2-0.6c-1.8-2.7-3.7-5.1-4.8-6.7c-3.7-1-6.4-1.6-8.2-2.1
			c-2.3,0.7-3.9,1.2-6.2,2c-1.3,1.8-4.5,3.3-5.6,8c2.9-2.2,5-3.7,7-5.3C195.5,390.4,198.7,391.1,201.9,391z"/>
		<path class="st0" d="M198.8,384.5c3.3,0,6.7,0,10,0c0-6.1,0-11.5,0-16.5c-1.3-1.8-2.6-3.4-4.5-6c-1-0.4-2.6-1.2-4.3-1.5
			c-2.2-0.4-4.3-0.1-6.5-0.1c-1.8,1.8-3.8,3.8-5.4,5.4c0,6.4,0,12.4,0.1,18.7C192,384.5,195.4,384.5,198.8,384.5z"/>
		<path class="st0" d="M239.3,443.9c0-13.7,0-27.3-0.1-41.2c-0.1-0.1-0.6-0.4-0.9-0.9c-2.7-4.5-6.4-6.9-10.2-6.1
			c-4.4,0.9-9.4,6.1-9.6,10.7c-0.1,12.5,0,25,0,37.5C225.8,443.9,232.4,443.9,239.3,443.9z"/>
		<path class="st0" d="M232.4,391c2.8,2.2,5.5,4.2,8.6,6.4c-1.2-3.7-1.2-3.7-4.9-7.3c-3.6-0.9-6-1.5-8.6-2.1
			c-2.7,2.1-7.3,1.6-8.9,6.1c0.1,1,0.2,2.2,0.4,3.4C221.4,390.2,227,390.8,232.4,391z"/>
		<path class="st0" d="M229.3,384.5c3.3-0.1,6.7,0.4,10-0.4c0-6.4,0-12.3,0-18.1c-2-1.8-3.8-3.8-5.6-5.6c-2.4,0-4.8,0-7.2,0
			c-0.2,0-0.5,0-1.5,0c-2.1,2.1-4.5,4.4-6.2,6.2c0,6.6,0,12.1-0.1,17.9C222.5,384.5,225.9,384.6,229.3,384.5z"/>
		<path class="st0" d="M171.8,361.1c-0.1,0-0.1,0-0.2,0c0,0,0,0,0.1,0C171.8,361.1,171.8,361.1,171.8,361.1z"/>
		<path class="st0" d="M171.6,361C171.6,361,171.6,361,171.6,361C171.3,360.8,171.1,360.7,171.6,361z"/>
		<path class="st0" d="M165.8,395.6c-3.7,1.3-7,3.7-9.8,7.4c0,13.7,0,27.3,0,40.7c7.1,0,14,0,20.7,0c0-11.4,0-22.3,0-33.2
			C176.7,401.7,175.1,399.4,165.8,395.6z"/>
		<path class="st0" d="M617.9,310.8c-3.9,1.5-7.6,1.2-11.4,1.3c-4,0.1-8,0-12,0c-0.2,0-0.6-0.1-0.7,0c-2.7,2.1-5.9,1.2-8.9,1.6
			c-3.3,0.4-6.6,1.1-9.8,1.6c-0.7,0.1-1.5,0.2-2.4,0.5c0.2,2.1,0.4,4,0.6,6.4c2-0.9,3.3-1.8,4.7-2c9.1-0.7,18.3-1.2,27.3-1.7
			c2.6-0.1,5.8,0.9,7.8-0.2c3.1-1.6,6-1.1,9.1-1.5c3.2-0.4,6.5-1,9.7-1.6c0.6-0.1,1.2-0.4,2-0.6c-1.5-1.5-2.8-2.8-3.8-4
			C625.9,310.6,621.5,309.5,617.9,310.8z"/>
		<path class="st0" d="M315.1,84.1c0.4,6.7-0.9,13.6,2.4,20.3c1.7,0,3.7-0.1,5.8-0.2c-0.7-2.4-1.6-4.3-1.7-6.2
			c-0.1-6.1,0.1-12.4-0.1-18.5c-0.2-5.9-1.1-11.8-1.7-17.8c-2.4-1.8-2.4-1.8-6.2-1.6c0,2.3-0.7,5,0.1,7
			C316.2,72.7,314.9,78.5,315.1,84.1z"/>
		<path class="st0" d="M569.7,297.5c1.5,0,3.1,0.4,4-0.1c3.7-2,7.6-1.3,11.4-1.5c0.7,0,1.8,0.4,2.3,0c2.8-2.6,6.7-1.3,10-2.9
			c2.9-1.5,7.2-0.4,9.6-2.1c3.4-2.7,7.3,0.1,10.8-2.2c-0.7-1.7-1.6-3.6-2.6-6.1c-15.2,4.9-30.9,5.3-45.6,9.1
			C569.7,293.6,569.7,295.4,569.7,297.5z"/>
		<path class="st0" d="M580.3,277c-4.5,0.5-8.9,3.3-14,2.7c0,2.5,0,4.4,0,6.4c3.3,0,6.1,0,8.8,0c1.1-1.2,2-2.1,2.9-3.1
			c3.3,0,6.5,0,9.7,0c2.4-2.6,5.6-2.9,9.1-3.3c4.9-0.5,9.7-2.1,14.9-3.3c-1.2-2.5-2.1-4.3-2.9-6.1c-4.9-0.4-8.8,3.4-13.8,3.3
			C590,273.4,585.5,276.4,580.3,277z"/>
		<path class="st0" d="M203.1,397.5c-7.5-4.7-14.7,0.2-15.1,7.2c-0.5,13-0.1,26.1-0.1,39.2c7.2,0,13.8,0,20.9,0
			c0-12.5-0.1-24.3,0-36C208.9,403.2,206.6,399.5,203.1,397.5z"/>
		<path class="st0" d="M176.7,373.4c0.5-5-1.2-9.1-5-12.2h0.1c0-0.1-0.1-0.1-0.1-0.1c0,0,0,0-0.1,0c-3.2-0.7-5.1-1.2-7.4-1.7
			c0,0-0.5,0.7-1.2,1c-5.3,2-7.2,6-7.2,11.5c0,4.2,0,8.3,0,12.6c7.2,0,13.8,0,20.9,0C176.7,380.3,176.4,376.9,176.7,373.4z"/>
		<path class="st0" d="M264.6,391.2c2.6,1.8,5.4,3.9,8.7,6.4c-0.4-4.7-4.2-5.8-5.3-7.6c-3.4-0.9-5.9-1.5-7.8-2c-2,0.6-3.6,1.1-6,1.8
			c-1.3,1.8-4.4,3.3-4.9,7.2C253.6,392.9,258.1,389.9,264.6,391.2z"/>
		<path class="st0" d="M271.7,384.3c0-4-0.2-7.6,0-11c0.4-6-1.2-10.7-8.5-13c-1.5,0-4.2,0-7.3,0c-1.6,2.2-3.4,4.7-5,6.9
			c0,5.9,0,11.4,0.1,17.1C257.9,384.3,264.5,384.3,271.7,384.3z"/>
		<path class="st0" d="M260.8,395.5c-2.7,1.3-5.6,2.8-8.5,4.2c-2.1,5.6-2.6,27.3-1.1,44.2c6.5,0,13.1,0,20.3,0
			c0-14.1,0-27.4,0.1-40.8C268.8,399.8,265.9,396.6,260.8,395.5z"/>
		<path class="st0" d="M311.9,367.1c0.2-5.4-2.1-9.2-6.5-11.8c-2.8,2.8-5.3,5.3-7.7,7.7c0,6.2,0,13,0,20.5c4.7-1.7,8.7-3.3,14.2-5.3
			C311.9,374.4,311.8,370.8,311.9,367.1z"/>
		<path class="st0" d="M412.7,384.5c3.3-0.1,6.7,0.4,10-0.4c0-6.4,0-12.3,0-18.1c-1.8-1.8-3.8-3.8-5.6-5.6c-3.2,0-6.4,0-10,0
			c-1.6,2.3-3.4,4.8-4.9,6.9c0,6,0,11.5,0,17.3C405.9,384.5,409.3,384.6,412.7,384.5z"/>
		<path class="st0" d="M517.7,384.5c0-6.7,0-12.6,0-18.5c-1.8-1.8-3.7-3.8-5.6-5.6c-3.2,0-6.4,0-10,0c-1.6,2.3-3.4,4.8-4.9,6.9
			c0,6,0,11.5,0,17.3c3.7,0,7.1,0,10.5,0C511,384.5,514.4,384.5,517.7,384.5z"/>
		<path class="st0" d="M434.3,384.2c7.2,0,13.8,0,20.6,0c0-5.5,0-10.8,0-16.9c-4.4-7.1-4.5-7.1-15.2-6.9
			C431.1,367.1,434.9,376.1,434.3,384.2z"/>
		<path class="st0" d="M485.5,384.2c0-6.1,0-12.2,0-18.1c-0.6-1.2-1.2-2.3-2.3-4.7c-3.6-0.5-7.3-1-10.7-1.5
			c-2.4,2.3-4.3,4.2-5.9,5.8c0,6.4,0,12.5,0.1,18.5C473.1,384.2,479.1,384.2,485.5,384.2z"/>
		<path class="st0" d="M417,396.6c-4.2-2.3-7-0.2-9.9,1.3c-3.8,2.1-4.8,6.4-4.9,9.9c-0.6,12-0.2,23.9-0.2,36c7.2,0,13.7,0,20.9,0
			c0-2.8,0-5,0-7.1c0-10.4,0.1-20.8,0-31.4C422.9,401.3,420.8,398.8,417,396.6z"/>
		<path class="st0" d="M418.7,389.2c-3.3,1.3-6.1-4.2-9.3-0.2c-4,0.1-6.5,2.1-7.1,6.4c3.8-3.7,8.2-5.1,13.6-4.3
			c2.7,2,5.4,3.9,9.4,7.1C423.8,393.3,420.6,391.7,418.7,389.2z"/>
		<path class="st0" d="M168.3,390.8c5,2.1,8.2,4.2,9.9,9.9c0.1-3.1,0.1-4.3,0.2-5.5c-5.1-5.3-5.3-4.9-9.9-7.1
			c-3.7-1.7-5.8,2.4-8.3,1.5c-2.2,1.8-4.2,3.7-5.9,5.3c0,1.5,0.1,2.7,0.2,5C158.1,392.4,163.1,390.1,168.3,390.8z"/>
		<path class="st0" d="M444.1,395.7c-2.3,1.1-4.8,2.3-8.1,4c-3.4,6.6-1.3,14.1-1.7,21.3c-0.4,7.6-0.1,15.3-0.1,22.7
			c7.5,0,14.1,0,20.8,0c0-13.8,0-27.4,0-40.8C451.8,399.9,449.1,396.2,444.1,395.7z"/>
		<path class="st0" d="M443.7,387.9c-2.2,0.7-3.9,1.3-6.2,2.1c-1,1-2.6,2.3-3.9,4c-0.6,0.7-0.7,2-1.2,3.7c3.4-2.7,6-4.7,9.1-7
			c3.2,0.5,6.1-0.6,8.6,1.7c2,1.8,4.2,3.1,6.2,4.7c-0.6-3.6-3.2-5.4-4.7-7.1C448.3,389.1,445.6,388.4,443.7,387.9z"/>
		<path class="st0" d="M336.2,386.4c-7.2,3.6-7.2,3.6-9.7,10.2c8.7,1.2,19.6,1.2,20.8,0c0-1.1,0-2.2,0-3.2c-1.8-2-3.7-3.8-5-5.1
			C340,387.5,338.3,387,336.2,386.4z"/>
		<path class="st0" d="M376.1,368.7c0.5-6.2-1.2-11.1-8.5-13.4c-1.6,1.6-3.2,3.1-4.4,4.2c0,4,1.3,8.3-0.2,10.8
			c-2.4,3.9,0.1,6.1,0.9,9.1c4.9-0.2,8.3,5.5,13.4,3.1c-0.4-1.3-1-2.7-1.1-4C376,375.2,375.9,371.9,376.1,368.7z"/>
		<path class="st0" d="M326.7,398.2c0,13.6,0,26.5,0,39.2c7,0,13.6,0,20.2,0c0-12.4,0-24.5,0-36.6c-3.7-0.2-7.2,0.1-10.4-0.7
			C333.4,399.2,329.8,402.8,326.7,398.2z"/>
		<path class="st0" d="M376.2,404.8c0.1-5.5-2.2-9.3-5.9-12.1c-4.2-0.6-5.3,2.4-7.1,4.2c0,4.7,0,8.9,0,13.2c0,4.5,0.2,9.1,0,13.6
			c-0.1,3.9,1.1,8.2-1,11.6c0.6,1.3,1.1,2.4,1.5,3.4c4,1.3,7.8,2.8,12.5,4.4C376.2,429.7,376.1,417.2,376.2,404.8z"/>
		<path class="st0" d="M297.3,403.8c0,9.1,0,18.3,0,27.3c0,2.1,0.6,4.3-1.5,5.8c2.4,1.6,1.5,3.3-0.2,5.4c6.6,0.9,11.1-3.1,16.2-4.9
			c0-13.6,0-26.5,0-39.2c-1.2-2-2.4-3.9-3.7-5.8C299.9,393.7,297.3,396.4,297.3,403.8z"/>
		<path class="st0" d="M466.5,402.6c0,14,0,27.6,0,41.3c6.4,0,12.5,0,19.1,0c0-14.6,0-28.5,0-42.4
			C477.3,393.3,472.3,393.7,466.5,402.6z"/>
		<path class="st0" d="M328.8,383.9c3.9-1.2,6.1-2,8.5-2.7c2.6,1.2,5.3,2.6,7.6,3.7c1.1,1.7,2,3.2,3.3,5.1c1.5-3.8-1.5-5.5-2.2-8
			c-2.1-0.9-4.2-1.2-5.6-2.4c-4.2-3.7-7.6-0.9-11,1.2c-1.3,0.9-2.4,2.2-3.4,3.4c-0.6,0.9-0.9,2-1.3,3.1c0.4,0.2,0.7,0.4,1.1,0.6
			C327.1,386.1,328.5,384.2,328.8,383.9z"/>
		<path class="st0" d="M346.7,373c0.4-0.4,0.6-0.5,0.6-0.7c0-3.2,0-6.4,0-9.4c-4.4-7-4.9-7.2-12.6-7.2c-10.2,3.3-8.2,10.7-8.2,17.4
			C333.6,373,340.2,373,346.7,373z"/>
		<path class="st0" d="M595.7,523c0.2-2-0.4-4-0.7-6c-0.5-2.2-1.2-4.4-1.6-6.6c-0.7-4.5-2.6-7.7-7-10c-9.3-4.8-17.9-11.1-26.6-16.9
			c-7.8-5.3-16.5-9.1-24.1-15.6c-1.3,2.9-2.1,5.4-3.6,7.3c-1.7,2.3-4.2,4-5.9,6.4c-2.1,2.9-3.8,6.4-5.5,9.4
			c16.9,14.1,33.6,27.8,49.7,41.3c8.8-1.2,17.3-2.3,26.2-3.4C596.4,526.7,595.5,525.1,595.7,523z"/>
		<path class="st0" d="M328,577.8c0,3.1,0,5.9,0,8.8c0,4.9,1.1,10-0.2,14.5c-1.7,6-0.9,11.9-0.2,16.9c0.5,1.2,0.9,2.6,1.3,3.9
			c0.5,0,1.1-0.1,1.6-0.1c0.5-1.2,1.1-2.6,1.6-3.8c0.2,0.2,0.4,0.5,0.6,0.7c0.6-6.7,1.5-13.5,1.7-20.2c0.4-6.9,0.1-13.8,0.1-20.7
			C332,577.8,330.3,577.8,328,577.8z"/>
		<path class="st0" d="M345.7,592.1c0.2-4.8-0.2-9.6-0.4-14.5c-1.8,0-3.6,0-6,0c0.2,7.5,0.1,14.1,1.3,20.9
			c1.2,6.7,0.2,13.8,0.2,20.8c0,0.2,0,0.5,0.1,0.7c0.1,0.2,0.4,0.5,0.9,1c1-0.5,2-1,3.2-1.6c0.4,0.4,1,0.9,2.2,2
			c0-5.9,0.4-10.8,0-15.6C346.8,601.3,345.5,596.9,345.7,592.1z"/>
		<path class="st0" d="M321.6,576.1c-1.6-0.1-2.6-0.1-4-0.2c-2.4,3.2-2.4,6.4-2.4,9.8c0.1,6.6,0,13.4,0,20c0,1.6,0.6,3.7-0.1,4.7
			c-2.8,3.4-0.9,7-1.7,10.8c2.7-0.1,4.7-0.2,6.6-0.4c0-4.4,1.1-8.2,1.3-11.9C322.1,598,321.5,587.1,321.6,576.1z"/>
		<path class="st0" d="M310.4,577.7c-0.1-0.5-0.4-0.9-0.5-1.3c-2.7-1-4.5,0.1-5.4,1.5c-1.1,8.9-3.1,16.9-2.2,25
			c0.1,0.5,0.1,1.2-0.1,1.5c-2.8,2.7-0.9,6.1-1.5,9.1c-0.6,3.2-2.4,6.2-1.6,9.7c0.1,0.4,0.5,0.7,1,1.5c1.7-0.7,3.4-1.6,4.7-2.2
			c2-6.5,2-12.9,3.7-19c1.1-3.9,0.2-8.5,0.4-12.6C308.7,586.2,311.7,582.2,310.4,577.7z"/>
		<path class="st0" d="M298.9,575.9c0.1-0.4-0.2-0.9-0.4-1.1c-2-0.6-3.8-1.1-5.4-1.6c-0.7,4.3-1.6,8.5-2.2,12.7
			c-0.6,4.5-0.9,9.2-1.7,13.7c-0.7,4.2-2.3,8.2-3.1,12.4c-0.7,4.4-0.9,8.9-1.3,13.6c1.5,0,2.7,0,3.8,0c2.6-2.3,4.2-4.9,3.9-8.2
			c-0.6-7.8,3.6-14.9,3.2-22.8c3.1-2.3,0.5-6.1,2.1-8.7C300,582.7,298.4,579.2,298.9,575.9z"/>
		<path class="st0" d="M385.7,603.5c0.4-2.7,0-5.4-1.3-8.2c-1.5-3.1-1.8-6.7-2-10.4c-0.1-4.2-0.6-8.6-3.3-12
			c-1.6,0.7-2.9,1.3-4.5,2.2c2.1,16.4,4.7,32.8,8.7,48.8c1.7,0.9,3.3,1.6,6.4,3.1c-1.5-4.3-0.7-6.9-1.7-9.8
			C386.5,612.9,385,608.3,385.7,603.5z"/>
		<path class="st0" d="M358.7,590.3c0.1-5-2-9.6-2.1-14c-2.3,0-4.2,0-6.6,0c4.3,7,1.5,14.5,3.3,21.6c1.8,7.2,0.4,15.3,0.4,23
			c2.5,0,4.2,0,6.5,0c0-5.3,0.1-10.3-0.1-15.2C359.8,600.6,358.6,595.4,358.7,590.3z"/>
		<path class="st0" d="M398.6,600.8c-0.1-4.9-2.6-9.6-3.1-14.7c-0.5-4.9-2.5-9.7-3.7-14.6c-1.8,0-3.9,0-5.6,0
			c-1.8,7.1,3.6,12.3,3.3,19.1c-0.4,6,3.6,12,4.2,18.1c0.6,6.4,4,12,3.4,18.7c2.8,1.1,5.3,2,8.1,2.9c-0.9-5.3-3.2-9.8-3.1-14.9
			C402.3,610.4,398.8,606.1,398.6,600.8z"/>
		<path class="st0" d="M371.6,595.7c-1.6-6.2-1.6-12.7-2.3-19.4c-1.7,0-3.4,0-5.9,0c0,4.3-1.1,8.6,0.4,11.6c1.3,2.9,0.4,5.6,1.3,8.2
			c1.1,2.9,1.5,5.9,1.5,8.9c0,5.9-0.7,12,2.3,17.6c1,0,2.1-0.2,3.1,0c0.9,0.1,1.5,0.9,3.3,2.2c-1-4.2-2-7-2.2-9.9
			C372.6,608.6,373.3,602.2,371.6,595.7z"/>
		<path class="st0" d="M214.2,543.6c-1.3-1.3-2.2-2.2-3.8-3.8c-1.3,1.3-2.6,2.1-3.1,3.2c-6,11.9-14.6,22-20.8,34.1
			c1.6,1.3,3.3,2.8,5.3,4.5c3.9-7,7-13.5,11-19.5C206.8,556.1,211.5,550.5,214.2,543.6z"/>
		<path class="st0" d="M195,552.1c1.7-2.5,3.1-5.1,4.7-7.7c1.6-2.6,3.3-4.9,5.1-7.5c-1.8-1.3-2.9-2.2-4.7-3.4
			c-4.5,6.5-9.3,12.3-12.9,18.6c-3.3,6-10.3,10-10.7,18.5c0.7,0.5,1.7,1.3,2.7,2.1c5.3,0.1,2.2-5.3,5.8-6.6c2.2-0.9,3.1-4.8,4.9-7.2
			C191.6,556.5,193.5,554.4,195,552.1z"/>
		<path class="st0" d="M435.5,592.2c-2.6-6.6-5.6-13.1-7.8-20c-1.2-3.7-1.3-8.7-5.8-10.8c-8.3,2.9-16.5,5.9-24.7,8.8
			c1.6,6.1,3.4,12.1,4.9,18.1c1.3,5.4,2.3,10.8,3.7,16.2c1,3.9,2.1,7.7,2.9,11.6c0.9,4.2,2.9,8,3.2,12.4c0,2.1,1,4.2,3.7,5.8
			c2.4,1.3,4.9,2.5,7.3,3.7c4.7,2.2,9.2,4.8,13.7,7.2c3.6-6.7,5.5-14.2,10.4-20.7c0-1.5,0.5-3.1,0.1-4.3
			C442.4,611.3,439.2,601.7,435.5,592.2z"/>
		<path class="st0" d="M195.4,532.5c-0.1,0.1-0.1,0.1-0.1,0.1c-1.3-2.1-2.3-3.7-3.8-6.2c-9.9,11.6-18.1,22.7-26.5,33.9
			c1.7,1.6,3.2,2.9,4.7,4.4c1.3-1.5,2.8-2.7,3.9-4.2c6-10.2,14.1-18.9,21.7-27.8C195.4,532.6,195.4,532.5,195.4,532.5z"/>
		<path class="st0" d="M218.8,546.4c-7.5,13.8-14.8,27.1-22.3,40.7c1.2,1,2.9,2.4,4.9,4c8.1-14.3,15.9-28.1,24-42.5
			C223,547.8,221.1,547.2,218.8,546.4z"/>
		<path class="st0" d="M243.3,564.7c0.6-1.8,0.7-3.9,1.1-5.6c-1.8-0.9-3.2-1.6-4.5-2.2c-0.4,0.5-1.3,1-1.5,1.6
			c-0.9,3.4-2.9,6.4-3.7,9.7c-0.9,3.7-5,6.1-3.7,10.5c-5.6,9.7-9.1,20.3-14,30c1.3,2,2.6,3.8,3.8,5.6c1.7-3.1,3.8-6,5.1-9.6
			c2.4-6.7,6-13,8.5-19.7C236.9,578,240.7,571.7,243.3,564.7z"/>
		<path class="st0" d="M276.5,575.1c0.7-1.2,0.1-3.2,0.1-5.1c-8.3-2.6-16.5-5.1-25.8-8c-1.5,3.3-3.1,6.6-4.5,10
			c-1.5,3.3-2.4,7-4,10.3c-1.6,3.1-1.7,6.6-3.1,9.9c-1.5,3.4-4,6.1-4.7,10.2c-0.5,3.4-3.2,6.6-4.5,10c-1.3,3.4-2.1,7.1-3.2,11
			c5.1,6.9,7.2,15.7,12,23.2c6.2-5.9,13.8-9.1,21.7-11.6c0-0.7-0.1-1.3,0-1.8c2.9-8.5,3.9-17.5,6.7-25.8c1.7-5.8,2.6-11.6,4.7-17.3
			C273.6,585.1,273.8,579.7,276.5,575.1z"/>
		<path class="st0" d="M224.8,576.1c-0.1-3.8,3.9-4.5,3.9-8.3c0-2.9,3.2-6,4.8-9.1c0.7-1.5,1-3.2,1.5-4.7c-2.4-1-4.2-1.7-6.4-2.6
			c-0.1,6.5-4.5,10.4-6.7,15.4c-2.3,5.1-4.8,10.3-7.2,15.4c-2.3,4.9-4.9,9.8-7.6,15.2c1.6,1.2,3.3,2.3,5.3,3.8
			c1.1-2.7,2-6.7,4.5-9.3c2.1-2.6,1.8-5.8,4-8.2C222.6,581.8,224.9,578.4,224.8,576.1z"/>
		<path class="st0" d="M286.8,570.5c-1.3,0.9-2.3,1.3-3.3,2c-0.6-0.4-1.1-0.9-1.7-1.3c-0.9,3.4-1.6,6.6-2.2,9.8
			c-0.6,3.2-0.6,6.6-1.7,9.7c-1.3,3.8-2.1,7.6-3.1,11.5c-0.5,2-1.2,3.8-1.6,5.8c-0.4,2.1,0,4.3-0.6,6.2c-1.5,4.9-3.2,9.7-2.7,14.9
			c0.1,0.5,0.4,0.9,0.6,1.3c1.7-1,3.4-1.8,5.9-3.2c0-2-0.5-3.8,0.1-5c3.2-5.6,2.7-12.2,4.9-18c1.8-4.9,0.9-10.2,3.1-14.9
			c2.3-5.1,1.8-10.9,3.2-16.3C287.8,572.4,287.2,571.7,286.8,570.5z"/>
		<path class="st0" d="M300.5,70.5c0.5,2.4,1.7,5,1.5,7.3c-1,8.9,2.4,17.5,1.7,26.9c2.2,0.6,4,1.1,6.9,1.8c-1.1-6.2,0.6-11.6-1.5-17
			c-1.8-5,0.2-10.7-1.8-16c-1.8-4.8-1.6-10.4-2.2-15.7c-2.1,0-3.7,0-5.8,0c0,2-0.7,4.5,0.1,5.8C301.3,66,300,68.3,300.5,70.5z"/>
		<path class="st0" d="M574.1,408.6c-3.2-1.5-5.6-2.6-8.6-3.9c-1.3,2.8-2.1,4.5-3.4,7.5c7-2,11.3,5.1,17.5,2.8
			c1.2,1.2,2.1,2.1,2.3,2.3c8,2.1,14.9,3.9,22.2,5.8c0.6-2,1.2-3.9,1.8-5.9c-5.3-1.7-10.9-2-15.6-5.3
			C584.4,412.4,579.5,407,574.1,408.6z"/>
		<path class="st0" d="M563.9,417.2c-2.5,0.9-3.7,1.5-5.1,2c2.5,3.7,5.1,4.7,8.1,5.5c4,1.2,7.8,3.1,12,4c5,1.2,9.6,3.8,14.5,5.6
			c1.8,0.7,3.8,1.1,5.8,1.6c2-1.5,3.3-3.2,2-6.2C587.9,426.1,575.3,420.2,563.9,417.2z"/>
		<path class="st0" d="M195.4,532.5C195.7,532.2,195.7,532,195.4,532.5L195.4,532.5z"/>
		<path class="st0" d="M578,434.6c-2.2-0.6-4.3-0.2-6.6-1.6c-4.3-2.4-9.1-4-13.6-6c-0.4-0.1-0.7-0.2-1-0.2c-0.5,1.8-0.9,3.4-1.6,6
			c13.6,5.6,27.4,11.4,41.9,17.4c0.5-1.8,1-3.7,1.5-6c-5.5-2.2-10.4-4.8-15.6-6.2C580.7,437.1,579.8,435.1,578,434.6z"/>
		<path class="st0" d="M648.9,331.7c-2-3.3-6.5-4.7-8.1-8.7c-10.2,1.1-20.3-1.3-30.1,1.8c-12.6-1.1-25.1,1.5-38.6,1.8
			c0.9,5.6-1,10.9,1.7,15.9c0.6,1.1,0.2,3.3-0.5,4.4c-1.6,2.2-0.9,4.3-0.6,6.6c5.1,0.4,10,0,14.9,1.5c4.2,1.2,9.1,0.1,13.6,0.4
			c4.7,0.2,9.2,1.2,13.8,1.5c4.5,0.4,9.1,0,13.6,0.1c1.6,0,3.4-0.1,4.5,0.6c1.8,1.3,3.3,1.5,5,0.4c1.7-1.1,4-1.8,4.9-3.4
			c2.6-4.7,6-8.1,10.8-10.7c1.7-0.9,2.9-2.8,4-4.4C655,336.2,651,335.5,648.9,331.7z"/>
		<path class="st0" d="M612.4,363.5c-7.3,0.5-14.5-2.8-21.8-1.6c-5.6-3.1-11.8-0.9-17.6-1.7c0,2.6,0,4.5,0,6.6
			c4.4,0,8.5,0.5,12.4-0.1c3.8-0.6,6.9,1.8,10.5,1.7c3.8,0,7.6,0.9,11.4,1.3c7.5,0.9,15.3,0.2,22.4,0.2c1.6-1.7,2.8-2.8,4.3-4.3
			c-3.9-0.9-7.1-2-10.3-2.2C619.9,363.2,616.1,363.3,612.4,363.5z"/>
		<path class="st0" d="M453.2,603.6c0-1.5,0-3.1,0-4.5c-1-1-2.6-1.8-2.8-2.9c-1.3-5.4-4.5-10-6.4-15.1c-3.1-8.1-6.9-15.9-10.3-23.9
			c-0.1-0.2-0.9-0.4-1.7-0.7c-1.1,1.6-2.3,3.3-3.6,5c0.4,0.4,2.1,1.3,2.3,2.7c2,9.4,7.4,17.4,10.7,26.2c3.2,8.3,7.3,16.2,11.3,24.5
			c1.3-2.5,4.8-3.3,3.7-7.6C455.6,606.4,454.4,605.1,453.2,603.6z"/>
		<path class="st0" d="M556.9,530.2c-3.7-1.2-6.6-4.8-9.7-7.6c-9.4-8.7-18.7-17.5-28.1-26.3c-0.4-0.2-0.9-0.5-1.3-0.7
			c-1,0-2,0.1-2.8,0.1c-0.7,1.5-1.3,2.8-2.2,4.5c2.5,1.6,5.5,2.9,7.3,5.3c1.8,2.3,3.8,4.3,6.1,6.1c2.6,2,4.5,4.5,7,6.6
			c2.3,2.1,4.9,3.7,7.2,5.8c2.6,2.3,5.3,4.7,7.3,7.3c1.8,2.3,5.6,2.6,6.2,6c1.6,0,3.2,0,4.8,0c0.9-0.9,1.6-1.6,2.4-2.7
			C558.8,534.4,560,531.2,556.9,530.2z"/>
		<path class="st0" d="M570.6,374.4c0.7,1.1,1.6,2.3,2.1,3.2c4.5,0.7,8.6,1.5,12.6,2.1c4,0.6,8.3,0.5,12.1,1.8
			c4.2,1.5,8.2,1.1,12.3,1.5c4,0.2,8.1,1,12,1.6c1-2.1,1.7-3.9,2.8-6.1c-17.4-2.3-34.3-4.7-51-7
			C572.5,372.6,571.7,373.3,570.6,374.4z"/>
		<path class="st0" d="M607.4,389.5c-5.8,0.2-10.7-3.1-16.3-3.3c-3.7-0.1-7.1,0.2-10.7-1.5c-2.7-1.2-6-1.2-8.9-1.7
			c-0.6-0.1-1.5,0.4-2.1,0.5c0,1.8,0,3.4,0,5c2.7,0.9,4.8,1.7,7,2.2c2.9,0.7,6,2.1,8.8,1.7c4.8-0.6,9.1,1.6,13.7,2
			c4.7,0.4,9.2,2.1,14.5,3.3c1.1-1.6,2.3-3.3,3.7-5c0,0-0.7-0.7-1.5-1.5C612.9,390.4,609.6,392.4,607.4,389.5z"/>
		<path class="st0" d="M461.2,547.8c5,7.8,9.7,15.7,14.7,23.5c2.2,3.3,4.7,6.5,7,9.8c1.6-1.6,2.7-2.7,4.3-4.3
			c-8.7-11.8-14.3-25.4-23.5-36.6C459,544.1,459,544.3,461.2,547.8z"/>
		<path class="st0" d="M505.1,505.6c0,1.3,0,2.6,0,3.7c3.6,2.1,5.6,5.5,8.9,7.6c3.3,2.1,5.3,5.9,8.5,8.3c3.6,2.8,6.5,6.4,9.7,9.6
			c2.9,3.1,5.9,6.1,8.6,8.9c2.2-1.2,3.9-2.2,6.6-4c-13-12.4-25.7-24.4-38.1-36.1C507.7,504.3,506.3,505,505.1,505.6z"/>
		<path class="st0" d="M444.5,551.4c-1.8,0.9-3.7,1.8-5.9,2.9c4,7.7,8.2,14.8,11.5,22.3c3.3,7.7,7.1,15.3,11.4,22.5
			c0.5,1,1,1.8,2,3.8c1.5-3.3,2.4-5.6,2.9-6.9c-3.9-8.1-7.1-15.4-11-22.3C451.3,566.6,448.7,558.8,444.5,551.4z"/>
		<path class="st0" d="M475.6,534c-3.6,0.6-3.6,0.6-6.4,3.6c1.2,1.2,2.9,2.5,3.4,3.9c0.5,1.7,0.5,3.3,1.8,4.9
			c6.7,7.8,12.5,16.5,17.6,25.5c0.2,0.6,1.2,0.7,2,1.1c1.5-1.7,2.7-3.2,3.9-4.7c-3.9-5.6-8.7-11-12-17.3
			C482.8,545.1,476.6,541.1,475.6,534z"/>
		<path class="st0" d="M461.5,557.7c-1.3-3.2-3.4-6.1-5.6-8.8c-1-1.2-2.9-1.6-4.7-2.4c-3.1,6.2,3.3,8.8,2.8,13.2
			c6.5,8.2,10.3,18.1,15.6,27.1c0.9,1.3,1.7,2.7,3.4,5.4c1.5-2,2.3-3.2,3.6-4.5c-1.7-4-2.9-8.1-4.9-11.8
			C468.3,569.8,464.1,564.3,461.5,557.7z"/>
		<path class="st0" d="M496.9,516.2c9.3,11.9,20.9,22.3,31,33.9c2.1-1.3,3.9-2.7,5.5-3.8c-10.8-11.5-21.9-23.4-33.4-35.6
			C498.7,512.9,498,514.3,496.9,516.2z"/>
		<path class="st0" d="M479.2,532.6c8,10.2,15.9,20.1,24.1,30.5c0.9,0,2.4,0,4,0c0.7-0.7,1.5-1.6,2.1-2.2
			c-8.3-11-16.8-22.2-25.1-33.2C480,528.5,480,528.5,479.2,532.6z"/>
		<path class="st0" d="M487.8,524.1c9.1,10.4,18.4,21.4,28.1,32.7c1.6-0.7,3.4-1.7,5.8-2.8c-10-12-19.7-23.4-28.9-34.4
			C490.8,521.4,489.3,522.8,487.8,524.1z"/>
		<path class="st0" d="M597,400.8c-4.3-2.2-9.7-2.3-14.6-3.4c-4.7-1-9.3-2.1-14-3.1c-2,1.6-3.2,3.4-1.8,6c5.5,1.1,11.4,1.6,16.8,5.1
			c4.2-0.6,8.6,0.5,13,2.1c1.8,0.6,11.6,2.2,13.2,2.1c0-1-0.2-2.1,0-3.1c0.2-0.9,0.9-1.5,1.3-2.1C607,399.9,601.5,403.2,597,400.8z"
			/>
		<path class="st0" d="M182.6,143.8c2.2,4.3,5.8,7.2,8.5,11.1c1.5-1.7,2.7-3.1,4.3-4.9c-1.7-2.2-4.2-4.5-5.8-7.3
			c-2-3.4-4.5-6.1-7.1-9.1c-2.3-2.6-3.7-5.9-5.9-8.7c-2.3-3.1-5-5.8-7-8c-1.1,0.7-2.8,2-4.4,3.1c1.5,5.5,6.2,7.8,8.5,12.2
			C175.8,136.4,180.2,139.6,182.6,143.8z"/>
		<path class="st0" d="M199.3,146.2c0.4,0.5,0.5,1.1,0.6,1.5c2-1.5,3.8-2.7,5.3-3.7c-7.7-11.5-15.3-23-23.2-34.7c-1.3,0-2.9,0-4.9,0
			c-2,5.8,2.2,8.7,4.7,12.1C187.5,129.8,193.5,138,199.3,146.2z"/>
		<path class="st0" d="M77.1,305.9c4.2,1.7,8.6,0,12.1,1.7c4.2,2,8.3,0.6,12.4,1.1c0.4,0,0.7-0.6,1.1-0.9c0-1.1,0-2.2,0-3.2
			c-0.7-0.7-1.5-1.5-1.7-1.7c-8.5-1.3-16.3-3.3-24.1-3.6c-8.1-0.2-15.7-2.1-23.5-3.6c-1.3,2.1-2.4,4-3.7,6.2
			c5.3,0.6,10.5,0.6,15.3,2.1C69.1,305.6,73.5,304.5,77.1,305.9z"/>
		<path class="st0" d="M61.8,318.2c4.7,1.1,9.7,0.1,14.5,0.4c4.7,0.4,9.2,1.1,13.8,1.6c3.4,0.4,7,0.6,10.8,1c0-1.3,0-3.2,0-5.3
			c-2.4-0.7-4.5-2-6.7-2.1c-8.6-0.7-17.3-1.6-25.8-1.6c-7.1,0-13.8-2.9-21.1-1.8c-0.5,0.1-1.1-1-1.8-1.6c-1.5,1.8-2.8,3.6-4.8,5.9
			c4.2,0.9,7.3,1.8,10.5,2.1C54.7,317.1,58.2,317.3,61.8,318.2z"/>
		<path class="st0" d="M71.6,368.5c7.5-1.7,15.4-1.3,23.3-1.8c2.1-0.1,4,0,6.1,0c0-2.3,0-4.2,0-6.1c-1-0.1-1.7-0.4-2.4-0.2
			c-4.7,0.6-9.3-0.9-14,1.1c-4.4,1.8-9.8-1-14.3,2.1c-9.9,0.1-20-0.6-30.3,2.4c1.3,2,2.8,4,4,5.4c2.7-0.6,4.5-1.3,6.5-1.5
			C57.5,369.3,64.5,370.3,71.6,368.5z"/>
		<path class="st0" d="M84.1,380.1c6-0.9,12-3.2,18.3-1.8c0-2.6,0-4.5,0-6.6c-3.1,0-6.5-1-8.2,0.2c-3.2,2.1-6.5,0.1-9.1,1.5
			c-2.9,1.5-6,1.8-8.9,1.3c-3.4-0.6-5.9,2.2-8.9,1.7c-6.1-1-11.5,2.5-18.1,1.7c1.1,2.6,2,4.3,3.1,6.7c2.4-0.6,5.1-1.8,7.7-1.8
			C68,383.2,76,381.2,84.1,380.1z"/>
		<path class="st0" d="M45.1,357.2c8.6-0.5,17.3,1,25.7-1.7c10,1.1,19.7-2,30.7-1.7c-2.4-9.2-3.3-18.1-1.2-27.2c-3.1,0-6,0.2-8.9,0
			c-2.8-0.2-5.5-1.2-8.2-1.5c-8.6-0.6-17.1,0.4-25.8-1.5c-7-1.5-14.5,0.6-21.3-2.1c-4.2,4.3-8.2,8.2-12.1,12.2
			c-2.3,2.4-4.9,4.4-8.1,5.6c0,1,0,2.1,0,3.2c3.2,1.2,6,2.9,8,5.8c2.3,3.3,6.1,4.9,8.7,8.2c1.5,2,5.1,3.2,8.3,2
			C42.3,358,43.6,357.3,45.1,357.2z"/>
		<path class="st0" d="M192.8,114c1.3,3.2,2.7,6.9,5.1,8.9c3.1,2.6,3.2,6.5,6.2,9.1c2.6,2.1,3.6,6.1,5.1,9.2
			c1.8-1.2,3.8-2.6,5.8-3.9c-4.2-2.9-4.3-9.1-8.8-12c-1-5-4-9.3-7-13c-3.2-4-4.7-8.7-8.1-13.2c-1.8,2-3.6,3.7-5.6,5.5
			C188.9,107.5,191.3,110.4,192.8,114z"/>
		<path class="st0" d="M73,292.6c5.4,0.5,10.4,2.2,15.6,3.3c4.9,1.1,10.2,1.1,15.3,1.6c1.1-3.6,0-5.9-2.7-6.1
			c-3.1-0.4-5.6-2.7-8.9-1.8c-4.2,1-8-1.1-11.9-2.2c-0.6-0.1-1.3-1-2-0.9c-6.4,0.6-12-2.3-17.8-3.4c-2.7,1.6-4.2,3.4-2.3,6.6
			C63.7,288.6,68.1,292.2,73,292.6z"/>
		<path class="st0" d="M76.8,394.1c2.4-0.5,4.9-1.7,7.3-1.5c3.8,0.4,7.5-0.5,10.5-2c2.6-1.2,4.9-1.2,7.5-1.5c0.7,0,1.3-0.4,2-0.6
			c0-1.8,0-3.4,0-6.1c-8.5,1.2-16.2,2.7-23.8,4.4c-7.6,1.8-15.4,2.1-22.8,4.8c-0.5,2.7,0.5,4.7,2.8,5.6c2.8-0.5,5.5-1.1,8.2-1.6
			C71.4,395.3,74.1,394.8,76.8,394.1z"/>
		<path class="st0" d="M97.8,285c2.8,0.9,5.4,1.3,8.2,1.3c0.4,0,0.9-0.4,1.8-0.9c-0.6-1.8-1.2-3.7-1.6-4.7c-5.5-1.6-10-3.7-14.7-3.9
			c-5.3-0.2-9.4-3.6-14.7-3.7c-4.2,0-8.2-2.3-12.4-2.5c-0.5,1.8-1,3.7-1.6,5.6c4.8,1.2,9.6,2.4,14.5,3.6
			C84.2,281.6,91.2,282.8,97.8,285z"/>
		<path class="st0" d="M79.9,175.9c2.4,1.6,4.5,2.9,6.6,4.3c2.1,1.3,4.8,2.2,6.2,4c1.8,2.4,6.1,1.6,6.4,3.4c0.5,4.4,5.6,0.2,5.9,3.8
			c5.3,3.6,10.4,7.2,15.7,10.8c5.5,3.6,11,7,16.4,10.4c5.8-7.6,11.3-14.9,16.7-22c-16.9-14.1-34.1-28.3-51.8-43.1
			c-7.2,5.4-16.3,3.2-25.2,3.9C77.4,160.1,81.9,167.6,79.9,175.9z"/>
		<path class="st0" d="M110.4,270.8c-2.3-2.4-5.1-3.2-8.2-3.9c-3.3-0.9-6.7-1.7-10-2.8c-7.5-2.6-15.2-4.3-22.7-6.7
			c-0.9,2.2-1.6,3.9-2.4,5.9c14,4.2,27.4,8.3,41,12.4C109.1,273.6,109.7,272.1,110.4,270.8z"/>
		<path class="st0" d="M157.8,134.2c2.3,1.6,4,3.7,5.9,5.5c2.1,2,3.2,5,5.1,7.3c2.1,2.4,4.7,4.4,6.7,6.9c2,2.2,3.6,4.8,5.3,7.2
			c2.3-1.2,4-2.1,6.1-3.2c-9.7-11.4-19.1-22.7-28.7-33.8c-1.2,0.7-2.7,1.5-4.8,2.3C154.9,129.2,155.7,132.7,157.8,134.2z"/>
		<path class="st0" d="M116.8,253.6c0.6-1.3,1.2-2.9,2.1-4.7c-4.2-3.8-10-3.4-13.5-7.5c-5.4,0.4-9.2-4.2-14-4.9
			c-5.1-0.7-8.7-5-14.5-5.1c0,1.5,0.2,2.4,0,3.4c-0.2,1-0.9,2-1.1,2.4c7.1,2.7,13.7,5.4,20.5,8C103.2,248,109.4,252,116.8,253.6z"/>
		<path class="st0" d="M174.6,169.4c1-1.8,1.8-3.6,2.8-5.4c-4.3-4.3-8.5-7.7-11.6-11.9c-2.8-3.7-6.1-7.1-9.3-10.2
			c-3.4-3.3-5.9-7.6-9.8-10c-2.7-0.2-4.9,0.4-5.4,3.8c10.2,10.8,20.5,21.7,30.7,32.6C172.5,168.7,173.4,168.9,174.6,169.4z"/>
		<path class="st0" d="M162.1,182.1c-15.2-13.8-29.5-26.6-43.9-38.6c-2.2,0.7-4,1.3-7.2,2.3c16.7,13.2,31.1,26.9,44.5,39.4
			C157.4,184.3,159.4,183.3,162.1,182.1z"/>
		<path class="st0" d="M164.3,176.3c0.4,0.2,0.9,0.4,2,0.7c1-1.5,2.1-2.9,3.2-4.5c-7.2-6.9-13.6-12.7-19.7-18.7
			c-5.4-5.1-10.5-10.4-16.2-16c-2.3,0.7-4.5,1.6-7.2,2.4C139.6,152.6,150.7,165.7,164.3,176.3z"/>
		<path class="st0" d="M232.3,107c3.1,5.5,3.7,12.4,8.3,17c2.1-1,3.7-1.7,5-2.3c-1.7-4.5-2.6-9.7-5.3-13.6
			c-3.9-5.6-5.5-12.1-8.6-18.1c-3.8-7.3-6.2-15.6-10-23c-0.2-0.4-0.7-0.6-1.2-1c-1.1,1.7-2.1,3.4-2.8,4.8c1.5,7.1,4.9,12.6,7.3,18.5
			C227.5,95.1,229.2,101.6,232.3,107z"/>
		<path class="st0" d="M80.3,448.9c4.4-2.1,8.8-4.4,13.4-6.2c4.8-2,10.3-2.3,14.6-5.3c3.3-2.3,6.9-2.9,10.4-3.2
			c0.6-3.6-0.4-5.6-3.8-6.4c-13.1,5.3-26.2,10.7-39.6,16c0.9,2,1.5,3.3,2.3,5C78.7,448.9,79.7,449.2,80.3,448.9z"/>
		<path class="st0" d="M123,515.2c0.5-1.6,4.3-2.1,6.2-3.6c2.1-1.6,3.6-4.8,5.8-5.3c2.9-0.7,3.3-3.3,5.3-4.5
			c5-3.3,9.3-7.7,13.7-11.5c-7.2-6.4-10.4-15.1-16.4-21.9c-4.4,2.7-8.9,5.3-13.2,8.2c-4.5,2.9-8.3,6.9-13.1,9.2
			c-9.4,4.7-17.6,11.3-26.9,16.3c-1.2,0.6-1.8,2.4-2.4,3.8c-1.5,3.1-2,6.4-1.6,9.8c0.4,3.9-1.3,7.5-2.8,10.9c-0.4,0.6-0.4,1.3-0.5,2
			c0.7,0.7,1.3,1.3,2.4,2.4c3.9,0,8-0.1,12,0c1.6,0,3.4-0.2,4.5,0.6c3.6,2.6,7,0.6,9.3-1c4.5-3.4,7.8-8.2,13.6-10
			C118.4,517.5,122.3,517.9,123,515.2z"/>
		<path class="st0" d="M157.3,495.5c-7,3.8-12.1,9.9-18.4,14.8c-9.2,7.1-17.3,15.8-25.8,23.9c-0.1,0.2-0.4,0.4-0.5,0.6
			c-0.1,0.1,0.1,0.4,0.5,1.2c1.1,0.5,2.7,1.1,4.4,1.8c14.5-12.6,28.7-24.9,43.1-37.5C160.9,498.3,160.1,496.3,157.3,495.5z"/>
		<path class="st0" d="M86.4,405.3c4,0.5,6.6-2.9,9.9-3.1c3.9-0.1,7.5-1.5,11.9-2.6c-1-2-1.8-3.9-2.4-5.4
			c-7.6,1.7-14.5,3.4-21.3,4.5c-3.2,0.5-6,1.1-8.3,3.4c-4.8-0.4-9.4,0-13.7,2.9c0.9,1.7,1.7,3.4,2.6,4.8c3.8-0.5,7.5-0.5,10.8-1.6
			C79.3,407.1,82.5,404.8,86.4,405.3z"/>
		<path class="st0" d="M150.8,526.6c2.3-1.6,4.5-4.2,6.5-6.5c2.2-2.8,5-4.7,7.5-7.1c1.8-1.8,2.9-4.4,4.4-6.7
			c-0.6,0.1-1.1,0.4-1.6,0.5c-0.4-1.2-0.9-2.6-1.3-3.9c-5,4.2-8.7,6.9-12,10.2c-3.1,2.9-6.5,5.6-8.9,8.8c-2.6,3.3-5.5,6.4-8.3,8.9
			c-3.4,3.1-5.5,6.9-9.7,9.9c2.1,1.5,3.3,2.6,4.5,3.4C138.8,538.5,143.7,531.5,150.8,526.6z"/>
		<path class="st0" d="M171.8,540.9c5.6-4.7,9.6-11.4,14.3-17.5c-1.5-1.3-3.2-2.7-4.5-3.9c-9.4,10.9-18.5,21.6-28.1,32.6
			c1.1,1.6,2.1,3.2,3.3,5.3C163.9,552.7,166.4,545.7,171.8,540.9z"/>
		<path class="st0" d="M83.8,418.8c4.9-0.1,9.1-2.6,13.7-3.7c4.5-1.1,8.9-2.6,13.6-3.9c-1.2-2.3-2.1-4-2.9-5.8
			c-13.8,3.7-27.2,8.5-41.4,11.9c1.1,2.2,2,3.9,3.1,6.4C74.4,420.2,80.3,422.9,83.8,418.8z"/>
		<path class="st0" d="M292.7,108.4c2.6-1.2,4.3-2.1,5.9-2.8c2.1-9.2-3.9-17.1-2.9-26.1c-3.1-6.6-3.3-13.8-3.1-21.4
			c-2.3-1.2-4.8-2.4-8.6-4.4c2.8,10.2,3.4,19.1,4.8,27.8C290.1,90.2,293,98.7,292.7,108.4z"/>
		<path class="st0" d="M172.6,511.7c-2.2,2.2-4.5,4.4-6.7,6.7c-2.1,2.3-4.5,4.2-5.9,7.2c-1.1,2.6-3.9,4.3-6,6.4
			c-2.3,2.2-4.5,4.5-6.9,6.7c-2.1,1.8-3.1,4.9-5.9,6.2c0,1,0.1,2.1,0.1,2.9c1.5,0.7,2.8,1.3,4.5,2.2c10.7-11.4,21.4-23,32.5-34.8
			C176.4,514.2,174.6,513,172.6,511.7z"/>
		<path class="st0" d="M105.1,426.2c2.6-2.7,7.3-2.3,9.6-7.2c-1.2-0.4-2.4-0.9-5-1.8c-11.8,4-24.7,8.6-38,13.1c1.1,2.2,2,4,2.8,5.5
			c2.8-0.6,5.9-0.5,8.2-1.7C89.8,430.3,97.2,427.6,105.1,426.2z"/>
		<path class="st0" d="M229.1,128.4c2.9-0.2,5.1-1.1,5.4-2.1c0.5-1.8,0.2-3.3-1.1-5c-2.1-2.7-3.8-5.9-5-9.1
			c-2.2-5.5-5.9-10.3-7.7-16c-1.2-3.9-4.2-7.2-5.4-11.4c-0.7-2.2-2.7-3.9-3.9-5.6c-1.5,1.2-2.8,2.4-3.9,3.2
			c1.7,8.9,7.2,15.6,10.4,23.4C221,113.6,225.3,121,229.1,128.4z"/>
		<path class="st0" d="M224.3,130.5c-7.3-13.1-15.1-26.9-23.2-41.4c-2,1.8-3.4,3.2-4.5,4.4c7.7,14.5,15.2,28.3,23.6,42.8
			C222,133.8,223.2,132.1,224.3,130.5z"/>
		<path class="st0" d="M104.5,262.3c3.3,1.7,6.2,1.6,8.7,1.2c1.8-3.3,0-5.9-1.6-5.9c-3.7-0.1-6-2.6-9.1-3.6
			c-9.4-3.1-18.7-6.2-28.2-9.4c-0.9,1.6-1.7,3.3-2.6,5.3c3.9,1.5,7.7,2.6,11.3,4.3C89.9,257.7,97.7,258.9,104.5,262.3z"/>
		<path class="st0" d="M243.9,101.7c1.5,3.9,2.4,8.1,4,12c0.9,2,2.3,3.7,3.6,5.5c4.7-0.1,7.7-3.3,12-3.8c4-0.4,7.6-3.8,13.1-2.4
			c-0.4-5.4,0.7-9.9-2.8-13.6c-0.6-0.6-0.2-2-0.6-2.9c-2.1-5.5-2.9-11.5-4.7-17.3c-1.7-5.8-4-11.5-4.7-17.3
			c-0.6-5.5-2.1-10.3-3.8-14.5c-8.1-4.3-15.6-8.2-23-12.1c-3.7,7.8-7.2,15.8-10.8,23.8c3.7,5.6,5.4,11.9,7.6,17.9
			C236.9,85.3,240.6,93.4,243.9,101.7z"/>
		<path class="st0" d="M273.2,67.1c0.4,2.8,0.4,5.6,0.9,8.5c0.5,2.7,1.7,5.1,2.3,7.8c0.7,2.7,1.1,5.5,1.7,8.2
			c0.4,1.5,1.5,2.8,1.5,4.2c-0.1,4.7,0.4,9.3,2.3,13.5c1.8,0,3.7,0,6.2,0c-1.2-6.5-2.2-12.7-3.7-18.9c-1.6-6.4-3.9-12.6-4.7-19
			c-0.7-6.4-3.6-12.1-3.7-17.8c-2.6-3.1-5.1-2.2-7.3-1.8c1,3.7,1.8,7,2.8,10.3C272.1,63.8,273,65.4,273.2,67.1z"/>
	</g>
	<g>
		<path d="M255.4,216.4v1.7c-1.2,0.1-2.2,0.4-2.9,1c-0.9,0.6-1.5,1.3-2.1,2.6c-0.2,0.4-1.1,2.8-2.9,7.1l-19.6,51.7H226L210.5,240
			l-17.1,40.4h-1.7L171,229.3c-2.1-5.1-3.6-8.2-4.4-9.3c-0.9-1.1-2.2-1.7-4.2-1.8v-1.7h27.2v1.7c-2.2,0.1-3.7,0.4-4.4,1
			c-0.7,0.6-1.1,1.3-1.1,2.2c0,1.2,0.7,3.7,2.2,7.5l12.2,30.4l9.8-23.8l-2.6-6.6c-1.5-3.7-2.6-6-3.3-7.2c-0.7-1.2-1.7-2.1-2.7-2.6
			c-1-0.5-2.4-0.7-4.4-0.7v-1.7h30.4v1.7c-2.1,0-3.7,0.2-4.5,0.5c-0.6,0.2-1.1,0.6-1.5,1.1s-0.6,1.1-0.6,1.7c0,0.7,0.7,2.9,2.1,6.5
			l11.4,29.6l10.2-26.8c1.1-2.8,1.7-4.7,2-5.6c0.2-1,0.4-2,0.4-2.8c0-1.2-0.5-2.2-1.3-2.9c-0.9-0.7-2.6-1.1-4.9-1.2v-1.7h16.5V216.4
			z"/>
		<path d="M282.1,249v19.4c0,3.2,0.1,5.3,0.5,6c0.4,0.9,1.1,1.5,2.1,2.1c1,0.6,2.5,0.9,4.2,0.9h2.1v1.7h-32.8v-1.7h2.1
			c1.8,0,3.3-0.4,4.4-1c0.9-0.5,1.5-1.2,1.8-2.2c0.4-0.7,0.5-2.7,0.5-5.9v-41.3c0-3.2-0.1-5.3-0.5-6c-0.4-0.9-1-1.5-2.1-2.1
			c-1-0.6-2.4-0.9-4.2-0.9h-2.1v-1.7H291v1.7h-2.1c-1.8,0-3.3,0.4-4.4,1c-0.9,0.5-1.5,1.2-1.8,2.2c-0.4,0.7-0.5,2.7-0.5,5.9v17.8
			h22.2v-17.8c0-3.2-0.1-5.3-0.5-6c-0.4-0.9-1-1.5-2.1-2.1c-1.1-0.6-2.4-0.9-4.2-0.9h-2.1v-1.7h32.7v1.7h-2.1c-1.8,0-3.3,0.4-4.4,1
			c-0.9,0.5-1.5,1.2-1.8,2.2c-0.4,0.7-0.5,2.7-0.5,5.9v41.3c0,3.2,0.1,5.3,0.5,6c0.4,0.9,1,1.5,2.1,2.1c1.1,0.6,2.4,0.9,4.2,0.9h2.1
			v1.7h-32.7v-1.7h2.1c1.8,0,3.3-0.4,4.4-1c0.9-0.5,1.5-1.2,1.8-2.2c0.4-0.7,0.5-2.7,0.5-5.9V249H282.1z"/>
		<path d="M353.4,216.4l30.9,38.8v-26.9c0-3.8-0.5-6.2-1.6-7.6c-1.5-1.8-3.9-2.7-7.5-2.6v-1.7h20.7v1.7c-2.7,0.4-4.4,0.7-5.4,1.3
			c-0.9,0.5-1.6,1.5-2.1,2.7c-0.5,1.2-0.7,3.3-0.7,6.2v52.2h-1.6l-42.4-52.2v39.8c0,3.6,0.9,6,2.5,7.3c1.6,1.2,3.6,1.8,5.6,1.8h1.5
			v1.7h-22.2v-1.7c3.4,0,5.9-0.7,7.2-2.1c1.3-1.3,2.1-3.8,2.1-7.1V224l-1.3-1.7c-1.3-1.7-2.4-2.8-3.6-3.3c-1-0.5-2.4-0.9-4.4-0.9
			v-1.7L353.4,216.4L353.4,216.4z"/>
		<path d="M423.8,250.7v17.4c0,3.4,0.2,5.5,0.6,6.4c0.4,0.9,1.1,1.6,2.2,2.1c1.1,0.5,3.1,0.7,5.9,0.7v1.7h-31.8v-1.7
			c2.9,0,4.9-0.2,5.9-0.9c1-0.5,1.7-1.2,2.2-2.1c0.4-0.9,0.6-2.9,0.6-6.4v-40.7c0-3.4-0.2-5.5-0.6-6.4c-0.4-0.9-1.1-1.6-2.2-2.1
			c-1.1-0.5-3.1-0.7-5.9-0.7v-1.7h27.3c8.9,0,15.4,1.6,19.4,4.8c3.9,3.2,5.9,7.2,5.9,12c0,4-1.2,7.6-3.8,10.4
			c-2.6,2.9-6,4.9-10.4,5.9C436,250.3,430.9,250.7,423.8,250.7z M423.8,220V247c1,0.1,1.8,0.1,2.3,0.1c3.8,0,6.6-1.1,8.7-3.3
			c2.1-2.2,3.1-5.6,3.1-10.4c0-4.7-1-8.1-3.1-10.2c-2.1-2.2-5-3.2-9.1-3.2h-2V220z"/>
		<path d="M488.4,261.2h-22.2l-2.7,6.1c-0.9,2.1-1.3,3.7-1.3,5c0,1.7,0.7,3.1,2.1,3.9c0.9,0.5,2.9,0.9,6.1,1.1v1.7h-20.8v-1.7
			c2.2-0.4,4-1.2,5.5-2.8c1.5-1.6,3.2-4.7,5.4-9.4l22.4-50h0.9l22.7,51.4c2.2,4.9,3.9,8,5.3,9.2c1.1,1,2.6,1.5,4.4,1.7v1.7h-30.4
			v-1.7h1.2c2.5,0,4.2-0.4,5.1-1c0.7-0.5,1-1.2,1-2.1c0-0.6-0.1-1.1-0.2-1.7c-0.1-0.2-0.5-1.5-1.3-3.4L488.4,261.2z M486.8,257.8
			l-9.3-21.6l-9.6,21.6H486.8z"/>
	</g>
</g>
</svg>
