<?xml version="1.0" encoding="utf-8"?>
<!-- Generator: Adobe Illustrator 25.0.1, SVG Export Plug-In . SVG Version: 6.00 Build 0)  -->
<svg version="1.1" id="Layer_1" xmlns="http://www.w3.org/2000/svg" xmlns:xlink="http://www.w3.org/1999/xlink" x="0px" y="0px"
	 viewBox="0 0 683 558" style="enable-background:new 0 0 683 558;" xml:space="preserve">
<g>
	<path d="M183.2,314.3c-3.9-4-8.5-2-13.1-2c3.2,2.9,6.5,5.2,10.2,6.7c2.6,1.1,5.6,1,5.8-3.2C185.1,315.4,183.9,315.1,183.2,314.3z"
		/>
	<path d="M197.7,267.9c-6.2-7.6-8.6-8.1-16.6-3.4c1.3,2.7,2.5,5,3.7,7.6C189.5,270.5,193.5,269.3,197.7,267.9z"/>
	<path d="M179.9,275.2c2.9-1.7,3.3-3.6,1.7-6.3c-0.8-1.3-1.6-2.6-2.6-4.3c-10.1,4.3-11.8,7.8-7.9,16.4
		C174,279.1,176.8,276.9,179.9,275.2z"/>
	<path d="M178.7,308.7c-1.8-3.2-3.6-6.4-5.6-9.9c-3.5,1.6-6.4,2.9-9.3,4.3C165.7,309.6,171.1,311.6,178.7,308.7z"/>
	<path d="M173,293.5c1.6,3,3.8,1.9,6.1,1c3.4-1.2,6.9-2.4,10.4-3.6c0.1-2,0.2-3.9,0.3-5.9c0,0,0,0,0.1,0.1c-2-3.2-4-6.5-6-9.7
		c-1,0.3-1.7,0.3-2.1,0.6c-1.2,0.7-2.4,1.4-3.6,2.2C169.7,283.9,169.7,283.9,173,293.5c-1.5-2.1-3-4.2-4.9-6.8
		c-2.2,2.6-4.1,5-6.2,7.3c-2.3,2.7-1.9,4.9,0.8,6.9C170.4,299,171.3,298.4,173,293.5z"/>
	<path d="M167.3,272.5c-6.1,1.3-9.2,9.6-6.9,19.4C169,284.9,169.9,282.4,167.3,272.5z"/>
	<path d="M175.2,298.4c1.8,3.4,3.2,6.4,5,9.2c0.7,1.1,2.5,2.3,3.8,2.2c5.1-0.3,10.2-1,14.5-4.1c-1.8-4.8-3.6-9.3-5.3-13.8
		c-1.2-0.3-2.5-0.6-3.7-0.9c0,0,0,0,0-0.1C184.9,293.4,180.3,295.8,175.2,298.4z"/>
	<path d="M214,294.3c-0.9-3.7-1.5-7.7-5.2-10.7c-4.6,2-9.3,3.9-13.9,6c-0.8,0.3-1.1,1.5-1.7,2.3c0,0,0,0,0,0c2.5,4.2,5,8.5,7.4,12.7
		c3-1.1,5.7-2.1,8.4-3.1c1.1-1.2,2.3-2.4,3.3-3.8C213.1,296.7,214.2,295.2,214,294.3z"/>
	<path d="M214.7,267c-3.2-7.4-13.2-9.3-20.3-6.1C198.9,269.6,206.8,267.1,214.7,267z"/>
	<path d="M203.5,270.1c1.1,2.1,2.3,4.1,3.4,6.2c-1.5-1.5-3-3.2-4.6-4.5c-1-0.8-2.4-1.9-3.5-1.8c-4.5,0.5-9,1.1-12.5,4.7
		c1.2,3.6,2.4,7.1,3.5,10.5c1.1,1,2.2,1.9,3.6,3.1c4-1.7,8.1-3.6,12.3-5.2c2.7-1.1,2.9-2.9,1.9-5.2c1.1,1.8,2.5,3.2,4.8,2.3
		c3.1-1.2,6.1-2.6,9-3.8C219.5,269,213.2,267,203.5,270.1z"/>
	<path d="M215.9,293.1c8.2-5.3,9.4-8.2,6.3-15.2c-3.5,1.6-6.9,3.2-10.5,4.8C213.2,286.5,214.4,289.5,215.9,293.1z"/>
	<path d="M183.9,312.1c0.9,1.6,1.6,2.7,2.3,3.8c4.3,3.3,10,2.5,16.5-2.5c-0.9-1.8-1.8-3.7-2.6-5.5
		C194.4,309.3,189.4,310.6,183.9,312.1z"/>
	<path d="M495.2,319.6c4.1-0.8,7.9-3.4,11.6-5.7c1.1-0.7,1.7-3,1.8-4.6c0.2-5.5,0.1-11.1,0.1-16.6c0-4.3,0-8.7,0-13
		c0-8.3-1.5-10.1-9.8-11.8c-1.2-0.2-2.3-0.4-3.5-0.6c-8-1-13.7,2.2-15.9,9.9c-3,10.4-2.9,21.1-0.5,31.6
		C481,317.3,486.7,321.4,495.2,319.6z"/>
	<path d="M437,0H246C91.9,0,0,124.9,0,279s91.9,279,246,279h191c154.1,0,246-124.9,246-279S591.1,0,437,0z M223.5,493.9
		c-4.6-0.7-9.3-1-13.9-2.1c-5.7-1.3-11.3-3-16.9-4.8c-5.5-1.8-9.3-0.2-13.3,4.2c-3.7,4-8.2,7-13.3,8.7c-18,6.3-39,2.1-51.1-10.1
		c12.7-13,28.4-17.6,46.4-18.4c-6-4.7-11.7-10-18.2-13.8c-2.5-1.4-7.6-0.4-10.4,1.3c-17.2,10.2-53-2.1-61.1-20.2
		c10.3-8.4,16.4-9,49.8-4c-6.1-8.4-11-15.7-16.7-22.3c-1.6-1.8-5.8-2.6-8.5-2.1c-13.3,2.4-24.1-2.6-32.9-11.5
		c-6.5-6.6-11.7-14.5-17-22.2c-1.5-2.2-1.1-5.6-1.6-8.5c13.5-2.1,18-0.6,45.7,15.1c-3.9-11-7-20.7-10.8-30.1
		c-1.4-2.7-3.9-4.7-6.9-5.4c-15.3-2.3-23.4-13-30.3-25.2c-3.6-6.5-6.6-13.2-9.9-19.9v-14.1c18.8,5.2,31,18.3,40.9,36.1
		c-0.5-10-0.9-18.1-1.2-26.2c-0.2-5.9-2.1-10.1-7.7-13.3c-4.7-2.7-8.7-6.5-11.8-11c-10.1-15.5-13.2-33.1-13.1-51.4
		c0-1.7,0.9-3.5,1.7-6.2c16.8,9.4,23.6,24.9,30,41.1c6.2-14.8,5.2-23.2-3.9-34.2c-11.5-13.9-13.4-50.3-3-67.7
		c14.5,12.6,17.1,29.5,17.9,48.3c9.7-20.2,9.4-20.1,2.3-39.3c-2-5.4-3.7-11.7-2.7-17.1c2.3-13.4,6-26.5,9.6-39.6
		c0.6-2.2,3.2-3.9,5.4-6.5c5.6,7.8,7.6,15.5,8.2,23.7c0.6,8.1,0.5,16.2,0.7,24.4c5.1-4.4,9-8.6,11.1-13.5c1.7-4,2.8-9.3,1.6-13.2
		c-6.7-23,1.2-49.5,20.2-64.7c0.4-0.3,1.4,0.2,3,0.5c2.4,15.6,1.5,31.5-2.5,46.8c7.9-5.9,15.5-10.9,18.1-21.6
		c1.5-6.1,6.9-12.4,12.2-16.2c8.2-5.7,17.9-9.2,27-13.7l4.7,0c-4.5,20.8-15.9,35.4-37.5,40c-7.4,1.6-12.3,5.8-16.4,11l38.7,2.8
		c-8.7,17.1-25.6,27-55.6,17.1l-14.5,18.9c8.8-2.1,15-4.2,21.3-5c6.5-0.8,13.1-0.2,19.8-0.2c-3.3,15-20.8,27.8-36.8,27.9
		c-17.2,0.1-17.2,0.1-23.6,16.6c-0.8,2.1-1.5,4.1-2.6,6.9l40.4-18.5c0.6,9-3.7,14.3-6.7,19.7c-7.3,13.2-17.6,23.1-33.2,25.1
		c-6.4,0.8-10,3.9-11.3,9.9c-1.6,7.6-3,15.2-4.7,24l35.8-33.4c1.2,5,2.6,7.5,2.2,9.8c-3.6,20.8-11.9,38.6-31.4,49.5
		c-3.1,1.7-6.9,5.1-7.2,8.1c-1,8.3-0.3,16.7-0.3,27.3l29.5-42.7l3.1,0.8c0.7,3.6,2,7.2,1.9,10.7c-0.3,20.6-5.5,39.3-22,53.3
		c-4.6,3.9-6.7,8.7-5,14.6c2.4,8.6,5,17.2,7.7,26.1l15.8-50.8l3.3-0.4c1.7,3.9,4,7.7,5,11.8c3.9,16.7,4.6,33.1-3.2,49.2
		c-8.7,17.6-7.8,21.6,7.7,37.9c0-9.5-0.3-17.9,0.1-26.2c0.4-8.5,1.6-16.9,2.5-25.3l2.5-0.9c2.2,2.8,4.8,5.5,6.7,8.5
		c9.6,15.9,15.2,32.9,9.4,51.3c-4,12.6-1,21.1,10.4,27.5c4.3,2.4,8.1,5.7,12.8,8.1c-10.4-15.4-10.5-32.9-13-51.2
		c10.8,2.1,17.1,9,22.1,16.5c6.5,9.8,10.8,20.6,10.5,33c-0.3,13,0.4,13.7,12.3,17.6c5.2,1.7,10.6,2.7,15.8,4.3
		c3.7,1.2,7.3,2.8,11,4.2L223.5,493.9z M244.6,274.8c0,2.1-0.4,4.5-1.4,6.2c-8.8,14-19.6,26-34.6,33.6c-14.7,7.4-30.1,8.6-45.9,4.8
		c-5.7-1.4-11.4-3.2-17-4.8c-0.2,0.5-0.5,1-0.7,1.5c14.9,10.9,31.4,16.5,50.2,15.9c19-0.7,34.5-9.4,49.3-21.4c0,10.2,0,19.7,0,29.6
		c-34.7,0-69.3,0-104.3,0c-0.1-1.8-0.4-3.6-0.4-5.3c0-9.9,0.1-19.8-0.1-29.8c-0.1-4.8,1-8.8,3.8-12.7c5.7-8,12.1-15.2,19.9-21.2
		c19.4-14.9,40.8-17.4,63.8-10.3c3.3,1,6.6,2.1,11.2,3.5c-7.5-10-33.6-19.1-49.4-18.2c-18.5,1-34.1,8.5-48.8,20.3
		c0-10.2,0-19.8,0-29.3c4.5-1.3,97.2-1.6,104-0.2c0.1,1.4,0.4,2.9,0.5,4.4C244.7,252.6,244.7,263.7,244.6,274.8z M331.5,331.2
		c-8.4,7.2-18.5,9.3-29,9.1c-12.1-0.2-23.7-2.8-34.4-8.7c-1-0.6-2-1.2-3.5-2.2c2.4-5.2,4.8-10.3,7.5-16c1.9,0.9,3.5,1.6,5,2.3
		c8.7,4.5,17.8,7,27.6,6.4c3-0.2,6.4-1.3,8.6-3.2c4-3.5,2.3-9.7-2.8-11.3c-2.8-0.9-5.9-1-8.8-1.6c-5.8-1.2-11.8-2-17.5-3.8
		c-9-3-15.9-8.5-17.5-18.5c-1.7-11.2,1.3-20.9,10.9-27.8c7-5,15-7.4,23.6-7.4c11,0,24.3,2.6,35.1,8.9c-2.4,5.2-4.8,10.2-7.3,15.6
		c-4.4-1.4-8.6-3.1-12.9-4.1c-4.2-1-8.6-1.7-12.9-2.1c-1.9-0.2-4,0.3-5.9,0.8c-4.1,1.2-6.2,3.9-6.1,7.1c0.1,3.2,2.3,5.8,6.5,6.7
		c5.2,1.1,10.6,1.6,15.9,2.7c3.5,0.7,6.9,1.7,10.3,2.9C345.5,294.5,344,320.4,331.5,331.2z M436,335.9c0,0.5-0.3,1.1-0.7,2.1
		c-8.6,0-17.3,0-26.5,0c-0.1-0.9-0.5-2-0.4-3.1c0.1-16.5,0.3-32.9,0.3-49.4c0-3.1-0.3-6.4-1-9.4c-1.4-5.5-5.8-8-11.4-6.9
		c-8.6,1.6-15.4,9.7-15.4,18.4c0,14.7,0,29.4,0,44c0,2,0,3.9,0,6.3c-9.3,0-18.1,0-27.4,0c0-29,0-57.6,0-87.1c8.7,0,17,0,26,0
		c0,4.2,0,8.2,0,12.3c0.5,0.2,1,0.5,1.4,0.7c1.1-1.3,2.4-2.5,3.4-3.9c7.8-10.8,25.8-14.4,37.9-8.7c9,4.2,13.2,12.4,13.5,21.6
		C436.4,293.9,436,314.9,436,335.9z M450.2,288.5c0.7-8.1,2.8-15.8,6.9-23.1c7.2-12.8,24.3-19.2,37.5-16.3c4.4,1,8.8,2.2,13.8,3.5
		c0-11.6,0-23,0-34.9c9.4,0,18.3,0,27.6,0c0,39.9,0,79.7,0,119.5c-3.9,1.5-18.9,1.8-26.3,0.3c0-2,0-4.1,0-6.2c0-2.1-0.2-4.1-0.3-6.2
		c-0.4-0.1-0.8-0.1-1.2-0.2c-0.9,1.2-1.9,2.3-2.8,3.5c-10.1,14.9-38,17.3-48.8-2.4C450.2,314.3,449.1,301.5,450.2,288.5z
		 M615.6,370.5c6.9-2.7,14.7-3.1,23.8-4.8c-1,5-1.1,7.7-2,10c-4.8,12.5-14.3,21.3-24.4,29.4c-7.1,5.7-15.7,6.9-24.5,5.5
		c-5.1-0.8-9.2-0.1-12.3,4.4c-4.9,7-9.9,13.9-16.2,22.8c18.7-8,35.4-8.7,53.1-0.6c-1.8,3.3-2.6,6-4.3,7.8
		c-15.8,16.7-38.5,21.1-59.9,12.6c-2.6-1-6.9-0.3-9.4,1.2c-6.3,3.9-12,8.6-20.5,14.9c20-0.9,36.7,1.9,49,16c-0.1,1,0,2.1-0.4,2.5
		c-16.8,14.3-49.1,13.6-64.3-1.8c-4.3-4.3-8.3-5.1-13.6-3.5c-6.7,2-13.5,3.9-20.3,5.6c-2.8,0.7-5.8,0.6-8.7,0.8l-1.1-2.8
		c3.1-1.5,6.1-3.4,9.3-4.5c6.6-2.2,13.5-3.9,20.2-6c6.8-2.1,9.4-6,9.1-13.9c-1-21.6,8.8-38.3,26.4-50.5c1.4-1,3.4-1.1,6.1-1.8
		c-1.1,18.5-3.4,35.6-11.6,52.1c7.2-5.7,15.1-10.7,21.2-17.4c2.5-2.8,2.5-9.6,1.3-13.9c-6.2-22.4-1.6-42.4,11.7-60.9
		c1.1-1.6,1.4-3.7,2.1-5.6l4.5,2.2l3.8,49.2c13.2-9.8,14.7-17.1,7.5-31.4c-10.8-21.2-9.5-42.6,0.5-66.9
		c9.3,18.3,15.9,34.7,18.8,53.1c2.4-7.7,4.8-15.5,7.2-23.2c2.3-7.1,0.2-12.4-5.3-17.7c-17.9-16.9-22.9-38.3-20-62.1
		c0.1-0.6,0.9-1.1,2.1-2.4c12,13.4,23.1,27,29.2,45.8c1.2-5.8,2.3-9.9,2.8-14.2c1.3-11.4,0.3-20.5-12.2-27.2
		c-17.8-9.5-30.4-36.9-25.6-54c13.7,8.2,25.4,17.6,35.6,30.5c-1.6-8.4-2.9-17-4.8-25.3c-1.7-7.2-8.4-7.5-14.1-8.4
		c-14.3-2.2-35.3-23.3-35.8-42.5c14.3,4,27.3,9,40.3,17.7c-3.4-7.7-6.3-15.8-10.6-22.9c-1.3-2.1-6.9-2.3-10.4-2
		c-19,1.8-36.8-9.3-43.7-27c12.8-3,25.2,0.3,37.5,3.2l1.3-2.1c-3-4.2-5.8-8.7-9.2-12.7c-3.4-4-7.6-2.2-11.8-0.7
		c-17.5,5.8-34-0.1-45.3-16.8c13.5-6.2,27-5.7,40.8-2.8c-5.7-6.8-13.2-11.7-21.7-14.1c-19.4-5.6-31.4-18.7-34.1-39.4h4.7
		c5.3,2.4,10.6,4.7,15.8,7.2c11.7,5.4,20.7,13.2,24.3,26.3c0.8,3.1,3.4,5.8,5.3,8.5c2.8,4,5.9,8,8.8,11.9l5.5,3.1
		c-4.7-17.7-11.6-34.3-5.4-52.9c8.5,3.3,12.7,9.9,16.4,16.4c8.6,15.2,15.5,30.7,6.6,48.7c-1.5,3-0.3,8.4,1.4,11.9
		c2.8,5.9,7.1,11.1,11.8,16.6c-2.7-17.6-1.1-34.1,7.8-49.7c2.3,1.2,3.3,1.4,3.6,2c9.6,17.9,14.9,36.7,10.9,57.3
		c-0.4,2.3-0.9,4.9-2.2,6.6c-8,10.5-4.5,20.5,1.7,31c2.9-15.6,5.1-31.5,19.6-43.2c1.4,2.7,3.3,5,3.9,7.6c3.8,15.4,4.1,31-0.1,46.3
		c-1.5,5.2-4.2,10-7.9,14c-5.5,5.6-7.7,11.2-6.2,18.9c1,5.3,0.8,10.8,1.7,16.6c6.4-16.6,14.9-31.4,32.1-43.2
		c0.7,6.1,2.3,10.9,1.6,15.3c-1.7,10.4-4,20.7-6.9,30.8c-2.8,9.7-8.7,17.1-17.3,22.8c-3.5,2.3-6.8,6.8-7.6,10.7
		c-1.7,8.7-1.6,17.7-2.5,28.4c10.4-15.9,21-29.6,40.2-34.6c0.4,3.1,1.4,5.8,0.9,8.1c-4,17.2-11.5,32.5-25.4,43.8
		c-3.7,3-9.2,3.8-13.5,6.3c-3.5,2-7.7,4.4-9.2,7.7c-3.8,8.4-6.2,17.5-9.8,27.9C601.7,378.3,608.2,373.3,615.6,370.5z"/>
	<path d="M208.9,301.6C208.9,301.6,208.9,301.6,208.9,301.6c-2.3,1.8-4.7,3.7-7.3,5.8c1.2,2.2,2.3,4.2,3.7,6.8
		c4.3-2.6,7.9-4.9,11.7-7.2c-0.6-3.1-1.1-5.7-1.7-8.6C212.7,299.7,210.8,300.7,208.9,301.6z"/>
	<path d="M219.7,304.8c4.2-4.9,5-9.8,4.9-15.9C216.2,295.4,215.5,297.4,219.7,304.8z"/>
</g>
</svg>
