<?xml version="1.0" encoding="utf-8"?>
<!-- Generator: Adobe Illustrator 25.0.1, SVG Export Plug-In . SVG Version: 6.00 Build 0)  -->
<svg version="1.1" id="Layer_1" xmlns="http://www.w3.org/2000/svg" xmlns:xlink="http://www.w3.org/1999/xlink" x="0px" y="0px"
	 viewBox="0 0 683 558" style="enable-background:new 0 0 683 558;" xml:space="preserve">
<style type="text/css">
	.st0{fill:#FFFFFF;}
</style>
<path class="st0" d="M437,0H246C91.9,0,0,124.9,0,279s91.9,279,246,279h191c154.1,0,246-124.9,246-279S591.1,0,437,0z"/>
<g>
	<g>
		<path d="M440.8,275.4c0-2.7,0-5.3,0-7.5c-2.1-0.7-3.8-1.2-5.6-1.8c-0.6,0.6-1.2,1.2-1.9,2c0,1.7,0,3.6,0,5.3
			C435.2,276.4,438.1,275,440.8,275.4z"/>
		<path d="M417.2,268.1c0.2,2.8,0.4,5.1,0.6,7.9c1.6-1.1,2.6-1.7,3.5-2.3c0-2.1,0-4,0-6.3c-1.6,0-3.1,0.1-4.6,0
			c-1.6-0.1-3.4,0.6-4.9-0.9c-0.5-0.5-2,0.2-3.2,0.3c0,2.5,0,5.4,0,8.3c2.2,0,4.1,0,5.3,0C417.5,273.7,415.3,270.6,417.2,268.1z"/>
		<path d="M374.4,367.1c1.2,0,2.3,0,3.5,0c0-26.2,0-52.4,0-78.6c-1.2,0-2.3,0-3.5,0C374.4,314.8,374.4,340.9,374.4,367.1z"/>
		<path d="M493.5,273.5c0-2.1,0-4,0-5.4c-2.7-4-5-0.8-7.5-0.3c0,1.9,0,3.8,0,5.6C489.7,276.2,490.9,276.1,493.5,273.5z"/>
		<path d="M388.6,275.5c0-1.7-0.1-3,0-4.3s0.5-2.5,0.7-3.4c-2.4-0.6-4.5-1.1-6.7-1.7c-0.6,0.6-1.2,1.2-1.9,1.9c0,1.7,0,3.4,0,5.1
			C383.1,276.4,385.8,274.8,388.6,275.5z"/>
		<path d="M240.1,267.9c-2.6-0.8-5.2-3.8-7.6,0.2c0,2.1,0,4.5,0,6.9c2.6,0,5.1,0,7.6,0C240.1,272.5,240.1,270.2,240.1,267.9z"/>
		<path d="M266.5,267.9c-2.9-0.6-5.2-1.2-7.7-1.7c0,3.1,0,6,0,9c2.1,0,4,0,5.7,0C267.8,273.1,265.9,270.2,266.5,267.9z"/>
		<path d="M493.7,294.2c0-1.9,0-3.8,0-5.7c-37.9,0-75.2,0-112.7,0c0,27,0,53.4,0,79.6c0.7,0.7,1.2,1.2,1.6,1.6
			c36.5,0,72.9,0,109.1,0c2.7-1.5,2-3.9,2-6C493.7,340.6,493.7,317.4,493.7,294.2z M467.6,301.9c1.2-1.7,2.7-3.7,4-5.6
			c3,0,5.6,0,8.2,0c1.6,1.5,3.1,3.1,4.6,4.6c0,4.8,0,9.6,0,15.1c-2.7,0-5.5,0-8.2,0c-2.8,0-5.6,0-8.6,0
			C467.6,311.3,467.6,306.8,467.6,301.9z M442.7,300.7c1.3-1.3,2.8-2.8,4.8-4.7c2.7,0.4,5.8,0.8,8.7,1.2c0.9,1.9,1.4,2.8,1.9,3.8
			c0,4.8,0,9.8,0,14.8c-5.2,0-10.1,0-15.3,0C442.7,310.9,442.7,305.9,442.7,300.7z M420.7,296.4c8.7-0.2,8.8-0.2,12.4,5.6
			c0,5,0,9.3,0,13.8c-5.5,0-10.9,0-16.8,0C416.8,309.2,413.7,301.8,420.7,296.4z M390.1,301.9c1.2-1.7,2.7-3.7,4-5.6
			c3,0,5.6,0,8.2,0c1.5,1.5,3.1,3.1,4.6,4.6c0,4.8,0,9.6,0,14.8c-2.7,0.6-5.5,0.2-8.2,0.3c-2.8,0.1-5.6,0-8.6,0
			C390.1,311.3,390.1,306.8,390.1,301.9z M407,358.7c0,1.7,0,3.5,0,5.8c-5.9,0-11.2,0-17.1,0c0-9.9-0.3-19.6,0.2-29.4
			c0.1-2.9,0.9-6.4,4-8.1c2.4-1.3,4.7-3,8.1-1.1c3.1,1.8,4.8,3.8,4.8,7.2C407.1,341.7,407,350.2,407,358.7z M401.3,321.4
			c-4.4-0.7-8,0.5-11.1,3.5c0.5-3.5,2.5-5.1,5.8-5.2c2.6-3.2,4.9,1.3,7.6,0.2c1.5,2,4.1,3.3,5.4,7.3
			C405.7,324.6,403.5,323,401.3,321.4z M433.2,364.4c-5.5,0-10.9,0-17,0c0-6-0.2-12.3,0.1-18.5c0.3-5.9-1.4-12,1.4-17.4
			c2.7-1.4,4.7-2.4,6.6-3.3c4.1,0.4,6.3,3.4,8.9,5.9C433.2,342,433.2,353.1,433.2,364.4z M429.1,322.5c-2-1.9-4.4-1-7-1.4
			c-2.5,1.9-4.6,3.5-7.4,5.7c0.4-1.4,0.5-2.4,1-3c1.1-1.4,2.4-2.5,3.2-3.3c1.9-0.6,3.3-1.1,5.1-1.7c1.5,0.4,3.7,1,6.4,1.7
			c1.2,1.4,3.3,2.9,3.8,5.8C432.5,325,430.7,324,429.1,322.5z M458.2,364.5c-5.4,0-10.4,0-15.6,0c0-11.2,0-22.3,0-33.7
			c4.7-7.3,8.8-7.6,15.6-0.9C458.2,341.2,458.2,352.6,458.2,364.5z M484.4,364.4c-5.5,0-10.9,0-16.5,0c0.1,0.1-0.1,0-0.2-0.2
			s-0.2-0.4-0.2-0.5c0-10.4,0-20.9,0-30.8c2.3-4.9,5.4-8,11.2-7.6c2,2,3.9,3.9,5.8,5.8C484.4,342,484.4,353.1,484.4,364.4z
			 M485.2,327.8c-1.1-3.3-3.6-5-7.3-6.5c-1.7-0.2-4.3-0.5-6.5,1.3c-1.6,1.3-3,2.8-5.3,3.4c1.4-2.1,2.8-4.2,3.8-5.6
			c2.8-0.7,4.8-1.1,7.1-1.7c1,0.4,2.3,0.9,5.1,2c0.1,0.1,1.4,1.2,2.5,2.6c1,1.2,1.6,2.7,2.6,4.2
			C486.3,327.7,485.2,327.9,485.2,327.8z"/>
		<path d="M213.9,267.8c-1.1-0.2-2.4-0.3-3.5-0.7c-1.3-0.4-2.5-0.9-4.1-1.4c0,3.6,0,6.5,0,9.2c2.7,0,5.2,0,7.6,0
			C213.9,272.4,213.9,270.2,213.9,267.8z"/>
		<path d="M295.5,368.8c0,1.3,0,2.3,0,3.2c0.3,0.2,0.5,0.5,0.6,0.5c27.1,0,54.2,0,81.3,0c0.2,0,0.5-0.6,1-1.3
			c-0.7-0.9-1.5-1.8-2-2.4C349.2,368.8,322.4,368.8,295.5,368.8z"/>
		<path d="M285,267.9c0,2.3,0,4.6,0,7.5c2.7-0.6,5.6,1.2,7.7-2c0-1.8,0-3.6,0-5.4c-0.8-0.8-1.6-1.5-2-1.9
			C288.4,266.8,286.7,267.4,285,267.9z"/>
		<path d="M355.2,262.4c-6.4-3.6-11.6-9.2-18.9-11.9c-2.7,2-5.6,4.3-8.7,6.3c-3.3,2-7.6,2.9-10,5.6c-2.5,2.8-6,3.8-8.7,6.3
			c-2.6,2.5-6.4,3.9-11,6.4c26.3,0,51.2,0,77.3,0C367.9,270.4,361.8,266.1,355.2,262.4z"/>
		<path d="M375.3,278.1c-25.4,0-50.6,0-76,0c-0.5,1.1-1,2.1-1.7,3.5c26.3,0,52,0,77.7,0C375.3,280.4,375.3,279.3,375.3,278.1z"/>
		<path d="M371.1,292.6c-2.5-2.3-4.9-5.8-8.9-6.8c-5.5,1.7-6.5,5.7-6.5,10.8c0.1,21.6,0.1,43.2,0.1,64.8c0,1.9,0,3.8,0,5.7
			c5.9,0,11.3,0,17.1,0c0-1.8,0-3.5,0-5.2c0-16.6,0.1-33.2,0-49.8C372.8,305.7,373.8,299.3,371.1,292.6z M368.9,363.9
			c-3.8-1.3-6.9-2.5-10.2-3.6c-0.3-0.8-0.7-1.7-1.2-2.8c1.7-2.8,0.7-6.3,0.8-9.5c0.2-3.7,0-7.4,0-11.1c0-3.5,0-7,0-10.8
			c1.5-1.4,2.4-3.9,5.8-3.4c3,2.3,4.9,5.4,4.8,9.9C368.8,342.7,368.9,352.9,368.9,363.9z M358.8,311.8c-0.6-2.4-2.7-4.2-0.7-7.4
			c1.3-2,0.2-5.5,0.2-8.8c1-0.9,2.3-2.1,3.6-3.4c5.9,1.8,7.3,5.8,6.9,10.9c-0.2,2.6-0.1,5.3,0,7.9c0.1,1.1,0.6,2.2,0.9,3.3
			C365.6,316.3,362.8,311.6,358.8,311.8z"/>
		<path d="M352.9,367.1c0-26.2,0-52.4,0-78.5c-0.8,0-1.4,0-2.2,0c0,26.2,0,52.4,0,78.5C351.6,367.1,352.2,367.1,352.9,367.1z"/>
		<path d="M493.8,278c-37.4,0-74.3,0-111.2,0c-2.6,3.5-2.6,4.2-0.4,7.2c5.8-1.1,11.3-1.5,17,0.4c5.4-2,10.9-1.6,16.2,0
			c0.8-0.5,1.4-1,2.1-1.4c2.9,2.5,5.6,1.7,8.1-0.1c0.7,0.7,1.2,1.1,2,1.7c5-2.4,10-2,14.6-0.8c2.6,0.7,5.5,1.3,7.4,0.4
			c2.2-1.1,4.1-0.9,6.2-1c9.8-0.1,19.7-0.1,29.5,0c2.2,0,4.4,0.7,6.7,1.1C495,283.6,493.2,280.7,493.8,278z"/>
		<path d="M324.2,367c8.1,0,15.8,0,23.6,0c0-24.3,0-48.3,0-73.4c-2.1-2.1-4.4-4.4-6.4-6.4c-2.4,0-4.1,0.1-5.8,0
			c-3.5-0.2-6.4,1.4-8,4.1c-1.8,2.9-3.5,5.9-3.4,9.7c0.2,21.2,0.1,42.3,0.1,63.5C324.2,365.3,324.2,366.1,324.2,367z M345,359.2
			c-5.4,0-10.8,0-16.5,0c0-10.4,0-20.9,0-32c2.5,3.8,5.4,0.8,8,1.5s5.5,0.4,8.5,0.6C345,339.2,345,349.1,345,359.2z M328.3,325.9
			c2-5.4,2-5.4,7.9-8.3c1.7,0.5,3.1,0.9,5,1.5c1.1,1.1,2.6,2.6,4.1,4.2c0,0.8,0,1.7,0,2.6C344.3,326.9,335.4,326.9,328.3,325.9z
			 M335,292.4c6.3,0,6.7,0.2,10.3,5.9c0,2.5,0,5.1,0,7.7c0,0.2-0.2,0.3-0.5,0.6c-5.3,0-10.7,0-16.5,0
			C328.3,301.1,326.7,295.1,335,292.4z M327.8,315.8c0.8-1,1.7-2.1,2.8-2.8c2.8-1.7,5.6-4,9-1c1.2,1,2.9,1.3,4.6,2
			c0.6,2,3,3.4,1.8,6.5c-1.1-1.6-1.8-2.8-2.7-4.2c-1.9-0.9-4.1-2-6.2-3c-1.9,0.6-3.7,1.2-6.9,2.2c-0.3,0.3-1.4,1.8-2.6,3.3
			c-0.3-0.2-0.6-0.3-0.9-0.5C327.1,317.4,327.3,316.5,327.8,315.8z"/>
		<path d="M187.4,267.7c-2.5-0.3-5.2-3.9-7.4,0.1c0,2.8,0,5.1,0,7.3c2.6,0,4.9,0,7.4,0C187.4,272.7,187.4,270.4,187.4,267.7z"/>
		<path d="M179.9,283.9c2.1,0.6,4.4,2.1,5.9,1.5c4.5-1.8,9-0.8,13.4-0.8c5.9,0,12-1.2,17.9,1.1c0.9,0.4,2.3-0.6,3.6-0.7
			c4.4-0.6,8.8-1.4,13.1,0.9c0.9-0.5,1.7-1,2.7-1.5c0.8,0.5,1.4,1,2.1,1.5c3.5-1.8,7.1-1.8,10.9-0.6c1.8,0.6,4.4,1.3,5.5,0.4
			c2.3-1.7,4.6-1.1,6.8-1.1c10.2-0.1,20.5,0,30.7,0c0-2.4,0-4.3,0-6.3c-37.7,0-75.2,0-112.7,0C179.9,280.4,179.9,282.3,179.9,283.9z
			"/>
		<path d="M322.7,367.1c0-26.3,0-52.4,0-78.5c-0.8,0-1.4,0-2.5,0c0,2.6,0,5.1,0,7.6c-3.1-3.8-3.4-9.6-10.4-10.5
			c-0.3,0.4-0.7,1.8-1.6,2.2c-6.3,2.9-7.8,8.2-7.7,14.4c0.1,19.5,0,38.9,0,58.4c0,2.1,0,4.3,0,6.6c3.2,0,6.1,0.1,8.9,0
			c2.7-0.1,5.5,0.3,8.4-0.3c0-13.6,0-26.9,0-40.2c0.8,0,1.4,0,2.4,0c0,13.6,0,27,0,40.5C321.4,367.1,322,367.1,322.7,367.1z
			 M316.3,359.2c-4.1,1.5-7.8,4.7-13.2,4c1.4-1.7,2.2-3.1,0.2-4.4c1.7-1.2,1.2-3,1.2-4.7c0-7.4,0-14.9,0-22.3c0-6.1,2.1-8.3,8.8-9.3
			c1,1.5,2,3.1,3,4.7C316.3,337.6,316.3,348.1,316.3,359.2z M316.4,310.9c-4.5,1.6-7.8,2.9-11.6,4.3c0-6.1,0-11.6,0-16.7
			c2-2,4-4,6.3-6.3c3.6,2.1,5.5,5.2,5.3,9.6C316.3,304.8,316.4,307.8,316.4,310.9z"/>
		<path d="M299.1,367.1c0-26.2,0-52.3,0-79.8c-3.3,2.7-3.8,5-3.8,7.8c0.1,23.4,0,46.8,0,70.1c0,0.6,0.2,1.2,0.2,1.9
			C296.8,367.1,297.8,367.1,299.1,367.1z"/>
		<path d="M180,368.1c0.7,0.7,1.1,1.1,1.8,1.8c3.3,0,6.8,0.2,10.3-0.1c3.1-0.2,6.5,1.3,9.3-1.2c3.1,2.4,6.6,0.9,9.9,1.2
			c3.3,0.2,6.6,0.1,9.8,0.1c3.5,0,7,0,10.5,0c3.3,0,6.6,0,9.8,0c3.5,0,7,0,10.5,0c3.3,0,6.6,0,9.8,0c3.5,0,7,0,10.5,0
			c3.3,0,6.6,0,9.8,0c3.5,0,6.9,0,10.4,0c0-27.4,0-54.3,0-81.3c-37.6,0-74.9,0-112.5,0C180,315.6,180,341.9,180,368.1z M283.5,364.5
			c-5.9,0-11.3,0-16.6,0c-1.2-13.8-0.8-31.5,0.9-36.1c2.3-1.1,4.7-2.3,6.9-3.4c4.1,0.9,6.5,3.5,8.9,6.2
			C283.5,342.1,283.5,353,283.5,364.5z M266.6,301.9c1.3-1.8,2.8-3.8,4.1-5.6c2.6,0,4.8,0,6,0c5.9,1.9,7.2,5.7,6.9,10.6
			c-0.2,2.8,0,5.7,0,9c-5.9,0-11.3,0-16.9,0C266.6,311.2,266.6,306.7,266.6,301.9z M269.3,320.4c2-0.6,3.3-1,4.9-1.5
			c1.6,0.4,3.6,0.9,6.4,1.6c0.9,1.5,4,2.4,4.3,6.2c-2.7-2-5-3.7-7.1-5.2c-5.3-1.1-9,1.4-12.5,4.8
			C265.7,323.1,268.2,321.9,269.3,320.4z M232.3,364.5c-5.8,0-11.2,0-17.1,0c0-10.7-0.3-21.4,0.1-32c0.3-5.7,6.2-9.7,12.3-5.9
			c2.8,1.7,4.7,4.7,4.7,8.5C232.2,344.7,232.3,354.3,232.3,364.5z M257.1,364.5c-5.6,0-11,0-16.9,0c0-10.2-0.1-20.4,0-30.6
			c0.1-3.7,4.2-8,7.8-8.7c3.1-0.6,6.1,1.3,8.3,5c0.2,0.4,0.6,0.6,0.7,0.7C257.1,342.2,257.1,353.3,257.1,364.5z M240.4,301.4
			c1.4-1.5,3.4-3.4,5.1-5.1c0.8,0,1,0,1.2,0c2,0,3.9,0,5.9,0c1.5,1.5,3,3.1,4.6,4.6c0,4.8,0,9.6,0,14.8c-2.7,0.6-5.5,0.2-8.2,0.3
			c-2.8,0.1-5.6,0-8.7,0C240.4,311.3,240.4,306.8,240.4,301.4z M247.5,318.8c2.1,0.5,4.1,1,7,1.7c3,3,3,3,4,6
			c-2.5-1.8-4.7-3.4-7-5.2c-4.4-0.1-9-0.6-11,5.3c-0.1-1-0.2-2-0.3-2.8C241.5,320.1,245.3,320.5,247.5,318.8z M215.4,300.7
			c1.3-1.3,2.9-2.9,4.4-4.4c1.8,0,3.5-0.2,5.3,0.1c1.4,0.2,2.7,0.9,3.5,1.2c1.6,2.1,2.6,3.4,3.7,4.9c0,4.1,0,8.5,0,13.5
			c-2.7,0-5.5,0-8.2,0c-2.8,0-5.6,0-8.6,0C215.4,310.8,215.4,305.9,215.4,300.7z M218.1,320.4c1.9-0.6,3.2-1,5.1-1.6
			c1.5,0.4,3.7,0.9,6.7,1.7c0.9,1.3,2.4,3.3,3.9,5.5c-0.7,0.2-1.7,0.5-1.8,0.5c-1.1-2.6-4.2-3-5.4-5.2c-2.6,0.1-5.2-0.5-7.4,1.3
			c-1.6,1.3-3.3,2.5-5.7,4.3C214.4,323.1,217,321.9,218.1,320.4z M206,364.3c-5.5,0-11.1,0-16.9,0c0-10.9,0-22,0-33.2
			c2.3-3,5-4.9,8-6c7.6,3.1,8.9,5,8.9,12.1C206,346.1,206,355,206,364.3z M194.8,296.3c0.6-0.2,1-0.8,1-0.8c1.9,0.4,3.5,0.8,6.2,1.4
			l0,0c0,0,0,0-0.1,0c-0.5-0.3-0.3-0.2,0,0c0,0,0.1,0,0.1,0.1h-0.1c3.1,2.6,4.5,5.9,4.1,10c-0.2,2.8,0,5.6,0,9c-5.8,0-11.2,0-17.1,0
			c0-3.5,0-6.9,0-10.3C188.9,301.2,190.5,297.9,194.8,296.3z M192.6,320.2c2.1,0.8,3.8-2.6,6.8-1.2c3.8,1.8,3.9,1.5,8.1,5.8
			c-0.1,1-0.1,2-0.2,4.5c-1.4-4.7-4-6.4-8.1-8.1c-4.3-0.6-8.4,1.3-11.2,7.4c-0.1-1.9-0.2-2.9-0.2-4.1
			C189.2,323.2,190.8,321.7,192.6,320.2z"/>
		<path d="M468,270.2c0.9,2.9,1.3,5.2,4.4,5c0.9-2-0.9-5.3,2.5-6.3c0.6,5.3,0.6,5.3,4.1,6c0-2.5,0-5,0-7.3c-5-1.2-10.1,1.2-14.7-1.5
			c-0.1,0-0.3,0.1-0.5,0.2c0,0.1,0,0.2,0.1,0.2c-0.9,0.4-1.8,0.8-2.7,1.1c0,2.5,0,5,0,7.3c2.2,0,4.1,0,6,0
			C467.4,273.7,467.6,272.5,468,270.2z"/>
		<path d="M437,0H246C91.9,0,0,124.9,0,279s91.9,279,246,279h191c154.1,0,246-124.9,246-279S591.1,0,437,0z M579.1,259
			c-0.6,0.2-1.1,0.4-1.6,0.5c-2.6,0.5-5.3,1-7.9,1.3c-2.5,0.3-4.9-0.1-7.4,1.2c-1.7,0.9-4.3,0.1-6.4,0.2c-7.4,0.4-14.9,0.8-22.3,1.4
			c-1.1,0.1-2.2,0.9-3.8,1.6c-0.2-1.9-0.3-3.5-0.5-5.2c0.8-0.2,1.4-0.3,2-0.4c2.6-0.4,5.3-1,8-1.3c2.5-0.3,5.1,0.4,7.3-1.3
			c0.1-0.1,0.4,0,0.6,0c3.3,0,6.5,0.1,9.8,0c3.1-0.1,6.1,0.1,9.3-1.1c2.9-1.1,6.5-0.2,9.8-0.2C576.8,256.7,577.9,257.8,579.1,259z
			 M571.5,248.6c-8.4,0.7-16,4-24.1,3c-0.6-0.1-1.5-0.2-1.9,0.1c-5.4,3.6-11.4,2.2-17.7,2.6c0-1.6,0-2.5,0-3.3
			c0.6-0.6,1.3-1.3,1.7-1.7c2.7-0.9,5.4,0.7,8.2-1.3c2-1.4,5.5,1,7.9-1.4c0.4-0.4,1.7-0.1,2.6-0.1c7,0.4,13.8-1.3,20.9-2.7
			C569.9,245.2,570.6,246.8,571.5,248.6z M566.1,237.8c-2.8,1.9-6-0.4-8.8,1.8c-1.9,1.4-5.4,0.5-7.8,1.7c-2.7,1.3-5.9,0.3-8.2,2.4
			c-0.4,0.3-1.3,0-1.9,0c-3.1,0.1-6.3-0.4-9.3,1.2c-0.8,0.4-2.1,0.1-3.3,0.1c0-1.7,0-3.2,0-4.8c12-3.1,24.8-3.4,37.2-7.4
			C564.8,234.9,565.5,236.4,566.1,237.8z M558.8,222.8c0.7,1.5,1.4,3,2.4,5c-4.3,1-8.2,2.3-12.2,2.7c-2.8,0.3-5.4,0.6-7.4,2.7
			c-2.6,0-5.2,0-7.9,0c-0.8,0.8-1.5,1.5-2.4,2.5c-2.2,0-4.5,0-7.2,0c0-1.6,0-3.2,0-5.2c4.1,0.5,7.7-1.8,11.4-2.2
			c4.2-0.5,7.9-3,12-2.8C551.6,225.6,554.8,222.5,558.8,222.8z M525.2,279c0,4.9,0.2,8.6,0,12.3c-0.3,6.4,0,13-1.4,19.1
			c-3,13.1-5.6,26.3-11,38.7c-2.3,5.2-5,10.2-7.1,15.4c-1.8,4.6-4.4,8.7-6.9,12.9c-2.6,4.2-5.5,8.2-8.2,12.4
			c-7.8,12.1-18,21.8-28.1,31.6c-4.5,4.3-10.2,7.4-14.8,11.5c-6.4,5.7-14.2,9.3-21.3,13.9c-3.9,2.5-8.2,5.5-13.3,5.8
			c-6.5,4.4-14.2,5.9-21.5,8.3c-4.1,1.3-8.2,2.7-12.4,3.4c-6.4,1.1-12.8,2.1-19.2,3c-6.2,0.9-12.4,0.9-18.5,1
			c-6.3,0.1-12.7,0.5-19-0.1c-10.1-1-20.2-1.8-30.1-4.8c-5.8-1.8-11.9-3-17.7-4.9c-7.3-2.4-14.1-6.2-21.2-9.1
			c-11.6-4.9-21.2-13.2-32.1-19.2c-0.4-0.2-0.6-0.6-0.9-0.9c-7.4-7-15.3-13.5-22.1-21c-9-9.8-17-20.4-23.8-32.1
			c-4.1-7.1-8-14.3-11.3-21.6c-3.6-7.9-6.9-16.1-8.2-24.8c-0.6-4-3.1-7.7-2.7-12c-2.9-2.6,0.5-6.9-2.5-9.5c1-4.8-1.5-9.2-1.4-13.9
			c0.2-9-0.1-18,0.1-26.9c0.1-2.9-1-5.8,1.1-8.8c1.4-2-1-5.5,1.5-7.9c0.2-0.2,0-0.8,0-1.3c-0.2-7,2-13.5,4-20
			c1.6-5.4,3.4-10.8,5.2-16.2c3.4-10,8.4-19.3,13.5-28.6c4.5-8.2,10.7-15.2,15.5-23.1c0.2-0.4,0.6-0.6,0.9-0.9
			c5.6-6,10.8-12.4,16.8-17.9c9.5-8.6,19.3-17.1,30.3-23.5c8.9-5.1,17.7-10.6,27.7-13.9c6.4-2.1,12.4-5.2,19.1-6.1
			c1.7-0.2,3.3-1.4,5-2c1.7-0.7,3.4-1.5,5.2-1.8c3.3-0.6,6.7-0.7,9.9-1.4c4.7-0.9,9.5-0.7,14.1-2.3c1.2-0.4,2.6-0.2,3.8-0.2
			c9.8,0,19.7-0.4,29.5,0.2c4.7,0.3,9.6,0.3,14.1,2.4c0.5,0.3,1.3,0.1,1.9,0.1c7.2-0.3,13.9,2.2,20.6,4.2c7.6,2.2,15.1,4.7,22.4,7.7
			c6.9,2.9,13.7,6.2,20.2,9.9c5.7,3.3,10.8,7.7,16.6,10.8c3.2,1.7,4.8,5.5,8.5,6.3c6.3,5.9,13,11.4,18.9,17.7
			c8.2,8.9,16.2,18.2,22.3,28.8c6.9,12.1,14.3,24.2,17.8,37.9c0.6,2.4,2.1,4.3,2.8,6.7c1.3,4.5,2.3,9.1,3.5,13.6
			c1.7,6.2,3.6,12.6,2.8,19.2C526.4,264.6,524.6,272.4,525.2,279z M535.7,388.2c-9.5-5.4-19.3-10.3-28.9-15.7
			c0.8-1.6,1.4-2.8,2.1-4.2c7.9,3.3,15.1,7.8,22.8,11.4c3.7,1.7,7.1,3.9,10.6,5.9c2.4,1.4,4.8,2.9,3.4,6.9
			C542.3,391.1,538.8,390,535.7,388.2z M545,400.3c-0.1,1.8-0.2,3.4-0.3,5.8c-7.5-4.5-14.4-8.4-21-12.7c-6.7-4.3-14.3-7-20.9-12.5
			c0.4-1.3,0.8-2.8,1.3-4.8C518.5,383.6,531.4,392.3,545,400.3z M544.3,380.2c-3.1-3.3-7.7-3.6-11.4-5.8c-3.4-2-7-3.9-11-4.9
			c-3.9-1-7.5-3.8-11.6-6c1.2-1.4,2.3-2.7,3.4-4c11.3,5.3,22.5,10.6,33.7,16c0,1.5,0,3,0,4.8C546.3,380.3,544.7,380.8,544.3,380.2z
			 M144.2,378.6c4.9-2.4,9.8-4.9,14.4-7.9c1.7-1.1,3.7-1.5,6.2-2.4c0.7,1.5,1.5,3.1,2.2,4.6c-6.7,3.4-12.9,6.4-19,9.6
			s-12.2,6.5-18.7,9.9c-0.8-1.5-1.7-2.9-2.5-4.5C132.9,384.7,138.4,381.4,144.2,378.6z M125.5,376c4.1-2.1,7.6-4.4,11.3-5.8
			c4-1.5,7.5-4.2,11.4-5.4c4-1.3,7.1-4,11.8-4.9c0.6,0.7,1.8,2,3,3.2c-3.3,3.5-7.7,4.2-11.2,6.4c-3.2-0.9-4.4,2.7-7.3,3.1
			c-2.5,0.4-4.8,2.1-7,3.4c-2.8,1.6-6.5,1.4-9.3,5.8C126.9,379.1,126.2,377.5,125.5,376z M168.7,376.6c1.2,1.2,2.1,2.1,3.4,3.4
			c-13.6,9.6-28.5,16.9-42.4,25.6c-0.5-0.3-0.9-0.4-0.9-0.5c-0.2-1.5-0.3-2.9-0.5-4.6C141.7,392.1,155.2,384.4,168.7,376.6z
			 M129.4,167.6c12.3,7.1,25.5,12.4,37.4,20.3c-2.4,3.9-2.5,4-5.6,2.3c-3.9-2.1-8.1-3.8-11.9-6.2c-2.6-1.7-5.6-3.3-8.5-4.7
			c-4.5-2.3-9-4.6-13.3-6.8c0-1.7,0-3.2,0-4.8C128.2,167.7,129,167.4,129.4,167.6z M128.8,159.7c0-2.1,0-3.6,0-5.8
			c14.6,8.7,28.7,17.1,43.1,25.6c-0.7,1.4-1.2,2.6-1.8,3.8c-4.4,0.5-6.7-2.8-9.6-5C149.2,172.8,138.8,166.1,128.8,159.7z
			 M155.6,192.7c2.4,1.1,4.7,2.3,7.4,3.6c-1.1,1.4-2.3,2.8-3.5,4.2c-3.7-1.9-7.3-3.7-10.9-5.6c-3.8-2-7.9-3-11.7-5
			c-3.5-1.9-7.3-3.5-10.8-5.1c0-2.1,0-3.7,0-5.9C136.3,183.7,145.9,188.2,155.6,192.7z M544.9,173.4c-5.9,3.2-12.1,5.8-17.6,9.7
			c-3.5-0.2-5.3,3-8.1,4.1s-5.9,1.5-8.2,3.9c-0.4,0.4-1.6,0.1-2.3,0.1c-0.6-1.3-1.2-2.4-1.8-3.7c1-0.5,2.2-0.9,3.1-1.5
			c5.8-4.1,13.2-5.6,18.6-10.5c6-1.1,10.3-5.5,15.9-7.6c0.4,1.3,0.9,2.8,1.5,4.6C545.8,172.6,545.4,173.2,544.9,173.4z M547.1,181
			c1.5,2.1,0.3,4.5-1.7,4.8c-3.8,0.7-6.4,3.4-10,4.3c-3.4,0.8-6.4,3.4-9.6,5c-3.8,1.8-7.7,3.4-11.8,5.2c-0.9-1-1.8-2.1-2.9-3.3
			c1.7-3.5,5.9-4.3,9-5.6c6.7-2.8,13.2-5.9,19.8-8.9C542,181.5,544.2,180,547.1,181z M544.7,159.4c-2.1,1.6-4.4,4.6-7.3,5.4
			c-3.5,0.9-5.7,3.2-8.4,5s-5.7,3.1-8.5,4.7c-2.8,1.6-5.4,3.9-8.4,4.9c-3,1.1-4.8,4.9-8.6,4c-0.6-1.2-1.1-2.2-1.8-3.6
			c13.8-8.7,28.5-16.3,43.1-25.9C544.7,156,544.7,157.2,544.7,159.4z M556.3,217.1c-10.5,3.9-21.6,7.1-32.9,9.8
			c-0.6-1.2-1.2-2.2-1.9-3.6c1-2,3-1.4,4.5-2c6-2.6,12.5-3.3,18.3-6.3c3.9,0.5,7.2-1,10.6-2.4C555.4,214,555.9,215.5,556.3,217.1z
			 M553.4,206.5c-3.7,0.6-5.8,3.3-9.2,3.2c-3,0-5.3,3.4-8.7,2.5c-3.4,2.5-7.4,3.1-11.3,4.4c-1.6,0.5-3.2,0.8-5.3,1.3
			c0-2.4,0-3.9,0-4.9c10.8-3.7,21.4-7.3,32.5-11C551.9,203.2,552.6,204.7,553.4,206.5z M550.2,195.8c-3.3,2.6-7.6,2.8-11.1,4.6
			c-3.6,1.9-7.4,3.2-11.1,4.6c-3.7,1.4-7.4,3.1-11,4.7c-0.3-0.2-0.6-0.3-0.6-0.5c-0.1-1.5-0.2-2.9-0.3-4.7
			c10.3-5.2,21.3-8.5,31.5-13.4C549.8,192.1,550.5,193.7,550.2,195.8z M534.4,124.1c2.1,1.1,4.8,1.2,7.3,1.4c2.3,0.2,4.7,0,7.5,0
			c-2.9,6.7-2.7,13.4-5.1,21.7c-14,9-29,18.7-44.4,28.6c-4.2-6.4-8.9-12.4-13.2-18.3c14-11.5,27.3-22.5,40.5-33.5
			C529.3,122.9,531.7,122.8,534.4,124.1z M521,120.8c-12.3,11-24.6,22.1-36.5,32.8c-1-1-2.2-2-3.8-3.5c1-1.7,2.2-4.2,5.6-3.7
			c3.6-5.8,8.9-9.6,13.9-13.7c5.3-4.4,10.2-9.2,15.3-13.9C517.7,119.7,519.5,120.3,521,120.8z M502.3,115.3c1.6,0,3.7,0,6.2,0
			c-1.5,4.2-5.1,6.2-7.6,8.9c-2.6,2.7-5.7,4.9-8.4,7.6c-2.6,2.6-4.7,5.6-7.3,8.1c-2.5,2.4-5.5,4.5-8.8,7.2c-1-1.1-1.8-1.8-2.3-2.7
			c-0.3-0.5-0.1-1.3-0.1-1.9c0.2-0.4,0.4-1,0.6-1c1.9,0.2,2.6-1.4,3.6-2.4c5.4-5.4,10.8-10.8,16.3-16.2c1.6-1.6,3-3.5,5.4-4.3
			C500.8,118.2,501.3,116.6,502.3,115.3z M497.9,111.5c-1.7,1.7-3.2,3.1-4.6,4.6c-7.5,8-15,16.1-23.4,25.1c-1-1.7-1.5-2.7-2.4-4.3
			c0.7-2.6,3.8-4.8,5.9-7.5c1.3-1.7,3.1-3.1,4.6-4.7c4.5-4.9,9-9.8,14-15.2C493.6,110.1,495.4,110.7,497.9,111.5z M483.9,103.3
			c1.2,1.2,2.1,2.1,3.1,3.1c-7.7,9.1-15.4,18.1-23.5,27.6c-1.4-1.3-2.6-2.5-3.9-3.7c4.1-4.6,8-9.2,12.1-13.7
			C475.8,112.2,478.3,106.5,483.9,103.3z M475.5,98.8c0.6,0.5,1.5,0.6,2.3,1c-7.1,9.5-14.2,19-21.2,28.3c-1.4-1.2-2.7-2.2-4.1-3.4
			c7.1-9.4,14.1-18.5,21.4-28.1C474.3,97.1,474.8,98.1,475.5,98.8z M469,93c-6.9,10.1-13.6,19.9-20.5,30c-1.2-1.2-2.3-2.3-3.8-3.7
			c3.2-4.7,6.4-9.4,9.7-14.1c3.3-4.7,5.9-9.9,10.2-14.2C466,91.6,467.3,92.2,469,93z M459.3,87.7c-2.8,4.7-5.3,10.2-9.1,14.7
			c-3.7,4.5-4.4,11.1-10.6,14.1c-0.7-0.6-1.6-1.4-3-2.5c6.4-10.3,12.7-20.5,18.9-30.4C457,85.2,458.1,86.4,459.3,87.7z M450.3,77.5
			c0,1.5,0,2.8,0,3.4c-6.1,10.8-11.4,21.4-17.8,31.2c-0.8-0.4-1.9-0.9-3.1-1.5c0-1.2,0-2.5,0-3.3c6-10.8,11.9-21.3,18-32.1
			C448.4,76.1,449.4,76.8,450.3,77.5z M439.6,67.3c1.1,0.9,2.1,1.7,3.5,2.9c-6.1,12.3-12.1,24.7-18.4,37.5c-1.5-0.6-3-1.2-4.4-1.7
			c1.8-4.8,3.1-9.4,6.5-12.8c0.2-5.1,4-8.8,5.5-13.5C433.6,75.3,436.9,71.6,439.6,67.3z M434.4,60.8c-1.9,5-2.8,10.3-5.6,14.3
			c-3.1,4.5-3.9,9.7-6.9,14.3c-2.7,4-3.3,9.5-6.1,14.1c-1.7-0.7-3.2-1.3-4.5-1.9c1.2-3.1,2.1-6.4,3.6-9.4c1.4-2.9,2.5-6.1,4.1-8.7
			c1.9-3.1,2.2-6.6,3.7-9.6c1.5-2.9,3-5.6,4-8.8c1-3.2,2.9-6.1,4.4-9.1C432.4,57.8,433.5,59.5,434.4,60.8z M396,54.5
			c0.9-3.6,1.5-7.3,2.3-11c0-5.4,6.3-3.7,8.3-7.2c4.2-0.3,6.6-3.9,10.8-5.1c3.9,5.5,5.1,12.9,9.6,18.1c-0.6,3.8-4.3,6.1-3,8.8
			c-2,4.1-4.5,7.3-4.9,10.7c-0.4,3.9-3.2,6.7-3.3,10.5c-3.4,2.2-2,6.5-4,9.5c-2,2.9-2.8,6.7-4.3,10.7c-1.8-0.5-4-1-6.1-1.6
			c-1-0.3-1.8-1.2-2.7-1.2c-4.3,0.1-7.4-4.4-12.5-2.3c0.1-5.2,2.1-9.6,2.5-14.2c2.4-2,1-5.1,2.5-7.5c1.1-2,1.4-4.7,1.7-7.2
			C393.2,61.8,395,58.2,396,54.5z M387.8,44.1c0.7,0,1.7,0,2.7,0c0.7,0,0.7-1.7,2-0.8c-0.9,4-2.3,7.8-2.7,11.9
			c-0.4,4.1-1.5,8.1-2.6,12c-1.1,4-2.3,7.9-2.7,12c-0.4,4-2,7.9-3,12c-1.3,0-2.8,0-4.2,0c-0.2-0.3-0.4-0.4-0.5-0.6s0-0.4,0-0.7
			c0-0.4-0.1-0.9,0-1.3c3.6-13.9,5.9-28.1,9.7-41.9C386.8,46.1,387.2,45.4,387.8,44.1z M369,74.5c0.9-4.2,2.2-8.3,2.6-12.7
			s2-8.8,3.3-14.1c0.6-0.2,2.1-0.9,4.9-2c-0.9,5.6-1.1,9.8-2.3,13.7c-0.4,1.4-0.9,2.8-0.8,4.2c0.3,4.3-1,8.2-2.2,12.2
			c-0.4,1.2-0.3,2.5-0.5,3.7c-0.4,2.9-0.8,5.7-1.5,8.6c-0.2,0.7-1.2,1.2-1.6,1.7c-1.1-0.6-2.2-1.1-3.3-1.7
			C368.1,83.7,368.1,79,369,74.5z M359.7,77.4c0.1-0.1,0-0.4,0-0.6c0.4-5.7,0.8-11.4,1.3-17.1c0.3-3.3,1-6.6,1.5-10c1.5,0,3,0,4.7,0
			c0.1,0.4,0.4,1,0.4,1.6c-0.4,3.1-0.9,6.2-1.3,9.3c-0.3,2.9-0.4,5.7-1.1,8.7c-1.3,5.7-1.3,11.8-1.9,18.8c-1.5,0.4-3,0.7-5.1,1.3
			C358.9,84.7,357.2,80.9,359.7,77.4z M349.9,70.3c0.4-5.8,0.6-11.6,0.9-17.9c1-1.5,2.6-2.8,5-1.2c0,1.8,0.1,3.6,0,5.3
			c-0.4,7.5-0.5,15-1.5,22.4c-0.4,2.6-1.1,5.3-1.1,8.2c-1.7,0-3.3,0-4.8,0C348.9,81.5,349.5,75.9,349.9,70.3z M340.4,52.2
			c1.2-0.1,2.8-0.2,4.8-0.3c0,4.8,0.9,9.5-0.2,13.7c-1.9,7.1-0.4,14.1-1.3,21.7c-1.7,0-3.1,0-5.2,0
			C339.2,75.8,339.8,64.3,340.4,52.2z M328.2,52.2c1.6-0.1,3.2-0.2,4.7-0.3c0.2,0.6,0.6,1,0.5,1.4c-0.9,5.4,1.3,10.5,1.3,15.8
			c0,5.4,0,10.9,0,16.6c-1.7,0.7-3,1.3-4.3,1.8c-0.4-0.3-0.9-0.5-1-0.8c-0.1-3.9,0.2-7.8-0.1-11.7c-0.3-3.5,0.5-6.9-1-10.7
			C327.1,60.9,328.2,56.6,328.2,52.2z M317.7,51.2c3.1-0.2,3.1-0.2,5.1,1.3c0.5,4.9,1.2,9.7,1.4,14.5c0.2,5,0,10.1,0.1,15.1
			c0.1,1.6,0.8,3.1,1.4,5.1c-1.7,0.1-3.3,0.2-4.7,0.2c-2.7-5.5-1.7-11.1-2-16.6c-0.2-4.6,0.9-9.3-1.2-13.9
			C317.1,55.3,317.7,53.1,317.7,51.2z M306.1,49.4c1.7,0,3,0,4.7,0c0.5,4.3,0.3,8.9,1.8,12.8c1.7,4.4,0,9,1.5,13.1
			c1.7,4.4,0.3,8.8,1.2,13.9c-2.3-0.6-3.8-1-5.6-1.5c0.6-7.7-2.2-14.7-1.4-22c0.2-1.9-0.8-4-1.2-6c-0.4-1.8,0.6-3.7-0.9-5.6
			C305.5,53.1,306.1,51,306.1,49.4z M300.6,49.5c-0.2,6.2,0,12.1,2.5,17.5c-0.8,7.3,4.1,13.8,2.4,21.3c-1.3,0.6-2.7,1.3-4.8,2.3
			c0.3-7.9-2.1-14.8-3.2-22c-1.1-7.1-1.6-14.4-3.9-22.7C296.7,47.5,298.7,48.5,300.6,49.5z M287.2,45.9c0.1,4.6,2.4,9.3,3,14.5
			s2.5,10.3,3.8,15.5c1.2,5,2,10.1,3,15.4c-2.1,0-3.6,0-5.1,0c-1.6-3.4-2-7.2-1.9-11c0-1.1-0.9-2.2-1.2-3.4
			c-0.5-2.2-0.8-4.5-1.4-6.7c-0.5-2.2-1.5-4.2-1.9-6.4c-0.4-2.3-0.4-4.6-0.7-6.9c-0.2-1.4-0.9-2.7-1.3-4.1c-0.8-2.7-1.5-5.4-2.3-8.4
			C283,44.1,285.1,43.4,287.2,45.9z M255.3,31c6.1,3.2,12.2,6.4,18.8,9.9c1.4,3.4,2.6,7.3,3.1,11.8c0.5,4.7,2.4,9.4,3.8,14.1
			c1.4,4.7,2.1,9.6,3.8,14.1c0.3,0.8,0,1.9,0.5,2.4c2.9,3,2,6.7,2.3,11.1c-4.5-1.1-7.4,1.7-10.7,2c-3.5,0.4-6,3-9.8,3.1
			c-1-1.5-2.2-2.9-2.9-4.5c-1.3-3.2-2.1-6.6-3.3-9.8c-2.7-6.8-5.7-13.4-8.2-20.2c-1.8-4.9-3.2-10-6.2-14.6
			C249.4,43.9,252.3,37.4,255.3,31z M241.8,56c0.4,0.3,0.8,0.5,1,0.8c3.1,6.1,5.1,12.8,8.2,18.8c2.5,4.9,3.8,10.2,7,14.8
			c2.2,3.2,2.9,7.4,4.3,11.1c-1.1,0.5-2.4,1.1-4.1,1.9c-3.8-3.8-4.3-9.4-6.8-13.9c-2.5-4.4-3.9-9.7-5.9-14.5s-4.8-9.3-6-15.1
			C240.1,58.8,240.9,57.4,241.8,56z M234.3,66.8c1,1.4,2.6,2.8,3.2,4.6c1,3.4,3.4,6.1,4.4,9.3c1.5,4.7,4.5,8.6,6.3,13.1
			c1,2.6,2.4,5.2,4.1,7.4c1.1,1.4,1.3,2.6,0.9,4.1c-0.2,0.8-2,1.5-4.4,1.7c-3.1-6.1-6.6-12.1-9.2-18.5c-2.6-6.4-7.1-11.8-8.5-19.1
			C232,68.8,233.1,67.8,234.3,66.8z M226,74.9c6.6,11.8,12.9,23.1,18.9,33.8c-0.9,1.3-1.9,2.7-3.3,4.7c-6.9-11.8-13-23.1-19.3-34.9
			C223.2,77.5,224.4,76.4,226,74.9z M217.9,83c2.8,3.7,4,7.5,6.6,10.8c2.4,3,4.9,6.5,5.7,10.6c3.7,2.4,3.8,7.4,7.2,9.8
			c-1.6,1.1-3.2,2.2-4.7,3.2c-1.3-2.5-2.1-5.8-4.2-7.5c-2.5-2.1-2.6-5.3-5.1-7.4c-2-1.7-3.1-4.7-4.2-7.3c-1.3-2.9-3.2-5.3-5.9-7.7
			C215,86,216.4,84.6,217.9,83z M206.4,91.4c1.6,0,2.9,0,4,0c6.4,9.5,12.6,18.9,18.9,28.3c-1.2,0.8-2.7,1.8-4.3,3
			c-0.1-0.3-0.2-0.8-0.5-1.2c-4.8-6.7-9.7-13.4-14.3-20.2C208.2,98.5,204.8,96.1,206.4,91.4z M200.2,97.6c1.6,1.8,3.8,4,5.7,6.5
			c1.8,2.3,2.9,5,4.8,7.1c2.1,2.4,4.2,4.6,5.8,7.4c1.3,2.3,3.3,4.2,4.7,6c-1.3,1.5-2.3,2.6-3.5,4c-2.2-3.2-5.1-5.6-6.9-9.1
			c-1.9-3.4-5.5-6-7.3-9.4c-1.8-3.6-5.7-5.5-6.9-10C197.9,99.2,199.3,98.2,200.2,97.6z M191,103.5c7.8,9.1,15.5,18.3,23.4,27.6
			c-1.7,0.9-3.1,1.6-5,2.6c-1.4-2-2.7-4.1-4.3-5.9c-1.7-2-3.8-3.6-5.5-5.6c-1.6-1.9-2.5-4.4-4.2-6c-1.5-1.5-2.9-3.2-4.8-4.5
			c-1.7-1.2-2.4-4.1-3.5-6.3C188.8,104.7,190,104.1,191,103.5z M181.5,109.8c3.2,2,5.2,5.5,8,8.2c2.6,2.5,5.3,5.3,7.6,8.3
			c2.6,3.4,6,6.2,9.5,9.7c-0.8,1.5-1.5,2.9-2.3,4.4c-1-0.4-1.7-0.5-2.1-0.9c-8.4-8.9-16.8-17.8-25.1-26.6
			C177.5,110.1,179.3,109.6,181.5,109.8z M170.8,114.6c4.6,4.6,8.8,8.9,13.2,13.1c5,4.9,10.2,9.7,16.1,15.3
			c-0.9,1.3-1.8,2.5-2.6,3.7c-0.9-0.3-1.3-0.4-1.6-0.6c-11.1-8.7-20.2-19.4-31-29.5C167.1,115.9,168.9,115.2,170.8,114.6z
			 M158.3,119.3c11.7,9.8,23.4,20.2,35.8,31.5c-2.2,1-3.8,1.8-5.4,2.6c-10.9-10.2-22.7-21.4-36.3-32.2
			C155,120.4,156.5,119.9,158.3,119.3z M145,122.5c14.5,12.1,28.5,23.7,42.3,35.2c-4.4,5.8-8.9,11.8-13.6,18
			c-4.4-2.8-8.9-5.6-13.4-8.5c-4.3-2.9-8.5-5.9-12.8-8.8c-0.2-2.9-4.4,0.5-4.8-3.1c-0.2-1.5-3.7-0.8-5.2-2.8
			c-1.2-1.5-3.4-2.2-5.1-3.3c-1.7-1.1-3.4-2.2-5.4-3.5c1.6-6.7-2-12.9-2.6-20C131.7,125.1,139.1,126.9,145,122.5z M124.6,193.9
			c0.2-0.8,0-1.6,0-2.8c4.7,0.1,7.6,3.6,11.8,4.2c3.9,0.6,7,4.3,11.4,4c2.8,3.3,7.6,3,11,6.1c-0.7,1.4-1.2,2.7-1.7,3.8
			c-6-1.3-11.1-4.6-16.7-6.8c-5.5-2.1-10.9-4.3-16.7-6.5C123.9,195.5,124.4,194.7,124.6,193.9z M122.5,201.9
			c7.7,2.6,15.3,5.2,23,7.7c2.5,0.8,4.4,2.8,7.4,2.9c1.3,0,2.8,2.1,1.3,4.8c-2,0.3-4.4,0.4-7.1-1c-5.6-2.8-11.9-3.8-17.5-6.6
			c-2.9-1.4-6-2.3-9.2-3.5C121.1,204.6,121.8,203.2,122.5,201.9z M118.5,212.2c6.1,2,12.4,3.4,18.5,5.5c2.7,0.9,5.5,1.6,8.2,2.3
			c2.5,0.6,4.8,1.2,6.7,3.2c-0.6,1.1-1.1,2.3-1.9,3.9c-11.1-3.3-22.1-6.7-33.5-10.1C117.2,215.4,117.8,214,118.5,212.2z
			 M114.4,223.2c3.4,0.1,6.7,2,10.1,2c4.3,0.1,7.7,2.8,12,3c3.8,0.2,7.5,1.9,12,3.2c0.3,0.8,0.8,2.3,1.3,3.8
			c-0.8,0.4-1.2,0.7-1.5,0.7c-2.3,0-4.4-0.4-6.7-1.1c-5.4-1.8-11.1-2.8-16.7-4.1c-4-0.9-7.9-1.9-11.8-2.9
			C113.6,226.2,114,224.7,114.4,223.2z M111.3,233.2c4.7,0.9,9.3,3.3,14.5,2.8c0.5-0.1,1.1,0.6,1.6,0.7c3.2,0.9,6.3,2.6,9.7,1.8
			c2.7-0.7,4.8,1.2,7.3,1.5c2.2,0.2,3.1,2.1,2.2,5c-4.2-0.4-8.5-0.4-12.5-1.3c-4.2-0.9-8.3-2.3-12.7-2.7c-4-0.3-7.6-3.3-12-2.4
			C107.9,236,109.1,234.5,111.3,233.2z M105.3,243.7c6.4,1.2,12.6,2.7,19.2,2.9c6.4,0.2,12.8,1.8,19.7,2.9c0.2,0.2,0.8,0.8,1.4,1.4
			c0,0.8,0,1.7,0,2.6c-0.3,0.2-0.6,0.7-0.9,0.7c-3.3-0.4-6.7,0.7-10.1-0.9c-2.9-1.4-6.5,0-9.9-1.4c-2.9-1.2-6.5-0.3-9.9-1.4
			c-3.9-1.2-8.2-1.2-12.5-1.7C103.3,247,104.2,245.4,105.3,243.7z M98.8,254.2c0.6,0.5,1.1,1.4,1.5,1.3c5.9-0.9,11.4,1.5,17.2,1.5
			c7,0,14.1,0.7,21.1,1.3c1.8,0.1,3.5,1.1,5.5,1.7c0,1.7,0,3.2,0,4.3c-3.1-0.3-6-0.5-8.8-0.8c-3.8-0.4-7.5-1-11.3-1.3
			c-3.9-0.2-8,0.6-11.8-0.3c-2.9-0.7-5.8-0.9-8.7-1.2c-2.6-0.2-5.2-1-8.6-1.7C96.5,257.1,97.6,255.7,98.8,254.2z M88.3,293.2
			c-2.1-2.7-5.2-4-7.1-6.7c-1.6-2.3-3.9-3.7-6.5-4.7c0-0.9,0-1.8,0-2.6c2.6-1,4.7-2.6,6.6-4.6c3.2-3.3,6.5-6.5,9.9-10
			c5.6,2.2,11.7,0.5,17.4,1.7c7.1,1.5,14.1,0.7,21.1,1.2c2.2,0.2,4.4,1,6.7,1.2c2.4,0.2,4.8,0,7.3,0c-1.7,7.4-1,14.7,1,22.2
			c-9-0.2-16.9,2.3-25.1,1.4c-6.9,2.2-14,1-21,1.4c-1.2,0.1-2.3,0.7-3.5,1.1C92.5,295.8,89.5,294.8,88.3,293.2z M94.4,300.9
			c8.4-2.5,16.6-1.9,24.7-2c3.7-2.5,8.1-0.2,11.7-1.7c3.8-1.6,7.6-0.4,11.4-0.9c0.6-0.1,1.2,0.1,2,0.2c0,1.6,0,3.1,0,5
			c-1.7,0-3.3-0.1-5,0c-6.4,0.4-12.9,0.1-19,1.5c-5.8,1.4-11.5,0.6-17.2,1.1c-1.6,0.1-3.1,0.7-5.3,1.2
			C96.7,304.2,95.5,302.5,94.4,300.9z M101.8,310.8c5.4,0.6,9.8-2.2,14.8-1.4c2.5,0.4,4.5-1.9,7.3-1.4c2.4,0.4,4.9,0.1,7.3-1.1
			c2.1-1.1,4.8,0.5,7.4-1.2c1.4-1,4.2-0.2,6.7-0.2c0,1.7,0,3.3,0,5.4c-5.1-1.1-10,0.8-14.9,1.5c-6.6,0.9-13.1,2.6-19.8,2.4
			c-2.1,0-4.3,1-6.3,1.5C103.4,314.3,102.7,312.9,101.8,310.8z M108.8,321.9c6-2.2,12.4-2.4,18.6-3.9c6.2-1.4,12.5-2.6,19.4-3.6
			c0,2.2,0,3.5,0,5c-0.5,0.2-1,0.5-1.6,0.5c-2.1,0.2-4,0.2-6.1,1.2c-2.5,1.2-5.5,1.9-8.6,1.6c-2-0.2-4,0.8-6,1.2
			c-2.2,0.5-4.4,0.9-6.7,1.3c-2.2,0.4-4.4,0.9-6.7,1.3C109.2,325.7,108.4,324.1,108.8,321.9z M112.7,332.9c3.5-2.4,7.3-2.7,11.2-2.4
			c1.9-1.9,4.2-2.4,6.8-2.8c5.6-0.9,11.2-2.3,17.4-3.7c0.5,1.2,1.2,2.8,2,4.4c-3.6,0.9-6.5,2-9.7,2.1c-2.7,0.1-4.8,2.9-8.1,2.5
			c-3.2-0.4-5.8,1.5-8.7,2.5c-2.7,0.9-5.7,0.9-8.8,1.3C114.1,335.7,113.4,334.3,112.7,332.9z M116.3,342.8
			c11.6-2.8,22.5-6.7,33.8-9.7c0.7,1.4,1.4,2.8,2.4,4.7c-3.8,1.1-7.4,2.3-11.1,3.2c-3.8,0.9-7.2,2.9-11.2,3c-2.9,3.4-7.7,1.2-11.4,4
			C117.9,346,117.2,344.6,116.3,342.8z M120.3,353.4c10.8-3.7,21.4-7.4,31-10.7c2.1,0.8,3.1,1.2,4.1,1.5c-1.8,4-5.7,3.7-7.8,5.9
			c-6.5,1.1-12.5,3.3-18.3,6.4c-1.9,1-4.4,0.9-6.7,1.4C121.9,356.7,121.2,355.2,120.3,353.4z M155.5,351.4c2.8,0.6,3.6,2.3,3.1,5.2
			c-2.9,0.2-5.8,0.7-8.5,2.6c-3.5,2.4-8,2.7-11.9,4.3c-3.7,1.5-7.3,3.4-10.9,5.1c-0.5,0.2-1.3,0-2.2,0c-0.7-1.4-1.2-2.5-1.9-4.1
			C134.1,360.1,144.8,355.7,155.5,351.4z M140.1,436.1c-0.9-0.7-2.4-0.5-3.7-0.5c-3.3-0.1-6.6,0-9.8,0c-0.9-0.9-1.4-1.4-2-2
			c0.1-0.5,0.1-1.1,0.4-1.6c1.2-2.8,2.6-5.7,2.3-8.9c-0.3-2.8,0.1-5.5,1.3-8c0.5-1.1,1-2.6,2-3.1c7.6-4.1,14.3-9.5,22-13.3
			c3.9-1.9,7-5.1,10.7-7.5c3.5-2.4,7.2-4.5,10.8-6.7c4.9,5.6,7.5,12.7,13.4,17.9c-3.6,3.1-7.1,6.7-11.2,9.4c-1.6,1-1.9,3.1-4.3,3.7
			c-1.8,0.4-3,3-4.7,4.3c-1.6,1.2-4.7,1.6-5.1,2.9c-0.6,2.2-3.8,1.9-3.4,4.4c-4.7,1.5-7.4,5.4-11.1,8.2
			C145.8,436.6,143,438.2,140.1,436.1z M154.1,439.7c-0.3-0.7-0.5-0.9-0.4-1c0.1-0.2,0.3-0.3,0.4-0.5c7-6.6,13.6-13.7,21.1-19.5
			c5.1-4,9.3-9,15-12.1c2.3,0.7,2.9,2.3,2.7,4c-11.8,10.3-23.4,20.3-35.2,30.6C156.3,440.6,155,440.1,154.1,439.7z M169.4,446.3
			c-1-0.7-2-1.6-3.7-2.8c3.4-2.5,5.1-5.6,7.9-8.1c2.3-2.1,4.7-4.6,6.8-7.3c2-2.6,4.8-4.8,7.3-7.2c2.7-2.7,5.7-4.9,9.8-8.3
			c0.4,1.1,0.8,2.2,1.1,3.2c0.4-0.1,0.8-0.3,1.3-0.4c-1.2,1.9-2.1,4-3.6,5.5c-2,2-4.3,3.5-6.1,5.8c-1.6,1.9-3.4,4-5.3,5.3
			C179.1,436,175.1,441.7,169.4,446.3z M177.2,449.5c0-0.7-0.1-1.6-0.1-2.4c2.3-1.1,3.1-3.6,4.8-5.1c1.9-1.8,3.7-3.7,5.6-5.5
			c1.7-1.7,4-3.1,4.9-5.2c1.1-2.5,3.1-4,4.8-5.9c1.8-1.9,3.7-3.7,5.5-5.5c1.6,1,3.1,2,4.7,3c-9,9.6-17.8,19.1-26.5,28.4
			C179.5,450.6,178.4,450.1,177.2,449.5z M189.8,457.1c-1-1.7-1.8-3-2.7-4.3c7.8-9,15.2-17.7,22.9-26.6c1.1,1,2.5,2.1,3.7,3.2
			c-3.9,5-7.1,10.5-11.7,14.3C197.6,447.6,195.6,453.3,189.8,457.1z M200.3,463.1c-1.2-1.2-2.4-2.3-3.8-3.6
			c6.8-9.2,13.5-18.2,21.6-27.7c1.2,2.1,2,3.4,3.1,5.1c0,0,0,0,0.1-0.1l0,0c0.2-0.4,0.2-0.2,0,0c0,0,0,0.1-0.1,0.2l0,0
			c-6.2,7.3-12.8,14.4-17.7,22.7C202.6,460.9,201.4,461.9,200.3,463.1z M212.9,464.2c-2.9,1.1-0.4,5.5-4.7,5.4
			c-0.8-0.6-1.6-1.3-2.2-1.7c0.3-6.9,6-10.2,8.7-15.1c2.9-5.2,6.8-9.9,10.5-15.2c1.4,1,2.3,1.7,3.8,2.8c-1.5,2.1-2.9,4-4.2,6.1
			s-2.4,4.3-3.8,6.3c-1.3,1.9-2.8,3.6-4.1,5.5C215.4,460.3,214.7,463.5,212.9,464.2z M214,473.2c5.1-9.8,12.1-18.1,17-27.8
			c0.4-0.9,1.4-1.5,2.5-2.6c1.3,1.3,2,2,3.1,3.1c-2.2,5.6-6,10.2-9.3,15.1s-5.8,10.2-9,15.9C216.7,475.5,215.3,474.3,214,473.2z
			 M222.2,481.4c6.1-11.1,12.1-21.9,18.2-33.2c1.9,0.6,3.4,1.1,5.4,1.8c-6.6,11.8-13,23-19.6,34.7
			C224.6,483.4,223.2,482.2,222.2,481.4z M235.1,493c-1.6-1.2-3-2.1-4.3-3.1c2.2-4.4,4.3-8.4,6.2-12.4c2-4.2,4-8.4,5.9-12.6
			c1.8-4.1,5.4-7.3,5.5-12.6c1.8,0.7,3.2,1.3,5.2,2.1c-0.4,1.2-0.6,2.6-1.2,3.8c-1.3,2.5-3.9,5-3.9,7.4c0,3.1-3.3,3.7-3.2,6.8
			c0.1,1.9-1.8,4.7-3.2,6.3c-1.8,2-1.6,4.6-3.3,6.7C236.7,487.5,236,490.8,235.1,493z M242.1,503.6c-1-1.5-2-3-3.1-4.6
			c4-7.9,6.8-16.6,11.4-24.5c-1.1-3.6,2.3-5.6,3-8.6c0.6-2.7,2.3-5.1,3-7.9c0.1-0.5,0.9-0.9,1.2-1.3c1.1,0.5,2.2,1.1,3.7,1.8
			c-0.3,1.4-0.4,3.1-0.9,4.6c-2.1,5.7-5.2,10.9-7.2,16.6c-2,5.5-4.9,10.6-6.9,16.1C245.2,498.7,243.5,501.1,242.1,503.6z M274.4,519
			c-0.1,0.4,0,0.9,0,1.5c-6.4,2.1-12.6,4.7-17.7,9.5c-3.9-6.1-5.6-13.3-9.8-18.9c0.9-3.2,1.5-6.2,2.6-9s3.3-5.4,3.7-8.2
			c0.5-3.3,2.6-5.5,3.8-8.3c1.1-2.7,1.2-5.6,2.5-8.1c1.3-2.7,2.1-5.7,3.3-8.4c1.2-2.8,2.5-5.5,3.7-8.2c7.6,2.3,14.3,4.4,21.1,6.5
			c0,1.6,0.5,3.2-0.1,4.2c-2.2,3.8-2.4,8.2-3.8,12.2c-1.7,4.6-2.4,9.4-3.8,14.1C277.6,504.7,276.8,512.1,274.4,519z M291.5,495.4
			c-1.8,4.7-1.4,10.1-4,14.7c-0.5,1-0.1,2.5-0.1,4.1c-2,1.1-3.4,1.8-4.8,2.6c-0.2-0.4-0.4-0.7-0.5-1.1c-0.4-4.3,1-8.2,2.2-12.2
			c0.5-1.6,0.2-3.4,0.5-5.1c0.3-1.6,0.9-3.1,1.3-4.7c0.8-3.2,1.4-6.3,2.5-9.4c0.9-2.5,0.9-5.3,1.4-7.9s1.1-5.2,1.8-8
			c0.5,0.4,0.9,0.8,1.4,1.1c0.8-0.5,1.6-0.9,2.7-1.6c0.3,0.9,0.8,1.5,0.7,2c-1.1,4.4-0.7,9.1-2.6,13.3
			C292.2,487.1,293,491.4,291.5,495.4z M303.2,487.6c0.3,6.4-3.1,12.2-2.6,18.6c0.2,2.7-1.1,4.8-3.2,6.7c-0.9,0-1.9,0-3.1,0
			c0.4-3.8,0.5-7.5,1.1-11.1c0.6-3.4,1.9-6.7,2.5-10.1c0.7-3.7,0.9-7.5,1.4-11.2c0.5-3.5,1.2-6.9,1.8-10.4c1.3,0.4,2.8,0.8,4.4,1.3
			c0.1,0.2,0.4,0.6,0.3,0.9c-0.4,2.7,0.9,5.5-0.9,8.2C303.6,482.6,305.7,485.7,303.2,487.6z M313.6,494.6c-1.4,5-1.4,10.2-3,15.5
			c-1,0.5-2.4,1.2-3.8,1.8c-0.4-0.6-0.7-0.9-0.8-1.2c-0.7-2.8,0.8-5.3,1.3-7.9c0.5-2.4-1.1-5.2,1.2-7.4c0.2-0.2,0.2-0.8,0.1-1.2
			c-0.7-6.6,0.9-13.1,1.8-20.4c0.7-1.1,2.2-2,4.4-1.2c0.1,0.4,0.3,0.7,0.4,1.1c1,3.7-1.4,7-1.3,10.6
			C313.8,487.7,314.5,491.4,313.6,494.6z M324,499.1c-0.2,3-1.1,6.1-1.1,9.7c-1.6,0.1-3.2,0.2-5.4,0.3c0.7-3.1-0.9-6,1.4-8.8
			c0.6-0.8,0.1-2.5,0.1-3.8c0-5.4,0.1-10.9,0-16.3c0-2.8,0-5.4,2-8c1.2,0.1,2,0.1,3.3,0.2C324.2,481.4,324.7,490.3,324,499.1z
			 M334.7,490.7c-0.2,5.5-0.9,11-1.4,16.5c-0.2-0.2-0.3-0.4-0.5-0.6c-0.4,1-0.9,2.1-1.3,3.1c-0.4,0-0.9,0.1-1.3,0.1
			c-0.4-1.1-0.7-2.2-1.1-3.2c-0.5-4.1-1.2-8.9,0.2-13.8c1.1-3.6,0.2-7.8,0.2-11.8c0-2.4,0-4.7,0-7.2c1.9,0,3.3,0,5.3,0
			C334.8,479.4,335,485.1,334.7,490.7z M345.3,509.5c-1-0.9-1.5-1.3-1.8-1.6c-1,0.5-1.8,0.9-2.6,1.3c-0.4-0.4-0.6-0.6-0.7-0.8
			c-0.1-0.2-0.1-0.4-0.1-0.6c0-5.7,0.8-11.5-0.2-17c-1-5.6-0.9-11-1.1-17.1c2,0,3.4,0,4.9,0c0.1,4,0.5,7.9,0.3,11.8
			s0.9,7.5,1.3,11.3C345.6,500.7,345.3,504.7,345.3,509.5z M355.8,509c-1.9,0-3.3,0-5.3,0c0-6.3,1.2-12.9-0.3-18.8
			c-1.5-5.8,0.8-11.9-2.7-17.6c2,0,3.5,0,5.4,0c0.1,3.6,1.8,7.3,1.7,11.4c-0.1,4.2,0.9,8.4,1.1,12.6
			C355.9,500.6,355.8,504.7,355.8,509z M365.4,510.5c-0.8-0.2-1.7,0-2.5,0c-2.5-4.6-1.9-9.6-1.9-14.4c0-2.5-0.3-4.9-1.2-7.3
			c-0.8-2.1,0-4.3-1.1-6.7c-1.2-2.5-0.3-6-0.3-9.5c2,0,3.4,0,4.8,0c0.6,5.4,0.6,10.7,1.9,15.8c1.4,5.3,0.8,10.6,1.2,15.8
			c0.2,2.4,1,4.7,1.8,8.1C366.6,511.2,366.1,510.6,365.4,510.5z M374.6,511.4c-3.3-13-5.4-26.4-7.1-39.8c1.3-0.7,2.4-1.2,3.7-1.8
			c2.2,2.8,2.6,6.4,2.7,9.8c0.1,3,0.4,6,1.6,8.5c1.1,2.3,1.4,4.5,1.1,6.7c-0.5,3.9,0.7,7.7,1.8,11.1c0.8,2.4,0.2,4.5,1.4,8
			C377.3,512.7,376,512.1,374.6,511.4z M386,514.4c0.5-5.5-2.3-10.1-2.8-15.3c-0.5-5-3.7-9.9-3.4-14.8c0.2-5.6-4.2-9.8-2.7-15.6
			c1.4,0,3.1,0,4.6,0c1,4,2.6,7.9,3,11.9c0.4,4.2,2.4,8,2.5,12c0.1,4.3,3,7.8,2.9,12s1.8,7.9,2.5,12.2
			C390.3,516,388.3,515.3,386,514.4z M426.7,512c-4,5.3-5.6,11.4-8.5,16.9c-3.7-2-7.4-4.1-11.2-5.9c-2-1-4-1.9-6-3
			c-2.2-1.3-3-3-3-4.7c-0.2-3.6-1.9-6.7-2.6-10.1c-0.7-3.2-1.6-6.3-2.4-9.5c-1.1-4.4-1.9-8.8-3-13.2c-1.2-4.9-2.7-9.8-4-14.8
			c6.7-2.4,13.4-4.8,20.2-7.2c3.6,1.7,3.7,5.8,4.7,8.8c1.8,5.6,4.3,10.9,6.4,16.3c3,7.7,5.6,15.6,9.5,22.9
			C427.1,509.5,426.7,510.8,426.7,512z M431.3,504.1c-3.2-6.8-6.6-13.2-9.2-20c-2.7-7.2-7.1-13.7-8.7-21.4c-0.2-1.1-1.6-1.9-1.9-2.2
			c1-1.4,2-2.8,2.9-4.1c0.7,0.3,1.3,0.4,1.4,0.6c2.8,6.5,5.9,12.9,8.4,19.5c1.5,4.1,4.1,7.9,5.2,12.3c0.2,0.9,1.5,1.6,2.3,2.4
			c0,1.2,0,2.5,0,3.7c1,1.2,2,2.3,2.6,3C435.2,501.4,432.4,502.1,431.3,504.1z M440.1,494.4c-0.8-1.6-1.2-2.3-1.6-3.1
			c-3.5-5.9-6.6-12.1-9.3-18.4c-2.7-6.1-6.1-11.9-9.4-18.2c1.8-0.9,3.3-1.7,4.8-2.4c3.5,6,5.6,12.4,8.9,18.3
			c3.2,5.6,5.8,11.6,9,18.2C442.1,489.8,441.3,491.7,440.1,494.4z M447.9,485.5c-1.4-2.2-2.1-3.3-2.8-4.4
			c-4.3-7.3-7.4-15.4-12.7-22.1c0.4-3.6-4.8-5.7-2.3-10.8c1.4,0.7,3,1,3.8,2c1.8,2.2,3.5,4.6,4.6,7.2c2.1,5.4,5.6,9.9,8.3,14.8
			c1.6,3,2.6,6.3,4,9.6C449.8,482.9,449.1,483.9,447.9,485.5z M456,476.5c-1.9-2.7-3.9-5.3-5.7-8c-4.1-6.4-7.9-12.8-12-19.2
			c-1.8-2.8-1.8-3,2-6.2c7.5,9.2,12.1,20.3,19.2,29.9C458.2,474.3,457.3,475.2,456,476.5z M465.1,469.9c-0.6-0.3-1.4-0.4-1.6-0.9
			c-4.2-7.3-8.9-14.4-14.4-20.8c-1.1-1.3-1.1-2.6-1.5-4c-0.4-1.2-1.8-2.2-2.8-3.2c2.3-2.4,2.3-2.4,5.2-2.9c0.8,5.8,5.9,9,8.5,13.9
			c2.7,5.1,6.6,9.5,9.8,14.1C467.3,467.3,466.3,468.5,465.1,469.9z M476,461.8c-1.3,0-2.6,0-3.3,0c-6.7-8.5-13.2-16.6-19.7-24.9
			c0.6-3.3,0.6-3.3,4.2-4c6.8,9,13.7,18.1,20.5,27.1C477.2,460.5,476.6,461.2,476,461.8z M482.9,456.7c-7.9-9.2-15.5-18.2-22.9-26.7
			c1.2-1.1,2.4-2.2,4-3.7c7.5,9,15.4,18.3,23.6,28.1C485.7,455.3,484.2,456.1,482.9,456.7z M492.7,451.2c-8.2-9.5-17.7-18-25.3-27.7
			c0.9-1.5,1.5-2.7,2.5-4.5c9.4,10,18.5,19.7,27.3,29.1C495.9,449,494.4,450.1,492.7,451.2z M503.2,446c-2.2-2.3-4.6-4.8-7-7.3
			c-2.6-2.6-5-5.5-7.9-7.8c-2.6-2-4.2-5.1-6.9-6.8c-2.7-1.7-4.4-4.5-7.3-6.2c0-0.9,0-1.9,0-3c1-0.5,2.1-1.1,3.4-1.7
			c10.1,9.6,20.5,19.4,31.1,29.5C506.4,444.2,505,445,503.2,446z M518,440.8c-1.3,0-2.6,0-3.9,0c-0.5-2.8-3.6-3-5.1-4.9
			c-1.7-2.2-3.9-4.1-6-6c-1.9-1.7-4-3-5.9-4.7c-2-1.7-3.6-3.8-5.7-5.4c-1.9-1.5-3.5-3.1-5-5s-4-3-6-4.3c0.7-1.4,1.2-2.5,1.8-3.7
			c0.7,0,1.5-0.1,2.3-0.1c0.4,0.2,0.8,0.4,1.1,0.6c7.6,7.2,15.2,14.4,22.9,21.5c2.5,2.3,4.9,5.2,7.9,6.2c2.5,0.8,1.5,3.4,3.6,3.6
			C519.3,439.5,518.7,440.1,518,440.8z M527.5,436.7c-13.2-11-26.8-22.2-40.6-33.7c1.4-2.5,2.8-5.3,4.5-7.7c1.4-1.9,3.4-3.3,4.8-5.2
			c1.2-1.6,1.8-3.6,2.9-6c6.2,5.3,13.3,8.4,19.7,12.7c7.1,4.7,14.1,9.9,21.7,13.8c3.6,1.9,5.1,4.5,5.7,8.2c0.3,1.8,0.9,3.6,1.3,5.4
			c0.3,1.6,0.8,3.3,0.6,4.9c-0.2,1.7,0.5,3,0.8,4.8C541.6,434.8,534.7,435.7,527.5,436.7z M549.2,369.6
			c-11.8-4.9-23.1-9.6-34.2-14.2c0.6-2.1,0.9-3.4,1.3-4.9c0.2,0,0.5,0.1,0.8,0.2c3.7,1.6,7.6,2.9,11.1,4.9c1.9,1.1,3.6,0.8,5.4,1.3
			c1.5,0.4,2.2,2.1,4.1,2.7c4.2,1.2,8.2,3.3,12.7,5.1C550,366.6,549.6,368.1,549.2,369.6z M550.8,358c-1.6-0.4-3.2-0.7-4.7-1.3
			c-4-1.5-7.7-3.6-11.8-4.6c-3.4-0.8-6.5-2.3-9.8-3.3c-2.4-0.7-4.6-1.5-6.6-4.5c1.2-0.4,2.2-0.9,4.2-1.6c9.3,2.5,19.6,7.3,30.3,10.2
			C553.5,355.4,552.4,356.8,550.8,358z M554.9,347.5c-5.9-1.5-11.6-3-18.1-4.7c-0.2-0.2-0.9-0.9-1.9-1.9c-5.1,1.9-8.6-3.9-14.3-2.3
			c1.1-2.4,1.7-3.8,2.8-6.1c2.4,1.1,4.4,2,7,3.2c4.4-1.3,8.4,3.1,13.3,2.7c3.8,2.7,8.4,2.9,12.7,4.3
			C555.9,344.3,555.4,345.9,554.9,347.5z M559.4,334c-0.2,0.8,0,1.7,0,2.5c-1.3,0.1-9.3-1.2-10.8-1.7c-3.6-1.3-7.2-2.2-10.6-1.7
			c-4.4-2.9-9.2-3.3-13.7-4.2c-1.1-2.1-0.1-3.6,1.5-4.9c3.8,0.8,7.6,1.7,11.4,2.5c4,0.9,8.4,1,11.9,2.8c3.7,2,8.2-0.7,11.4,3
			C560.1,332.8,559.6,333.3,559.4,334z M562.5,326.8c-4.3-1-8-2.4-11.8-2.7c-3.8-0.3-7.3-2.1-11.2-1.6c-2.3,0.3-4.8-0.8-7.2-1.4
			c-1.8-0.4-3.5-1.1-5.7-1.8c0-1.3,0-2.6,0-4.1c0.5-0.1,1.2-0.5,1.7-0.4c2.4,0.4,5.1,0.4,7.3,1.4c2.9,1.4,5.7,1.1,8.7,1.2
			c4.6,0.2,8.6,2.9,13.3,2.7c1.8,2.4,4.5,0.7,6.7,1.4c0.6,0.6,1.2,1.2,1.2,1.2C564.4,324.1,563.4,325.5,562.5,326.8z M569.3,316.1
			c-3.2-0.5-6.5-1.1-9.8-1.3c-3.3-0.3-6.6,0-10-1.2c-3.1-1.1-6.6-1-9.9-1.5c-3.3-0.5-6.6-1.1-10.3-1.7c-0.4-0.7-1.1-1.7-1.7-2.6
			c0.9-0.9,1.5-1.5,2.4-2.4c13.6,1.9,27.4,3.8,41.6,5.7C570.7,312.9,570.1,314.4,569.3,316.1z M575.8,304.2
			c-5.8,0-12.2,0.5-18.3-0.2c-3.1-0.4-6.2-1.1-9.3-1.1c-3,0.1-5.5-1.9-8.6-1.4c-3.2,0.5-6.5,0.1-10.1,0.1c0-1.7,0-3.3,0-5.4
			c4.8,0.7,9.8-1.1,14.4,1.4c6-1,11.8,1.7,17.8,1.3c3-0.2,6.1-0.3,9.2,0c2.6,0.2,5.2,1.1,8.4,1.8
			C578.1,301.9,577.1,302.8,575.8,304.2z M595.6,282.9c-3.9,2.1-6.7,4.9-8.8,8.7c-0.7,1.3-2.6,1.9-4,2.8s-2.6,0.8-4.1-0.3
			c-0.9-0.6-2.4-0.5-3.7-0.5c-3.7-0.1-7.4,0.2-11.1-0.1c-3.8-0.2-7.5-1-11.3-1.2c-3.7-0.2-7.7,0.7-11.1-0.3c-4-1.2-8-0.9-12.2-1.2
			c-0.2-1.9-0.8-3.6,0.5-5.4c0.6-0.9,0.9-2.7,0.4-3.6c-2.2-4.1-0.7-8.4-1.4-13c11-0.3,21.2-2.4,31.5-1.5c8-2.6,16.3-0.6,24.6-1.5
			c1.3,3.3,5,4.4,6.6,7.1c1.7,3.1,5,3.7,7.4,6.4C598,280.6,597,282.2,595.6,282.9z"/>
	</g>
	<g>
		<path d="M270.3,178.8v1.4c-1,0.1-1.8,0.3-2.4,0.8c-0.7,0.5-1.2,1.1-1.7,2.1c-0.2,0.3-0.9,2.3-2.4,5.8l-16,42.2h-1.5l-12.7-33
			l-14,33h-1.4l-16.8-41.8c-1.7-4.2-2.9-6.7-3.6-7.6c-0.7-0.9-1.8-1.4-3.4-1.5v-1.4h22.2v1.4c-1.8,0.1-3,0.3-3.6,0.8
			s-0.9,1.1-0.9,1.8c0,1,0.6,3,1.8,6.1l10,24.8l8-19.4l-2.1-5.4c-1.2-3-2.1-4.9-2.7-5.9c-0.6-1-1.4-1.7-2.2-2.1
			c-0.8-0.4-2-0.6-3.6-0.6v-1.4h24.8v1.4c-1.7,0-3,0.2-3.7,0.4c-0.5,0.2-0.9,0.5-1.2,0.9s-0.5,0.9-0.5,1.4c0,0.6,0.6,2.4,1.7,5.3
			l9.3,24.2l8.3-21.9c0.9-2.3,1.4-3.8,1.6-4.6s0.3-1.6,0.3-2.3c0-1-0.4-1.8-1.1-2.4c-0.7-0.6-2.1-0.9-4-1v-1.4h13.5V178.8z"/>
		<path d="M292.1,205.4v15.8c0,2.6,0.1,4.3,0.4,4.9c0.3,0.7,0.9,1.2,1.7,1.7c0.8,0.5,2,0.7,3.4,0.7h1.7v1.4h-26.8v-1.4h1.7
			c1.5,0,2.7-0.3,3.6-0.8c0.7-0.4,1.2-1,1.5-1.8c0.3-0.6,0.4-2.2,0.4-4.8v-33.7c0-2.6-0.1-4.3-0.4-4.9c-0.3-0.7-0.8-1.2-1.7-1.7
			c-0.8-0.5-2-0.7-3.4-0.7h-1.7v-1.4h26.8v1.4h-1.7c-1.5,0-2.7,0.3-3.6,0.8c-0.7,0.4-1.2,1-1.5,1.8c-0.3,0.6-0.4,2.2-0.4,4.8V202
			h18.1v-14.5c0-2.6-0.1-4.3-0.4-4.9c-0.3-0.7-0.8-1.2-1.7-1.7c-0.9-0.5-2-0.7-3.4-0.7H303v-1.4h26.7v1.4H328
			c-1.5,0-2.7,0.3-3.6,0.8c-0.7,0.4-1.2,1-1.5,1.8c-0.3,0.6-0.4,2.2-0.4,4.8v33.7c0,2.6,0.1,4.3,0.4,4.9c0.3,0.7,0.8,1.2,1.7,1.7
			c0.9,0.5,2,0.7,3.4,0.7h1.7v1.4H303v-1.4h1.7c1.5,0,2.7-0.3,3.6-0.8c0.7-0.4,1.2-1,1.5-1.8c0.3-0.6,0.4-2.2,0.4-4.8v-15.8H292.1z"
			/>
		<path d="M350.3,178.8l25.2,31.7v-22c0-3.1-0.4-5.1-1.3-6.2c-1.2-1.5-3.2-2.2-6.1-2.1v-1.4H385v1.4c-2.2,0.3-3.6,0.6-4.4,1.1
			c-0.7,0.4-1.3,1.2-1.7,2.2c-0.4,1-0.6,2.7-0.6,5.1v42.6H377l-34.6-42.6v32.5c0,2.9,0.7,4.9,2,6c1.3,1,2.9,1.5,4.6,1.5h1.2v1.4
			h-18.1v-1.4c2.8,0,4.8-0.6,5.9-1.7c1.1-1.1,1.7-3.1,1.7-5.8V185l-1.1-1.4c-1.1-1.4-2-2.3-2.9-2.7c-0.8-0.4-2-0.7-3.6-0.7v-1.4
			L350.3,178.8L350.3,178.8z"/>
		<path d="M407.7,206.8V221c0,2.8,0.2,4.5,0.5,5.2s0.9,1.3,1.8,1.7s2.5,0.6,4.8,0.6v1.4h-26v-1.4c2.4,0,4-0.2,4.8-0.7
			c0.8-0.4,1.4-1,1.8-1.7c0.3-0.7,0.5-2.4,0.5-5.2v-33.2c0-2.8-0.2-4.5-0.5-5.2s-0.9-1.3-1.8-1.7s-2.5-0.6-4.8-0.6v-1.4h22.3
			c7.3,0,12.6,1.3,15.8,3.9c3.2,2.6,4.8,5.9,4.8,9.8c0,3.3-1,6.2-3.1,8.5c-2.1,2.4-4.9,4-8.5,4.8
			C417.7,206.5,413.5,206.8,407.7,206.8z M407.7,181.7v22.1c0.8,0.1,1.5,0.1,1.9,0.1c3.1,0,5.4-0.9,7.1-2.7s2.5-4.6,2.5-8.5
			c0-3.8-0.8-6.6-2.5-8.3c-1.7-1.8-4.1-2.6-7.4-2.6h-1.6V181.7z"/>
		<path d="M460.5,215.4h-18.1l-2.2,5c-0.7,1.7-1.1,3-1.1,4.1c0,1.4,0.6,2.5,1.7,3.2c0.7,0.4,2.4,0.7,5,0.9v1.4h-17v-1.4
			c1.8-0.3,3.3-1,4.5-2.3s2.6-3.8,4.4-7.7l18.3-40.8h0.7l18.5,42c1.8,4,3.2,6.5,4.3,7.5c0.9,0.8,2.1,1.2,3.6,1.4v1.4h-24.8v-1.4h1
			c2,0,3.4-0.3,4.2-0.8c0.6-0.4,0.8-1,0.8-1.7c0-0.5-0.1-0.9-0.2-1.4c-0.1-0.2-0.4-1.2-1.1-2.8L460.5,215.4z M459.2,212.6l-7.6-17.6
			l-7.8,17.6H459.2z"/>
	</g>
</g>
</svg>
