<?xml version="1.0" encoding="utf-8"?>
<!-- Generator: Adobe Illustrator 25.0.1, SVG Export Plug-In . SVG Version: 6.00 Build 0)  -->
<svg version="1.1" id="Layer_1" xmlns="http://www.w3.org/2000/svg" xmlns:xlink="http://www.w3.org/1999/xlink" x="0px" y="0px"
	 viewBox="0 0 683 558" style="enable-background:new 0 0 683 558;" xml:space="preserve">
<style type="text/css">
	.st0{fill:#FFFFFF;}
	.st1{fill:none;}
</style>
<path class="st0" d="M437,0H246C91.9,0,0,124.9,0,279s91.9,279,246,279h191c154.1,0,246-124.9,246-279S591.1,0,437,0z"/>
<g>
	<path d="M258.6,446.4c-0.4-0.3-0.9-0.5-1.6-0.5c-0.8,0-1.5,0.3-2,0.9s-0.9,1.8-1.1,3.6c-0.2,1.8-0.3,4.2-0.3,7.4
		c0,1.7,0.1,3.2,0.3,4.7c0.2,1.1,0.5,1.9,1.1,2.5s1.2,0.9,1.9,0.9c0.7,0,1.3-0.2,1.8-0.6c0.6-0.5,1-1.3,1.2-2.2
		c0.3-1.5,0.5-4.5,0.5-9c0-2.6-0.1-4.5-0.4-5.5C259.6,447.6,259.1,446.9,258.6,446.4z"/>
	<path d="M229.6,436.9h-1v13.7c0.5,0,0.9,0,1.2,0c1.9,0,3.4-0.6,4.4-1.7s1.5-2.9,1.5-5.2c0-2.4-0.5-4.1-1.5-5.2
		C233.2,437.5,231.6,436.9,229.6,436.9z"/>
	<path d="M174.5,446.6c-0.6,0-1.1,0.2-1.4,0.5c-0.6,0.5-1,1.3-1.4,2.5s-0.5,3.1-0.5,5.6c0,2.8,0.2,4.8,0.6,6.1
		c0.4,1.3,1,2.3,1.7,2.9c0.4,0.3,0.8,0.4,1.5,0.4c1.4,0,2.7-1.1,3.9-3.2v-11.5C177.6,447.7,176.2,446.6,174.5,446.6z"/>
	<path d="M479.7,446.9c-1.3,0-2.6,0.8-3.9,2.3v9.7c0,2,0,3.2,0.1,3.8c0.2,0.9,0.5,1.7,1.1,2.2c0.6,0.6,1.3,0.9,2.3,0.9
		c0.8,0,1.5-0.2,2-0.7c0.6-0.5,1-1.3,1.4-2.7s0.6-3.8,0.6-7.2c0-3.4-0.4-5.7-1.3-6.9C481.5,447.4,480.7,446.9,479.7,446.9z"/>
	<polygon points="277.6,513.5 287.1,513.5 282.4,502.6 	"/>
	<path d="M390.9,504.1c-0.6,0-1.1,0.2-1.4,0.5c-0.6,0.5-1,1.3-1.4,2.5s-0.6,3.1-0.6,5.6c0,2.8,0.2,4.8,0.6,6.1s1,2.3,1.7,2.9
		c0.4,0.3,0.8,0.4,1.5,0.4c1.4,0,2.7-1.1,3.9-3.2v-11.5C394,505.2,392.6,504.1,390.9,504.1z"/>
	<path d="M437,0H246C91.9,0,0,124.9,0,279s91.9,279,246,279h191c154.1,0,246-124.9,246-279S591.1,0,437,0z M417.8,51h52.1v13.4
		h-32.6v10h30.2v12.8h-30.2v12.4h33.5v14.2h-53V51z M344.8,51H363l23.7,34.8V51H405v62.9h-18.3l-23.6-34.5v34.5h-18.3L344.8,51
		L344.8,51z M389,436.7c-0.4-0.4-1.1-0.7-2.1-0.7v-0.9h9.2v27.2c0,1.5,0.2,2.5,0.5,3s1.1,0.7,2.1,0.7v0.8h-11.8V466
		c1,0,1.7-0.3,2.2-0.8c0.3-0.4,0.5-1.3,0.5-2.9v-22.6C389.6,438.1,389.4,437.1,389,436.7z M384.2,455.9c0,3.1-0.8,5.7-2.4,7.8
		c-1.9,2.5-4.5,3.8-7.9,3.8c-3.3,0-5.8-1.2-7.6-3.5c-1.8-2.3-2.7-5-2.7-8c0-3.1,0.9-5.9,2.7-8.2s4.3-3.5,7.5-3.5
		c1.9,0,3.7,0.5,5.3,1.5c1.6,1,2.9,2.4,3.7,4.2C383.8,451.7,384.2,453.7,384.2,455.9z M271.7,51h18.1l23.7,34.8V51h18.3v62.9h-18.3
		l-23.6-34.5v34.5h-18.3L271.7,51L271.7,51z M326.3,453.4v4.8h-13.6v-4.8H326.3z M306,463.2c0.1,0.4,0.3,0.7,0.6,0.9
		c0.3,0.2,0.6,0.3,0.8,0.3c1,0,2-0.8,2.9-2.3l0.7,0.5c-1.3,3-3.3,4.5-6.1,4.5c-1.4,0-2.6-0.4-3.5-1.2s-1.6-1.6-1.8-2.6
		c-0.2-0.5-0.2-2-0.2-4.3v-11.8h-2.9v-0.8c2-1.4,3.6-2.8,5-4.4c1.4-1.5,2.6-3.2,3.6-5.1h0.8v8h5.2v2.3h-5.2v13.5
		C305.8,462,305.9,462.8,306,463.2z M270.5,466c0.9-0.1,1.6-0.4,2-0.9c0.3-0.3,0.4-1.4,0.4-3v-12.3c0-1.7-0.2-2.7-0.5-3.1
		s-0.9-0.7-1.9-0.8V445h8.9v2.8c1.1-1.2,2.2-2.1,3.2-2.7s2.1-0.8,3.3-0.8c1.4,0,2.6,0.4,3.5,1.2c0.9,0.8,1.6,1.8,1.9,2.9
		c0.2,0.9,0.4,2.6,0.4,5.1v8.5c0,1.7,0.2,2.7,0.5,3.1s0.9,0.7,1.9,0.8v0.8H283V466c0.8-0.1,1.4-0.5,1.8-1c0.2-0.4,0.4-1.4,0.4-2.9
		v-9.7c0-1.8-0.1-2.9-0.2-3.4s-0.4-0.8-0.7-1.1c-0.3-0.3-0.7-0.4-1.1-0.4c-1.3,0-2.6,1-3.7,2.9V462c0,1.6,0.2,2.7,0.5,3.1
		s0.9,0.7,1.7,0.8v0.8h-11.1L270.5,466L270.5,466z M143,51h18.5l6.6,35.2l9.7-35.2h18.4l9.7,35.2l6.7-35.2H231l-13.9,62.9H198
		l-11-39.6l-11,39.6h-19L143,51z M188,465.6l-9.2,1.8V464c-1.1,1.3-2.1,2.3-3,2.7c-0.9,0.5-1.8,0.7-2.9,0.7c-2.8,0-5-1.2-6.6-3.7
		c-1.3-2-2-4.5-2-7.5c0-2.4,0.4-4.5,1.2-6.3c0.8-1.9,1.9-3.3,3.3-4.2c1.4-1,2.9-1.4,4.5-1.4c1,0,2,0.2,2.8,0.6s1.7,1.1,2.6,2.1v-6.6
		c0-1.7-0.1-2.7-0.2-3c-0.2-0.5-0.5-0.8-0.8-1c-0.4-0.2-1.1-0.3-2.1-0.3v-1h9.7v25.2c0,1.7,0,2.7,0.1,3c0.1,0.5,0.4,0.9,0.7,1.1
		c0.4,0.2,1,0.4,1.8,0.5L188,465.6L188,465.6z M214.2,466.8h-8.9v-2.9c-1,1.2-2.1,2.2-3.1,2.7c-1,0.6-2.2,0.9-3.5,0.9
		c-1.2,0-2.3-0.4-3.3-1.1s-1.6-1.6-1.9-2.7c-0.3-1-0.5-2.8-0.5-5.3v-8.7c0-1.7-0.2-2.7-0.5-3.1s-0.9-0.7-1.9-0.8v-0.9h8.9v14.9
		c0,1.6,0.1,2.6,0.2,3c0.1,0.5,0.4,0.8,0.7,1s0.7,0.4,1.1,0.4c0.6,0,1.1-0.1,1.5-0.4c0.6-0.4,1.4-1.2,2.2-2.5v-11.7
		c0-1.7-0.2-2.7-0.5-3.1s-0.9-0.7-1.9-0.8v-0.9h8.9V462c0,1.7,0.2,2.7,0.5,3.1s0.9,0.7,1.9,0.8v0.9H214.2z M241.6,448.9
		c-1.3,1.5-3,2.5-5.3,3c-1.5,0.4-4.1,0.6-7.7,0.6v8.8c0,1.7,0.1,2.8,0.3,3.2s0.6,0.8,1.1,1.1c0.5,0.3,1.5,0.4,3,0.4v0.9h-16.1V466
		c1.5,0,2.5-0.1,3-0.4s0.9-0.6,1.1-1.1c0.2-0.4,0.3-1.5,0.3-3.2v-20.6c0-1.7-0.1-2.8-0.3-3.2c-0.2-0.4-0.6-0.8-1.1-1.1
		c-0.5-0.3-1.5-0.4-3-0.4v-0.9h13.8c4.6,0,7.8,0.8,9.8,2.4s3,3.6,3,6.1C243.5,445.7,242.9,447.4,241.6,448.9z M238.1,113.9V51h19.5
		v62.9H238.1z M264.8,463.7c-1.9,2.5-4.5,3.8-7.9,3.8c-3.3,0-5.8-1.2-7.6-3.5s-2.7-5-2.7-8c0-3.1,0.9-5.9,2.7-8.2
		c1.8-2.3,4.3-3.5,7.5-3.5c1.9,0,3.7,0.5,5.3,1.5c1.6,1,2.9,2.4,3.7,4.2c0.8,1.8,1.3,3.8,1.3,5.9C267.2,459,266.4,461.6,264.8,463.7
		z M302.1,524.3h-15.3v-0.9h0.6c1.2,0,2.1-0.2,2.6-0.5c0.3-0.2,0.5-0.6,0.5-1.1c0-0.3,0-0.6-0.1-0.9c0-0.1-0.3-0.7-0.7-1.8l-1.7-4
		h-11.2l-1.3,3.1c-0.4,1-0.7,1.9-0.7,2.5c0,0.9,0.4,1.5,1.1,2c0.4,0.2,1.5,0.4,3.1,0.6v0.9h-10.5v-0.9c1.1-0.2,2.1-0.6,2.8-1.4
		c0.7-0.8,1.6-2.4,2.7-4.8l11.3-25.3h0.4l11.4,26c1.1,2.5,2,4,2.7,4.7c0.5,0.5,1.3,0.8,2.2,0.8v1H302.1z M333.1,503.3
		c-0.7,0.1-1.3,0.3-1.7,0.8s-1,1.6-1.6,3.5l-6.1,17.4h-1.3l-6-16l-5.9,16h-1.2l-5.8-15.9c-0.9-2.4-1.6-4-2.2-4.7
		c-0.4-0.5-1-0.9-1.8-1.1v-0.9h11v0.9c-0.7,0-1.3,0.1-1.5,0.3c-0.3,0.2-0.4,0.5-0.4,0.7c0,0.3,0.2,1.1,0.7,2.4l3.2,8.5l3.1-8.5
		l-0.2-0.6c-0.5-1.2-0.9-1.9-1.2-2.2s-0.9-0.5-1.6-0.7v-0.9h11.2v0.9c-0.9,0-1.4,0.2-1.7,0.4c-0.2,0.2-0.4,0.5-0.4,0.8
		s0.2,1.1,0.7,2.3l3.1,8.5l2.8-7.9c0.4-1.1,0.6-1.9,0.6-2.3c0-0.6-0.1-1.1-0.4-1.3s-0.9-0.5-1.7-0.5v-0.9h6.5v1H333.1z M354.3,523.8
		c-0.8,0.5-1.8,0.8-2.8,0.8c-1.2,0-2.2-0.3-2.9-0.9c-0.7-0.6-1.1-1.5-1.3-2.7c-2.7,2.4-5.1,3.5-7.2,3.5c-1.2,0-2.3-0.4-3.1-1.2
		s-1.2-1.8-1.2-3.1c0-1.7,0.7-3.2,2.2-4.5c1.4-1.3,4.6-3.1,9.4-5.3v-2.2c0-1.7-0.1-2.7-0.3-3.1c-0.2-0.4-0.5-0.8-1-1.1
		c-0.5-0.3-1.1-0.5-1.7-0.5c-1,0-1.8,0.2-2.5,0.7c-0.4,0.3-0.6,0.6-0.6,1c0,0.3,0.2,0.7,0.7,1.2c0.6,0.7,0.9,1.3,0.9,1.9
		c0,0.8-0.3,1.4-0.9,2c-0.6,0.5-1.3,0.8-2.2,0.8c-1,0-1.8-0.3-2.5-0.9s-1-1.3-1-2.1c0-1.1,0.4-2.2,1.3-3.2s2.1-1.8,3.7-2.3
		s3.2-0.8,5-0.8c2.1,0,3.7,0.4,4.9,1.3s2,1.8,2.3,2.9c0.2,0.7,0.3,2.2,0.3,4.5v8.5c0,1,0,1.6,0.1,1.9c0.1,0.3,0.2,0.4,0.4,0.6
		c0.2,0.1,0.3,0.2,0.5,0.2c0.4,0,0.8-0.3,1.2-0.9l0.7,0.6C356,522.4,355.2,523.3,354.3,523.8z M358.8,462.2c-1.8,1.9-3.6,3.2-5.6,4
		c-1.9,0.8-4.2,1.3-6.7,1.3c-3.4,0-6.4-0.7-9-2c-2.6-1.4-4.7-3.3-6.1-5.8s-2.1-5.2-2.1-8.1c0-3,0.8-5.9,2.4-8.6s3.7-4.8,6.4-6.3
		c2.7-1.5,5.5-2.2,8.6-2.2c2.2,0,4.6,0.5,7.1,1.4c1.4,0.6,2.3,0.8,2.7,0.8c0.5,0,0.9-0.2,1.3-0.5s0.6-0.9,0.7-1.7h0.9v11h-0.9
		c-0.7-2.9-2-5.1-3.8-6.6c-1.9-1.5-4-2.3-6.4-2.3c-2,0-3.8,0.6-5.4,1.7c-1.7,1.1-2.9,2.6-3.6,4.5c-1,2.4-1.5,5-1.5,7.9
		c0,2.8,0.4,5.4,1.1,7.8c0.7,2.3,1.8,4.1,3.4,5.3s3.5,1.8,5.9,1.8c2,0,3.8-0.4,5.5-1.3s3.4-2.4,5.2-4.5v2.4H358.8z M377.3,507.3
		c-0.5,0.6-1.1,0.9-1.8,0.9c-0.8,0-1.5-0.3-2.2-0.8c-0.6-0.5-1-0.8-1.1-0.9c-0.2-0.1-0.3-0.1-0.5-0.1c-0.5,0-0.9,0.2-1.3,0.5
		c-0.6,0.5-1.1,1.3-1.4,2.3c-0.5,1.5-0.7,3.2-0.7,5v5v1.3c0,0.9,0.1,1.5,0.2,1.7c0.2,0.4,0.5,0.7,0.8,0.9c0.4,0.2,1,0.3,1.9,0.4v0.8
		h-11.8v-0.8c1-0.1,1.6-0.3,1.9-0.8s0.5-1.6,0.5-3.5V507c0-1.2-0.1-2-0.2-2.4c-0.2-0.4-0.4-0.8-0.7-1c-0.3-0.2-0.8-0.3-1.6-0.4v-0.9
		h8.9v5c1.4-2.3,2.7-3.8,3.8-4.5c1.1-0.7,2.1-1.1,3.2-1.1c0.9,0,1.6,0.3,2.1,0.8s0.8,1.3,0.8,2.3
		C378.1,505.9,377.8,506.7,377.3,507.3z M404.4,523.1l-9.2,1.8v-3.5c-1.1,1.3-2.1,2.3-3,2.7c-0.9,0.5-1.8,0.7-2.9,0.7
		c-2.8,0-5-1.2-6.6-3.7c-1.3-2-2-4.5-2-7.5c0-2.4,0.4-4.5,1.2-6.3c0.8-1.9,1.9-3.3,3.3-4.2c1.4-1,2.9-1.4,4.5-1.4c1,0,2,0.2,2.8,0.6
		s1.7,1.1,2.6,2.1v-6.6c0-1.7-0.1-2.7-0.2-3c-0.2-0.5-0.5-0.8-0.8-1c-0.4-0.2-1.1-0.3-2.1-0.3v-1h9.7v25.2c0,1.7,0,2.7,0.1,3
		c0.1,0.5,0.4,0.9,0.7,1.1c0.3,0.2,1,0.4,1.8,0.5v0.8H404.4z M421.5,521.3c-0.6,1.2-1.5,2.1-2.6,2.7c-1.1,0.6-2.3,0.9-3.7,0.9
		c-1,0-2.4-0.3-4.2-1c-0.5-0.2-0.8-0.3-1-0.3c-0.5,0-0.9,0.4-1.3,1.2H408l-0.4-7.9h0.8c0.7,2.1,1.7,3.6,2.9,4.6
		c1.2,1,2.4,1.5,3.5,1.5c0.7,0,1.4-0.2,1.8-0.7c0.5-0.5,0.7-1,0.7-1.7s-0.2-1.4-0.7-1.9s-1.5-1.4-3.1-2.5c-2.4-1.7-3.9-2.9-4.6-3.8
		c-1-1.3-1.5-2.7-1.5-4.2c0-1.7,0.6-3.2,1.7-4.6c1.2-1.4,2.8-2,5-2c1.2,0,2.3,0.3,3.4,0.9c0.4,0.2,0.8,0.4,1,0.4
		c0.3,0,0.5-0.1,0.7-0.2s0.4-0.4,0.8-1h0.8l0.4,7.5h-0.8c-1-2.2-1.9-3.7-3-4.5c-1-0.8-2-1.2-3.1-1.2c-0.6,0-1.2,0.2-1.6,0.6
		c-0.5,0.4-0.7,0.9-0.7,1.5c0,0.4,0.2,0.8,0.5,1.2c0.5,0.6,1.9,1.7,4.2,3.3c2.3,1.6,3.8,2.9,4.5,4s1.1,2.3,1.1,3.6
		C422.4,518.9,422.1,520.1,421.5,521.3z M424.3,466.8h-8.9v-2.9c-1,1.2-2.1,2.2-3.1,2.7c-1,0.6-2.2,0.9-3.5,0.9
		c-1.2,0-2.3-0.4-3.3-1.1c-1-0.8-1.6-1.6-1.9-2.7s-0.5-2.8-0.5-5.3v-8.7c0-1.7-0.2-2.7-0.5-3.1s-0.9-0.7-1.9-0.8v-0.9h8.9v14.9
		c0,1.6,0.1,2.6,0.2,3c0.1,0.5,0.4,0.8,0.7,1c0.3,0.2,0.7,0.4,1.1,0.4c0.6,0,1.1-0.1,1.5-0.4c0.6-0.4,1.4-1.2,2.2-2.5v-11.7
		c0-1.7-0.2-2.7-0.5-3.1s-0.9-0.7-1.9-0.8v-0.9h8.9V462c0,1.7,0.2,2.7,0.5,3.1s0.9,0.7,1.9,0.8L424.3,466.8L424.3,466.8z
		 M464.5,466.8h-11.3V466c0.9-0.1,1.5-0.4,2-1c0.3-0.4,0.4-1.4,0.4-2.9v-9.4c0-1.9-0.1-3.2-0.2-3.7c-0.2-0.5-0.4-0.9-0.7-1.2
		c-0.3-0.3-0.7-0.4-1.2-0.4c-0.7,0-1.3,0.2-2,0.7s-1.4,1.2-2.1,2.2V462c0,1.6,0.1,2.6,0.4,3c0.4,0.6,1,0.9,2.1,1v0.8h-11.3V466
		c0.6,0,1.1-0.2,1.4-0.5c0.4-0.3,0.6-0.6,0.7-1s0.2-1.2,0.2-2.5v-9.4c0-2-0.1-3.2-0.2-3.7c-0.2-0.5-0.4-0.9-0.8-1.2
		c-0.4-0.3-0.8-0.4-1.2-0.4c-0.6,0-1.2,0.2-1.7,0.5c-0.7,0.5-1.5,1.3-2.3,2.5V462c0,1.5,0.2,2.6,0.5,3.1s0.9,0.8,1.9,0.9v0.8h-11.3
		V466c0.9-0.1,1.6-0.4,2-0.9c0.3-0.3,0.4-1.4,0.4-3v-12.3c0-1.7-0.2-2.7-0.5-3.1s-0.9-0.7-1.9-0.8V445h8.9v2.9
		c1.2-1.3,2.3-2.2,3.3-2.7s2.1-0.8,3.4-0.8c1.4,0,2.6,0.3,3.5,1c1,0.7,1.7,1.7,2.2,3c1.2-1.4,2.4-2.4,3.6-3s2.3-0.9,3.6-0.9
		c1.5,0,2.7,0.3,3.6,1s1.5,1.6,1.9,2.6c0.4,1.1,0.5,2.8,0.5,5.1v9c0,1.7,0.2,2.7,0.5,3.1s0.9,0.7,1.9,0.8v0.7H464.5z M488.9,461.5
		c-1,1.9-2.2,3.4-3.8,4.5s-3.4,1.5-5.4,1.5c-1.2,0-2.2-0.2-3.2-0.6s-1.8-1-2.7-1.8l-3.6,2.4h-0.8v-27.8c0-1.3-0.1-2-0.2-2.3
		c-0.2-0.4-0.4-0.8-0.7-1c-0.3-0.2-0.9-0.3-1.7-0.4v-0.9h9.1v12c1.8-1.9,3.8-2.9,6-2.9c1.5,0,2.9,0.4,4.2,1.3s2.4,2.1,3.1,3.8
		c0.7,1.6,1.1,3.5,1.1,5.6C490.3,457.3,489.9,459.5,488.9,461.5z M505.2,466.8h-11.8V466c1,0,1.7-0.3,2.2-0.8
		c0.3-0.4,0.5-1.3,0.5-2.9v-12.8c0-1.5-0.2-2.5-0.5-3s-1.1-0.7-2.1-0.7v-0.9h9.2v17.3c0,1.5,0.2,2.5,0.5,3s1.1,0.7,2.1,0.7v0.9
		H505.2z M495.7,438c0-1,0.4-1.9,1.1-2.6s1.6-1.1,2.5-1.1c1,0,1.9,0.4,2.6,1.1s1.1,1.6,1.1,2.6s-0.4,1.8-1.1,2.5s-1.6,1.1-2.6,1.1
		s-1.8-0.4-2.5-1.1C496,439.8,495.7,439,495.7,438z M526.4,466.3c-0.8,0.5-1.8,0.8-2.8,0.8c-1.2,0-2.2-0.3-2.9-0.9s-1.1-1.5-1.3-2.7
		c-2.7,2.4-5.1,3.5-7.2,3.5c-1.2,0-2.3-0.4-3.1-1.2c-0.8-0.8-1.2-1.8-1.2-3.1c0-1.7,0.7-3.2,2.2-4.5c1.4-1.3,4.6-3.1,9.4-5.3v-2.2
		c0-1.7-0.1-2.7-0.3-3.1s-0.5-0.8-1-1.1s-1.1-0.5-1.7-0.5c-1,0-1.8,0.2-2.5,0.7c-0.4,0.3-0.6,0.6-0.6,1c0,0.3,0.2,0.7,0.7,1.2
		c0.6,0.7,0.9,1.3,0.9,1.9c0,0.8-0.3,1.4-0.9,2s-1.3,0.8-2.2,0.8c-1,0-1.8-0.3-2.5-0.9s-1-1.3-1-2.1c0-1.1,0.4-2.2,1.3-3.2
		s2.1-1.8,3.7-2.3c1.6-0.5,3.2-0.8,5-0.8c2.1,0,3.7,0.4,4.9,1.3s2,1.8,2.3,2.9c0.2,0.7,0.3,2.2,0.3,4.5v8.5c0,1,0,1.6,0.1,1.9
		s0.2,0.4,0.4,0.6c0.2,0.1,0.3,0.2,0.5,0.2c0.4,0,0.8-0.3,1.2-0.9l0.7,0.6C528.1,465,527.3,465.8,526.4,466.3z M521.5,113.9
		l-10.4-19.2c-1.3-2.5-2.5-4.1-3.5-4.8c-1.4-1-3-1.5-4.8-1.5h-1.7v25.5h-19.5V51H514c6,0,10.6,0.5,13.8,1.5s5.7,2.9,7.7,5.7
		c1.9,2.8,2.9,6.2,2.9,10.2c0,3.5-0.7,6.5-2.2,9s-3.5,4.6-6.1,6.2c-1.7,1-3.9,1.8-6.8,2.5c2.3,0.8,4,1.5,5.1,2.3
		c0.7,0.5,1.8,1.6,3.1,3.3c1.4,1.7,2.3,3,2.7,3.9l9.4,18.2L521.5,113.9L521.5,113.9z"/>
	<path d="M515.2,458.1c-0.6,0.8-0.9,1.7-0.9,2.5c0,0.7,0.3,1.3,0.8,1.9c0.4,0.4,0.9,0.6,1.6,0.6c0.8,0,1.7-0.4,2.7-1.3v-7.3
		C517.5,455.6,516.1,456.8,515.2,458.1z"/>
	<path d="M343.1,515.6c-0.6,0.8-0.9,1.7-0.9,2.5c0,0.7,0.3,1.3,0.8,1.9c0.4,0.4,0.9,0.6,1.6,0.6c0.8,0,1.7-0.4,2.7-1.3V512
		C345.4,513.1,344,514.3,343.1,515.6z"/>
	<path d="M516.9,65.4c-1.3-1.1-3.7-1.6-7.3-1.6h-8.5v12.8h8.2c0.9,0,2.6-0.3,5.1-0.9c1.3-0.3,2.3-0.9,3.2-2c0.8-1.1,1.2-2.3,1.2-3.6
		C518.8,68,518.2,66.4,516.9,65.4z"/>
	<path d="M375.6,446.4c-0.4-0.3-0.9-0.5-1.6-0.5c-0.8,0-1.5,0.3-2,0.9c-0.6,0.6-0.9,1.8-1.1,3.6c-0.2,1.8-0.3,4.2-0.3,7.4
		c0,1.7,0.1,3.2,0.3,4.7c0.2,1.1,0.5,1.9,1.1,2.5s1.2,0.9,1.9,0.9c0.7,0,1.3-0.2,1.8-0.6c0.6-0.5,1-1.3,1.2-2.2
		c0.3-1.5,0.5-4.5,0.5-9c0-2.6-0.1-4.5-0.4-5.5C376.6,447.6,376.2,446.9,375.6,446.4z"/>
</g>
<g>
	<path class="st1" d="M200.3,349.3c-0.8,4.2-3.3,5.5-7,4.7c-0.9-0.2-2,0.3-2.9,0.6c-7.9,2.5-15.6,5.5-23.7,7.2c-5,1.1-7.4,4-8.4,8
		c-1.8,7.3-5.2,13.2-11.3,17.5c4.1-2.2,7.9-5.1,12.2-6.3c9.4-2.5,19-4.1,28.5-6.1c2.9-0.6,5.9-1.2,8.8-1.7c3.5-0.6,5.5-2.8,5.5-6.1
		c0.1-5.8-0.3-11.6-0.5-17.4C201.2,349.6,200.8,349.4,200.3,349.3z"/>
	<path class="st1" d="M153,363.8c-1,5.1-1.8,9.3-2.8,14.3C155.2,373,155.9,369.3,153,363.8z"/>
	<path class="st1" d="M204.8,367.9c3-4.6,1.7-9.1-0.6-13.6C204.4,358.8,204.6,363.3,204.8,367.9z"/>
	<path class="st1" d="M150.3,353.1c-0.3-0.1-0.5-0.1-0.8-0.2c-0.4,2.6-1.1,5.2-1.1,7.8c0,4.2-2.2,5.6-5.9,6.5
		c-9.9,2.2-19.6,5-29.5,7.1c-4.4,1-5.6,3.6-4.6,7.1s1,8.5,7.2,7.5c5.1-0.8,10.2-1.2,15.3-1.9c11.4-1.4,17.7-7.2,19.3-18.7
		C150.9,363.4,150.3,358.2,150.3,353.1z"/>
	<path class="st1" d="M71.9,384.1c-5.3,0.9-10.3,3.2-15.4,4.8c-0.8,0.3-1.8,0-2.6,0.3c-3.5,1-7.7,1.4-10.1,3.6
		c-1.3,1.2,0.3,5.7,0.6,9.1c14.1-2.3,27.1-4.5,40.7-6.7c0-9.1,0-17.9,0-27.8c-0.5,2.2-0.9,3.5-1,4.8
		C83.1,380.4,80.2,382.6,71.9,384.1z"/>
	<path class="st1" d="M116.9,393.2c0-0.4-0.1-0.9-0.1-1.3c-3,0-6,0-9.4,0c0.8-4.9-2.5-15.2-6.4-17.3c1.4,5.4,2.7,10.2,4,15
		c-0.8,0.2-1.6,0.4-2.5,0.6c-2-8.2-4-16.4-6.1-24.8c-0.2,1.5-0.8,3-0.6,4.4c0.5,4.1,0.5,7.8-1.4,11.8c-1.4,3-0.8,7.3,0.1,10.7
		c0.2,0.9,4.7,0.7,7.2,1c0.5,0.1,0.9,0.4,1.4,0.5c5.1,0.8,10.3,1.7,15.4,2.5c0.1-0.4,0.1-0.7,0.2-1.1c-2.1-0.2-4.2-0.5-7-0.8
		C113.9,393.8,115.4,393.5,116.9,393.2z"/>
	<path class="st1" d="M93,307.5c1.2,6.5,3.1,7.9,9.6,6.9c11.2-1.7,22.4-3.3,33.5-5.4c4.3-0.8,6.8,0.5,7.9,4.6
		c1.2,4.7,2.3,9.5,3.5,14.2c0.5-4.2,0.1-8.4,0.2-12.5c0.1-2.9,0-6.3,1.4-8.6c2.4-3.9,2.4-7.8,1.9-12c-0.5-4.5-0.9-8.9-1.7-13.3
		c-1.4-8.1-3-16.2-4.7-25.6c-5,7.4-0.3,14.3-2,21.6c-1.8-4.9-3.4-9-4.7-13.2c-1.8-6.2-2.6-6.8-9.2-5.8c-14.6,2.1-29.3,4.2-44.1,6.3
		c0.9,3.8,2,7.6,2.7,11.5C89.2,286.5,91,297,93,307.5z M138.1,285.4c0.2,0.5,0.3,1,0.5,1.5c-14.5,3.5-29.1,7-43.6,10.5
		c-0.1-0.4-0.2-0.9-0.4-1.3C109.1,292.4,123.6,288.9,138.1,285.4z"/>
	<path class="st1" d="M92.4,339.2c-1-4.9-2.2-9.7-2.8-14.6c-0.4-2.8,0.1-5.8,0.4-8.7c0.3-2.6,1.4-5.3,1-7.8
		c-1.8-11.3-3.9-22.6-6.2-33.8c-0.6-2.7-2.4-5-3.7-7.6c-0.4,0.2-0.8,0.4-1.2,0.7c1.2,6.6,2.4,13.2,3.7,20.4
		c-5.7-5.5-3.9-14-10.8-18.1c4.9,23.6,13.1,46.3,17.9,69.8C91.3,339.4,91.8,339.3,92.4,339.2z"/>
	<path class="st1" d="M30.1,318.7c1.3,6.5,3,7.6,9.7,6.5c9.5-1.6,19-3.3,28.5-4.9c7.7-1.3,8.8-0.5,9.7,7.3c0.2,1.8,0,3.7,0.2,5.5
		c0.5,4,1.1,8.1,1.6,12.1c0.4,0,0.7-0.1,1.1-0.1c-0.4-2.9-1.2-5.9-1.2-8.8c0.1-6-0.2-12.1,1.3-17.8c1-3.6,1.5-6.5,0.4-9.9
		c-4.1-12.9-8.2-25.8-12.2-38.5c0.1-0.1-0.8,0.5-0.8,1c0.8,8,1.6,16,2.5,24c-0.2,0.1-0.4,0.2-0.6,0.3c-2.7-8.6-5.4-17.3-8.4-26.8
		c-0.3,0.8-0.8,1.9-0.9,2.2c-2.1-0.6-3.7-1.6-5.1-1.4c-11.6,1.7-23.2,3.6-34.8,5.5c0.9,3.7,1.9,7.4,2.7,11.1
		C26,296.8,28,307.8,30.1,318.7z M69,301.7c0.2,0.4,0.3,0.9,0.5,1.3c-12.4,2.7-24.7,5.5-37.1,8.2c-0.1-0.4-0.2-0.8-0.3-1.2
		C44.4,307.3,56.7,304.5,69,301.7z"/>
	<path class="st1" d="M36.3,390.5c0.8,3,1.6,6,2.4,9c0.8-0.2,1.6-0.5,2.3-0.7c-1-3-2-6-2.9-8.9C37.5,390.1,36.9,390.3,36.3,390.5z"
		/>
	<path class="st1" d="M246.7,343.3c-3.7,0.3-5.9,1.8-5.7,5.9c0.1,1.7,0,3.3,0,5c0.3,10.4,0.3,10.4,10.3,8.7c0.5-0.1,1-0.1,1.5-0.2
		c12.4-1.4,12.9-2.2,9.4-14.5c-0.2-0.8-0.4-1.6-0.7-2.4c-1.3-3.6-3.2-5.6-7.5-3.6C251.8,343.1,249.1,343.1,246.7,343.3z"/>
	<path class="st1" d="M233.9,343.7c0.6,6.6,1.1,13,1.7,20.2C239.7,357.6,238.5,346.8,233.9,343.7z"/>
	<path class="st1" d="M225.8,346.7c-12.2,3.7-17,7.4-16.1,19.2c0.3,3.7,1.6,4.5,5,3.9c4.9-0.9,9.8-1.3,14.7-2.3c1.2-0.2,3-1.9,3-2.9
		c-0.1-6.2-0.5-12.3-0.9-18.8C228.7,346.3,227.2,346.3,225.8,346.7z"/>
	<path class="st1" d="M153.6,298.1c1,6,3.1,7.3,9,6.3c9-1.5,18-3.3,27-4.8c6.2-1,7.6,0.1,9.2,6.1c0.8,2.9,1.3,5.9,2,8.9
		c0.8-7,1.6-13.7,2.4-20.5c0.1-0.8-0.1-1.6-0.2-2.4c-1.4-8.5-2.7-17-4.1-25.5c0.6,2.2,1.4,4.4,1.8,6.7c1.2,7.1,2.6,14.2,7.6,19.7
		c1.4,1.6,4.1,3,6.1,2.9c9.4-0.4,9.4-0.6,11,9c0.1,0.4,0.3,0.8,1,2.2c0.8-5.8-1-11.6,4.4-15.1c0.5,1.5,0.9,2.8,1.3,4.1
		c0.2,0,0.4-0.1,0.7-0.1c-0.2-4.6-0.4-9.1-0.7-13.7c0.8,1.5,1.3,2.9,1.4,4.4c0.4,5.2,3.1,6.2,7.8,5.1c3.7-0.8,7.6-0.7,11.3-1.5
		c1.1-0.2,2.8-2.2,2.6-3c-2.8-13.3-5.9-26.6-8.9-39.8c0,0-0.3,0-0.9-0.1c0.3,1.7,0.6,3.3,0.9,4.9c-1.1-0.9-1.7-1.9-2.2-2.9
		c-3.8-7.4-3.7-7.2-12-6.3c-3.7,0.4-7.5-0.1-10.8-0.2c1.9,5.4,4.3,12,6.6,18.6c-0.6,0.2-1.1,0.5-1.7,0.7c-2.2-5.1-4.4-10.2-6.6-15.3
		c-0.6,0.2-1.2,0.4-1.9,0.5c1.3,5.9,2.6,11.9,4.1,18.7c-2.7-5.5-5.2-10.2-7.3-15c-1.5-3.4-3.9-4.8-7.5-4.3
		c-4.6,0.7-9.3,1.6-12.2-4.9c1.5,9.2,2.8,17,4.1,24.9c-2-5.6-4-11.2-6-16.7c-0.3,0-0.6,0.1-1,0.1c0,4.9,0,9.8,0,14.8
		c-2.3-3.2-3.7-6.5-4.7-9.9c-1-3.1-2.9-4.4-5.9-4.1c-4.3,0.5-8.5,1.5-12.8,1.7c-7,0.4-13.8,4.9-21.1-0.1c0,2.3-0.2,3.9,0,5.5
		C149.4,271.2,151.3,284.7,153.6,298.1z M247.5,259.3c0.2,0.6,0.5,1.2,0.7,1.8c-5.5,1.9-11.1,3.9-16.6,5.8c-0.2-0.6-0.5-1.2-0.7-1.8
		C236.5,263.1,242,261.2,247.5,259.3z M218.7,266.9c0.2,0.6,0.4,1.1,0.6,1.7c-5.2,1.8-10.5,3.5-15.7,5.3c-0.2-0.5-0.4-1-0.6-1.5
		C208.3,270.6,213.5,268.7,218.7,266.9z M189.1,274c-1.5,1-2.6,2.3-3.9,2.6c-6.4,1.6-12.9,2.8-19.4,4.3c-3.7,0.9-7.3,2-10.9,2.9
		c-0.2-0.5-0.4-1.1-0.6-1.6C165.7,279.6,177.1,276.9,189.1,274z"/>
	<path class="st1" d="M491.2,288.8c-0.4,0-0.8,0-1.2,0c1,5.1-2,6.6-6.2,7c-3.2,0.3-6.7,0.9-6.8,5.1c-0.1,7.1,0.2,14.3,0.5,21.5
		c0.1,1.3,0.9,3.1,1.9,3.7c5.9,3.3,15.6-2.1,15.1-8.6C493.9,307.8,492.4,298.3,491.2,288.8z"/>
	<path class="st1" d="M28.5,320.8c-0.9-2.8-2.8-5.3-3.3-8.2c-1.7-10.2-3-20.4-4.6-30.6c-0.3-1.8-2-3.4-3-5.1
		c-0.2,0.2-0.5,0.5-0.7,0.7c1.2,8.6,2.4,17.2,3.6,25.8c-0.3,0-0.5,0-0.8-0.1c-1.9-6.4-3.8-12.8-5.7-19.2c-0.6,0.1-1.1,0.3-1.7,0.4
		c4.7,20.2,9.4,40.4,14.1,60.6c0.3-3.9-0.3-7.6-0.4-11.4c-0.1-2.4-0.2-5.9,1.2-7C29.9,324.8,29.1,322.8,28.5,320.8z"/>
	<path class="st1" d="M493,292.3c1.4,9.2,2.9,18.4,4.5,28.6C502,313.6,499.5,296,493,292.3z"/>
	<path class="st1" d="M30.4,395.9c-0.3,4,0.3,7.7,5.5,8c-1.4-9.7-2.7-19.3-3.9-27.7C31.5,382,30.9,388.9,30.4,395.9z"/>
	<path class="st1" d="M679.4,285.1c0.1,2.9,1.1,4.1,3.4,3.9c0.1-3.3,0.1-6.6,0.1-9.9c0-7.4-0.2-14.8-0.6-22.1
		c-1.4,0.2-2.9,0.4-4.3,0.7C678.6,266.6,679.2,275.8,679.4,285.1z"/>
	<path class="st1" d="M602.2,290.6c1-4.8,1-9.9,1-14.8c0-1.2-1.3-2.5-2-3.7c-1.1,0.7-2.3,1.5-3.4,2.2c-0.1-1.1-0.3-2.3-0.2-2.1
		c-3.2,1.2-6,2.7-9.1,3.3c-9.8,2-19.6,3.6-29.4,5.5c-5.4,1-6.3,2.5-5.2,8c0.7,3.8,1.5,7.5,2.6,11.2c2.4,8.1,4.5,9.8,12.8,9.4
		c3.4-0.1,7-0.6,10.2-1.7c4.3-1.6,8.1-5.1,12.5-5.9C598.8,300.7,601,296,602.2,290.6z"/>
	<path class="st1" d="M470.9,325.9c4.4-3.1,4.6-22.4,0.6-29.6C467.7,306.5,471.2,315.8,470.9,325.9z"/>
	<path class="st1" d="M566.2,311.8c-1.4,0.6-2.9,1.3-3.9,1.8c-1.7-1.4-3-2.6-4.4-3.7v0.1l0,0l0,0h-0.1c-2.6,2.6-4.9,1.5-6.1-1.3
		c-1.7-3.9-2.8-8-3.8-12.2c3.2,4.6,2.6,11.9,9.9,13.5l0.1-0.1c-1.5-4.7-3.1-9.4-4.6-14.1c-1.5-4.6-1.5-9.8-5-15
		c-1,2.5-1.5,3.7-2,5.1c-0.4-1.2-0.8-2.2-0.8-2.4c-15.3,3.1-30.3,6.2-45.1,9.2c1.1,10,2.2,19.3,3.2,29c20.7-1.7,40.5-8.3,61.3-7.4
		c0.6,0,1.3-0.8,1.9-1.2c0.1-0.1,0-0.3,0-0.5C566.6,312.5,566.5,312.3,566.2,311.8z"/>
	<path class="st1" d="M649.9,160.6c-7.5-0.8-11.3,1.5-10.5,6.7C643,165.1,646.5,162.8,649.9,160.6z"/>
	<path class="st1" d="M14.5,336.5c1,4,1.9,8,2.8,11.9c0.5-4.8,0-9.4-0.2-14.1c-0.1-2.1-0.4-5.2,0.8-6.1c2.9-2.3,2-4.6,1.4-7.2
		c-2.5-10.4-5.3-20.6-7.4-31.1c-0.8-4.1-0.1-8.6-0.1-13.2c-0.7-0.2-2.3-0.8-3.8-1.3c-3.8,3-0.6,5.7,0,8.8c1.2,6.8,1.3,13.8,1.9,20.7
		c-0.5,0-0.9,0.1-1.4,0.1c-1.4-7.6-3.2-15.1-4.2-22.8c-0.6-3.2-1.3-4.3-4.3-4c0,0.3,0,0.5,0,0.8c0,12.7,0.6,25.2,1.9,37.5
		c2-0.5,4-0.9,6-1.4c0.1,0.4,0.2,0.9,0.3,1.3c-2.1,0.5-4.1,1-6.2,1.5c0.5,4.5,1,9,1.7,13.4c0.7-0.1,1.4-0.2,2-0.3
		C12.8,329.8,12.8,329.7,14.5,336.5z"/>
	<path class="st1" d="M19.9,392.6c0.1,1.2,0,2.1-0.4,2.8c1,2.8,2.1,5.6,3.2,8.3c-0.9-7.9-1.7-16.3-2.6-24.6
		C19.4,383.7,19.6,388.1,19.9,392.6z"/>
	<path class="st1" d="M652.1,263c-9.1,1.9-18.2,3.7-27.3,5.5c-6.2,1.2-8.1,3.4-7.9,9.9c0.1,5.5,0.5,11,0.8,16.4
		c0.4,5.3,2.4,6.4,7.6,5.2c5.9-1.4,12-2.3,18-3.5c3.7-0.8,8-1,10.8-3.1c2.5-1.9,3.2-6,4.4-8.2c0.2,0.9,0.5,2.9,0.9,5.2
		c5.3-3.6,6.2-23.5,2.1-30.1C658.3,261.2,655.2,262.3,652.1,263z"/>
	<path class="st1" d="M662.1,158.8c-0.1-0.4-0.3-0.8-0.4-1.2c-1.8,0.4-3.5,0.8-5,2.2C658.5,159.6,660.3,159.2,662.1,158.8z"/>
	<path class="st1" d="M612.4,269.6c-1.3-0.1-3.4,0.6-3.7,1.5c-1.3,3.5-2.5,7.2-3,10.9c-1.2,9.1-2.4,18.1-12.2,24.1
		c5-0.9,8.8-1.5,12.5-2.2c6.5-1.2,2.1-7,4.2-10.1c0.1-0.2,0.5-0.2,0.9-0.3c0.3,1.6,0.5,3.2,0.8,4.8c0.6,0.2,1.3,0.4,1.9,0.6
		c0.6-1.7,1.7-3.5,1.7-5.2c-0.2-7.1-0.6-14.3-1.2-21.4C614.2,271.2,613.1,269.6,612.4,269.6z"/>
	<path class="st1" d="M672.2,258.4c-0.3,1.1-0.6,2.2-1,3.3c-0.5-0.9-0.9-1.8-1.4-2.8c-4.5,4.1-6.3,26.1-2.8,33.2
		c7.9-3.7,4.8-11.2,6.1-17.3c0.2,4.1,0.5,8,0.8,13.1C680.7,280.2,678.9,260.9,672.2,258.4z"/>
	<path class="st1" d="M669.2,294.7c-4.5,0.6-9.9-0.4-13.3,1.7c-9.4,5.9-20.1,4.7-30,7.4c-2.6,0.7-5.6-0.1-8.4,0.3
		c-4,0.6-7.9,1.5-11.8,2.5c-9,2.1-17.9,4.6-27,6.5c-24.8,5.1-49.5,10.1-74.3,14.9c-3.2,0.6-6.6,0.1-11.4,0.1c-6.7,3.8-15,6.9-24.6,3
		c0-10.8,0-21.5,0-32.1c-2.5,0.4-5.2,1.6-6.5,0.8c-1.5-1.1-2.2-3.8-2.7-6c-2.4-10.9-4.7-21.8-7-32.7c-0.3-1.4-0.4-2.9-0.6-4.2
		c9.7-2.9,9.8-2.9,12.1,8c1.5-3.3,3.7-8,5.5-12.7c0.7-1.8,0.4-3.9,0.7-6.9c2.4,4.2,4.1,8,9.2,7.5c0.6-0.1,1.8,2.2,2.2,3.5
		c1,3.5,1.8,7,2.3,9.1c1.2-6.2,2.6-13.7,3.8-20.6c2.3,1.7,4,3.7,6.1,4.2c2.3,0.6,4.9-0.1,7.4-0.5c9.2-1.3,18.4-2.7,27.6-4.2
		c10.9-1.8,11.3-1.6,13.1,9.3c0.2-1.6,0.3-3.2,0.5-4.8s0.3-3.4,0.9-4.8c0.7-1.6,2.4-2.9,2.9-4.5c0.4-1.2-0.3-2.9-0.8-4.3
		c-1.8-5.7-3.8-11.3-5.1-17.1c3.1,6.2,6.4,12.3,9.2,18.6c1.5,3.4,3.6,4.1,7.1,3.5c10.5-1.9,21-3.5,31.5-5.3c4-0.7,5.9,0.4,5.9,4.7
		c0,2.6,0.6,5.2,1.5,7.8c0-2.5-0.2-5,0.1-7.4c0.2-1.9,0.6-4.6,1.8-5.5c5.8-3.9,4.3-9.2,3.3-14.4c-0.9-4.5-1.9-9.1-1.9-13.8
		c3.1,13.1,6.2,26.1,8.9,37.3c1.3-7.3,2.9-16.4,4.5-25.4c0.5,2.3,1.1,4.9,1.7,7.4c0.8,3.5,2.7,4.9,6.5,4.2
		c8.3-1.5,16.8-2.5,25.1-4.2c5.2-1.1,7.4,0.8,8.1,5.7c0.2,1.8,0.8,3.5,1.5,6.7c0-3.8-0.1-6.2,0-8.5c0.1-1.6,0.1-3.8,1-4.7
		c4.7-4,3.7-8.9,2.6-13.8c-1.2-5-2.5-9.9-2.7-15.1c3.4,12.5,6.7,25,10,37.4c0.1-9.6,7.7-18.6,1.5-28.9c0.5,0,1.1,0,1.6,0
		c1.2,3.9,2.4,7.7,3.5,11.6c0.9,3.3,2.6,4.7,5.6,4.6c-2.8-17.2-6.8-33.7-12-49.6c-2.1,0.3-4.1,0.7-6.2,1.1c0.2,0.8,0.5,2.2,0.8,3.4
		c-2.3,0-4.4,0-7.2,0c-0.7-3.6-8.9,1.4-7.6-6.7c-0.5,0.4-1,0.8-1.5,1.2c0,2.1,0,4.2,0,6.2c-1.6,0.9-3.2,1.7-3.7,2
		c-2.8-0.4-5.1-1.3-7.1-1c-9,1.5-18,3.3-27.4,5c-0.2,1.2-0.4,2.6-0.4,2.8c-2.7,0.4-4.9,0.8-7.3,1.2c-1.2-3.4-7.2-0.5-10.1-2.9
		c1.3,2.6,2.5,5.1,3.8,7.7c-0.2,0.2-0.4,0.4-0.7,0.6c-1.4-1.3-2.8-2.7-3.9-3.7c-5.5,0.3-10.7,0.2-15.8,1
		c-11.5,1.9-22.9,4.3-34.4,6.3c-2,0.3-4.2-0.4-6.3-0.7c0.7,1.9,1.8,4.7,3.5,9.1c-1.9-1.6-2.7-2.3-3.5-2.9c-0.7-0.6-1.9-1.9-2-1.8
		c-3.7,3-7.4-0.6-11.1,0.1c-13.1,2.5-26.2,4.8-39.5,7.3c0,1.5,0,2.9,0,3.9c-2-0.3-3.7-0.6-5.4-0.8c-0.1,1.9-0.2,3.8-0.4,5.9
		c-2-3-2.5-8.8-8.7-5.7c0.1,2.5,0.3,4.9,0.4,6.5c-1.5-1.3-3.2-2.9-4.9-4.5c-0.9,1.4-1.9,2.9-2.7,4.2c-2.6-9.7-9.7-1.2-15.6-3.7
		c-1.2-6.3-2.7-13.7-4.1-21.2c2,6.4,7,2.7,10.6,3c0.6,0,1.2-1.6,2.4-3.2c0.7,1.6,1.3,3.2,2,4.8c0.6-0.5,1.1-0.9,1.7-1.4
		c-0.7-2.7-1.3-5.5-2-8.2c0.5-0.3,0.9-0.7,1.4-1c3.5,3.5,7,7,11.3,11.2c-1.2-3.1-2.1-5.4-3.4-8.8c1.9,2.2,3.1,3.6,4.3,4.9
		c0.4-0.1,0.8-0.3,1.3-0.4c-0.4-1.7-0.9-3.3-1.2-5c-0.2-1,0.1-2.1,0.1-3.2c1.1,0.3,3,0.3,3.3,1c2.4,4.9,6.1,4.3,10.6,3.4
		c9.3-1.9,18.7-3.4,28-4.8c2.3-0.3,4.8,0.3,7.2,0.4c0,0.5,0,1,0,1.5c-0.7,0.3-1.4,0.6-2.2,1c0.2,0.2,0.4,0.4,0.6,0.5
		c2.9,0.5,5.7,1,9,0.7c-5.1-0.3-5.6-2.1-2.5-5.4c-3.2-2.9-6.1-5.6-9.1-8.4c0.5-0.6,0.9-1.3,1.4-1.9c3.2,1.5,6.3,3.3,9.6,4.4
		c3.5,1.1,7.3,2.6,10.7,2.1c12.2-1.7,24.2-4.2,36.4-6.3c2-0.3,4,0,6.1,0c0,0.6,0.1,1.2,0.1,1.7c-1.4,0.6-2.9,1.2-4.5,1.9
		c2.2,0.1,4.2,0.2,6.3,0.4c0.6-6.1,7.4-3.3,10.5-7.7c-0.8-0.2-2-0.5-3.3-0.8c0.3-0.4,0.6-0.9,0.9-1.3c2.9,0,5.8,0,10.2,0
		c-3.4-1-5.4-1.6-7.4-2.2c0.1-0.3,0.1-0.7,0.2-1c2.7,0.3,5.8-0.1,8,1.1c4.1,2.2,7.9,1.6,12.1,0.9c17.6-3.2,35.2-6.3,52.8-9.5
		C624.5,63,546.5,0,437,0H246C95.5,0,4.3,119.2,0.2,268.3c40.7-7.4,81.4-14.9,122.2-22.2c5.2-0.9,10.4-1.5,16-2.3
		c0.1,3.1,0.2,5.4,0.4,7.7c0.3,0,0.5,0,0.8,0c0.2-2.9,0.4-5.8,0.5-7.9c3-0.6,5.6-1.1,8.1-1.6c10.4-2,20.9-4,31.3-6
		c5.1-1,4.1,3.5,5.3,6.5c0.5-4.3,5.5-9.3,9.9-9.7c4.6-0.4,9.2-0.3,13.7-0.4c0.7,0,1.6,0.1,1.9-0.2c5.9-6.3,14.4-3,21.3-5.8
		c2.6-1.1,5.3-1.7,8.2-2.7c-0.6-2.3-1-3.7-1.3-5c5.5-3.6,5.5-3.6,4.1-10.1c-0.9-4.2-2.1-8.5-2.2-12.8c-0.1-1.5,2.5-3.2,3.8-4.7
		c0.8,1.3,2.2,2.5,2.4,3.9c6.5,39.1,9.3,78.8,20.4,117c2.2,7.5,3.6,15.1,5.9,22.6c1,3.3,3.5,6.2,4.9,9.5c1,2.3,1.5,4.9,1.9,7.5
		c0.5,2.4,0.4,5,0.9,7.4c2,9.4,3.5,10.8,13.3,9.6c17.8-2.1,35.7-4.5,53.4-7.1c30.1-4.4,60.2-9,90.3-13.8c8.3-1.3,16.5-3.6,24.8-5.5
		c0.1,0.3,0.3,0.7,0.2,0.8c-8.6,8.7-16.3,18.3-29.4,20.8c-54.9,10.4-109.8,21-164.7,31.7c-4.3,0.8-6.4-0.7-7.3-4.6
		c-1.1-4.8-2.1-9.7-3.3-15.1c-3.6,0.6-6.8,1.1-10.1,1.7c-3.2,0.6-6.3,2.1-9.4-0.6c-0.8-0.7-3.4,0.3-5,0.9c-2.6,1-5,3.1-7.7,3.6
		c-47.1,8.8-94.2,17.4-141.3,26.2c-12.7,2.4-25.2,5.8-38,7.9c-5.1,0.8-10.4,3.8-15.8,0.9c-0.4-0.2-1.2-0.2-1.4,0.1
		c-0.2,0.2-0.5,0.5-0.7,0.7C66.6,501.3,142.2,558,246,558h191c149.4,0,240.3-117.4,245.7-264.9C678.2,293.7,673.7,294.2,669.2,294.7
		z M272.9,253.6c-1.1-2.6-2.3-5.1-3.2-7.7c-0.3-0.8,0.4-1.9,0.6-2.8c0.6,0.7,1.5,1.3,1.7,2.1c0.8,2.6,1.4,5.3,2,7.9
		C273.6,253.3,273.2,253.4,272.9,253.6z M287.4,326.7c-1.8-6.5-3.5-12.6-5.5-20c1.5,0.7,3.1,1,3.3,1.7c1.4,5.4,2.6,10.8,3.7,16.2
		C288.9,325.1,288,325.8,287.4,326.7z M399.8,270.8c1.5-0.7,2.9-1.9,4.1-1.7c1,0.2,2.3,1.9,2.5,3.1c0.9,4.8,1.5,9.7,2.2,14.5
		c-0.5,0-1,0-1.4,0.1C404.3,281.9,407.3,274.5,399.8,270.8z M400.6,286.2c-0.6,0.1-1.2,0.3-1.8,0.4c-1.3-3.4-2.4-6.9-4.2-10
		c-0.7-1.3-3-2.1-4.7-2.4c-1.8-0.2-3.8,0.5-5.8,0.2c2.5-3.7,6.6-3.9,10.1-3.4c1.6,0.2,2.8,3.4,4,5.4c0.9,1.5,1.7,3.2,2.1,4.9
		C400.7,282.9,400.5,284.6,400.6,286.2z M402.9,252.7c0.5-0.1,1.1-0.2,1.6-0.4c0.8,3.6,1.6,7.2,2.5,10.9c-0.7,0.1-1.3,0.3-2,0.4
		C404.3,259.9,403.6,256.3,402.9,252.7z M404.2,244.4c4-0.6,5.2,1.4,3.4,4.4c-4.5,0-8.5,0-12.4,0c-0.2-0.5-0.3-1-0.5-1.5
		C397.8,246.3,400.9,244.8,404.2,244.4z M392.4,247.2c0.4,1.1,0.8,2.3,1.2,3.4c0.6,1.7,1.2,3.4,1.9,5c1.5,3.4,2.1,6.8-0.4,10.4
		c-3.1-5.4-0.1-12.9-8-16.8C389.4,248.3,390.9,247.8,392.4,247.2z M380.4,249.7c5.4,1.4,7.6,5.7,9.1,11.4
		c-4.9-3.3-9.4-6.3-15.2-10.2C376.8,250.3,378.8,249.3,380.4,249.7z M379.2,274.4c3.4,1.5,5.8,14.1,3.9,18.1
		c-3.3-5.4-2-13.4-9.8-17.6C375.3,274.7,377.7,273.7,379.2,274.4z M355.5,258.3c-0.3-0.4-0.6-0.7-1-1.1c1.9-1.5,3.8-3.9,5.9-4.2
		c3.7-0.4,8.6-0.9,11.1,1.1c3.5,2.7,4.2,7.9,2.2,12.6C371.9,255.5,367.5,253.5,355.5,258.3z M372.4,246.9c-2.3-0.8-4.5-1.6-6.7-2.5
		c-0.2-0.1-0.2-0.9-0.3-1.7C374.4,242.9,374.4,242.9,372.4,246.9z M370.9,240c-2.5-1-4.9-1.9-7.3-2.9c0.3-0.5,0.5-1,0.8-1.5
		C372.1,235.7,372.1,235.7,370.9,240z M361.7,228.6c2.8-0.1,5.7,0.3,8.6,0.9c0.3,0.1,0,2.5,0,3c-3.9,0-7.1,0-12.1,0
		C359.9,230.6,360.7,228.7,361.7,228.6z M353.7,230.3c0.9,0,2.5,0.7,2.7,1.4c1.2,5.7,2.1,11.4,3,17.1c-0.6,0.1-1.1,0.2-1.7,0.3
		c-0.6-3.3-1-6.7-1.9-10c-0.5-1.7-1.8-3.2-2.7-4.8c-0.5-0.8-1.5-1.7-1.4-2.5C351.7,231.3,353,230.3,353.7,230.3z M351.4,267.7
		c-0.4-12.8-9.2-6.3-14.4-8.1c3.1-3.1,10.8-4.7,13.4-3.2C352.9,257.9,353.3,260.4,351.4,267.7z M351.3,295.9c-3.2,1.3-4.4-1-5.4-4.3
		c-1-3.4,0.1-7.9-5.2-8.9c3.9-3.3,5.3-2.9,6.7,1.3C348.6,287.7,349.9,291.4,351.3,295.9z M335.1,261.8c0.8,4.3,1.4,8.6,2.1,12.8
		c-0.5,0.1-1.1,0.2-1.6,0.2c-2.1-4.7,0.9-11.5-6.4-14.9c1.3-0.4,2.8-1.3,4-1.1C334,259.1,334.9,260.7,335.1,261.8z M333.9,241.4
		c3.7,2.8,4.9,8.6,2.6,13.4C335.6,250,334.8,245.9,333.9,241.4z M341.4,232.7c1.2,0,2.8,0.1,3.5,0.8c2.2,2.4,4.2,5.2,6.3,7.9
		c-3,1-6.3,2.7-7.1-3c-0.1-0.7-1.3-1.3-1.9-2c-0.7-0.7-1.6-1.3-2.1-2.1C339.9,234.1,340.9,232.7,341.4,232.7z M327.7,183.2
		c3,0.9,7.4-2.3,9.2,3c-3.7-0.4-7.1-0.8-10.5-1.2C326.4,185,327.4,183.1,327.7,183.2z M336.5,234.3c1.2,0.4,1.8,2.7,2.5,3.9
		c-2.9,0-4.7-0.1-6.6,0c-2.1,0.1-4.2,0.5-6.5,0.8C327.2,235.2,332.3,232.9,336.5,234.3z M324.8,264.9c1,3.9,0.3,8.8,5.8,10.5
		c-0.3,0.5-0.6,1.1-0.9,1.6c-1.6-0.7-3.6-1-4.8-2.2c-1-1.1-1-3.1-1.6-4.6c-1.1-2.6-2.4-5.1-3.9-8.2
		C322.8,260,323.6,260.3,324.8,264.9z M321.2,285.8c5.3,1.7,7.7,7.7,5.2,15.1c-0.7-12.9-4.9-14.8-18.8-9.3
		C308.9,286.9,315.7,284,321.2,285.8z M305.1,271.1c1.8,2.7,3.5,5.3,5.6,8.5c-0.8,0.2-3,0.9-3.2,0.6
		C306.3,277.4,305.4,274.3,305.1,271.1z M313.7,265.4c3.6,2.7,4.8,7.4,2.6,13.7c1.1-14.6-8.5-12.3-16.9-12.3
		C304.4,263.1,310.3,262.9,313.7,265.4z M292.2,295c0.6-4.4,4.5-6.6,9.5-5.9c3.6,0.5,3.7,2.4,2.5,5.6
		C299.9,286.6,296.2,293.8,292.2,295z M296,301.6c-0.5-0.3-0.2-2.1-0.2-3.3c2.2,4.6,5.9,4.7,10.1,3.6c0.4,1.4,0.8,2.6,1.7,5.2
		C302.9,305,299.4,303.5,296,301.6z M314.4,301.8c-3.8-1.9-3.6-5.1-1.5-9.6c-0.8,7.1,3.3,7.6,8.2,7.5
		C319.4,303.3,316.7,302.9,314.4,301.8z M319.4,310.5c4.2-3,5.9-2.8,8.1,1.1c1.9,3.3,3.8,6.6,5.5,10c0.7,1.2,1,2.7,0.9,4.2
		C328,321.5,328.3,311.7,319.4,310.5z M333,307.2c4.2-2.1,4.8-1.4,7.9,11.1C337.8,314,335.4,310.6,333,307.2z M338.9,298.4
		c-5.4,1.1-4.7-3.2-5.7-6.1c-0.9-2.6-2.1-5.1-3.5-8.5c1.4-0.7,3.6-1.9,4.9,2.3c1.2,4.2,0.7,9.6,6.9,10.7c0.4,0.1,0.4,2,0.7,4.2
		C340.4,299.6,339.5,298.3,338.9,298.4z M343.1,304.9c4.7-2.3,6.7-0.1,8.6,11.3C348.6,312.1,346,308.6,343.1,304.9z M355.4,322.1
		c-1.3-6.9,3.4-13.3-1.8-19.4c1.3-0.4,2.8-0.8,5.1-1.5C358.5,308.4,359.5,315,355.4,322.1z M358,294.9c-2.2-5.4,0.1-12-6.5-14.6
		c3.9-3.3,5.8-3,6.5,1.4C358.7,285.8,361.3,290.1,358,294.9z M357.3,261.7c4.3,2.6,7.2,4.3,10,5.9c0,0.6,0,1.2,0,1.8
		c-2.3-0.2-5.1,0.3-6.9-0.8C359,267.6,358.6,264.7,357.3,261.7z M371.5,286.4c-3.1-3-6-5.7-9-8.7
		C367.9,274.3,370.8,276.7,371.5,286.4z M379.6,317.6c-6.2-4.9-5.8-14.7-15.2-16c4.1-3.7,6.7-3.8,9,0.1
		C376.1,306.4,379.8,310.8,379.6,317.6z M378.4,299.5c2.8-3.6,10.2-5.2,12.9-3.3c2.5,1.8,3,5.6,0.2,9.4
		C390.8,294.8,383.5,299.8,378.4,299.5z M395.3,314.9c-1.8-3-3.3-5.5-4.4-7.3C394.7,307.4,396.4,309.1,395.3,314.9z M402.8,309.3
		c-1.4-3.1-2.7-6.2-4.1-9.3c0.5-0.2,1-0.4,1.5-0.5c1.8,2.6,3.7,5.2,5.9,8.4C405.1,308.3,403.9,308.8,402.8,309.3z M412.4,305.1
		c-1.9-2.9-3.3-7.1-6.1-8.6c-2.9-1.5-7.2-0.3-12.2-0.3c6.8-4.7,12.8-5,16.3-1.7C413.9,297.9,414.6,301.7,412.4,305.1z M427.8,284
		c-5.7-4.5-5.4-14-14.6-15.2c2.1-3.2,5.2-4,7.4-1.8c3.9,4.1,7.9,8.5,8,14.8C428.5,282.5,428.1,283.2,427.8,284z M448.4,302.9
		c6.4-3.4-2.3-6.7-0.2-10C453.4,298.4,453.5,301.5,448.4,302.9z"/>
	<path class="st0" d="M30.5,416.4c5.4,2.9,10.7-0.1,15.8-0.9c12.8-2.1,25.3-5.5,38-7.9c47.1-8.8,94.2-17.4,141.3-26.2
		c2.7-0.5,5-2.5,7.7-3.6c1.6-0.6,4.2-1.7,5-0.9c3.2,2.7,6.3,1.2,9.4,0.6c3.2-0.6,6.4-1.1,10.1-1.7c1.2,5.4,2.2,10.2,3.3,15.1
		c0.9,3.9,3,5.4,7.3,4.6c54.9-10.7,109.8-21.3,164.7-31.7c13.1-2.5,20.9-12.1,29.4-20.8c0.1-0.1-0.1-0.6-0.2-0.8
		c-8.3,1.9-16.4,4.2-24.8,5.5c-30.1,4.8-60.2,9.3-90.3,13.8c-17.8,2.6-35.6,5-53.4,7.1c-9.8,1.2-11.2-0.2-13.3-9.6
		c-0.5-2.4-0.5-5-0.9-7.4c-0.5-2.5-0.9-5.1-1.9-7.5c-1.4-3.3-3.9-6.1-4.9-9.5c-2.3-7.4-3.8-15.1-5.9-22.6
		c-11.1-38.3-13.9-78-20.4-117c-0.2-1.4-1.6-2.6-2.4-3.9c-1.4,1.6-3.9,3.2-3.8,4.7c0.2,4.3,1.4,8.5,2.2,12.8
		c1.4,6.5,1.4,6.5-4.1,10.1c0.3,1.4,0.7,2.8,1.3,5c-2.9,0.9-5.7,1.6-8.2,2.7c-6.8,2.8-15.3-0.4-21.3,5.8c-0.3,0.4-1.3,0.2-1.9,0.2
		c-4.6,0.1-9.2,0-13.7,0.4c-4.4,0.4-9.4,5.4-9.9,9.7c-1.2-3-0.2-7.5-5.3-6.5c-10.4,2-20.9,4-31.3,6c-2.5,0.5-5.1,1-8.1,1.6
		c-0.1,2.1-0.3,5-0.5,7.9c-0.3,0-0.5,0-0.8,0c-0.1-2.3-0.2-4.7-0.4-7.7c-5.6,0.8-10.8,1.4-16,2.3c-40.7,7.4-81.4,14.8-122.2,22.2
		c-0.1,3.3-0.2,6.6-0.2,9.9c3-0.3,3.7,0.8,4.1,4.2c0.9,7.7,2.7,15.2,4.2,22.8c0.5,0,0.9-0.1,1.4-0.1c-0.5-6.9-0.6-13.9-1.9-20.7
		c-0.6-3.1-3.8-5.8,0-8.8c1.5,0.5,3.1,1.1,3.8,1.3c0,4.6-0.7,9,0.1,13.2c2.1,10.4,4.9,20.7,7.4,31.1c0.6,2.5,1.6,4.9-1.4,7.2
		c-1.1,0.9-0.8,4-0.8,6.1c0.2,4.6,0.7,9.3,0.2,14.1c-0.9-4-1.8-8-2.8-11.9c-1.7-6.7-1.7-6.7-8.7-5.5c-0.7,0.1-1.4,0.2-2,0.3
		c3.2,22.4,8.5,43.9,15.8,64.1c0.4-0.7,0.5-1.7,0.4-2.8c-0.3-4.5-0.5-8.9,0.1-13.5c0.9,8.4,1.8,16.7,2.6,24.6
		c1.8,4.6,3.7,9,5.7,13.5c0.2-0.2,0.5-0.4,0.7-0.7C29.3,416.3,30.1,416.2,30.5,416.4z M30.4,395.9c0.4-6.9,1.1-13.8,1.6-19.7
		c1.2,8.4,2.5,18,3.9,27.7C30.7,403.6,30.2,399.9,30.4,395.9z M38.7,399.5c-0.8-3-1.6-6-2.4-9c0.6-0.2,1.2-0.4,1.8-0.6
		c1,3,2,6,2.9,8.9C40.3,399.1,39.5,399.3,38.7,399.5z M85,395.2c-13.6,2.2-26.6,4.4-40.7,6.7c-0.3-3.5-1.9-7.9-0.6-9.1
		c2.5-2.2,6.7-2.5,10.1-3.6c0.8-0.2,1.8,0,2.6-0.3c5.1-1.6,10.1-3.9,15.4-4.8c8.4-1.4,11.2-3.7,12.1-11.9c0.1-1.3,0.5-2.5,1-4.8
		C85,377.3,85,386.1,85,395.2z M118.5,396.2c-5.1-0.8-10.3-1.7-15.4-2.5c-0.5-0.1-0.9-0.4-1.4-0.5c-2.5-0.3-7-0.2-7.2-1
		c-0.8-3.4-1.5-7.7-0.1-10.7c1.9-4.1,1.9-7.7,1.4-11.8c-0.2-1.4,0.4-2.8,0.6-4.4c2,8.4,4.1,16.6,6.1,24.8c0.8-0.2,1.6-0.4,2.5-0.6
		c-1.3-4.8-2.6-9.6-4-15c3.9,2.1,7.2,12.4,6.4,17.3c3.3,0,6.4,0,9.4,0c0,0.4,0.1,0.9,0.1,1.3c-1.5,0.3-3,0.7-5.2,1.2
		c2.8,0.3,4.9,0.5,7,0.8C118.6,395.4,118.6,395.8,118.5,396.2z M130.9,387.1c-5.1,0.6-10.2,1.1-15.3,1.9c-6.2,1-6.1-4-7.2-7.5
		c-1-3.6,0.1-6.2,4.6-7.1c9.9-2.1,19.6-4.9,29.5-7.1c3.7-0.8,5.9-2.3,5.9-6.5c0-2.6,0.7-5.2,1.1-7.8c0.3,0.1,0.5,0.1,0.8,0.2
		c0,5.1,0.6,10.3-0.1,15.4C148.6,379.9,142.4,385.7,130.9,387.1z M153,363.8c2.9,5.5,2.2,9.2-2.8,14.3
		C151.2,373,152,368.9,153,363.8z M196.6,373.2c-2.9,0.5-5.9,1.1-8.8,1.7c-9.5,2-19.2,3.5-28.5,6.1c-4.3,1.2-8.2,4.1-12.2,6.3
		c6.1-4.3,9.5-10.2,11.3-17.5c1-4,3.4-6.9,8.4-8c8-1.7,15.8-4.8,23.7-7.2c0.9-0.3,2-0.8,2.9-0.6c3.7,0.8,6.2-0.5,7-4.7
		c0.4,0.2,0.9,0.3,1.3,0.5c0.2,5.8,0.6,11.6,0.5,17.4C202.1,370.5,200.1,372.7,196.6,373.2z M204.8,367.9c-0.2-4.5-0.4-9.1-0.6-13.6
		C206.5,358.7,207.8,363.3,204.8,367.9z M229.4,367.5c-4.8,1-9.8,1.4-14.7,2.3c-3.4,0.6-4.7-0.2-5-3.9c-0.9-11.8,3.9-15.5,16.1-19.2
		c1.4-0.4,2.9-0.5,5.7-0.9c0.4,6.4,0.9,12.6,0.9,18.8C232.4,365.6,230.6,367.3,229.4,367.5z M235.6,363.9
		c-0.6-7.2-1.2-13.6-1.7-20.2C238.5,346.8,239.7,357.6,235.6,363.9z M261.4,345.7c0.3,0.8,0.5,1.6,0.7,2.4c3.6,12.3,3,13.1-9.4,14.5
		c-0.5,0.1-1,0.1-1.5,0.2c-10,1.8-10,1.8-10.3-8.7c0-1.7,0.1-3.3,0-5c-0.2-4.1,2-5.6,5.7-5.9c2.4-0.2,5.1-0.2,7.2-1.2
		C258.2,340.2,260.1,342.1,261.4,345.7z M147.3,252.2c7.3,5,14.2,0.5,21.1,0.1c4.3-0.3,8.5-1.3,12.8-1.7c3-0.3,5,1.1,5.9,4.1
		c1.1,3.4,2.5,6.7,4.7,9.9c0-4.9,0-9.8,0-14.8c0.3,0,0.6-0.1,1-0.1c2,5.6,4,11.2,6,16.7c-1.3-7.8-2.6-15.6-4.1-24.9
		c2.9,6.5,7.6,5.6,12.2,4.9c3.6-0.6,6,0.8,7.5,4.3c2.1,4.8,4.6,9.4,7.3,15c-1.5-6.8-2.8-12.8-4.1-18.7c0.6-0.2,1.2-0.4,1.9-0.5
		c2.2,5.1,4.4,10.2,6.6,15.3c0.6-0.2,1.1-0.5,1.7-0.7c-2.3-6.6-4.7-13.2-6.6-18.6c3.2,0.1,7,0.6,10.8,0.2c8.2-0.8,8.2-1,12,6.3
		c0.5,1,1.1,2,2.2,2.9c-0.3-1.6-0.6-3.2-0.9-4.9c0.6,0.1,0.8,0,0.9,0.1c3,13.3,6.1,26.5,8.9,39.8c0.2,0.8-1.5,2.8-2.6,3
		c-3.7,0.8-7.6,0.7-11.3,1.5c-4.7,1.1-7.4,0-7.8-5.1c-0.1-1.5-0.5-2.9-1.4-4.4c0.2,4.6,0.4,9.1,0.7,13.7c-0.2,0-0.4,0.1-0.7,0.1
		c-0.4-1.3-0.8-2.6-1.3-4.1c-5.4,3.5-3.6,9.2-4.4,15.1c-0.6-1.4-0.9-1.8-1-2.2c-1.6-9.6-1.6-9.4-11-9c-2,0.1-4.7-1.3-6.1-2.9
		c-5-5.5-6.4-12.6-7.6-19.7c-0.4-2.3-1.2-4.5-1.8-6.7c1.4,8.5,2.8,17,4.1,25.5c0.1,0.8,0.3,1.6,0.2,2.4c-0.8,6.8-1.6,13.5-2.4,20.5
		c-0.7-3-1.2-5.9-2-8.9c-1.6-6.1-3-7.1-9.2-6.1c-9,1.5-18,3.3-27,4.8c-6,1-8-0.4-9-6.3c-2.3-13.4-4.2-26.9-6.3-40.4
		C147.1,256.1,147.3,254.5,147.3,252.2z M128.6,258.3c6.6-1,7.4-0.4,9.2,5.8c1.2,4.2,2.9,8.3,4.7,13.2c1.8-7.2-2.9-14.2,2-21.6
		c1.7,9.3,3.3,17.4,4.7,25.6c0.7,4.4,1.1,8.9,1.7,13.3c0.5,4.2,0.5,8-1.9,12c-1.4,2.3-1.3,5.7-1.4,8.6c-0.1,4.1,0.3,8.3-0.2,12.5
		c-1.2-4.7-2.2-9.5-3.5-14.2c-1.1-4.1-3.5-5.4-7.9-4.6c-11.1,2-22.3,3.7-33.5,5.4c-6.5,1-8.4-0.4-9.6-6.9c-2-10.5-3.8-21-5.8-31.4
		c-0.7-3.9-1.8-7.7-2.7-11.5C99.3,262.4,113.9,260.4,128.6,258.3z M83.6,287.8c-1.3-7.2-2.5-13.8-3.7-20.4c0.4-0.2,0.8-0.4,1.2-0.7
		c1.3,2.5,3.2,4.9,3.7,7.6c2.3,11.2,4.4,22.5,6.2,33.8c0.4,2.5-0.8,5.2-1,7.8c-0.3,2.9-0.8,5.9-0.4,8.7c0.6,4.9,1.8,9.7,2.8,14.6
		c-0.5,0.1-1.1,0.2-1.6,0.4c-4.9-23.5-13-46.2-17.9-69.8C79.7,273.9,77.9,282.3,83.6,287.8z M55.9,269.3c1.4-0.2,3.1,0.8,5.1,1.4
		c0.1-0.3,0.5-1.3,0.9-2.2c3,9.5,5.7,18.2,8.4,26.8c0.2-0.1,0.4-0.2,0.6-0.3c-0.9-8-1.7-16-2.5-24c-0.1-0.5,0.9-1.2,0.8-1
		c4,12.7,8.1,25.6,12.2,38.5c1.1,3.4,0.6,6.4-0.4,9.9c-1.6,5.6-1.3,11.8-1.3,17.8c0,2.9,0.8,5.9,1.2,8.8c-0.4,0-0.7,0.1-1.1,0.1
		c-0.6-4-1.2-8.1-1.6-12.1c-0.2-1.8,0-3.7-0.2-5.5c-0.9-7.8-2-8.6-9.7-7.3c-9.5,1.6-19,3.3-28.5,4.9c-6.7,1.1-8.4,0-9.7-6.5
		c-2.2-10.9-4.2-21.9-6.3-32.8c-0.7-3.7-1.8-7.4-2.7-11.1C32.7,272.9,44.3,271,55.9,269.3z M27.2,326.8c-1.4,1-1.3,4.6-1.2,7
		c0.1,3.8,0.8,7.5,0.4,11.4c-4.7-20.2-9.4-40.4-14.1-60.6c0.6-0.1,1.1-0.3,1.7-0.4c1.9,6.4,3.8,12.8,5.7,19.2c0.3,0,0.5,0,0.8,0.1
		c-1.2-8.6-2.4-17.2-3.6-25.8c0.2-0.2,0.5-0.5,0.7-0.7c1,1.7,2.7,3.3,3,5.1c1.7,10.2,2.9,20.4,4.6,30.6c0.5,2.8,2.4,5.4,3.3,8.2
		C29.1,322.8,29.9,324.8,27.2,326.8z"/>
	<path class="st0" d="M7.9,315.1c-2,0.5-4,0.9-6,1.4c0,0.5,0.1,0.9,0.1,1.4c2.1-0.5,4.1-1,6.2-1.5C8.1,316,8,315.6,7.9,315.1z"/>
	<path class="st0" d="M557.9,310v-0.1V310L557.9,310z"/>
	<path class="st0" d="M672.8,215.7c-1-3.9-2.3-7.7-3.5-11.6c-0.5,0-1.1,0-1.6,0c6.2,10.3-1.5,19.3-1.5,28.9
		c-3.3-12.4-6.7-24.9-10-37.4c0.2,5.3,1.6,10.2,2.7,15.1c1.1,4.9,2.1,9.8-2.6,13.8c-1,0.8-0.9,3.1-1,4.7c-0.2,2.3,0,4.7,0,8.5
		c-0.7-3.2-1.3-4.9-1.5-6.7c-0.6-4.9-2.8-6.8-8.1-5.7c-8.3,1.7-16.8,2.7-25.1,4.2c-3.8,0.7-5.7-0.7-6.5-4.2
		c-0.6-2.5-1.1-5.1-1.7-7.4c-1.6,9.1-3.2,18.1-4.5,25.4c-2.7-11.2-5.8-24.3-8.9-37.3c0,4.8,1,9.3,1.9,13.8c1,5.3,2.5,10.5-3.3,14.4
		c-1.3,0.9-1.6,3.5-1.8,5.5c-0.3,2.4-0.1,4.9-0.1,7.4c-0.9-2.6-1.5-5.2-1.5-7.8c0.1-4.3-1.9-5.4-5.9-4.7c-10.5,1.9-21,3.4-31.5,5.3
		c-3.5,0.6-5.5-0.1-7.1-3.5c-2.8-6.3-6.1-12.4-9.2-18.6c1.3,5.8,3.2,11.5,5.1,17.1c0.5,1.4,1.2,3,0.8,4.3c-0.5,1.7-2.2,2.9-2.9,4.5
		c-0.6,1.5-0.7,3.2-0.9,4.8s-0.4,3.2-0.5,4.8c-1.8-10.9-2.2-11.1-13.1-9.3c-9.2,1.5-18.4,2.9-27.6,4.2c-2.5,0.4-5.1,1.1-7.4,0.5
		c-2.1-0.5-3.8-2.6-6.1-4.2c-1.3,6.9-2.7,14.3-3.8,20.6c-0.5-2.1-1.3-5.6-2.3-9.1c-0.4-1.3-1.5-3.6-2.2-3.5
		c-5.1,0.5-6.8-3.4-9.2-7.5c-0.3,3,0,5.2-0.7,6.9c-1.8,4.8-4.1,9.4-5.5,12.7c-2.3-10.9-2.4-11-12.1-8c0.2,1.4,0.3,2.8,0.6,4.2
		c2.3,10.9,4.6,21.8,7,32.7c0.5,2.2,1.1,4.9,2.7,6c1.2,0.9,4-0.4,6.5-0.8c0,10.6,0,21.3,0,32.1c9.5,3.9,17.9,0.8,24.6-3
		c4.7,0,8.2,0.5,11.4-0.1c24.8-4.8,49.6-9.8,74.3-14.9c9-1.9,18-4.3,27-6.5c3.9-0.9,7.8-1.9,11.8-2.5c2.7-0.4,5.7,0.4,8.4-0.3
		c9.9-2.7,20.7-1.5,30-7.4c3.4-2.2,8.8-1.2,13.3-1.7c4.5-0.6,9.1-1,13.6-1.7c0.1-1.4,0.1-2.8,0.1-4.2c-2.3,0.2-3.3-0.9-3.4-3.9
		c-0.2-9.3-0.9-18.5-1.3-27.5c1.4-0.2,2.8-0.4,4.3-0.7c-0.7-12.4-2.1-24.7-4-36.6C675.4,220.5,673.7,219.1,672.8,215.7z
		 M470.9,325.9c0.3-10.1-3.2-19.4,0.6-29.6C475.6,303.5,475.4,322.8,470.9,325.9z M479.4,326c-1-0.6-1.9-2.4-1.9-3.7
		c-0.4-7.1-0.6-14.3-0.5-21.5c0.1-4.1,3.6-4.7,6.8-5.1c4.2-0.4,7.2-1.9,6.2-7c0.4,0,0.8,0,1.2,0c1.2,9.5,2.8,19,3.4,28.6
		C495,324,485.3,329.3,479.4,326z M497.5,320.9c-1.6-10.2-3.1-19.4-4.5-28.6C499.5,296,502,313.6,497.5,320.9z M566.7,313.1
		c-0.6,0.4-1.3,1.2-1.9,1.2c-20.7-0.9-40.6,5.7-61.3,7.4c-1.1-9.7-2.1-19-3.2-29c14.8-3,29.7-6.1,45.1-9.2c0.1,0.2,0.4,1.2,0.8,2.4
		c0.5-1.4,1-2.6,2-5.1c3.5,5.2,3.5,10.4,5,15c1.6,4.7,3.1,9.4,4.6,14.1l0,0c1.4,1.1,2.7,2.3,4.4,3.7c1-0.4,2.5-1.1,3.9-1.8
		c0.3,0.5,0.4,0.7,0.5,0.8C566.7,312.8,566.8,313,566.7,313.1z M579.5,307.8c-3.2,1.2-6.8,1.6-10.2,1.7c-8.3,0.3-10.4-1.3-12.8-9.4
		c-1.1-3.7-1.9-7.4-2.6-11.2c-1.1-5.5-0.2-6.9,5.2-8c9.8-1.9,19.7-3.5,29.4-5.5c3-0.6,5.9-2.1,9.1-3.3c0-0.1,0.1,1,0.2,2.1
		c1.1-0.7,2.3-1.5,3.4-2.2c0.7,1.2,2,2.5,2,3.7c-0.1,5,0,10-1,14.8c-1.2,5.4-3.4,10-10.2,11.3C587.6,302.7,583.8,306.2,579.5,307.8z
		 M613.8,298.8c-0.6-0.2-1.3-0.4-1.9-0.6c-0.3-1.6-0.5-3.2-0.8-4.8c-0.4,0.1-0.8,0.1-0.9,0.3c-2.1,3.1,2.4,8.8-4.2,10.1
		c-3.8,0.7-7.6,1.4-12.5,2.2c9.8-6,11-15,12.2-24.1c0.5-3.7,1.7-7.4,3-10.9c0.3-0.9,2.4-1.5,3.7-1.5c0.7,0,1.9,1.7,1.9,2.6
		c0.6,7.1,1,14.2,1.2,21.4C615.5,295.3,614.4,297,613.8,298.8z M659.3,290.3c-0.4-2.3-0.8-4.3-0.9-5.2c-1.1,2.3-1.9,6.4-4.4,8.2
		c-2.8,2.1-7.1,2.3-10.8,3.1c-6,1.3-12.1,2.1-18,3.5c-5.2,1.2-7.2,0.2-7.6-5.2c-0.4-5.5-0.7-11-0.8-16.4c-0.1-6.4,1.7-8.6,7.9-9.9
		c9.1-1.8,18.2-3.6,27.3-5.5c3.1-0.7,6.2-1.8,9.3-2.7C665.5,266.8,664.6,286.7,659.3,290.3z M673.9,287.9c-0.3-5.2-0.5-9.1-0.8-13.1
		c-1.3,6.1,1.8,13.6-6.1,17.3c-3.5-7-1.7-29.1,2.8-33.2c0.5,1,1,1.9,1.4,2.8c0.3-1.1,0.6-2.2,1-3.3
		C678.9,260.9,680.7,280.2,673.9,287.9z"/>
	<path class="st0" d="M595.8,163.4c-2.2-1.2-5.3-0.8-8-1.1c-0.1,0.3-0.1,0.7-0.2,1c2,0.6,4,1.2,7.4,2.2c-4.4,0-7.3,0-10.2,0
		c-0.3,0.4-0.6,0.9-0.9,1.3c1.2,0.3,2.5,0.6,3.3,0.8c-3.1,4.5-9.9,1.7-10.5,7.7c-2.1-0.1-4.1-0.2-6.3-0.4c1.6-0.7,3.1-1.3,4.5-1.9
		c0-0.6-0.1-1.2-0.1-1.7c-2,0-4.1-0.3-6.1,0c-12.1,2.1-24.2,4.6-36.4,6.3c-3.4,0.5-7.3-1-10.7-2.1c-3.3-1.1-6.4-2.9-9.6-4.4
		c-0.5,0.6-0.9,1.3-1.4,1.9c3,2.7,5.9,5.4,9.1,8.4c-3.1,3.2-2.5,5.1,2.5,5.4c-3.3,0.3-6.2-0.2-9-0.7c-0.2,0-0.4-0.3-0.6-0.5
		c0.8-0.3,1.5-0.6,2.2-1c0-0.5,0-1,0-1.5c-2.4-0.2-4.9-0.8-7.2-0.4c-9.4,1.4-18.8,2.9-28,4.8c-4.4,0.9-8.1,1.5-10.6-3.4
		c-0.4-0.7-2.2-0.7-3.3-1c0,1.1-0.3,2.2-0.1,3.2c0.3,1.7,0.8,3.3,1.2,5c-0.4,0.1-0.8,0.3-1.3,0.4c-1.2-1.4-2.4-2.7-4.3-4.9
		c1.3,3.4,2.2,5.7,3.4,8.8c-4.3-4.2-7.8-7.7-11.3-11.2c-0.5,0.3-0.9,0.7-1.4,1c0.7,2.7,1.3,5.5,2,8.2c-0.6,0.5-1.1,0.9-1.7,1.4
		c-0.7-1.6-1.4-3.3-2-4.8c-1.2,1.6-1.9,3.3-2.4,3.2c-3.7-0.3-8.6,3.4-10.6-3c1.4,7.4,2.9,14.8,4.1,21.2c6,2.5,13.1-6,15.6,3.7
		c0.9-1.3,1.8-2.8,2.7-4.2c1.7,1.6,3.5,3.2,4.9,4.5c-0.1-1.6-0.2-4.1-0.4-6.5c6.2-3,6.7,2.8,8.7,5.7c0.1-2.2,0.2-4,0.4-5.9
		c1.7,0.3,3.5,0.5,5.4,0.8c0-1,0-2.4,0-3.9c13.4-2.4,26.5-4.8,39.5-7.3c3.7-0.7,7.4,2.9,11.1-0.1c0.1-0.1,1.3,1.2,2,1.8
		c0.8,0.7,1.5,1.3,3.5,2.9c-1.7-4.3-2.8-7.2-3.5-9.1c2,0.2,4.3,1,6.3,0.7c11.5-2,22.9-4.4,34.4-6.3c5.1-0.8,10.4-0.7,15.8-1
		c1.1,1,2.5,2.4,3.9,3.7c0.2-0.2,0.4-0.4,0.7-0.6c-1.3-2.6-2.5-5.1-3.8-7.7c2.9,2.4,8.8-0.4,10.1,2.9c2.4-0.4,4.5-0.7,7.3-1.2
		c0-0.3,0.3-1.6,0.4-2.8c9.4-1.8,18.4-3.6,27.4-5c2-0.3,4.3,0.5,7.1,1c0.6-0.3,2.1-1.1,3.7-2c0-2,0-4.1,0-6.2c0.5-0.4,1-0.8,1.5-1.2
		c-1.3,8.1,6.9,3.2,7.6,6.7c2.8,0,4.9,0,7.2,0c-0.3-1.2-0.6-2.6-0.8-3.4c2.1-0.4,4.2-0.7,6.2-1.1c-1.3-4-2.7-8-4.2-11.9
		c-1.8,0.4-3.7,0.7-5.5,1.1c1.5-1.4,3.3-1.9,5-2.2c-0.4-1-0.7-1.9-1.1-2.9c-17.6,3.2-35.2,6.3-52.8,9.5
		C603.7,165,599.9,165.6,595.8,163.4z M649.9,160.6c-3.4,2.2-6.9,4.4-10.5,6.7C638.6,162.2,642.4,159.8,649.9,160.6z"/>
	<path class="st0" d="M413.1,268.8c9.2,1.2,9,10.7,14.6,15.2c0.3-0.8,0.8-1.5,0.7-2.2c-0.1-6.3-4.1-10.8-8-14.8
		C418.3,264.7,415.2,265.6,413.1,268.8z"/>
	<path class="st0" d="M371.5,254.1c-2.5-2-7.4-1.6-11.1-1.1c-2.1,0.3-3.9,2.7-5.9,4.2c0.3,0.4,0.6,0.7,1,1.1
		c12-4.8,16.4-2.7,18.3,8.4C375.7,262,375,256.8,371.5,254.1z"/>
	<path class="st0" d="M394.2,271c-3.6-0.5-7.6-0.3-10.1,3.4c2.1,0.3,4-0.4,5.8-0.2c1.7,0.2,3.9,1.1,4.7,2.4c1.8,3.1,2.8,6.6,4.2,10
		c0.6-0.1,1.2-0.3,1.8-0.4c-0.1-1.7,0.1-3.4-0.3-4.9c-0.4-1.7-1.2-3.4-2.1-4.9C397,274.4,395.8,271.3,394.2,271z"/>
	<path class="st0" d="M364.4,301.7c9.4,1.2,9,11.1,15.2,16c0.3-6.8-3.4-11.2-6.2-15.9C371,297.9,368.5,298,364.4,301.7z"/>
	<path class="st0" d="M394.1,296.2c5.1,0,9.3-1.2,12.2,0.3c2.8,1.5,4.2,5.7,6.1,8.6c2.1-3.3,1.5-7.1-2.1-10.6
		C406.9,291.2,400.9,291.5,394.1,296.2z"/>
	<path class="st0" d="M383.1,292.5c2-4-0.5-16.6-3.9-18.1c-1.6-0.7-3.9,0.3-5.9,0.6C381.1,279.1,379.8,287.2,383.1,292.5z"/>
	<path class="st0" d="M307.5,291.6c13.9-5.5,18.1-3.7,18.8,9.3c2.5-7.3,0-13.4-5.2-15.1C315.7,284,308.9,286.9,307.5,291.6z"/>
	<path class="st0" d="M336.9,259.6c5.2,1.9,14-4.7,14.4,8.1c2-7.4,1.6-9.8-1-11.3C347.7,254.9,340,256.5,336.9,259.6z"/>
	<path class="st0" d="M316.3,279.1c2.2-6.2,1-10.9-2.6-13.7c-3.3-2.5-9.2-2.3-14.3,1.4C307.8,266.7,317.4,264.5,316.3,279.1z"/>
	<path class="st0" d="M380.4,249.7c-1.6-0.4-3.6,0.7-6.1,1.2c5.9,4,10.3,6.9,15.2,10.2C388,255.4,385.8,251,380.4,249.7z"/>
	<path class="st0" d="M341.3,297c-6.2-1.2-5.7-6.5-6.9-10.7c-1.2-4.3-3.4-3.1-4.9-2.3c1.4,3.4,2.6,5.9,3.5,8.5
		c1,2.9,0.3,7.2,5.7,6.1c0.6-0.1,1.5,1.2,3.2,2.7C341.7,298.9,341.7,297,341.3,297z"/>
	<path class="st0" d="M358.7,301.3c-2.4,0.7-3.9,1.1-5.1,1.5c5.2,6.1,0.5,12.5,1.8,19.4C359.5,315,358.5,308.4,358.7,301.3z"/>
	<path class="st0" d="M395.2,266c2.5-3.6,1.8-7,0.4-10.4c-0.7-1.6-1.3-3.3-1.9-5c-0.4-1.1-0.8-2.3-1.2-3.4c-1.5,0.6-2.9,1.1-5.2,2
		C395.1,253.1,392.1,260.6,395.2,266z"/>
	<path class="st0" d="M340.8,282.7c5.3,1,4.2,5.5,5.2,8.9c0.9,3.3,2.2,5.6,5.4,4.3c-1.5-4.4-2.7-8.1-3.9-11.9
		C346.1,279.8,344.6,279.4,340.8,282.7z"/>
	<path class="st0" d="M327.5,311.6c-2.2-3.9-3.9-4.1-8.1-1.1c8.9,1.2,8.6,11,14.5,15.3c0-1.5-0.3-3-0.9-4.2
		C331.2,318.2,329.3,314.9,327.5,311.6z"/>
	<path class="st0" d="M391.3,296.2c-2.8-1.9-10.1-0.3-12.9,3.3c5.1,0.4,12.3-4.7,13.2,6.1C394.3,301.7,393.9,297.9,391.3,296.2z"/>
	<path class="st0" d="M325,274.8c1.1,1.2,3.1,1.5,4.8,2.2c0.3-0.5,0.6-1.1,0.9-1.6c-5.5-1.7-4.8-6.6-5.8-10.5
		c-1.2-4.6-2-4.9-5.4-2.9c1.5,3.1,2.8,5.6,3.9,8.2C324,271.7,323.9,273.7,325,274.8z"/>
	<path class="st0" d="M351.5,280.3c6.6,2.6,4.3,9.2,6.5,14.6c3.3-4.8,0.6-9.1,0-13.2C357.3,277.3,355.4,277,351.5,280.3z"/>
	<path class="st0" d="M342.1,236.4c0.7,0.6,1.8,1.2,1.9,2c0.9,5.7,4.1,4.1,7.1,3c-2.1-2.7-4-5.5-6.3-7.9c-0.7-0.7-2.3-0.8-3.5-0.8
		c-0.5,0-1.5,1.4-1.4,1.6C340.6,235.1,341.4,235.7,342.1,236.4z"/>
	<path class="st0" d="M355.8,239.2c0.9,3.3,1.3,6.6,1.9,10c0.6-0.1,1.1-0.2,1.7-0.3c-1-5.7-1.9-11.5-3-17.1
		c-0.1-0.7-1.7-1.4-2.7-1.4c-0.7,0-2,1-2,1.6c0,0.8,0.9,1.6,1.4,2.5C354,235.9,355.3,237.4,355.8,239.2z"/>
	<path class="st0" d="M407.5,248.8c1.8-3,0.6-5-3.4-4.4c-3.3,0.5-6.4,1.9-9.6,2.9c0.2,0.5,0.3,1,0.5,1.5
		C399.1,248.8,403.1,248.8,407.5,248.8z"/>
	<path class="st0" d="M407.1,286.8c0.5,0,1,0,1.4-0.1c-0.7-4.8-1.2-9.7-2.2-14.5c-0.2-1.2-1.5-2.9-2.5-3.1c-1.2-0.2-2.6,1-4.1,1.7
		C407.3,274.5,404.3,281.9,407.1,286.8z"/>
	<path class="st0" d="M339,238.2c-0.7-1.2-1.3-3.5-2.5-3.9c-4.2-1.4-9.3,0.9-10.5,4.7c2.3-0.3,4.4-0.6,6.5-0.8
		C334.2,238.1,336.1,238.2,339,238.2z"/>
	<path class="st0" d="M281.8,306.7c2,7.4,3.7,13.4,5.5,20c0.6-0.9,1.5-1.6,1.4-2c-1.1-5.4-2.3-10.9-3.7-16.2
		C284.9,307.7,283.3,307.4,281.8,306.7z"/>
	<path class="st0" d="M333.2,258.9c-1.2-0.2-2.6,0.7-4,1.1c7.2,3.4,4.3,10.2,6.4,14.9c0.5-0.1,1.1-0.2,1.6-0.2
		c-0.7-4.3-1.2-8.6-2.1-12.8C334.9,260.7,334,259.1,333.2,258.9z"/>
	<path class="st0" d="M362.5,277.7c3.1,2.9,5.9,5.7,9,8.7C370.8,276.7,367.9,274.3,362.5,277.7z"/>
	<path class="st0" d="M370.2,229.5c-2.8-0.6-5.7-1-8.6-0.9c-0.9,0-1.8,1.9-3.5,3.9c5,0,8.1,0,12.1,0
		C370.3,232,370.5,229.6,370.2,229.5z"/>
	<path class="st0" d="M343.1,304.9c2.8,3.7,5.5,7.2,8.6,11.3C349.9,304.9,347.9,302.7,343.1,304.9z"/>
	<path class="st0" d="M367.4,269.4c0-0.6,0-1.2,0-1.8c-2.9-1.7-5.7-3.4-10-5.9c1.3,3.1,1.7,5.9,3.2,6.9
		C362.2,269.7,365,269.2,367.4,269.4z"/>
	<path class="st0" d="M304.2,294.8c1.2-3.2,1-5.1-2.5-5.6c-5-0.8-8.9,1.5-9.5,5.9C296.2,293.8,299.9,286.6,304.2,294.8z"/>
	<path class="st0" d="M295.8,298.3c0.1,1.1-0.3,3,0.2,3.3c3.4,1.9,6.9,3.4,11.6,5.6c-0.9-2.6-1.2-3.9-1.7-5.2
		C301.6,303,298,302.9,295.8,298.3z"/>
	<path class="st0" d="M321.1,299.7c-4.9,0.1-9-0.4-8.2-7.5c-2.1,4.5-2.3,7.8,1.5,9.6C316.7,302.9,319.4,303.3,321.1,299.7z"/>
	<path class="st0" d="M398.7,300c1.4,3.1,2.7,6.2,4.1,9.3c1.2-0.5,2.3-1,3.4-1.5c-2.3-3.2-4.1-5.8-5.9-8.4
		C399.7,299.6,399.2,299.8,398.7,300z"/>
	<path class="st0" d="M333,307.2c2.4,3.3,4.8,6.8,7.9,11.1C337.8,305.8,337.2,305.2,333,307.2z"/>
	<path class="st0" d="M327.7,183.2c-0.4-0.1-1.3,1.8-1.3,1.8c3.5,0.4,6.9,0.8,10.5,1.2C335.1,180.9,330.7,184.1,327.7,183.2z"/>
	<path class="st0" d="M333.9,241.4c0.9,4.6,1.6,8.6,2.6,13.4C338.8,250,337.7,244.2,333.9,241.4z"/>
	<path class="st0" d="M365.6,244.4c2.2,0.9,4.5,1.7,6.7,2.5c2-4,2-4-7.1-4.2C365.4,243.5,365.4,244.3,365.6,244.4z"/>
	<path class="st0" d="M391,307.7c1.1,1.8,2.5,4.2,4.4,7.3C396.4,309.1,394.7,307.4,391,307.7z"/>
	<path class="st0" d="M310.7,279.6c-2.1-3.1-3.9-5.8-5.6-8.5c0.3,3.2,1.2,6.2,2.5,9.1C307.7,280.5,309.9,279.8,310.7,279.6z"/>
	<path class="st0" d="M407,263.1c-0.8-3.6-1.6-7.2-2.5-10.9c-0.5,0.1-1.1,0.2-1.6,0.4c0.7,3.6,1.4,7.3,2.1,10.9
		C405.6,263.4,406.3,263.3,407,263.1z"/>
	<path class="st0" d="M270.3,243c-0.2,1-0.9,2.1-0.6,2.8c0.9,2.6,2.1,5.1,3.2,7.7c0.4-0.2,0.8-0.3,1.2-0.5c-0.7-2.7-1.2-5.3-2-7.9
		C271.7,244.4,270.9,243.8,270.3,243z"/>
	<path class="st0" d="M364.4,235.7c-0.3,0.5-0.5,1-0.8,1.5c2.4,0.9,4.8,1.9,7.3,2.9C372.1,235.7,372.1,235.7,364.4,235.7z"/>
	<path class="st0" d="M448.4,302.9c5-1.4,4.9-4.5-0.2-10C446.2,296.2,454.8,299.5,448.4,302.9z"/>
	<path class="st0" d="M547.9,296.5c1,4.2,2.1,8.3,3.8,12.2c1.2,2.8,3.5,3.9,6.1,1.3C550.4,308.4,551.1,301.1,547.9,296.5z"/>
	<path class="st0" d="M557.9,310L557.9,310v-0.1l0,0V310C557.8,310,557.8,310,557.9,310z"/>
	<path class="st0" d="M138.6,286.8c-0.2-0.5-0.3-1-0.5-1.5c-14.5,3.5-29,7.1-43.5,10.6c0.1,0.4,0.2,0.9,0.4,1.3
		C109.5,293.8,124,290.3,138.6,286.8z"/>
	<path class="st0" d="M69.4,303c-0.2-0.4-0.3-0.9-0.5-1.3c-12.3,2.8-24.6,5.6-36.9,8.3c0.1,0.4,0.2,0.8,0.3,1.2
		C44.7,308.5,57.1,305.8,69.4,303z"/>
	<path class="st0" d="M165.8,281c6.4-1.5,12.9-2.7,19.4-4.3c1.3-0.3,2.5-1.6,3.9-2.6c-12.1,2.9-23.4,5.6-34.8,8.3
		c0.2,0.5,0.4,1.1,0.6,1.6C158.6,282.9,162.2,281.8,165.8,281z"/>
	<path class="st0" d="M248.2,261.1c-0.2-0.6-0.5-1.2-0.7-1.8c-5.5,1.9-11,3.8-16.6,5.8c0.2,0.6,0.5,1.2,0.7,1.8
		C237.2,265,242.7,263,248.2,261.1z"/>
	<path class="st0" d="M219.3,268.6c-0.2-0.6-0.4-1.1-0.6-1.7c-5.2,1.8-10.4,3.6-15.6,5.4c0.2,0.5,0.4,1,0.6,1.5
		C208.8,272.1,214.1,270.4,219.3,268.6z"/>
</g>
</svg>
