<svg xmlns="http://www.w3.org/2000/svg" width="683" height="558" viewBox="0 0 683 558">
  <defs>
    <style>
      .cls-1, .cls-2 {
        fill: #fff;
      }

      .cls-2 {
        font-size: 68px;
        font-family: Homestead-Regular, Homestead;
      }

      .cls-3 {
        letter-spacing: -0.13em;
      }
    </style>
  </defs>
  <title>FallOfTheWall (2)</title>
  <g id="Layer_2" data-name="Layer 2">
    <g id="FallOfTheWall">
      <path d="M246,0C91.913,0,0,124.913,0,279S91.913,558,246,558H437c154.087,0,246-124.913,246-279S591.087,0,437,0Z"/>
      <g>
        <path class="cls-1" d="M201.383,54.31c-4.509,20.817-15.913,35.36-37.465,40.04-7.432,1.614-12.312,5.837-16.351,10.973l38.716,2.8c-8.707,17.146-25.646,27-55.649,17.127l-14.512,18.869c8.842-2.131,15-4.23,21.312-4.965,6.456-.752,13.068-.167,19.813-.167-3.307,14.959-20.827,27.814-36.775,27.9-17.172.1-17.175.094-23.569,16.587-.8,2.06-1.535,4.143-2.551,6.894l40.37-18.546c.641,9-3.728,14.337-6.7,19.73-7.262,13.168-17.554,23.081-33.219,25.15-6.4.846-10.017,3.864-11.286,9.913-1.588,7.569-3,15.175-4.729,24.006l35.8-33.4c1.168,4.981,2.555,7.525,2.164,9.757-3.639,20.78-11.907,38.647-31.433,49.528-3.076,1.714-6.879,5.129-7.242,8.133-1,8.255-.344,16.71-.344,27.341L107.2,269.3l3.071.844c.683,3.578,1.993,7.165,1.945,10.734-.279,20.618-5.453,39.331-21.988,53.3-4.564,3.855-6.661,8.689-5.025,14.595,2.386,8.609,5.009,17.153,7.651,26.135l15.791-50.754,3.334-.359c1.694,3.917,4.013,7.687,4.971,11.776,3.906,16.657,4.648,33.146-3.23,49.169-8.674,17.643-7.805,21.636,7.718,37.9,0-9.536-.338-17.9.094-26.221.44-8.465,1.638-16.889,2.5-25.331l2.521-.906c2.237,2.837,4.8,5.477,6.657,8.542,9.638,15.884,15.159,32.883,9.361,51.293-3.953,12.553-.954,21.124,10.35,27.472,4.3,2.414,8.083,5.739,12.8,8.148-10.408-15.376-10.534-32.922-12.98-51.191,10.848,2.09,17.069,8.983,22.067,16.491,6.536,9.819,10.752,20.628,10.455,32.976-.314,13.022.426,13.66,12.328,17.649,5.164,1.731,10.57,2.727,15.778,4.341,3.745,1.16,7.345,2.79,11.011,4.211l-.918,3.822c-4.622-.668-9.31-1.046-13.85-2.075-5.705-1.292-11.333-2.981-16.914-4.75-5.546-1.758-9.28-.236-13.272,4.235a33.183,33.183,0,0,1-13.336,8.747c-17.974,6.283-39.008,2.139-51.118-10.052,12.714-12.982,28.355-17.616,46.381-18.356-6.007-4.717-11.666-10.031-18.2-13.844-2.457-1.433-7.563-.429-10.407,1.25-17.2,10.156-53.04-2.075-61.115-20.169,10.261-8.426,16.376-8.99,49.8-4.027-6.124-8.373-10.969-15.7-16.651-22.312-1.585-1.845-5.821-2.573-8.534-2.089-13.28,2.369-24.1-2.58-32.906-11.544-6.481-6.6-11.711-14.492-16.976-22.167-1.489-2.172-1.139-5.6-1.635-8.475,13.451-2.111,18.025-.575,45.733,15.137-3.874-10.99-6.956-20.7-10.835-30.074a10.486,10.486,0,0,0-6.889-5.425c-15.324-2.336-23.418-13.04-30.251-25.217-3.621-6.451-6.63-13.245-9.916-19.884V288.776C51.4,293.977,63.6,307.1,73.43,324.9c-.455-9.994-.919-18.093-1.16-26.2-.176-5.892-2.141-10.094-7.695-13.292A35.746,35.746,0,0,1,52.8,274.449c-10.133-15.527-13.178-33.128-13.121-51.373.006-1.749.948-3.5,1.744-6.235,16.8,9.423,23.646,24.865,30,41.105,6.223-14.786,5.181-23.171-3.91-34.189-11.469-13.9-13.406-50.312-2.951-67.684,14.5,12.6,17.1,29.466,17.926,48.258,9.654-20.225,9.414-20.136,2.336-39.256-1.982-5.352-3.678-11.67-2.747-17.07,2.3-13.354,6.046-26.475,9.6-39.584.6-2.218,3.161-3.905,5.413-6.534,5.574,7.75,7.591,15.543,8.152,23.685.559,8.1.506,16.245.721,24.37,5.147-4.442,8.967-8.589,11.059-13.475,1.7-3.972,2.8-9.26,1.635-13.226-6.736-23.037,1.158-49.472,20.188-64.717.391-.312,1.436.193,3.043.461a114.993,114.993,0,0,1-2.51,46.8c7.89-5.9,15.452-10.942,18.11-21.611,1.525-6.12,6.88-12.446,12.249-16.179,8.193-5.7,17.891-9.231,26.95-13.684Z"/>
        <path class="cls-1" d="M538.549,107.758a43.927,43.927,0,0,0-21.74-14.077c-19.433-5.617-31.429-18.7-34.067-39.371h4.689c5.282,2.384,10.584,4.724,15.842,7.159,11.71,5.424,20.749,13.188,24.263,26.339.829,3.1,3.361,5.794,5.3,8.544,2.846,4.042,5.861,7.967,8.8,11.942Z"/>
        <path class="cls-1" d="M538.549,107.758l3.087.536,5.46,3.077c-4.679-17.689-11.565-34.331-5.373-52.929,8.525,3.33,12.706,9.883,16.417,16.423,8.644,15.235,15.474,30.743,6.558,48.7-1.51,3.043-.253,8.411,1.431,11.876,2.848,5.856,7.058,11.051,11.807,16.575-2.734-17.589-1.064-34.11,7.756-49.667,2.282,1.221,3.281,1.407,3.58,1.966,9.6,17.944,14.851,36.747,10.892,57.26-.44,2.277-.89,4.851-2.228,6.607-7.978,10.472-4.458,20.467,1.726,30.986,2.932-15.59,5.08-31.472,19.563-43.193,1.42,2.711,3.252,5.03,3.9,7.642,3.821,15.428,4.074,31.019-.139,46.338a33.5,33.5,0,0,1-7.938,14c-5.452,5.581-7.7,11.2-6.2,18.921,1.029,5.292.75,10.838,1.672,16.584,6.409-16.552,14.93-31.408,32.053-43.212.729,6.141,2.319,10.885,1.606,15.254a270.726,270.726,0,0,1-6.941,30.8c-2.763,9.658-8.671,17.136-17.343,22.793-3.475,2.267-6.816,6.76-7.582,10.747-1.669,8.692-1.647,17.71-2.451,28.382,10.437-15.921,20.954-29.606,40.231-34.569.4,3.149,1.439,5.784.915,8.059-3.955,17.161-11.479,32.49-25.4,43.755-3.736,3.023-9.217,3.786-13.507,6.262-3.462,2-7.717,4.393-9.2,7.7-3.789,8.425-6.226,17.458-9.756,27.876,8.536-5.018,15.057-10.007,22.409-12.841,6.933-2.672,14.74-3.074,23.826-4.789-.957,5.011-1.08,7.653-1.973,10-4.77,12.544-14.306,21.3-24.412,29.368-7.088,5.656-15.725,6.861-24.5,5.52-5.137-.786-9.194-.11-12.3,4.355-4.864,6.981-9.856,13.873-16.233,22.825,18.7-8,35.434-8.678,53.112-.64-1.8,3.333-2.606,6.009-4.323,7.823-15.77,16.66-38.46,21.145-59.936,12.619-2.622-1.041-6.9-.3-9.41,1.239-6.287,3.858-12,8.65-20.475,14.948,19.987-.888,36.749,1.925,49.039,16.029-.145,1.046.038,2.137-.395,2.5-16.816,14.3-49.147,13.641-64.335-1.752-4.268-4.326-8.293-5.062-13.619-3.461-6.73,2.022-13.5,3.934-20.327,5.593-2.8.68-5.783.574-8.684.825l-1.083-2.773c3.1-1.514,6.077-3.386,9.319-4.468,6.65-2.219,13.469-3.929,20.169-6.011,6.792-2.11,9.437-5.988,9.086-13.9-.953-21.562,8.84-38.278,26.389-50.515,1.4-.98,3.441-1.056,6.146-1.826-1.094,18.5-3.394,35.584-11.569,52.086,7.193-5.677,15.14-10.667,21.221-17.355,2.55-2.805,2.508-9.583,1.31-13.908-6.206-22.414-1.637-42.418,11.7-60.948,1.12-1.557,1.426-3.7,2.11-5.572l4.482,2.183,3.8,49.161c13.223-9.783,14.739-17.145,7.534-31.366-10.764-21.249-9.524-42.634.461-66.913,9.342,18.264,15.858,34.674,18.829,53.069,2.4-7.731,4.759-15.475,7.211-23.189,2.27-7.14.249-12.441-5.3-17.679-17.9-16.9-22.914-38.287-19.954-62.055.075-.607.945-1.116,2.08-2.376,12,13.445,23.138,27.026,29.174,45.787,1.171-5.8,2.314-9.948,2.8-14.169,1.309-11.352.3-20.5-12.155-27.151-17.838-9.532-30.4-36.932-25.6-54.013,13.676,8.2,25.426,17.625,35.6,30.5-1.577-8.445-2.851-16.961-4.823-25.312-1.706-7.224-8.418-7.478-14.064-8.353-14.346-2.225-35.259-23.282-35.831-42.518,14.337,4.041,27.289,8.994,40.28,17.687-3.429-7.714-6.283-15.78-10.647-22.923-1.271-2.08-6.92-2.337-10.448-2.046a42.534,42.534,0,0,1-43.661-27.049c12.831-2.974,25.178.336,37.541,3.232l1.346-2.092c-3.03-4.249-5.791-8.727-9.165-12.683-3.442-4.034-7.577-2.157-11.829-.74-17.516,5.84-34-.134-45.3-16.752C511.24,104.368,524.78,104.81,538.549,107.758Z"/>
      </g>
      <g>
        <path class="cls-1" d="M306.876,177.1l-.283.736a5.814,5.814,0,0,1,.226,1.785,2.612,2.612,0,0,1-1.076,2.01,4.247,4.247,0,0,1-2.832.907q-3.342,0-3.342-7.421,0-11.046-1.162-41.748t-2.35-32.514q.055-6,8.214-6.4,1.245-.055,3.37-.057a6.074,6.074,0,0,1,3.342.794q1.218.792,1.218,3.228t-3.229,2.436l-2.832-.113q-3.229,0-3.229,1.3,0,5.381.85,15.775t.906,15.379a18.749,18.749,0,0,0,1.982-.453,18.817,18.817,0,0,1,4.363-.793,2.949,2.949,0,0,1,2.35,1.105,3.721,3.721,0,0,1,.935,2.464q0,3.8-9.63,3.795,0,6.288,1.1,18.863T306.876,177.1Z"/>
        <path class="cls-1" d="M343.866,182.365q-3.57,0-3.569-3V164.238a16.56,16.56,0,0,0-5.919-1.926,67.744,67.744,0,0,0-7.619-1.02,19.57,19.57,0,0,0-1.954,5.892q-.765,3.852-1.586,7.76a20.269,20.269,0,0,1-2.181,6.175q-4.533,0-5.1-2.323,1.585-2.265,5.156-23.168t5.862-32.713a163.584,163.584,0,0,1,4.957-19.854q2.661-8.043,5.1-8.043a5.954,5.954,0,0,1,3.738,1.019q0,4.135,2.267,22.375t2.265,23.593q0,5.352,1.218,17.787t1.218,18.664Q347.718,182.365,343.866,182.365ZM338.994,144.5q-1.02-10.281-1.841-19.6t-.821-11.273a21.685,21.685,0,0,1,.057-2.237q-1.813,1.869-5.24,20.789T327.5,156.138a31.955,31.955,0,0,0,8.072,1.3,21.536,21.536,0,0,0,4.617-.34Q340.013,154.779,338.994,144.5Z"/>
        <path class="cls-1" d="M361.992,138.521l.113,3.682v.51q.453,10.083.454,30.248v2.946H371.4q2.492,1.7,2.492,3.229a3.737,3.737,0,0,1-.85,2.521,2.367,2.367,0,0,1-1.756.991,6.751,6.751,0,0,1-2.095-.4,9.654,9.654,0,0,1-2.21.227l-3.739-.17a3.729,3.729,0,0,1-2.973,1.416,4.3,4.3,0,0,1-3-1.1,3.381,3.381,0,0,1-1.219-2.578l.736-5.1q0-13.2-1.161-39.567t-1.161-39.566a2.068,2.068,0,0,1,.85-1.728,3.5,3.5,0,0,1,4.447.311,3.108,3.108,0,0,1,1.048,2.379Z"/>
        <path class="cls-1" d="M386.35,138.521l.113,3.682v.51q.453,10.083.453,30.248v2.946h8.837q2.492,1.7,2.492,3.229a3.737,3.737,0,0,1-.849,2.521,2.371,2.371,0,0,1-1.756.991,6.757,6.757,0,0,1-2.1-.4,9.654,9.654,0,0,1-2.21.227l-3.738-.17a3.73,3.73,0,0,1-2.974,1.416,4.306,4.306,0,0,1-3-1.1,3.384,3.384,0,0,1-1.219-2.578l.737-5.1q0-13.2-1.161-39.567t-1.162-39.566a2.071,2.071,0,0,1,.85-1.728,3.39,3.39,0,0,1,2.125-.652,3.355,3.355,0,0,1,2.322.963,3.1,3.1,0,0,1,1.048,2.379Z"/>
        <path class="cls-1" d="M317.639,239.77l.113-4.419q0-.566-.17-.566v-2.1q0-18.238,2.1-25.943,1.756-6.513,3.4-8.044a4.828,4.828,0,0,1,3.229-1.529q13.481,0,18.58,13.6,2.944,7.818,2.945,19.259v.85l.227,13.142q0,33.365-15.464,33.364-6.4,0-9.8-7.081a42.04,42.04,0,0,1-3.966-13.368A146.778,146.778,0,0,1,317.639,239.77Zm6.854-15.861-.566,10.706a139.561,139.561,0,0,0,2.719,29.342q2.887,7.308,5.5,8.61a5.259,5.259,0,0,0,3.795-1.7,11.8,11.8,0,0,0,2.69-4.56,51.2,51.2,0,0,0,1.671-6.033,66.279,66.279,0,0,0,.963-6.684q.566-6.174.566-10.536t-.764-13.368q-.765-9.008-.765-13.425v-2.04a12.292,12.292,0,0,0-2.776-7.562,8.343,8.343,0,0,0-6.8-3.314q-3.966,0-5.268,4.475a33.847,33.847,0,0,0-1.076,9.234Z"/>
        <path class="cls-1" d="M364.088,206.179l-1.076,23.281v3.115l2.152-.056q5.609,0,5.608,3.059a2.938,2.938,0,0,1-1.246,2.464,5.294,5.294,0,0,1-3.257.935,13.778,13.778,0,0,1-4.164-.681v32.855q0,5.1-3,5.1a7.191,7.191,0,0,1-4.136-1.756q.961-10.365,1.444-29.484T357.233,220v-2.832q.454-8.439.455-15.748a2.877,2.877,0,0,1,1.387-2.549,5.581,5.581,0,0,1,3.115-.906q1.728,0,3.71.113,2.04.114,4.929.567,6.57.963,6.57,4.022,0,3.285-5.89,3.285a13.9,13.9,0,0,0-6.062-1.133h-1.359Z"/>
        <path class="cls-1" d="M318.4,366.168l-.226-8.893q0-.055.17-3.965-.454-1.473-1.841-26.17t-1.5-30.193h-.453q-9.405-.169-9.4-3.455a2.06,2.06,0,0,1,1.247-1.784A4.911,4.911,0,0,1,308.83,291l15.748,1.076,1.869-.056q3.624,0,3.625,2.775a2.723,2.723,0,0,1-1.189,2.294,4.371,4.371,0,0,1-2.662.878l-5.325-.793-.227,1.19q0,10.989,1.927,32.91t1.925,32.968a3.091,3.091,0,0,1-1.246,2.408,4.135,4.135,0,0,1-2.719,1.048Z"/>
        <path class="cls-1" d="M342.591,298.194l-.453,28.946a26.188,26.188,0,0,0,6.343.566h4.193a12.671,12.671,0,0,0,.283-3.739q0-3.228-.765-14.189t-.764-16.512a2.768,2.768,0,0,1,1.019-2.182,3.045,3.045,0,0,1,1.926-.877,5.275,5.275,0,0,1,1.473.169,13.157,13.157,0,0,1,1.246.454,10.221,10.221,0,0,0,1.076.4q0,15.069,1.1,44.042t1.106,29.937a2.528,2.528,0,0,1-1.219,1.9,4.36,4.36,0,0,1-2.719.935q-1.5,0-2.407-2.209a22.366,22.366,0,0,1-1.218-6.543q-.312-4.334-.424-7.506-.057-1.359,0-3.115,0-2.379.056-5.438.112-5.38.114-6.231v-.454l.169-3.341-.679-1.076v-.114a9.1,9.1,0,0,1-2.1.227l-7.477-1.077v13.312l.679,19.09a5.141,5.141,0,0,1-.849,2.917,2.753,2.753,0,0,1-2.436,1.274q-2.324,0-3.2-4.22a59.266,59.266,0,0,1-.878-11.527l.34-17.674a49.989,49.989,0,0,0-.17-6.061v-.566q.453-6.06.453-6.8l-.793-26.171a3.45,3.45,0,0,1,.963-2.407,3.044,3.044,0,0,1,2.323-1.048Q342.59,291.283,342.591,298.194Z"/>
        <path class="cls-1" d="M368.987,309.466l-.623-9.8q0-8.214,4.872-8.214a35.024,35.024,0,0,1,8.5,1.444q5.38,1.445,5.381,3.71,0,2.38-3.4,3.626a45.583,45.583,0,0,0-8.78-2.209q.17,2.493.169,4.984l-.509,16.654q0,.114.34,1.813l4.134-.17q5.61,0,5.609,3.172a2.874,2.874,0,0,1-1.02,2.181,3.668,3.668,0,0,1-2.577.935,27.092,27.092,0,0,1-3.371-.227h-2.945q.339,4.419.339,8.78l-.509,21.016q0,6.515.226,6.514l8.554-.283q4.418,0,4.418,2.832a2.672,2.672,0,0,1-1.529,2.549,7.406,7.406,0,0,1-3.455.793h-9.8a4.209,4.209,0,0,1-2.776-1.048,3.364,3.364,0,0,1-1.3-2.52v-3.06l-.737-19.6Z"/>
        <path class="cls-1" d="M319.594,458.41a4.573,4.573,0,0,1-.879,2.889,3.062,3.062,0,0,1-2.577,1.133q-4.192,0-10.536-44.58-.907-6.57-1.133-7.59-2.154,15.462-3.285,26.708a222.019,222.019,0,0,0-1.133,22.29A3.014,3.014,0,0,1,299,461.5a3.283,3.283,0,0,1-2.295.991q-4.248,0-4.248-8.837,0-5.437-4.786-39.736t-6.09-37.528a4.538,4.538,0,0,1,4.135-2.775q2.663,0,4.843,12.065t3.739,29.258q1.557,17.192,1.614,17.418.17-1.586,1.162-9.771t1.558-13.171q1.7-15.066,1.7-21.411v-2.21a3.8,3.8,0,0,1,.935-2.407,2.7,2.7,0,0,1,2.124-1.161q4.133,0,4.134,3.4v1.756q0,11.217,5.212,32.458,2.265,9.291,3.229,14.9.622-6.4,2.265-18.523,3.57-26.4,3.57-40.671a6.373,6.373,0,0,1,.849-3.711,3.213,3.213,0,0,1,2.776-1.161,4.648,4.648,0,0,1,3.03.906,2.873,2.873,0,0,1,1.1,2.323,3.623,3.623,0,0,1-1.189,2.605q0,16.881-4.39,40.927T319.594,458.41Z"/>
        <path class="cls-1" d="M357.6,460.789q-3.57,0-3.57-3V442.662a16.572,16.572,0,0,0-5.919-1.926,67.432,67.432,0,0,0-7.619-1.019,19.58,19.58,0,0,0-1.954,5.891q-.765,3.853-1.586,7.76a20.223,20.223,0,0,1-2.181,6.175q-4.533,0-5.1-2.322,1.584-2.267,5.155-23.168t5.862-32.713a163.744,163.744,0,0,1,4.957-19.855q2.663-8.041,5.1-8.043a5.961,5.961,0,0,1,3.738,1.019q0,4.135,2.267,22.375t2.266,23.593q0,5.354,1.217,17.787t1.218,18.665Q361.454,460.789,357.6,460.789Zm-4.873-37.867q-1.019-10.283-1.84-19.6t-.822-11.272a21.67,21.67,0,0,1,.057-2.237q-1.813,1.869-5.239,20.789t-3.655,23.961a31.947,31.947,0,0,0,8.073,1.3,21.519,21.519,0,0,0,4.616-.34Q353.751,433.2,352.73,422.922Z"/>
        <path class="cls-1" d="M375.729,416.945l.114,3.682v.51q.453,10.083.453,30.249v2.945h8.837q2.492,1.7,2.492,3.23a3.731,3.731,0,0,1-.85,2.52,2.367,2.367,0,0,1-1.755.991,6.782,6.782,0,0,1-2.1-.4,9.714,9.714,0,0,1-2.21.226l-3.738-.17A3.728,3.728,0,0,1,374,462.148a4.3,4.3,0,0,1-3-1.1,3.382,3.382,0,0,1-1.219-2.577l.737-5.1q0-13.2-1.162-39.566T368.2,374.235a2.072,2.072,0,0,1,.85-1.728,3.5,3.5,0,0,1,4.447.311,3.108,3.108,0,0,1,1.048,2.38Z"/>
        <path class="cls-1" d="M400.087,416.945l.113,3.682v.51q.453,10.083.453,30.249v2.945h8.837q2.491,1.7,2.492,3.23a3.736,3.736,0,0,1-.849,2.52,2.371,2.371,0,0,1-1.756.991,6.782,6.782,0,0,1-2.1-.4,9.708,9.708,0,0,1-2.21.226l-3.738-.17a3.727,3.727,0,0,1-2.974,1.416,4.306,4.306,0,0,1-3-1.1,3.381,3.381,0,0,1-1.218-2.577l.736-5.1q0-13.2-1.161-39.566t-1.161-39.567a2.071,2.071,0,0,1,.849-1.728,3.5,3.5,0,0,1,4.448.311,3.107,3.107,0,0,1,1.047,2.38Z"/>
      </g>
      <g>
        <path class="cls-1" d="M442.663,297.6c-.554-.014-1.111,0-1.662-.046-2.385-.2-3.6-1.3-4.334-3.594-.834-2.6-.287-5.122.35-7.6a45.749,45.749,0,0,1,7.962-16.6,22.585,22.585,0,0,1,7.293-6.266,12.369,12.369,0,0,1,3.7-.964c.774-.136,1.592-.025,2.374-.195-3.847-.87-7.3.31-10.5,2.264-7.282,4.446-13.03,10.255-15.892,18.521-.08.233-.31.414-.819,1.064V245.882h73.307c-1.05,3.023-2.078,6.053-3.159,9.065-.616,1.717-1.317,3.4-2.049,5.285h-6.883l-.025.585h6.66l-1.35,3.91a6.971,6.971,0,0,0-8.208-1.593l-1.081.484c-3.657,1.455-5.7,4.406-7.237,7.82l.014-.016-1.43.585,2.557-8.965a18.707,18.707,0,0,0-8.94.181l3.412.754a33.432,33.432,0,0,1-.854,3.967c-2.648,7.751-5.27,15.514-8.122,23.19-.645,1.737-2.163,3.149-3.279,4.71l-1.678,1.131h-2.98c-1.363-1.4-1.673-2.633-1.136-4.108.313-.863.406-1.805.711-2.67q4.285-12.144,8.607-24.273c.33-.932.607-1.884,1-3.1h-4.8l-2.221,4.293a34.246,34.246,0,0,1-1.1,4.195c-2.427,6.151-3.952,12.674-7.493,18.371a27.192,27.192,0,0,0-3.74,3.6C447.878,295.756,445.386,296.805,442.663,297.6Z"/>
        <path class="cls-1" d="M536.653,316.967h-2.259c-.042-.408-.079-.657-.091-.908-.013-.27,0-.541,0-1.059l-2.133-.117-.3,1.928h-4.057v-6c-2.07,1.91-.295,4.392-1.975,6.047l-3.276-4.127c-.675,1.4-.148,2.615.054,4.022h-4.976a7.091,7.091,0,0,0-.111-6.293h5l2.98,3.677-.187-3.666h4.146c.286,1.81-.522,3.77.56,5.756,2.044-1.415,1.69-4.116,3.619-5.822.5,1.093.881,2.076,1.386,2.992.472.857,1.075,1.643,1.62,2.46Zm-15.784-6.16c-1.77,1.7-1.832,3.659-.379,5.355C521.54,314.515,521.085,312.866,520.869,310.807Z"/>
        <path class="cls-1" d="M496.433,307.349l3.967-5.391-.427-.391c-.348.3-.708.583-1.043.895-1.538,1.435-2.974,3-4.631,4.281-1.479,1.144-3.108,1.026-4.578-.471a7.52,7.52,0,0,1,.246-5.05q3.743-10.422,7.472-20.85c1.457-4.09,2.854-8.2,4.314-12.289.833-2.335,1.74-4.643,2.692-7.169h8.317l0-.633h-7.886c1.245-4.976,3.317-9.182,4.918-13.967,1.595,1.458,1.606,3.324,2.273,4.828.747,1.683,1.259,3.471,1.89,5.207.592,1.627,1.206,3.247,1.738,4.677-2.534.784-4.925,1.182-6.983,2.232-4,2.043-6.3,5.364-5.9,10.071a7.492,7.492,0,0,0,.944,3.108,60.791,60.791,0,0,0,4.3,6.451,16.183,16.183,0,0,1,3.494,7.62c-.506,3.74-2.791,5.79-6.169,6.773a6.437,6.437,0,0,1-2.461.217c-2.9-.329-4.931-2.208-3.635-5.328a16.4,16.4,0,0,0,.532-1.827c-1.285-1.782-1.837-2-3.329-1.319a3.467,3.467,0,0,0-1.885,4.16,6.746,6.746,0,0,0,3.879,4.108,10.845,10.845,0,0,0,5.987.743,13.342,13.342,0,0,0,9.414-5.145c2.149-2.785,2.266-8.411.032-11.19a69.216,69.216,0,0,1-4.58-6.592c-1.068-1.7-1.9-3.548-2.7-5.063.251-1.138.388-1.861.572-2.572a6.4,6.4,0,0,1,6.771-4.947c2.263.127,3.079,1.37,2.306,3.539-.154.433-.372.844-.533,1.2.077,2.2,1.762,2.678,3.412,3.259L532.337,306.9C530.107,307.688,503.3,307.961,496.433,307.349Z"/>
        <path class="cls-1" d="M488.348,263.618l1.081-.484c1.713-.032,3.615-.523,4.406,1.821-.267,2.045-3.281,3.336-1.651,6.073l2.852.751c-3.348,10.989-8.211,21.41-11.107,32.931-.581-1.513-1.072-2.746-1.529-3.993-1.936-5.28-3.836-10.573-5.808-15.84a4.857,4.857,0,0,1,.16-4.251c1.288-2.44,2.486-4.928,3.7-7.408.279-.573.454-1.2.677-1.8l-.014.016q2.325-2.5,4.648-5C486.627,265.5,487.485,264.558,488.348,263.618Z"/>
        <path class="cls-1" d="M442.663,297.6c2.723-.793,5.215-1.842,6.98-4.314a27.192,27.192,0,0,1,3.74-3.6l1.408-.458c-.3,1.372-.594,2.423-.763,3.494-.37,2.347.519,4.3,2.532,4.932,2.1.657,4.312.978,6.231-.675l1.678-1.131,1.423-.22.146,1.2,3.725.324c-1.085,4.545-7.993,9.4-15.024,10.276-7.518.932-16.528-2.746-20.668-10.608.926-.579,1.543.237,2.207.527A8.385,8.385,0,0,0,442.663,297.6Z"/>
        <path class="cls-1" d="M511.1,315.85l-.354.985c-1.932.232-2.333-1.77-3.988-2.372l.549,2.378h-5.321V310.8c-2.448,1.486-1.974,4.41-4,6.046l-2.956-6.182,1.684-.349,1.444,4.109.623.009,1.227-3.944h3.866c.421,1.768-.709,3.871.679,5.687,1.171-1.542,1.2-1.825.7-5.595,1.751-.477,3.392-.689,4.695,1.276l-1.316,2.1c.616.878,1.2,1.818,2.481,1.907Zm-3.29-2.715c.611-1.136.389-1.716-.661-2.14C506.611,311.882,506.454,312.54,507.812,313.135Z"/>
        <path class="cls-1" d="M438.753,310.328c2.322.249,2.833,2.384,4.674,3.8l-.63-3.718H449.9l1.438,3.977c1.95-.695.723-3.336,2.733-4.225a15.355,15.355,0,0,1-2.627,6.557c-1.206-.642-1.213-1.956-1.717-2.974-.473-.953-1.015-1.872-1.744-3.2-1.245,2.289-.574,4.188-.619,6.223h-2.11a14.228,14.228,0,0,0-.008-5.97c-2.311,1.71-.689,4.033-1.714,6.038l-3.763-4.642a4.745,4.745,0,0,0,.749,4.582h-1.769Z"/>
        <path class="cls-1" d="M474.453,310.86c2.77-1.123,5.614-.319,8.342-.542l1.42,2.564c1.438-.372.926-1.68,1.451-2.557l1.469.183-2.614,4.211.852,2.063h-2.361l.307-2.5-1.459-2.332-2.73-.961c-1.255,1.871-.841,3.752-.026,5.839l-2.288.11.5-6.051-2.477.965-.384-1Z"/>
        <path class="cls-1" d="M462.941,316.942l-2-.121v-6.27c1.609-.33,3.293-.767,4.529,1.282l-1.03,2.834,2.31,1.567c-1.583.6-1.583.6-4.469-2.222Zm-.529-3.895c1.507-.7,1.507-.7.355-2.153Z"/>
        <path class="cls-1" d="M511.114,315.862a8.894,8.894,0,0,1-.545-1.825,3.15,3.15,0,0,1,4.172-3.544,15.716,15.716,0,0,1,1.831.73l-.26,1.345-2.426-1.647-1.351.74c-.51,2.951-.51,2.951,1.107,4.474l1.074-.45v-1.863h2.369l-.575,2.091c-1.278,1.3-3.374,1.217-5.408-.063Z"/>
        <path class="cls-1" d="M433.626,315.88l2.5-.285c.743-2.541.732-2.792-.174-5.1H437.5c-.089,1.425-.192,2.693-.241,3.963a2.367,2.367,0,0,1-1.861,2.436,2.467,2.467,0,0,1-3.021-1.371,8.756,8.756,0,0,1-.614-2.648,20.316,20.316,0,0,1-.02-2.441h1.888Z"/>
        <path class="cls-1" d="M455.421,310.372c1.433.121,2.915-.7,3.913,1.123l-2.2-.588-.455,1.665,1.616.5v1.139l-1.417-.332.133,2.129,2.92-.846-.106,1.613c-.851.074-1.566.158-2.284.193-.64.031-1.282.006-2.116.006Z"/>
        <path class="cls-1" d="M487.788,313.923l1.9-2.015,1.209,1.775c.573-1.282.363-3.208,2.8-3.271-.932,1.976-1.733,3.76-2.613,5.5-.393.778-1,1.293-2.173.563l1.369-.972c-.071-.14-.169-.4-.2-.393C489.212,315.315,488.407,315.393,487.788,313.923Z"/>
        <path class="cls-1" d="M467.585,310.863c2.284-.8,2.284-.8,3.478,1.056l-2.539-.962c-.223,2.043,1.872,1.745,2.409,3.131v2.235c-2.4.843-2.528.805-3.945-1.474l2.213,1.28.769-.672C469.361,313.774,466.089,313.477,467.585,310.863Z"/>
        <path class="cls-1" d="M474.455,310.856c-1.084,1.826-.428,3.733-.237,5.845l-2.064.253v-6.8l2.3.708Z"/>
      </g>
      <text class="cls-2" transform="translate(140.915 309.942)">U<tspan class="cls-3" x="49.027" y="0">V</tspan><tspan x="89.216" y="0">A</tspan></text>
    </g>
  </g>
</svg>
