<svg xmlns="http://www.w3.org/2000/svg" width="564" height="564" viewBox="0 0 564 564">
  <defs>
    <style>
      .cls-1 {
        fill: #fff;
      }
    </style>
  </defs>
  <title>iLabGrant</title>
  <g id="Layer_2" data-name="Layer 2">
    <g id="iLabGrant">
      <circle cx="282" cy="282" r="282"/>
      <g>
        <path class="cls-1" d="M282.15,542.321c-.424,0-.852,0-1.284-.012-23.785-.479-38.369-14.1-43.346-40.492l-.283-1.5-38.754-11.59-1.058,1.178c-.071.078-.159.168-.258.269a11.81,11.81,0,0,0-1.32,1.536c-4.181,6-10.038,9.033-17.908,9.262l-.317,0c-4.937,0-15.707-2.892-22.424-5.83A91.113,91.113,0,0,1,174.112,481.4l3.725-2.022L163.5,470.22l-1.381,1.014c-1.335.98-2.569,1.942-3.763,2.872a56.619,56.619,0,0,1-7.092,4.988,18.216,18.216,0,0,1-8.893,2.365,19.44,19.44,0,0,1-4.513-.549,102.533,102.533,0,0,1-19.791-6.978c6.828-5.452,14.352-10.724,23.618-13.867l3.564-1.208-2.5-2.817a58.132,58.132,0,0,0-6.774-6.234,65.829,65.829,0,0,1-5.02-4.428l-1.552-1.568-1.749,1.345c-.42.324-.8.619-1.155.9-.673.525-1.251.976-1.845,1.4-4.62,3.329-9.115,4.948-13.742,4.948a21.033,21.033,0,0,1-6.093-.934A86.28,86.28,0,0,1,85.1,442.084c8.279-5.031,16.223-9.655,26.017-10.963l4.361-.582L99.263,410.066l-1.921,1.3c-4.421,2.991-8.612,4.446-12.81,4.446a18.84,18.84,0,0,1-2.142-.124l-.225-.027a20.625,20.625,0,0,1-5.907-1.245c-7.015-3.18-12.92-7.771-19.656-14.006,8.077-3.1,15.91-5.719,24.495-5.719,1.154,0,2.322.048,3.471.142l4.492.369L77.876,373.51l-1.721.2c-1.369.162-2.7.345-4.007.525-2.787.383-5.419.744-8.016.843q-.345.014-.687.013a17.27,17.27,0,0,1-11.234-4.154,88.005,88.005,0,0,1-14.975-16.212A87.234,87.234,0,0,1,53.8,352.974a61.9,61.9,0,0,1,12.074,1.157l4.057.8-6.406-21.519-1.727-.121c-1.521-.107-2.975-.158-4.381-.206a41.98,41.98,0,0,1-8.181-.8,20.1,20.1,0,0,1-8.328-4.106c-6.025-5.3-10.448-12.175-14.342-19.062,2.638-.247,5.162-.367,7.64-.367a64.519,64.519,0,0,1,21.347,3.5l3.682,1.268-2.743-27.95-1.853-.34c-.3-.054-.587-.116-.874-.177a16.674,16.674,0,0,0-2.275-.372c-8.661-.651-14.74-4.394-18.585-11.443a89.058,89.058,0,0,1-7.641-18.923c9.575,1.659,19.243,3.818,27.545,9.884l3.421,2.5,3.731-29.362-1.9-.672c-.447-.158-.894-.31-1.342-.463-.943-.322-1.833-.626-2.7-.971C46.8,232.366,42.24,227.712,40.089,221c-2.06-6.425-2.915-13.085-3.49-20.983,9.209,3.981,17.848,8,24.586,15.878l2.876,3.362,7.765-23.338-1.648-1.047c-.947-.6-1.853-1.137-2.718-1.648a30.53,30.53,0,0,1-4.3-2.857,21.708,21.708,0,0,1-7.851-13.519c-1.121-7.179-.377-14.167.522-22.212,8.288,5.676,15.918,11.481,21.086,20.4l2.211,3.817L81.265,175c.545-.985,1.075-1.953,1.6-2.906,1.18-2.154,2.3-4.188,3.467-6.207,1.156-2,2.344-3.936,3.6-5.989q.825-1.346,1.657-2.714l1.1-1.819-1.619-1.379c-.6-.511-1.2-.991-1.782-1.46a27.6,27.6,0,0,1-3.045-2.683c-4.563-4.958-6.613-10.392-6.268-16.612a92.463,92.463,0,0,1,3.926-20.686c7.769,7.168,14.306,14.231,17.653,23.758l1.413,4.022,19.675-22.3-1.149-1.616c-.194-.272-.374-.539-.551-.8a20.623,20.623,0,0,0-1.329-1.811,20.857,20.857,0,0,1-4.687-19.174c1.554-6.573,4.331-13,8.881-20.486,5.515,8.478,10.471,16.743,11.968,27.136l.666,4.628,3.479-3.124a64.084,64.084,0,0,1,5.641-4.349c4.292-3.06,8.729-6.225,11.477-11.725a18.935,18.935,0,0,1,13.2-10,75.806,75.806,0,0,1,17.549-1.821c1.23,0,2.5.02,3.821.06a41.607,41.607,0,0,1-2.3,4.168c-2.743,4.209-6.039,9.167-9.68,14.034-2.192,2.928-5.564,4.911-10.613,6.239-6.71,1.766-10.374,3.876-15.681,9.033l-2.631,2.555,8.712,3.946c5.125,2.318,10.309,4.662,15.475,7.045a12.972,12.972,0,0,1,1.221.656,26.976,26.976,0,0,1-3.032,1.789l-2.531,1.371a127.568,127.568,0,0,1-14.209,6.992,18.584,18.584,0,0,1-6.782,1.323c-4.3,0-8.79-1.631-13.338-4.847-.392-.278-.763-.586-1.217-.96-.274-.225-.574-.472-.918-.747l-1.831-1.467-16.141,17.718,5.61.037c8.121.053,15.546,1.57,23.824,3.912q-1.481,1.378-2.952,2.77a160.9,160.9,0,0,1-12.352,10.869,19.113,19.113,0,0,1-11.762,4.187,24.089,24.089,0,0,1-10.5-2.662c-.416-.2-.84-.387-1.35-.607l-.8-.351-2.024-.9L92.082,180.693l5.416-.985a60.342,60.342,0,0,1,10.917-.947,112.088,112.088,0,0,1,14.119,1.069c-3.231,4.282-6.127,8.025-8.851,11.438-5.65,7.08-11.965,10.522-19.3,10.522a28.851,28.851,0,0,1-8.324-1.328l-2.305-.7-6.093,17.683,4.546-1.222c8.924-2.4,16.651-4.067,24.719-4.339q-.915,1.8-1.817,3.615c-2.038,4.075-4.145,8.289-6.468,12.235-4.576,7.773-11.239,11.552-20.369,11.552-.944,0-1.929-.041-2.927-.122l-1.964-.16-.614,1.871c-1.394,4.248-1.8,8.6-2.22,13.217-.089.963-.179,1.943-.28,2.939l-.5,4.888,4.243-2.477a99.834,99.834,0,0,1,22.247-9.481c-.254,1.65-.5,3.126-.858,4.572-1.048,4.215-2.236,8.991-3.767,13.433-2.751,7.978-8.16,12.923-16.535,15.115-.743.194-1.486.4-2.375.638l-3.54.958,1.776,22.274,3.771-3.439A102.516,102.516,0,0,1,94.8,288.676c.043,1.185.066,2.269.024,3.334-.066,1.654-.1,3.315-.132,4.976a86.3,86.3,0,0,1-.882,12.875c-1.471,8.606-6.629,14.226-15.331,16.7a4.23,4.23,0,0,0-1.395.744c-.1.073-.216.159-.358.252l-1.537,1,5.507,19.668,3.045-3.9a95.823,95.823,0,0,1,18.81-18.146,31.04,31.04,0,0,1,.895,5.806c.105,1.155.214,2.35.394,3.537a44.089,44.089,0,0,1,.3,7c-.008.935-.016,1.87,0,2.8.109,8.77-3.642,15.3-11.466,19.956a12.8,12.8,0,0,0-1.514,1.081,3.064,3.064,0,0,0-.935,1.356c-.031.077-.069.176-.128.3l-.512,1.105,8.632,16.891,2.193-4.507a89.617,89.617,0,0,1,14.94-21.288c.368.922.691,1.779.957,2.636,1.232,3.97,2.664,8.68,3.95,13.512,2.538,9.538.161,17.417-7.266,24.086a8.682,8.682,0,0,0-1,1.118c-.141.178-.3.382-.5.62l-1.294,1.542,12.789,16.546,1.328-4.825a93.612,93.612,0,0,1,10.77-24.19,83.574,83.574,0,0,1,9.64,19.559c2,6.189,1.139,12.182-2.641,18.321a24.919,24.919,0,0,1-1.5,2.084c-.331.431-.685.892-1.065,1.407l-1.1,1.484,1.095,1.484a39.653,39.653,0,0,0,7.955,7.516c.773.607,1.558,1.223,2.347,1.866l3.369,2.75.681-4.3a92.709,92.709,0,0,1,8.083-25.824l.271.4c.937,1.37,1.893,2.728,2.849,4.086,2.012,2.858,4.092,5.814,5.921,8.806,5.833,9.545,5.965,16.263.523,26.624l-1.127,2.147,19.9,11.241-.71-5.021c-1.482-10.475,1.734-19.922,5.271-29.861.092.1.177.2.256.3q1.3,1.612,2.614,3.216c2.8,3.43,5.694,6.975,8.277,10.6,5.15,7.226,5.923,14.582,2.366,22.49-.223.494-.386.977-.576,1.536-.091.273-.2.581-.324.939l-.8,2.243,2.2.909a145.514,145.514,0,0,0,27.982,8.194l2,.39.783-1.886c8.641-20.828,22.439-30.953,42.181-30.953.589,0,1.182.01,1.783.028,18.931.585,32.582,10.783,40.576,30.314l.589,1.438,1.55.108q.323.022.7.023c5.715,0,21.51-4.475,28.169-7.98l1.846-.97-.624-1.991q-.345-1.1-.7-2.2c-.512-1.606-1.03-3.225-1.507-4.857-1.156-3.945-.8-8.117,1.075-12.75,1.936-4.774,8.569-13.6,13.994-18.924,3.545,9.727,6.759,18.985,5.158,29.6l-.758,5.026,20.415-11.332-1.511-2.258a20.83,20.83,0,0,1-3.736-13.95,22.491,22.491,0,0,1,1.3-6.617,78.107,78.107,0,0,1,12.028-18.943,84.312,84.312,0,0,1,7.984,25.825l.642,4.49L426.6,434.627l-1.783-1.913c-4.38-4.7-6.449-9.716-6.326-15.338a22.4,22.4,0,0,1,1.553-8.4c2.165-4.94,4.632-9.817,7.242-14.98q.726-1.434,1.467-2.9A85.978,85.978,0,0,1,439.7,415.371l1.316,4.707,12.475-15.643-1.1-1.538c-.855-1.2-1.713-2.34-2.552-3.459a67.634,67.634,0,0,1-4.76-6.9,17.55,17.55,0,0,1-1.788-13.361c1.388-5.323,2.967-10.712,4.493-15.923l.887-3.031a86.1,86.1,0,0,1,14.888,21.132l2.118,4.378,9.575-17.562-2.85-2.013c-.712-.506-1.348-.959-2-1.4-7.17-4.844-10.575-10.943-10.411-18.646.114-5.3.585-10.73,1.04-15.978l.263-3.062a5.334,5.334,0,0,1,.166-.895c7.433,5.64,13.544,11.106,18.7,18.223l3,4.137,6.066-20.808-2.5-.641a22.032,22.032,0,0,1-16.712-17.428c-.993-5.686-.9-11.457-.812-17.567q.027-1.676.046-3.4a92.663,92.663,0,0,1,19.99,14.951l3.789,3.657,1.882-22.518-6.219-1.761c-7.8-2.184-12.922-6.619-15.67-13.559a96.535,96.535,0,0,1-5.249-19.339c4.165.7,10.149,3.2,22.489,9.215l4.152,2.023-2.754-21.864-2.1-.095c-.9-.04-1.747-.068-2.568-.095-1.635-.054-3.181-.106-4.662-.242a19.557,19.557,0,0,1-13.41-6.672c-5.231-6-8.671-13.238-11.786-20.463,8.579.233,16.542,2.144,24.607,4.258l4.456,1.168-5.362-16.178-1.832.026c-1.526.022-3,.074-4.444.126-1.742.062-3.389.121-5.006.121-1.376,0-2.588-.044-3.705-.134a16.81,16.81,0,0,1-10.586-5.02,102.973,102.973,0,0,1-7.434-7.968c-1.917-2.364-3.749-4.922-5.687-7.631-.187-.26-.374-.523-.564-.787a84.284,84.284,0,0,1,13.655-1.178,72.218,72.218,0,0,1,11.234.874l5.225.814L460.64,161.7l-1.854.523c-1.18.333-2.322.678-3.441,1.017-2.349.711-4.567,1.382-6.782,1.821a17.49,17.49,0,0,1-3.417.341,18.02,18.02,0,0,1-9.413-2.741c-6.943-4.2-12.784-9.819-17.364-14.741,5.226-2.1,14.376-3.729,23.909-4.166l5.274-.242-15.816-17.6-1.857,1.621a24.926,24.926,0,0,1-13.052,6.117,18.316,18.316,0,0,1-2.815.221,21.234,21.234,0,0,1-6.494-1.092c-5.159-1.641-13.436-6.127-19.324-10.347a99.418,99.418,0,0,1,22.338-9.545L415.5,111.4l-4.251-2.961c-1.224-.853-2.417-1.794-3.569-2.7-3.636-2.867-7.4-5.833-12.763-6.631a16.916,16.916,0,0,1-11.733-7.345c-3.08-4.494-5.991-9.255-8.807-13.858q-.78-1.276-1.561-2.55l5.7-.007q4.112,0,8.2.037a12.891,12.891,0,0,1,2.056.272c.561.1,1.124.2,1.687.271a21.166,21.166,0,0,1,17.019,11.55,22.3,22.3,0,0,0,6.967,7.986c2.247,1.587,4.421,3.242,6.724,4.993,1.011.769,2.033,1.546,3.077,2.33l3.418,2.564.562-4.235c1.352-10.2,6.458-18.4,11.911-27.043,2.029,4.065,4.373,8.818,6.588,13.624,4.931,10.7,3.6,19.665-4.185,28.207l-1.507,1.653,20.128,22.925,1.334-4.234c2.979-9.459,9.764-16.168,16.947-23.272l.633-.627c1.772,6.3,3.618,13.568,3.922,21.035.3,7.433-2.6,13.534-8.881,18.652-.146.119-.307.222-.466.329-.25.165-.5.333-.731.515a7.79,7.79,0,0,0-.77.706l-.294.292-1.4,1.351,13.391,23.443,2.176-3.776c5.1-8.857,12.766-14.579,21.043-20.288,1.105,7.705,1.791,14.78.658,21.887-1.306,8.195-5.918,13.856-14.514,17.814l-2.023.932,7.859,24,2.891-3.492c6.422-7.759,15.182-11.7,24.486-15.777a45.7,45.7,0,0,1-.661,6.484c-.247,1.651-.5,3.359-.617,5.085a12.015,12.015,0,0,1-.333,1.817c-.108.46-.215.92-.3,1.383-2.2,12.246-7.309,17.952-19.538,21.809l-2.028.64.306,2.1c.161,1.111.33,2.232.5,3.36.385,2.549.782,5.184,1.1,7.787s.562,5.245.823,8.035c.119,1.278.242,2.587.375,3.943l.416,4.215,3.489-2.4c9.332-6.42,19.578-8.778,28.081-9.918q-.678,1.7-1.353,3.4c-1.526,3.835-3.1,7.8-4.694,11.678-4.1,10-11.277,15.021-21.931,15.34a3.85,3.85,0,0,0-1.751.543c-.135.071-.3.158-.5.252l-1.314.6-2.762,27.67,3.795-1.471c6.319-2.449,13.161-3.59,21.53-3.59,2.248,0,4.625.076,7.445.241-3.366,5.1-6.229,9.378-9.214,13.6-4.971,7.03-11.3,10.447-19.351,10.448a34.119,34.119,0,0,1-5.746-.519l-2.157-.371-7.149,22.843,4.187-.895a56.5,56.5,0,0,1,11.965-1.235,85.436,85.436,0,0,1,16.756,1.847c-5.088,7.038-9.773,12.08-14.918,16.094a20.141,20.141,0,0,1-12.581,4.547,24.042,24.042,0,0,1-8.461-1.653,9.984,9.984,0,0,0-1.379-.379c-.249-.055-.546-.122-.915-.213l-1.91-.472-11.458,22.03,4.254-.123c.388-.012.782-.017,1.182-.017a69.776,69.776,0,0,1,26.772,5.923c-.33.3-.658.587-.991.854-3.922,3.16-7.791,6.218-11.5,9.09-4.657,3.606-9.552,5.434-14.551,5.434a24.73,24.73,0,0,1-13.5-4.408l-1.894-1.232-16.8,20.866,4.937.217c5.155.226,9.52,1.965,14.488,4.507,3.264,1.671,6.489,3.446,9.9,5.327l1.551.854c-1.579.8-3.151,1.623-4.722,2.445a141.082,141.082,0,0,1-13.783,6.593,20.591,20.591,0,0,1-7.494,1.477c-4.809,0-9.6-1.886-14.231-5.6l-3.71-2.977-17.232,14.564,4.183,1.422c8.825,3,16.135,7.8,23.949,14.05-8.25,3.986-15.585,6.707-23.367,7.35-.548.045-1.1.068-1.642.068-5.686,0-10.97-2.511-15.282-7.263-.467-.512-.928-1.087-1.463-1.752-.293-.366-.608-.757-.96-1.185l-1.367-1.661-15.725,9.394L389.754,481a109.4,109.4,0,0,1,19.222,14.249c-.684.268-1.326.5-1.955.7l-.829.256c-4.147,1.28-8.435,2.605-12.675,3.716a30.358,30.358,0,0,1-7.631,1.055c-7.663,0-13.9-3.554-19.055-10.866l-1.037-1.469-39.057,11.693-.286,1.487c-5.17,26.872-20.071,40.5-44.29,40.5Z"/>
        <path d="M187.45,77.378c-.076.122-.153.243-.231.362-2.719,4.172-5.985,9.087-9.588,13.9-1.86,2.485-4.712,4.125-9.247,5.318-7.109,1.871-11.188,4.217-16.787,9.658l-5.261,5.111,6.681,3.029,5.319,2.407c4.077,1.844,8.264,3.738,12.431,5.646l-1.406.764a123.84,123.84,0,0,1-13.927,6.862,16.1,16.1,0,0,1-5.871,1.151c-3.829,0-7.72-1.435-11.9-4.388-.288-.2-.633-.488-1.069-.847-.282-.232-.592-.487-.945-.77l-3.663-2.935-3.16,3.47-6.945,7.623-3.838,4.213-7.556,8.295,11.219.073a77.513,77.513,0,0,1,18.857,2.662,152.541,152.541,0,0,1-11.838,10.4,16.435,16.435,0,0,1-10.243,3.673,21.63,21.63,0,0,1-9.405-2.409c-.485-.236-.955-.44-1.454-.655-.236-.1-.493-.214-.781-.341l-4.047-1.791-2.269,3.8-.2.328-7.577,12.693-5.643,9.453,10.831-1.971a57.97,57.97,0,0,1,10.471-.906,92.138,92.138,0,0,1,9.477.546c-2.183,2.856-4.218,5.464-6.164,7.9-5.146,6.448-10.821,9.582-17.35,9.582a26.359,26.359,0,0,1-7.6-1.221l-4.609-1.4L80.6,201.225l-1.689,4.9-2.086,6.055-3.068,8.9,9.093-2.444a120.724,120.724,0,0,1,19.877-3.976c-1.975,3.95-4.02,8.021-6.247,11.8-4.144,7.04-9.932,10.319-18.214,10.319-.877,0-1.794-.038-2.724-.114l-3.928-.319L70.388,240.1c-1.482,4.516-1.9,9.009-2.335,13.766-.088.956-.177,1.928-.278,2.917l-.992,9.776L75.27,261.6a93.916,93.916,0,0,1,17.782-8c-.025.109-.052.218-.078.326-1.087,4.368-2.211,8.886-3.706,13.221-2.457,7.127-7.3,11.547-14.8,13.511-.754.2-1.506.4-2.408.647l-1.52.413-4.011,1.082.33,4.142.633,7.938.572,7.178.811,10.175,7.542-6.878a108.447,108.447,0,0,1,15.871-12.319c-.042,1.312-.067,2.621-.092,3.9a84.646,84.646,0,0,1-.847,12.5c-1.313,7.683-5.746,12.5-13.552,14.721A6.64,6.64,0,0,0,75.6,325.3c-.069.051-.147.11-.244.174l-3.071,2L73.276,331l2.947,10.526.731,2.611,2.668,9.528,6.088-7.8a90.978,90.978,0,0,1,15.1-15.181c.051.5.1,1.007.145,1.529.109,1.192.221,2.425.413,3.687a42.561,42.561,0,0,1,.267,6.6c-.009.953-.017,1.9-.006,2.853.1,7.908-3.157,13.557-10.245,17.777a15.538,15.538,0,0,0-1.807,1.285,5.542,5.542,0,0,0-1.685,2.374c-.018.045-.04.1-.074.176l-1.025,2.21,1.109,2.169,3.46,6.77,2.337,4.573,4.562,8.926,4.386-9.014a82.058,82.058,0,0,1,11.724-17.509c1.112,3.611,2.344,7.724,3.459,11.918,2.3,8.661.232,15.519-6.52,21.583a10.834,10.834,0,0,0-1.289,1.426c-.128.162-.276.348-.458.565l-2.588,3.085,2.463,3.186,2.323,3.006,6.173,7.988,6.122,7.92,2.655-9.651a87.155,87.155,0,0,1,8.42-20,75.388,75.388,0,0,1,7.2,15.477c1.763,5.449.981,10.762-2.392,16.241-.331.538-.782,1.124-1.353,1.867-.341.444-.706.919-1.1,1.449L135.3,434.12l2.19,2.97a42.286,42.286,0,0,0,8.424,8c.76.6,1.534,1.2,2.31,1.835l6.738,5.5,1.361-8.59a89.032,89.032,0,0,1,6.081-21.159l.606.862c2.082,2.957,4.048,5.75,5.835,8.674,5.412,8.855,5.515,14.5.443,24.158l-2.256,4.294,4.223,2.385,6.586,3.719,6.793,3.836,8.829,4.986-1.42-10.04c-1.2-8.486.826-16.142,3.68-24.48l.056.068c2.772,3.4,5.638,6.907,8.172,10.463,4.588,6.44,5.282,12.986,2.121,20.013a18.767,18.767,0,0,0-.663,1.759c-.089.263-.188.558-.311.9l-1.6,4.486,4.4,1.817a148.149,148.149,0,0,0,28.457,8.337l4.009.781,1.565-3.773c8.212-19.79,21.254-29.41,39.872-29.41.564,0,1.131.008,1.706.026,18.106.559,30.647,9.967,38.34,28.761l1.177,2.876,3.1.218c.269.018.562.029.875.029,6.113,0,22.288-4.559,29.333-8.267l3.691-1.943-1.249-3.979q-.345-1.1-.7-2.208c-.5-1.577-1.025-3.208-1.492-4.8-1-3.433-.689-6.963.993-11.109,1.39-3.428,6.043-10.05,10.688-15.219,2.827,8.065,4.979,15.936,3.674,24.587l-1.515,10.049,8.886-4.932,7.636-4.238,5.961-3.309,4.753-2.637-3.025-4.517a18.419,18.419,0,0,1-3.323-12.329,20.636,20.636,0,0,1,1.1-5.858,71.109,71.109,0,0,1,9.166-15.213,81.382,81.382,0,0,1,6.076,21.462l1.284,8.979,6.907-5.879,4.989-4.247,5.39-4.588,3.983-3.39-3.567-3.827c-3.913-4.2-5.763-8.639-5.654-13.577a20.26,20.26,0,0,1,1.342-7.448c1.986-4.53,4.242-9.034,6.632-13.763a82.939,82.939,0,0,1,8.331,19.825l2.632,9.411,6.093-7.64,1.468-1.842,6.783-8.507,2.353-2.95-2.192-3.072c-.879-1.231-1.749-2.391-2.591-3.512a66.093,66.093,0,0,1-4.584-6.637,14.9,14.9,0,0,1-1.541-11.493c1.264-4.849,2.692-9.767,4.094-14.555a77.507,77.507,0,0,1,11.5,17.19l4.235,8.755,4.656-8.539,2.547-4.672,3.633-6.663,2.135-3.915-3.646-2.567c-.375-.264-.723-.512-1.055-.748-.714-.508-1.356-.963-2.008-1.4-6.411-4.331-9.457-9.735-9.312-16.521.108-5.034.545-10.218.981-15.25a76.933,76.933,0,0,1,14.66,14.95l5.991,8.275,2.859-9.808,2.3-7.88,1.615-5.544,1.447-4.961-5.007-1.282a19.351,19.351,0,0,1-10.046-5.82,19.158,19.158,0,0,1-4.822-9.616A87.068,87.068,0,0,1,471.683,293,92.647,92.647,0,0,1,487.5,305.437l7.578,7.314.877-10.5,1.272-15.218.343-4.105L493.6,281.81l-1.574-.446c-.975-.277-1.823-.518-2.672-.756-6.993-1.959-11.578-5.907-14.019-12.071a89.778,89.778,0,0,1-4.388-15.012c3.842,1.27,9.363,3.745,18.208,8.055l8.306,4.047-1.155-9.166-1.175-9.33-.738-5.861-.527-4.182-4.21-.188c-.906-.041-1.768-.069-2.6-.1-1.667-.055-3.106-.1-4.512-.233a17.132,17.132,0,0,1-11.757-5.824c-4.11-4.717-7.1-10.322-9.73-16.088a120.813,120.813,0,0,1,20.031,3.943l8.912,2.337-2.9-8.746-3.336-10.066-1.153-3.479-3.664.052c-1.561.022-3.053.076-4.5.127-1.719.061-3.344.119-4.917.119-1.309,0-2.455-.041-3.5-.126a14.147,14.147,0,0,1-9.022-4.3,100.925,100.925,0,0,1-7.258-7.773c-1.274-1.571-2.482-3.192-3.755-4.949a77.191,77.191,0,0,1,9.217-.573,69.742,69.742,0,0,1,10.849.845l10.448,1.627-5.372-9.108-1.87-3.171-5.5-9.328-1.957-3.319-3.708,1.047c-1.209.341-2.366.691-3.485,1.03-2.289.692-4.451,1.346-6.546,1.763a15.066,15.066,0,0,1-2.929.292,15.552,15.552,0,0,1-8.119-2.381,73.592,73.592,0,0,1-14.121-11.469,91.846,91.846,0,0,1,19.486-2.8l10.546-.484-7.056-7.853-6.19-6.889-4.45-4.953-3.3-3.666-3.713,3.241a22.525,22.525,0,0,1-11.8,5.531,15.811,15.811,0,0,1-2.428.19,18.793,18.793,0,0,1-5.737-.974c-3.976-1.264-10.112-4.436-15.311-7.762a99.977,99.977,0,0,1,18.285-7.352l9.926-2.971-8.5-5.922c-1.165-.811-2.276-1.688-3.452-2.615-3.71-2.927-7.915-6.244-13.942-7.14a14.477,14.477,0,0,1-10.039-6.286c-2.767-4.039-5.412-8.318-7.973-12.5H378.5c3.274,0,5.8.011,8.184.037a11.28,11.28,0,0,1,1.63.231c.551.1,1.176.216,1.847.3a18.562,18.562,0,0,1,15.109,10.248A24.7,24.7,0,0,0,413,97.5c2.211,1.563,4.371,3.206,6.657,4.944q1.52,1.157,3.087,2.337l6.835,5.13,1.123-8.472c1.088-8.206,4.83-15.191,9.18-22.254,1.491,3.028,3.063,6.282,4.57,9.553,4.458,9.675,3.263,17.771-3.761,25.477l-3.013,3.306,2.951,3.361,4.562,5.2,11.16,12.711,5.859,6.674,2.667-8.47c2.467-7.834,7.883-13.819,13.909-19.851a78.546,78.546,0,0,1,2.711,16.337c.272,6.684-2.258,11.963-7.954,16.606-.091.071-.19.132-.287.2-.241.161-.542.361-.87.615a10.336,10.336,0,0,0-1.01.918c-.077.078-.161.164-.259.258l-2.8,2.7,1.929,3.376,10.266,17.972,4.324,7.568,4.35-7.553c4.151-7.2,10.219-12.314,16.944-17.126a61.163,61.163,0,0,1,.122,17.084c-1.162,7.3-5.322,12.36-13.09,15.937l-4.047,1.863,1.387,4.235,2.833,8.65,2.921,8.922,2.822,8.616,5.781-6.984c5.185-6.262,12.164-9.962,19.734-13.383-.093.7-.2,1.407-.306,2.123-.255,1.7-.519,3.463-.639,5.295a10.63,10.63,0,0,1-.273,1.407c-.106.453-.226.965-.325,1.515-2.049,11.429-6.382,16.256-17.829,19.866l-4.055,1.278.61,4.208q.245,1.677.5,3.38c.381,2.529.776,5.145,1.087,7.71s.558,5.193.817,7.966c.119,1.281.242,2.595.376,3.955l.831,8.43,6.979-4.8c6.383-4.391,13.43-7.162,22.719-8.828-1.439,3.617-2.922,7.341-4.415,10.98-3.74,9.118-10,13.5-19.694,13.791a6.284,6.284,0,0,0-2.844.831c-.1.052-.216.116-.367.185l-2.626,1.189-.286,2.869-.152,1.518-2.064,20.667-.809,8.1,7.591-2.942c6.022-2.333,12.576-3.42,20.626-3.42.942,0,1.908.013,2.923.042-2.349,3.529-4.506,6.7-6.732,9.854-4.532,6.407-10.032,9.392-17.31,9.392a31.627,31.627,0,0,1-5.323-.483l-4.312-.741-1.307,4.175-1.755,5.607-3.462,11.061-2.559,8.175,8.377-1.792a54.062,54.062,0,0,1,11.441-1.179,75.783,75.783,0,0,1,12.332,1.088,68.684,68.684,0,0,1-12.031,12.382,17.478,17.478,0,0,1-11.044,4.018,21.576,21.576,0,0,1-7.58-1.492,12.06,12.06,0,0,0-1.712-.479c-.235-.052-.515-.115-.862-.2l-3.82-.945L483.5,373.2l-5.4,10.387-3.184,6.122-3.927,7.551,8.507-.245c.364-.011.735-.016,1.11-.016a69.074,69.074,0,0,1,21.957,4.141c-3.124,2.5-6.211,4.929-9.207,7.249-4.209,3.259-8.589,4.911-13.019,4.911a22.3,22.3,0,0,1-12.136-4l-3.787-2.463-2.833,3.519-6.1,7.57-6.19,7.687-6.2,7.7,9.872.434c4.706.207,8.783,1.843,13.458,4.235,2.411,1.235,4.81,2.532,7.285,3.888l-.571.3a136.754,136.754,0,0,1-13.534,6.478,18.073,18.073,0,0,1-6.585,1.307c-4.225,0-8.486-1.7-12.664-5.054l-1.213-.973-.893-.716-3.212-2.576-3.144,2.657-4.541,3.838-7.743,6.545-6.75,5.7,8.367,2.848c7.29,2.481,13.551,6.267,19.993,11.142-6.537,2.923-12.557,4.882-18.812,5.4-.48.04-.963.06-1.436.06-4.962,0-9.607-2.228-13.433-6.443-.414-.456-.833-.977-1.363-1.637-.3-.372-.62-.771-.979-1.208l-2.733-3.323-3.693,2.206-10.293,6.149-7.174,4.285,7.167,4.3A112.156,112.156,0,0,1,404.1,494.236c-3.7,1.14-7.487,2.291-11.217,3.268a27.8,27.8,0,0,1-7,.973c-6.792,0-12.358-3.208-17.014-9.806l-2.074-2.939-3.445,1.032-18.313,5.482-17.569,5.26-2.9.869L324,501.351c-4.91,25.527-18.986,38.47-41.836,38.47-.412,0-.825,0-1.243-.012-22.439-.451-36.213-13.389-40.941-38.455l-.565-2.991-2.916-.872-35.779-10.7-3.031-.868-2.117,2.313c-.053.058-.119.123-.189.2a14.319,14.319,0,0,0-1.584,1.853c-3.7,5.309-8.906,7.988-15.929,8.193-.079,0-.161,0-.245,0-3.791,0-11.56-1.924-17.742-4.162a85.99,85.99,0,0,1,15.426-10.72l7.449-4.044-7.142-4.563-5.565-3.555-3.758-2.4L163.4,467.19l-2.763,2.029c-1.363,1-2.612,1.974-3.819,2.915a53.985,53.985,0,0,1-6.767,4.773,15.74,15.74,0,0,1-7.682,2.052,16.952,16.952,0,0,1-3.931-.48,97.76,97.76,0,0,1-15.554-5.139,68.65,68.65,0,0,1,19.6-10.907l7.129-2.417-4.993-5.634a59.936,59.936,0,0,0-7.052-6.5,64.1,64.1,0,0,1-4.836-4.26l-3.1-3.135-3.5,2.689c-.43.331-.819.634-1.182.917-.654.511-1.219.952-1.757,1.339-4.18,3.012-8.2,4.476-12.279,4.476a18.527,18.527,0,0,1-5.369-.827,75.808,75.808,0,0,1-15.567-7.008c6.958-4.109,13.516-7.408,21.472-8.47l8.721-1.164-5.463-6.9-12.047-15.207L99.783,406.7l-3.842,2.6c-3.994,2.7-7.726,4.016-11.408,4.016a16.328,16.328,0,0,1-1.855-.107l-.221-.026a19.182,19.182,0,0,1-5.168-1.039,64.27,64.27,0,0,1-15.957-10.825c6.517-2.345,12.947-4.123,19.765-4.123,1.086,0,2.185.045,3.266.134l8.985.738-4.131-8.013-8.324-16.144L79.3,370.824l-3.443.408c-1.4.166-2.75.351-4.056.53-2.722.375-5.294.728-7.767.822-.2.007-.4.011-.593.011a14.836,14.836,0,0,1-9.641-3.581,81.383,81.383,0,0,1-12.092-12.528A78.034,78.034,0,0,1,53.8,355.474a59.457,59.457,0,0,1,11.591,1.11l8.116,1.595-2.36-7.928-2.324-7.807-2.408-8.089-.988-3.319-3.455-.242c-1.565-.11-3.041-.161-4.469-.211a39.575,39.575,0,0,1-7.682-.731,17.788,17.788,0,0,1-7.264-3.553c-4.758-4.183-8.513-9.474-11.814-14.972,1.169-.053,2.32-.08,3.461-.08a62.047,62.047,0,0,1,20.534,3.368l7.364,2.536-.76-7.752-.8-8.094L59.163,287.2l-.368-3.75-3.706-.68c-.274-.05-.541-.107-.806-.164a19.041,19.041,0,0,0-2.607-.419c-7.748-.582-13.17-3.9-16.577-10.147a85.519,85.519,0,0,1-6.26-14.535c8.09,1.568,15.712,3.755,22.494,8.711l6.842,5,1.068-8.406L61.379,246l.807-6.35.509-4-3.8-1.343c-.452-.159-.907-.315-1.361-.469-.914-.313-1.778-.608-2.594-.931-6.479-2.57-10.557-6.713-12.465-12.665A75.884,75.884,0,0,1,39.437,204c7.48,3.377,14.4,7.15,19.848,13.524l5.751,6.723,2.793-8.4,2.285-6.868,3.467-10.42,1.232-3.7-3.3-2.094c-.991-.63-1.9-1.17-2.788-1.692a28.82,28.82,0,0,1-3.947-2.6,19.31,19.31,0,0,1-7.006-12c-.876-5.608-.547-11.2.083-17.364,6.818,4.867,12.665,9.9,16.891,17.191l4.424,7.634,4.276-7.718q.824-1.486,1.61-2.925c1.172-2.137,2.279-4.156,3.432-6.146,1.141-1.968,2.321-3.893,3.569-5.931q.829-1.353,1.666-2.729l2.205-3.637L92.7,152.08c-.637-.543-1.249-1.033-1.841-1.508a25.58,25.58,0,0,1-2.768-2.425c-4.139-4.5-5.922-9.194-5.612-14.78a82.257,82.257,0,0,1,2.728-16.16c6.18,6,11.263,12.14,14,19.922l2.826,8.044,5.641-6.393,9.66-10.95,5.883-6.668,2.623-2.973-2.3-3.232c-.182-.256-.352-.508-.518-.752a22.911,22.911,0,0,0-1.494-2.028,18.473,18.473,0,0,1-4.16-16.981,62.79,62.79,0,0,1,6.548-16.268c4.435,7.077,8.17,14.2,9.394,22.7l1.332,9.255,6.957-6.248a61.272,61.272,0,0,1,5.423-4.174c4.329-3.087,9.236-6.586,12.261-12.643,2.25-4.5,6.13-7.427,11.531-8.685a72.877,72.877,0,0,1,16.641-1.755m-63.68-7.873c-5.272,8.123-9.248,15.977-11.273,24.541a23.447,23.447,0,0,0,5.214,21.367c.619.729,1.12,1.557,1.749,2.441-5.306,6.013-10.439,11.832-15.543,17.618-3.989-11.354-12.171-19.27-21.256-27.439-2.746,8.776-4.717,16.73-5.178,25.057-.4,7.239,2.15,13.254,6.925,18.443a57.1,57.1,0,0,0,5.044,4.352c-1.8,2.972-3.594,5.829-5.285,8.745-1.711,2.952-3.321,5.963-5.089,9.155C72.956,163.22,63.826,157.012,53.8,150.24c-1.027,9.634-2.332,18.225-.962,27a24.3,24.3,0,0,0,8.7,15.034c2.016,1.723,4.482,2.922,7.3,4.715q-2.762,8.3-5.752,17.288c-7.893-9.227-18.185-13.393-28.65-17.908a12.4,12.4,0,0,0-.427,2.451c.527,7.763,1.312,15.5,3.7,22.95,2.494,7.777,7.906,12.821,15.384,15.787,1.357.538,2.753.98,4.134,1.467-1,7.835-1.95,15.347-2.943,23.159-9.728-7.108-20.744-9.029-32.4-10.972a92.394,92.394,0,0,0,8.832,23.228c4.426,8.114,11.515,12.056,20.591,12.738a28.37,28.37,0,0,1,2.886.515c.732,7.459,1.438,14.655,2.179,22.2a67,67,0,0,0-22.162-3.64,89.173,89.173,0,0,0-11.645.805c4.857,8.863,9.66,16.817,16.7,23a22.671,22.671,0,0,0,9.393,4.658c3.97.957,8.224.736,12.973,1.069,1.442,4.844,3.042,10.221,4.732,15.9a64.681,64.681,0,0,0-12.555-1.2,96.862,96.862,0,0,0-20.824,2.581,95.2,95.2,0,0,0,17.643,19.813A19.833,19.833,0,0,0,63.445,377.6q.389,0,.782-.015c3.962-.15,7.9-.872,12.222-1.383l8.323,16.144q-1.866-.153-3.675-.15c-10.338,0-19.446,3.553-29.092,7.323,7.4,7.075,14.512,13.231,23.22,17.179a23.319,23.319,0,0,0,6.878,1.478,21.136,21.136,0,0,0,2.43.141c5.138,0,9.817-1.9,14.21-4.876l12.047,15.208c-11.693,1.561-20.633,7.472-30.452,13.411,8,5.083,15.465,9.3,23.758,11.808a23.376,23.376,0,0,0,6.819,1.042c5.415,0,10.464-2,15.2-5.419.929-.67,1.819-1.392,3.063-2.349,3.72,3.758,8.1,6.5,11.7,10.561-10.726,3.637-18.988,9.82-27.443,16.769a108.569,108.569,0,0,0,23.838,8.875,21.85,21.85,0,0,0,5.094.617,20.652,20.652,0,0,0,10.1-2.677c3.75-2.075,7.018-5.017,11.125-8.033l9.323,5.956a97.4,97.4,0,0,0-22.037,16.6c6.147,3.514,20.346,7.675,26.738,7.675.134,0,.265,0,.391-.006,8.22-.239,15.062-3.4,19.887-10.333a14.8,14.8,0,0,1,1.385-1.561l35.778,10.7c4.789,25.389,19.2,41.993,45.754,42.527.452.009.9.013,1.344.013,26.982,0,41.764-16.629,46.746-42.525l35.882-10.742c5.65,8.007,12.689,11.923,21.1,11.923a32.672,32.672,0,0,0,8.262-1.136c4.572-1.2,9.091-2.607,13.608-4,1.728-.533,3.386-1.294,5.713-2.2a109.877,109.877,0,0,0-22.431-17.284l10.293-6.149c1.023,1.244,1.723,2.173,2.5,3.031,4.656,5.13,10.551,8.082,17.135,8.082q.915,0,1.847-.077c9.656-.8,18.559-4.671,27.748-9.324-8.514-7.064-16.945-13.262-27.73-16.933l12.284-10.382,2.1,1.688c4.887,3.922,10.183,6.155,15.8,6.155a22.963,22.963,0,0,0,8.405-1.65c6.579-2.57,12.775-6.132,19.1-9.327a19.389,19.389,0,0,0,2.941-2.454c-5.282-2.87-9.971-5.536-14.767-7.991-4.744-2.428-9.638-4.521-15.516-4.779l12.285-15.258a27.072,27.072,0,0,0,14.862,4.813,26.223,26.223,0,0,0,16.08-5.957q5.814-4.5,11.538-9.119c1.261-1.016,2.392-2.194,3.681-3.388C504.014,395.326,490.689,392,480.6,392c-.424,0-.843.006-1.254.018l8.587-16.509c1.057.261,1.553.332,2.011.5a26.46,26.46,0,0,0,9.343,1.813,22.55,22.55,0,0,0,14.119-5.076c6.831-5.329,12.312-12,17.61-19.733a96.99,96.99,0,0,0-20.986-2.679,59.305,59.305,0,0,0-12.487,1.29l5.217-16.668a36.425,36.425,0,0,0,6.17.555c8.955,0,15.978-3.849,21.392-11.5,3.22-4.554,6.314-9.2,9.385-13.856a18.675,18.675,0,0,0,1.321-3.459c-3.717-.271-7.368-.468-10.979-.468a60.632,60.632,0,0,0-22.432,3.758c.774-7.757,1.5-15.082,2.215-22.186.7-.319,1-.563,1.3-.572,11.75-.353,19.74-6.094,24.169-16.892,2.3-5.608,4.514-11.251,6.767-16.879v-2.032c-11.431,1.239-22.441,3.8-32.531,10.742-.427-4.332-.739-8.192-1.2-12.034-.459-3.782-1.075-7.545-1.606-11.2,13.234-4.173,18.892-10.624,21.247-23.751a32.225,32.225,0,0,0,.665-3.478c.325-4.944,1.909-9.838,1.007-15.442-10.684,4.73-21.075,8.758-28.636,17.892l-5.755-17.573c9.019-4.152,14.46-10.425,15.937-19.691,1.345-8.442.228-16.833-1.028-25.192-.033-.224-.493-.384-1.085-.815-9.137,6.256-18.345,12.561-24.223,22.766-3.587-6.278-6.933-12.135-10.266-17.971.375-.362.6-.618.863-.823.4-.311.849-.56,1.241-.88,6.55-5.339,10.152-12.016,9.8-20.691-.312-7.675-2.146-15.027-4.22-22.345a13.838,13.838,0,0,0-1.6-2.713c-8.322,8.375-16.968,15.859-20.563,27.273l-15.722-17.909c8.765-9.616,9.7-19.889,4.607-30.938-2.19-4.753-4.5-9.452-6.842-14.135a18.614,18.614,0,0,0-2.226-2.8c-6.2,9.917-12.593,19.107-14.18,31.073-3.4-2.556-6.574-5.042-9.859-7.365a19.881,19.881,0,0,1-6.207-7.126,23.594,23.594,0,0,0-18.928-12.85,38.459,38.459,0,0,0-4.01-.561q-4.114-.043-8.239-.037c-3.133,0-6.279.01-9.449.01a3.826,3.826,0,0,0,.184,1.463c3.916,6.314,7.685,12.731,11.882,18.855a19.482,19.482,0,0,0,13.428,8.405c6.312.939,10.2,5.383,15.271,8.913a100.79,100.79,0,0,0-26.03,11.713c6.048,4.988,16.779,10.986,22.973,12.956a23.715,23.715,0,0,0,7.253,1.21,20.588,20.588,0,0,0,3.2-.252,27.44,27.44,0,0,0,14.309-6.7l10.641,11.842c-12.116.556-23.306,2.948-27.859,5.917,6.025,6.721,12.414,12.954,20.134,17.626a20.544,20.544,0,0,0,10.708,3.1,20.023,20.023,0,0,0,3.9-.389c3.411-.678,6.725-1.844,10.414-2.885l7.372,12.5a75.067,75.067,0,0,0-11.618-.9,91.192,91.192,0,0,0-18,1.93c3.243,4.433,5.8,8.213,8.658,11.742a106.416,106.416,0,0,0,7.61,8.162,19.216,19.216,0,0,0,12.15,5.742c1.293.1,2.591.142,3.907.142,3.02,0,6.133-.2,9.485-.246.919,2.775,2,6.045,3.335,10.066-9.224-2.419-17.75-4.364-26.985-4.364-.674,0-1.354.01-2.036.032,3.824,9.016,7.516,17.521,13.683,24.6a22.1,22.1,0,0,0,15.065,7.518c2.3.212,4.615.224,7.347.346.63,5,1.245,9.882,1.913,15.19-15.408-7.508-21.227-9.686-26.085-9.686-.155,0-.31,0-.463.006a103.013,103.013,0,0,0,5.889,22.973c3.165,7.993,9.172,12.763,17.319,15.045,1.269.355,2.536.718,4.232,1.2-.417,4.992-.821,9.828-1.271,15.218a93.615,93.615,0,0,0-24.226-17.27c.1,9.053-.638,17.273.8,25.519a24.062,24.062,0,0,0,6.013,12.08,24.318,24.318,0,0,0,12.541,7.34l-3.912,13.424c-6.263-8.65-13.775-14.782-22.049-20.867a28.766,28.766,0,0,0-1.331,4.8c-.539,6.392-1.172,12.791-1.31,19.2-.193,9.046,4.15,15.8,11.512,20.771.929.628,1.834,1.288,2.983,2.1-2.092,3.836-4.038,7.405-6.18,11.335-4.647-9.606-10.757-17.094-17.881-24.46a26.673,26.673,0,0,0-1.526,3.266c-1.888,6.479-3.829,12.946-5.531,19.475a19.959,19.959,0,0,0,2.036,15.23c2.051,3.6,4.764,6.818,7.448,10.578L442.106,414.7a90.493,90.493,0,0,0-13.679-28.551c-3.912,7.9-7.572,14.742-10.678,21.829a25.108,25.108,0,0,0-1.762,9.346c-.143,6.486,2.376,12.14,7,17.1L412.6,443.252a88,88,0,0,0-9.942-29.933c-6.265,7.154-11.339,14.289-14.841,22.413a24.5,24.5,0,0,0-1.49,7.378,23.343,23.343,0,0,0,4.148,15.571l-13.6,7.546c1.893-12.552-2.547-23.23-6.546-34.312-6.126,4.938-14.982,16.374-17.393,22.319-1.892,4.663-2.6,9.456-1.158,14.393.7,2.394,1.486,4.763,2.22,7.1-6.443,3.392-21.761,7.692-27,7.692-.188,0-.364-.006-.525-.017-7.872-19.232-21.6-31.21-42.812-31.865-.627-.019-1.246-.028-1.861-.028-21.816,0-36.045,12.142-44.49,32.494a143.245,143.245,0,0,1-27.506-8.051c.378-1.059.557-1.695.825-2.291,3.972-8.83,2.914-17.213-2.609-24.965-3.429-4.811-7.269-9.331-10.982-13.936a39.526,39.526,0,0,0-3.283-3.149c-4.065,11.529-8.414,22.269-6.666,34.635l-13.378-7.555c5.859-11.154,5.731-18.726-.6-29.091-2.729-4.466-5.881-8.673-8.84-13-.74-1.082-1.473-2.169-2.666-3.925a96.559,96.559,0,0,0-10.22,30.373c-3.67-2.994-7.272-5.405-9.871-8.928,1.1-1.489,1.982-2.521,2.686-3.665,3.923-6.372,5.219-13.206,2.891-20.4-2.668-8.244-6.883-15.733-12.077-23.424-5.691,8.892-10.264,17.77-13.123,28.161l-8.5-10.993a16.871,16.871,0,0,1,1.257-1.485c8.063-7.241,10.8-16.107,8.011-26.589-1.215-4.567-2.578-9.1-3.978-13.61-.626-2.015-1.51-3.95-2.5-6.484-7.269,7.69-13.388,15.228-18.038,24.783l-5.8-11.343c.217-.467.248-.669.366-.765a10.6,10.6,0,0,1,1.222-.877c8.39-5,12.809-12.27,12.687-22.135a73.909,73.909,0,0,0-.318-10.141c-.637-4.192-.338-8.655-2.671-12.85a100.8,100.8,0,0,0-21.871,20.489c-1.365-4.873-2.532-9.043-3.679-13.137a5.477,5.477,0,0,1,1.073-.686c9.545-2.719,15.462-9.044,17.11-18.687,1.017-5.945.805-12.106,1.048-18.174.091-2.276-.094-4.563-.17-7.469-9.365,4.59-16.822,10.383-24.107,17.026-.431-5.411-.816-10.244-1.2-15.115,1.644-.444,2.765-.755,3.891-1.05,9.027-2.363,15.227-7.907,18.265-16.718,1.538-4.46,2.69-9.061,3.831-13.644.663-2.668.958-5.428,1.506-8.659A107.032,107.032,0,0,0,72.75,257.285c.575-5.668.8-10.792,2.389-15.628q1.6.13,3.129.13c9.933,0,17.443-4.153,22.523-12.783,3.167-5.38,5.843-11.052,8.683-16.621a17.363,17.363,0,0,0,.86-3.028c-.365-.006-.728-.009-1.091-.009-9.385,0-18.187,1.91-27.689,4.464l3.776-10.956a31.142,31.142,0,0,0,9.049,1.436c8.471,0,15.42-4.148,21.258-11.463q4.588-5.748,9-11.636a23.562,23.562,0,0,0,1.711-3.38,133.011,133.011,0,0,0-17.933-1.55,62.99,62.99,0,0,0-11.366.987l7.773-13.021c.879.388,1.484.634,2.071.919a26.515,26.515,0,0,0,11.592,2.913,21.493,21.493,0,0,0,13.278-4.7c6.153-4.7,11.629-10.29,17.367-15.526.277-.253.189-.907.306-1.572-8.891-2.651-17.752-4.876-27.694-4.94l10.783-11.837c.971.777,1.586,1.325,2.255,1.8,4.644,3.284,9.584,5.306,14.782,5.306a20.957,20.957,0,0,0,7.691-1.5,147.625,147.625,0,0,0,16.307-8.109c2.254-1.222,4.719-2.377,6.613-4.8-1.656-.989-2.883-1.879-4.233-2.5-6.983-3.22-14-6.372-20.86-9.482,5.017-4.875,8.336-6.767,14.575-8.408,4.668-1.228,9.019-3.205,11.978-7.159,3.436-4.591,6.642-9.361,9.774-14.167,1.513-2.321,2.628-4.9,4.187-7.864-2.669-.145-5.264-.229-7.805-.229a78.909,78.909,0,0,0-18.115,1.886c-6.679,1.556-11.89,5.355-14.87,11.321-3.647,7.3-10.767,10.136-16.552,15.331-1.767-12.277-8.02-21.537-14.483-31.41Z"/>
      </g>
      <g>
        <path class="cls-1" d="M378.031,358.177h-22.91a97.522,97.522,0,0,1,.019-11.942l3.939-.545c-2.08-.909-6.078-1.045-9.63-.084l3.724.664v11.87h-6.555c-1.964-4.338-3.961-8.751-5.95-13.146-2.17.133-2.341,1.819-2.9,3-1.174,2.473-2.237,5-3.227,7.557a4.042,4.042,0,0,1-4.345,2.915c-39.947-.068-79.894-.02-119.841-.119a15.858,15.858,0,0,1-6.394-1.7c-12.561-5.87-25.045-11.9-37.575-17.843q-15.754-7.467-31.553-14.838a51.516,51.516,0,0,1-7.7-4.092,19.2,19.2,0,0,1,2.167-.24c9.195-.017,18.39.026,27.584-.044a7.219,7.219,0,0,1,4.728,1.787c5.511,4.344,11.025,8.686,16.619,12.922a6.693,6.693,0,0,0,3.312,1.141c2.027.183,4.082.058,6.125.058H445.282c.814,2.5.978,18.89.273,22.675H432.39c-2.743-6.224-5.593-12.693-8.395-19.05-2.258-.935-2.823.62-3.448,2.037q-3.561,8.082-7.105,16.173c-.119.27-.264.528-.465.928H402.225c1.919-6.649,5.181-12.5,7.281-18.844-1.615-1.292-2.243-.068-2.7,1.027-1.217,2.9-2.308,5.854-3.478,8.775-.56,1.4-1.187,2.764-2.1,4.869-.711-1.334-1.167-2.031-1.472-2.788-1.442-3.577-2.921-7.142-4.222-10.77-.533-1.485-1.254-1.924-3.044-1.34l7.79,19a172.344,172.344,0,0,1-17.959.066l-.16-.632a17.343,17.343,0,0,1,1.61-.913,6.069,6.069,0,0,0,3.649-5.569c.207-3.462.058-6.944.051-10.418,0-1.105-.1-2.146-1.991-1.612-.071.765-.213,1.633-.223,2.5-.032,2.962.061,5.928-.042,8.887-.106,3.007-2.1,4.81-5.143,4.86-3.223.053-5.339-1.748-5.448-4.866-.114-3.266-.038-6.538-.047-9.807,0-1.144-.158-2.129-2.1-1.5,0,4.23-.218,8.6.1,12.922a5.265,5.265,0,0,0,3.285,4.5A14.026,14.026,0,0,1,378.031,358.177Z"/>
        <path class="cls-1" d="M379.686,302.737v10.024H360.141V200.269h19.471v42.554a13.627,13.627,0,0,0,1.752-1.431c5.172-6.4,11.635-10.932,19.893-11.775,11.832-1.209,22.574,1.531,31.4,10.169a41.2,41.2,0,0,1,11.968,23.78,53.414,53.414,0,0,1-2.176,25.829,38.4,38.4,0,0,1-8.97,14.723,34.283,34.283,0,0,1-17.834,9.91c-8.252,1.62-16.432,1.7-24.074-2.387a49.671,49.671,0,0,1-7.376-5.336,46.681,46.681,0,0,1-3.844-3.86Zm46.266-30.674c-.776-3.443-1.185-7.021-2.4-10.3-3.36-9.088-10.438-14.8-20.4-15.389a20.247,20.247,0,0,0-15.994,6.283c-6.872,7.132-9.318,15.7-7.4,25.512,2.446,12.517,14.13,22.2,27.447,19.292a21.449,21.449,0,0,0,11.718-6.733C423.484,285.507,425.419,279.1,425.952,272.063Z"/>
        <path class="cls-1" d="M347.867,312.865H328.8v-8.277c-2.113,1.616-3.745,2.88-5.393,4.122-5.913,4.459-12.6,6.231-19.97,6.255-6.112.02-11.959-.769-17.395-3.658a22.868,22.868,0,0,1-12.675-18.182,28.679,28.679,0,0,1,1.625-14.577c2.468-6.307,7.14-10.555,13.233-13.2,7.443-3.23,15.382-3.863,23.328-3.308,5.521.385,10.98,1.658,16.727,2.576a6.14,6.14,0,0,0,.321-1.679c-.323-5.785-2.692-10.332-8.015-13.076a24.118,24.118,0,0,0-10.268-2.455c-8.121-.355-15.715,1.62-23.148,4.575a15.18,15.18,0,0,1-1.875.433L280.033,236.8c6.249-2.97,12.437-5.35,19.013-6.022a118.515,118.515,0,0,1,19.2-.6c8.167.5,15.819,3.037,21.525,9.392a27.64,27.64,0,0,1,7.415,16.689c.449,6.39.6,12.81.653,19.219.1,11.131.027,22.264.026,33.4ZM311.6,276.324c-4.2-.308-8.243-.122-11.984,1.82-3.77,1.958-7.552,4.686-6.95,11.642.341,3.932,3.059,7.328,7.611,8.935a23.841,23.841,0,0,0,16.426-.058c8.957-3.258,12.14-8.393,12.5-16.769.115-2.695-.113-2.96-2.687-3.587C321.586,277.106,316.661,275.8,311.6,276.324Z"/>
        <path class="cls-1" d="M267.276,312.926H191.954c-.721-2.047-.9-108.737-.179-112.574h19.241c.02,6.335.048,12.619.057,18.9q.015,9.5,0,19t0,19c.01,6.332.045,12.664.055,19,.01,6.313,0,12.627,0,19.342h56.141Z"/>
        <path class="cls-1" d="M127.524,231.552h18.309v81.136H127.617C126.8,310.51,126.635,235.11,127.524,231.552Z"/>
        <path class="cls-1" d="M158.279,291.591h20.314c.808,2.314.966,17.619.233,21.232H158.357C158.174,305.793,158.288,298.853,158.279,291.591Z"/>
        <path class="cls-1" d="M127.049,219.97V200.134c6.276-.221,12.428-.06,18.814-.088v19.689C143.63,220.584,131.275,220.762,127.049,219.97Z"/>
        <path class="cls-1" d="M429.634,358.208H415.689c.717-1.908,1.339-3.561,2.076-5.519,2.846,0,5.677-.1,8.492.072a3.147,3.147,0,0,1,1.982,1.541A23.636,23.636,0,0,1,429.634,358.208Z"/>
        <path class="cls-1" d="M336.377,354h6.889l1.769,4.138h-10.27Z"/>
        <path class="cls-1" d="M418.936,350.191l3.512-8.462a25.819,25.819,0,0,1,3.84,8.462Z"/>
        <path class="cls-1" d="M340.361,346.831l2.433,5.82h-5.685l2.369-5.818Z"/>
      </g>
    </g>
  </g>
</svg>
