<svg xmlns="http://www.w3.org/2000/svg" width="556" height="556" viewBox="0 0 556 556">
  <defs>
    <style>
      .cls-1, .cls-3 {
        fill: #fff;
      }

      .cls-2, .cls-3 {
        stroke: #000;
      }

      .cls-2 {
        stroke-linecap: round;
        stroke-linejoin: round;
        stroke-width: 3.87px;
      }

      .cls-3 {
        stroke-miterlimit: 10;
        stroke-width: 0.28px;
      }
    </style>
  </defs>
  <title>StaffPick</title>
  <g id="Layer_2" data-name="Layer 2">
    <g id="StaffPick">
      <g>
        <circle cx="278" cy="278" r="278"/>
        <path class="cls-1" d="M158.46,241.248v23.019h14.456V221.288H152.789a11.12,11.12,0,0,1-11.395-10.839c0-.093,0-.187,0-.281V159.683a11.12,11.12,0,0,1,10.835-11.4c.187,0,.375,0,.563,0h25.854a11.12,11.12,0,0,1,11.394,10.839c0,.094,0,.187,0,.281v27.8H172.916v-22.24H158.46v38.92h20.127a11.454,11.454,0,0,1,11.4,11.4v54.544a11.4,11.4,0,0,1-11.4,11.12h-25.8a11.509,11.509,0,0,1-11.4-11.12V240.915Zm56.267-75.838H199.548V148.285h47.538V165.41H231.852V281.336H214.727Zm73.392,89.905H269.1l-2.669,26.021H249.366l14.067-133.051h30.413l13.678,133.051h-16.68ZM270.994,238.19h15.235l-7.617-72.78Zm47.149,43.146V148.285H360.9V165.41H335.268v36.7h18.07v17.125h-18.07v62.105Zm54.377,0V148.285h42.756V165.41H389.2v36.7h18.07v17.125H389.2v62.105ZM177.586,298.461h37.252a11.453,11.453,0,0,1,11.4,11.4V359.9a11.4,11.4,0,0,1-11.4,11.12H194.6v60.548H177.586Zm31.581,17.125H194.6v38.419h14.456Zm28.467-17.125h17.125V431.567H237.634Zm63.885,39.921v-22.8H287.063v98.856h14.456V391.424h17.125v28.912a11.4,11.4,0,0,1-11.4,11.12H281.392a11.509,11.509,0,0,1-11.4-11.12V309.859a11.675,11.675,0,0,1,11.4-11.4h25.854a11.454,11.454,0,0,1,11.4,11.4v28.523Zm46.759-39.921V348.5l13.289-50.04h18.07L361.4,360.232l20.127,71.28H364.069l-15.791-58.158v58.213H331.209V298.461Z"/>
        <path class="cls-2" d="M509.852,239.08l.5,3.169c0,1.891.723,4.393,1.057,6.95l.945,10.175s-3.836-3.836-7.617-7.339l-2.78-2.558-2.558-2.168-2.5-2.057-.445-2.947c-.333-1.779-.556-4.17-1.056-6.5l-2.057-9.4s4.17,2.947,8.395,6.172l3.114,2.391,2.558,2.168Zm13.233-20.072,2.335,10.676c.556,2.668.89,5.56,1.223,7.394l.5,3.392-1.724,3-1.779,3c-.667,1.112-1.446,2.279-2.224,3.447-3.058,4.615-6.116,9.007-6.116,9.007l-.945-10.286c-.334-2.557-.779-5.115-1.057-7l-.5-3.17,1.723-2.946,1.724-3.058,1.835-3.5C520.694,224.068,523.085,219.008,523.085,219.008Zm-18.459-4,.889,3.058c.612,1.835,1.057,4.337,1.613,6.839l1.5,6.839.5,2.279v.89s-1-.834-2.613-2.113l-5.56-4.392-5.56-4.226c-1.557-1.112-2.669-1.835-2.669-1.835l-2.613-9.229c-.334-1.168-.612-2.335-1-3.392l-1-2.891-1-2.836,2.168,1.724c1.668.945,4.059,2.224,6.227,3.614A89.651,89.651,0,0,1,504.626,215.005Zm11.064-21.183,1.112,3.224,1.168,3.281c.444,1.223.722,2.557,1.167,3.836l3,10.509s-.5,1.278-1.446,3.169-2.113,4.392-3.336,6.839-2.5,4.837-3.392,6.616-1.612,2.947-1.612,2.947v-.89l-.834-2.224-1.5-6.95c-.556-2.5-1.057-5.059-1.613-6.894l-.889-3.114s2.224-4.893,4.337-10.008c1.056-2.557,1.89-5.115,2.613-7.061Zm-18.682-2.058.334.834.778,2.169,2.28,6.561c.834,2.39,1.724,4.781,2.224,6.672l.89,3.058-2.78-1.835-2.836-1.835-3.392-2c-4.614-2.668-9.118-5.059-9.118-5.059l-1-2.836-2.557-6.116-2.558-6.116-1.112-2.613,3,1.279c1.835.778,4.115,1.89,6.45,3.058,4.559,2.057,9.4,4.781,9.4,4.781Zm8.952-22.24,1.5,3.058,2.947,6.95,2.891,6.95,1.168,3.225s-1.779,5.56-3.67,10.453l-1.39,3.725-1.39,3.225-1.334,3.114-.89-3.114c-.445-1.89-1.39-4.281-2.224-6.728l-2.335-6.727-.778-2.224-.334-.834s1.612-5.06,3.169-10.342c.723-2.613,1.557-5.56,2-7.339Zm-19.071-.111,4.5,9.174c1.112,2.28,2,4.671,2.78,6.45l1.223,2.947s-4.782-2.447-9.452-4.671c-2.335-1.112-4.837-2.113-6.672-2.835l-3-1.224-1.335-2.668-1.334-2.78c-.556-1-1.168-2-1.724-3.058L467.04,162.3s4.837,1.557,9.841,3.336l6.9,2.5Zm6.5-23.018,5.56,9.507c.668,1.168,1.335,2.391,1.946,3.5l1.557,3.114,1.5,3.058-.722,3.391c-.445,2.058-1,4.671-1.724,7.34-1.5,5.56-3.114,10.452-3.114,10.452l-1.223-3c-.778-1.779-1.668-4.226-2.835-6.505l-4.56-9.285.779-3.336c.389-1.946.834-4.615,1.334-7.34Zm-18.848,1.89,1.724,2.669c1,1.612,2.5,3.725,3.725,5.949l5.059,8.9s-5.059-1.946-10.008-3.614-9.952-3.113-9.952-3.113l-5.226-8.062-5.56-7.729s5,1,10.23,2.224c2.613.556,5.115,1.335,7.006,1.891Zm4.059-23.574,6.5,8.729,5.949,9.174s-.5,5.56-1.445,11.12-1.891,10.675-1.891,10.675l-5.115-9.007c-1.223-2.28-2.724-4.392-3.725-6.06l-1.779-2.725.389-3.391c0-2,.556-4.782.667-7.506C478.494,130.326,478.605,124.711,478.605,124.711Zm-18.459,3.781,2.057,2.446c1.223,1.446,2.669,3.558,4.225,5.56l4.17,5.56c.556.778,1,1.446,1.335,1.89l.5.723-3.169-.889-7.117-1.668-7-1.5-2.28-.444h-.89l-6.116-7.4-2.279-2.725-2.113-2.224L439.24,125.6l3.225.278a46.76,46.76,0,0,1,7.172.834C454.808,127.546,460.146,128.492,460.146,128.492Zm1.334-23.8,2.335,2.5,2.391,2.557,2.558,3.058,6.95,8.4v3.5a75.55,75.55,0,0,1-.278,7.617c-.278,2.724-.278,5.56-.445,7.45s-.334,3.392-.334,3.392l-.5-.723a15.53,15.53,0,0,0-1.335-1.946l-4.225-5.56c-1.557-2.057-3-4.225-4.281-5.56l-2.058-2.5v-11.12c0-2.78-.278-5.56-.444-7.561Zm-17.681,5.56.612.611,1.557,1.668,4.781,5.116c1.724,1.89,3.5,3.725,4.671,5.226l2.057,2.446-3.281-.556-3.336-.556-3.892-.444c-5.56-.612-10.4-1-10.4-1l-2.057-2.224-4.782-4.559-4.726-4.782-2.446-1.668h10.4C438.35,109.866,443.8,110.255,443.8,110.255ZM442.965,86.4l2.613,2.224,5.56,5.171,5.56,5.171,2.336,2.5s.5,5.56.834,11.12v10.842l-2.058-2.5c-1.167-1.557-3-3.392-4.726-5.56l-4.837-5.171-1.612-1.723-.667-.612s-.556-5.56-1.279-10.731c-.389-2.724-.723-5.56-1.112-7.561Zm-17.347,7.451,7.784,6.616c1.946,1.668,3.725,3.5,5.115,4.782l2.335,2.224s-5.56-.334-10.564-.5H419.78l-2.28-1.946-2.335-2-2.835-2.113-7.673-5.56s5.059-.5,10.341-.89l7.562-.556ZM422.56,70.112l8.729,6.56,3.225,2.391,2.669,2.28,2.613,2.224.667,3.391c.389,2.058.945,4.671,1.335,7.395.778,5.56,1.334,10.842,1.334,10.842l-2.335-2.224c-1.446-1.334-3.225-3.169-5.171-4.837l-7.895-6.672-.612-3.336c-.445-1.946-1.056-4.559-1.723-7.228C423.894,75.56,422.56,70.112,422.56,70.112Zm83.4,266.046a8.2,8.2,0,0,1-.834,3.058l-1.89,6.727c-.668,2.447-1.5,4.893-2.113,6.672l-1,3L498.9,352.5c-.779-1.835-1.724-4.281-2.78-6.672-2.224-4.837-4.5-9.452-4.5-9.452s.334-1.168.779-2.891l1.5-6.45c.556-2.335,1.112-4.67,1.39-6.449l.5-2.947,1.724,2.78c1,1.668,2.391,3.947,3.614,6.227C503.569,331.32,505.96,336.158,505.96,336.158Zm20.016-13.011-.612,3.392c-.333,2-.945,4.67-1.556,7.339l-1.668,7.339c-.5,2-.89,3.281-.89,3.281s-4.559,3.336-9.007,6.394c-2.28,1.556-4.615,3-6.339,4.058l-2.891,1.78,1.057-3.058c.611-1.835,1.5-4.282,2.168-6.784l1.946-6.838c.556-1.835.834-3.114.834-3.114s4.281-3.169,8.618-6.616a54.919,54.919,0,0,0,5.56-4.838Zm-15.29-11.009v.89a6.385,6.385,0,0,1-.334,2.28l-1.223,6.894-.667,3.67-.723,3.169-.723,3.113-1.556-2.946c-.946-1.78-2.113-4.059-3.5-6.339-2.669-4.559-5.56-8.9-5.56-8.9v-.834a5.859,5.859,0,0,1,.333-2.168l.834-6.561.445-3.5v-6.06l1.946,2.557c1.168,1.557,2.836,3.67,4.226,5.56C507.8,307.579,510.686,312.138,510.686,312.138Zm18.57-15.012v6.9l-1.056,4-.945,7.45a4.637,4.637,0,0,1-.389,2.447v.945s-4.17,3.781-8.34,7.284c-2,1.779-4.282,3.447-5.838,4.67l-2.669,2.057.723-3.169.722-3.225.668-3.725,1.223-7.006a16.732,16.732,0,0,1,.333-2.335v-.889s3.948-3.614,7.9-7.451c2.057-1.946,3.836-3.892,5.282-5.56Zm-16.346-9.4v3.225l-.556,7a48.389,48.389,0,0,1-.667,7.006l-.389,3.169-1.835-2.78c-1.112-1.668-2.558-3.836-4.17-5.949-3.169-4.281-6.283-8.284-6.283-8.284V271.884l2.224,2.391c1.279,1.445,3.225,3.391,4.837,5.56C509.574,283.56,512.91,287.73,512.91,287.73Zm16.958-16.791v21.795s-3.781,4.17-7.562,8.118a59.829,59.829,0,0,1-5.56,5.282l-2.446,2.335.389-3.225c.278-1.946.5-4.5.667-7.061l.556-7.061V287.9s3.559-4,7.117-8.229c1.835-2.113,3.392-4.281,4.671-5.949Zm-17.18-7.729.333,10.231V283.56L510.908,281c-1.223-1.556-2.891-3.558-4.726-5.56-3.558-3.947-7.172-7.617-7.172-7.617v-3c0-1.779-.389-4.17-.556-6.561l-.612-6.561a26.525,26.525,0,0,0-.333-3l.667.556,1.779,1.557,5.227,4.892,5.226,5.116,1.724,1.723Zm15.178-18.57a33.855,33.855,0,0,1,.39,3.392l.722,7.728c0,2.724.556,5.56.612,7.506v3.392s-3.336,4.559-6.616,8.84a53.869,53.869,0,0,1-4.726,5.56l-2.224,2.558V273.274l-.334-10.342.556-.722,1.39-2,4.226-6.172,4.17-6.394,1.334-2.168ZM389.2,486.667l-.778.445-2.058,1.056-6.227,3.225c-2.279,1.223-4.615,2.168-6.338,2.947l-2.891,1.334s2.335-4.837,4.448-9.619,3.836-9.73,3.836-9.73l2.669-1.39,5.56-3.28c2.057-1.223,4.17-2.335,5.56-3.392l2.5-1.612-.89,3.113-.945,3.225-1.223,3.614C391.09,481.607,389.2,486.667,389.2,486.667Zm23.13,5.893-2.892,1.835c-1.723,1.168-4.114,2.447-6.449,3.837l-6.5,3.725-3.058,1.557s-5.56-1.057-10.787-2.28-10.508-2.836-10.508-2.836l2.947-1.334c1.723-.834,4.17-1.779,6.449-3l6.339-3.225,2.057-1.057.778-.444s5.227,1,10.675,1.834l4,.612,3.5.389Zm-2.28-18.737-.723.5-1.89,1.278-5.894,3.781-3.169,2L395.538,483l-2.78,1.613,1.112-3.114c.668-1.89,1.557-4.337,2.336-6.894,1.556-5.116,2.835-10.064,2.835-10.064l.723-.445,1.779-1.223,5.56-3.836,2.891-2.058,2.447-1.89,2.335-1.835-.556,3.169c-.389,1.891-.778,4.56-1.39,7.062C411.44,468.6,410.05,473.823,410.05,473.823Zm23.63,3.5-2.669,2.113-2.78,2.168-3.28,2.335-6.116,4.337-2.057,1.39-.779.5s-5.56-.5-11.12-1.168c-2.669-.334-5.56-.834-7.45-1.112l-3.336-.556,2.78-1.612,2.891-1.668,3.225-2,6.116-3.892,1.946-1.334.723-.5s5.56.445,11.12.779h7.561Zm-4.226-18.4-2.39,2.113-5.56,4.337c-2,1.557-4,3.169-5.56,4.226l-2.614,1.834.834-3.224.779-3.281.778-3.836c1-5.227,1.835-10.231,1.835-10.231l.612-.5,1.668-1.446,5-4.336c1.834-1.557,3.5-3.281,4.837-4.5l2.168-2.057s-.389,5.115-.889,10.4S429.454,458.922,429.454,458.922Zm23.908,1.057-2.446,2.335c-1.5,1.39-3.392,3.336-5.56,5.115l-5.56,4.893-1.89,1.612-.723.612H415.165l2.613-1.89c1.613-1.057,3.614-2.725,5.56-4.282l5.56-4.392,2.558-2.5s5.56,0,11.12-.334S453.362,459.979,453.362,459.979Zm-6.06-17.9-2.224,2.335c-1.279,1.445-3.169,3.169-5,4.893l-5.115,4.837-2.391,2.113s.834-5.227,1.279-10.509c0-2.613.445-5.226.611-7.117a16.783,16.783,0,0,0,0-3.224l6.839-7.284,6.283-7.284v17.681Zm23.852-1.335-7.172,8.285-7.506,7.895a21.1,21.1,0,0,0-3.447.389l-7.562.667c-5.56.5-11.12.556-11.12.556l2.447-2.113,5.17-4.892c1.891-1.78,3.781-3.559,5.06-5l2.224-2.336,3.336-.389a46.823,46.823,0,0,0,7.45-1.056C465.65,441.853,471.154,440.741,471.154,440.741Zm-7.895-17.18-1.946,2.5c-1.167,1.5-2.724,3.5-4.448,5.56l-4.615,5.56-1.556,1.723-.334.334V418.112l1.835-2.391c1.056-1.445,2.669-3.28,4-5.226l3.836-5.56,1.279-1.779.445-.668v3.225c0,1.946.5,4.5.778,7.117s.5,5.56.556,7.284Zm23.63-3.781-.5.778-1.446,2-4.337,6.116c-1.556,2.28-3.336,4.337-4.559,5.949l-2.113,2.669-3.336.778-7.506,1.446L455.92,440.8l-3.392.445.612-.668,1.557-1.723,4.67-5.56c1.724-1.946,3.336-3.948,4.5-5.56l2-2.558,3.336-.723c2-.444,4.615-1.112,7.228-1.834l7.284-1.835,2.446-.723Zm-9.619-16.291-1.723,2.669c-1.057,1.612-2.335,3.781-3.837,5.894l-4.058,5.56-1.335,1.89-.5.723v-3.336s-.389-4.671-.667-7.228-.556-5.171-.89-7.117l-.5-3.225,1.612-2.5,1.668-2.613c.612-.945,1.168-2,1.779-3.058l3.281-5.56c.444-.778.778-1.446,1.056-1.89l.389-.723s.334,1.279.779,3.169.945,4.392,1.445,7.006,1,5.226,1.335,7.172Zm23.13-6.227-.445.834c0,.556-.667,1.279-1.167,2.168l-3.948,6.561c-.667,1.168-1.334,2.391-2,3.447l-1.89,2.947-1.835,2.891-3.28,1.112c-1.946.668-4.615,1.446-7.284,2.224l-7.228,1.946-3.225.834.5-.722,1.334-1.891,4.115-5.56c1.5-2.113,2.835-4.337,3.892-5.949l1.723-2.724,3.225-1.057,7.006-2.613,7.061-2.78Zm-11.12-15.179-4.67,9.063-5.06,8.84s-.945-5.56-1.946-10.452c-.5-2.558-1.168-5.116-1.668-7.006l-.834-3.169,1.39-2.669a63.1,63.1,0,0,0,2.78-6c.945-2.224,2-4.392,2.724-6l1.112-2.78,1.112,3.058c.668,1.891,1.39,4.282,2.169,6.839s1.5,5.06,2.057,7.006S489.28,382.083,489.28,382.083Zm22.24-8.618-1.279,3.169c-.834,1.891-1.946,4.393-3.058,6.839s-2.224,5-3.225,6.783l-1.556,3.058-3.17,1.446c-1.89.834-4.336,2-6.95,2.947-5.17,2-10.174,3.836-10.174,3.836l5.17-8.951,4.671-8.952s1.279-.5,3.058-1.39l6.727-3.28c2.447-1.224,4.949-2.5,6.728-3.5Zm-12.732-13.9-3.948,9.508c-.89,2.391-2.057,4.67-2.836,6.449l-1.334,2.892s-1.446-5.171-3-10.175-3.5-9.841-3.5-9.841l1.112-2.78c.667-1.668,1.334-4,2.168-6.228a62.542,62.542,0,0,0,2.057-6.282l.834-2.892,1.39,2.947c.89,1.779,1.891,4.17,2.892,6.561C496.842,354.506,498.788,359.565,498.788,359.565Zm21.239-10.9a102.924,102.924,0,0,1-3.281,10.452c-.889,2.558-1.723,5.171-2.446,7.117l-1.223,3.169s-4.837,2.836-9.619,5.56a105.378,105.378,0,0,1-9.786,4.838l1.335-2.947c.778-1.779,1.946-4.115,2.835-6.505l3.781-9.619s4.559-2.725,9.23-5.56c2.335-1.5,4.67-3,6.338-4.226ZM366.96,497.231l-9.508,3.725-9.674,3.28s2.836-4.614,5.56-9.118c1.334-2.224,2.5-4.615,3.392-6.338l1.445-2.892,2.78-1.112c1.724-.611,3.837-1.668,6.061-2.668l6-2.725,2.669-1.39s-1.835,4.893-4.059,9.619c-1.112,2.391-2.224,4.782-3.113,6.616S366.96,497.231,366.96,497.231Zm22.574,8.284-3.058,1.557-6.839,3.114c-2.5,1.112-4.949,2.279-6.895,3l-3.169,1.279-3.336-1c-2-.612-4.559-1.39-7.172-2.391-5.227-1.89-10.175-3.836-10.175-3.836l9.786-3.336,9.618-3.781,3.225.945,7.228,1.946C384.085,504.459,389.534,505.515,389.534,505.515Zm-351.17-267.1-.5,3.169c-.278,1.89-.723,4.448-1.057,7.006l-.945,10.286s-3.058-4.393-6.116-9.008c-.723-1.167-1.557-2.335-2.224-3.447l-1.779-3-1.724-3,.5-3.391c.333-2,.667-4.726,1.223-7.4l2.335-10.675s2.391,5.115,4.893,9.9l1.835,3.5,1.723,3.058ZM58.046,226.07l-2.057,9.4c-.5,2.335-.778,4.726-1.056,6.5l-.445,2.947-2.5,2.057-2.558,2.169-2.78,2.557c-3.892,3.67-7.728,7.451-7.728,7.451l.945-10.175c.334-2.558.779-5.06,1.057-6.95l.444-2.947,2.5-2.168,2.558-2.169,3.114-2.391C53.876,229.016,58.046,226.07,58.046,226.07Zm-14.4-11.9-.89,3.114c-.611,1.835-1.056,4.392-1.612,6.894l-1.5,6.95-.723,2.391v.89s-.723-1.168-1.612-2.947-2.169-4.17-3.392-6.617-2.446-4.948-3.336-6.838-1.446-3.17-1.446-3.17l3-10.508c.389-1.334.723-2.669,1.167-3.836l1.168-3.281,1.112-3.225,1.168,3.281c.722,1.946,1.556,4.5,2.613,7.061C41.478,209.278,43.646,214.171,43.646,214.171ZM64.552,204l-1,2.836-1,2.891c-.389,1.057-.667,2.224-1,3.392L58.88,222.4s-1.112.723-2.668,1.835l-5.56,4.225-5.56,4.393c-1.613,1.223-2.614,2.113-2.614,2.113v-.89l.5-2.28,1.5-6.838c.556-2.5,1-5,1.612-6.839l.89-3.058s4.448-3,8.84-5.56c2.169-1.39,4.56-2.669,6.228-3.614ZM51.374,190.6l-.333.834-.779,2.224-2.335,6.5c-.834,2.446-1.779,4.837-2.224,6.728L44.814,210l-1.335-3.113-1.39-3.225-1.39-3.5c-1.89-5.115-3.669-10.453-3.669-10.453l1.167-3.225,2.891-6.95,2.892-7.172,1.5-3.058.778,3.336c.445,2,1.279,4.726,2,7.339C50.04,185.537,51.374,190.6,51.374,190.6Zm21.907-7.951-1.335,2.669-2.557,6.116-2.669,6.116-1,2.835s-4.5,2.447-9.118,5.06l-3.392,2-2.835,1.834-2.78,1.835.889-3.058c.445-1.835,1.39-4.225,2.224-6.672l2.447-6.783.778-2.168.334-.834s4.781-2.5,9.507-4.782c2.391-1.112,4.671-2.28,6.45-3.058ZM61.605,168.023l-4.559,9.285c-1.112,2.336-2.058,4.726-2.836,6.506l-1.223,3s-1.613-5.115-3.114-10.453c-.723-2.669-1.279-5.56-1.723-7.339l-.723-3.392,1.5-3.058,1.557-3.113c.611-1.112,1.279-2.335,1.946-3.5l5.56-9.508s.778,5.56,1.723,11.12c.445,2.725.946,5.56,1.335,7.34ZM84.123,162.3l-4.726,8.34c-.612,1.057-1.223,2.058-1.724,3.058l-1.334,2.78L75,179.143l-3,1.223c-1.779.779-4.281,1.724-6.672,2.836-4.67,2.224-9.452,4.67-9.452,4.67l1.223-2.946c.779-1.724,1.668-4.17,2.78-6.45l4.5-9.174,3.058-1.279,6.894-2.5C79.286,163.853,84.123,162.3,84.123,162.3ZM74.115,146.617l-1.779,2.725c-1.057,1.612-2.5,3.78-3.726,6.06L63.5,164.409s-1-5.226-1.89-10.675-1.446-11.12-1.446-11.12l6.005-9.174,6.45-8.785s0,5.56.444,11.12a65.868,65.868,0,0,0,.668,7.506Zm23.018-3.391-5.56,7.728-5.226,8.062s-5.06,1.334-9.953,3.114-10.008,3.614-10.008,3.614l5.06-8.9c1.223-2.28,2.669-4.337,3.67-5.95l1.723-2.668,3.169-.946c1.891-.556,4.393-1.278,7.006-1.89C92.074,144.282,97.133,143.226,97.133,143.226Zm-8.173-16.68-2.057,2.5c-1.279,1.5-2.725,3.614-4.281,5.56l-4.226,5.56c-.612.778-1,1.445-1.334,1.946l-.5.722a22.872,22.872,0,0,0-.333-3.391c-.334-2-.278-4.671-.445-7.451s0-5.56-.278-7.617v-3.169l6.95-8.4,2.557-3.058L87.4,107.2l2.335-2.5v3.447c0,2.113-.389,4.726-.444,7.562C88.96,121.208,88.96,126.546,88.96,126.546Zm23.018-.946-2.057,2.169-2.113,2.224-2.279,2.724-6.116,7.395h-.89l-2.279.445-7.006,1.5-7.117,1.668-3.169.89.5-.723A15.6,15.6,0,0,1,80.787,142l4.17-5.56c1.557-2.057,2.947-4.17,4.225-5.56l2.058-2.446s5.56-1,10.452-1.779c2.558-.445,5.227-.612,7.173-.834Zm-6.672-17.514-.667.612-1.612,1.724-4.837,5.17a44.953,44.953,0,0,0-4.726,5.56l-2.058,2.5v-11.12c.334-5.56.834-11.12.834-11.12l2.336-2.5,5.56-5.17,5.56-5.171,2.613-2.224-.667,3.391c-.39,2-.723,4.838-1.112,7.562C105.64,102.8,105.306,108.086,105.306,108.086Zm23.241,1.446-2.335,1.668-4.782,4.559-4.781,4.559-2.057,2.224s-5.116.39-10.4,1l-3.892.445-3.336.556-3.28.556,2.057-2.446c1.168-1.5,2.947-3.336,4.671-5.227l4.781-5.115,1.557-1.668.612-.612s5.56-.389,10.619-.611H125.1Zm-4.837-18.07-7.895,6.672c-2,1.668-3.781,3.558-5.171,4.837l-2.335,2.224s.556-5.56,1.334-10.842c.389-2.724.945-5.56,1.335-7.395l.667-3.391,2.613-2.224,2.669-2.28,3.225-2.391,8.729-6.56s-1.5,5.56-2.836,10.73c-.667,2.669-1.279,5.282-1.723,7.228Zm22.907,3.725-7.673,5.56-2.835,2.113-2.335,2-2.28,1.946H121.041c-5.171,0-10.564.5-10.564.5l2.335-2.224c1.39-1.279,3.17-3.114,5.116-4.782l7.784-6.616h3.28l7.339.445C141.558,94.52,146.617,95.187,146.617,95.187ZM42.312,336.88a8.325,8.325,0,0,0,.834,3.114l1.946,6.839c.667,2.5,1.5,4.948,2.168,6.783l1.056,3.058L45.425,354.9c-1.723-1.057-4.059-2.5-6.338-4.059-4.5-3.058-9.063-6.116-9.063-6.116s-.389-1.334-.89-3.28l-1.723-7.84c-.612-2.669-1.223-5.56-1.557-7.339l-.612-3.392,2.614,2.28c1.556,1.334,3.614,3.169,5.56,4.837C38.03,333.6,42.312,336.88,42.312,336.88ZM55.6,317.7l.5,2.947c0,1.779.834,4.115,1.39,6.45l1.39,6.5c.445,1.724.779,2.891.779,2.891s-2.28,4.615-4.5,9.452c-1.056,2.391-2.057,4.837-2.78,6.672l-1.223,3.225-1.112-3.169c-.612-1.835-1.446-4.226-2.113-6.672l-1.835-6.839c-.556-1.835-.834-3.058-.834-3.058s2.447-4.837,4.893-9.4c1.223-2.28,2.558-4.56,3.614-6.228Zm-18.07-5.17v.889a6.657,6.657,0,0,0,.334,2.335l1.39,6.728.667,3.725.723,3.225.722,3.169L38.92,330.82c-1.612-1.223-3.836-2.947-5.838-4.67-4.114-3.5-8.34-7.284-8.34-7.284v-.945a6.281,6.281,0,0,0-.389-2.447l-1.335-7.45-.778-4v-6.9l2.335,2.558c1.446,1.5,3.225,3.5,5.282,5.56C33.36,308.969,37.53,312.528,37.53,312.528ZM52.6,294.68v6.06l.444,3.5.834,6.561a4.245,4.245,0,0,0,.334,2.168v.834s-2.724,4.337-5.56,8.9c-1.39,2.28-2.558,4.615-3.5,6.339l-.667,3.113-.723-3.113-.723-3.169-.667-3.67-1.334-6.95a15.616,15.616,0,0,0-.334-2.28v-.889s2.891-4.559,5.838-8.841a44.709,44.709,0,0,1,4.226-5.56ZM35.25,287.841v3.225l.556,7.061a49.2,49.2,0,0,0,.668,7.061l.389,3.225-2.447-2.335c-1.5-1.39-3.5-3.28-5.56-5.282-3.78-3.892-7.561-8.118-7.561-8.118v-21.8l2.057,2.78c1.279,1.668,2.836,3.837,4.67,5.949C31.692,283.894,35.25,287.841,35.25,287.841ZM52.1,271.773V291.01s-3.169,4-6.283,8.285c-1.612,2.113-3.058,4.337-4.17,5.949l-1.834,2.78-.39-3.169c-.055-1.835-.5-4.615-.5-6.95l-.556-7.006v-3.225s3.336-4.114,6.672-8.173c1.612-2,3.5-3.947,4.837-5.56Zm-16.624-8.729-.334,10.341V283.56L32.915,281c-1.334-1.556-3.113-3.669-4.726-5.56-3.336-4.281-6.616-8.84-6.616-8.84V263.21c.111-1.89.667-4.837.667-7.45l.723-7.506a33.514,33.514,0,0,1,.445-3.614l.5.834,1.334,2.168,4.17,6.394,3.948,6.283,1.39,2Zm18.348-14.29a26.544,26.544,0,0,0-.334,3l-.611,6.561c0,2.39-.5,4.781-.556,6.56v3s-3.559,3.669-7.173,7.617c-1.835,1.946-3.5,4-4.726,5.56l-2.168,2.5V273.385l.333-10.23.334-.556,1.724-1.724,5.5-5.115,5.226-4.893,1.78-1.557ZM160.573,489.28l.778.445,2.057,1.056,6.339,3.225c2.279,1.223,4.67,2.168,6.449,3l2.947,1.335s-5.171,1.445-10.508,2.835-10.787,2.28-10.787,2.28L154.79,501.9l-6.5-3.725c-2.391-1.39-4.781-2.669-6.449-3.836L139,492.56l3.447-.333,3.5-.389,4-.612c5.393-.89,10.62-1.946,10.62-1.946Zm-4.893-22.629,2.5,1.612c1.5,1,3.614,2.169,5.56,3.392l5.56,3.28,2.669,1.39s1.779,4.837,3.836,9.73,4.448,9.619,4.448,9.619l-2.891-1.334c-1.724-.834-4.114-1.78-6.338-2.947l-6.228-3.225-2.057-1.056-.778-.445s-1.891-5.06-3.559-10.008l-1.223-3.614-.945-3.225Zm-16.235,9.73.723.5,1.946,1.335,6,3.836,3.225,2,2.891,1.668,2.78,1.612-3.336.556c-2,.334-4.726.834-7.45,1.112-5.56.667-11.12,1.168-11.12,1.168l-.778-.5-2.058-1.39-6-4.559-3.281-2.335-2.78-2.169-2.669-2.112h11.009C134.163,476.826,139.445,476.381,139.445,476.381Zm-2.78-23.13L139,455.086l2.446,1.89,2.892,2.058,5.56,3.836,1.779,1.223.723.445s1.334,4.948,2.835,10.064c.779,2.557,1.668,4.948,2.335,6.894l1.112,3.114L155.9,483l-2.835-1.612-3.169-2L144,475.6l-1.89-1.278-.723-.5s-1.39-5.226-2.558-10.286c-.611-2.5-1.056-5.171-1.39-7.061Zm-16.9,8.229,2.447,2.113,5.56,4.392c2.057,1.613,4.059,3.225,5.56,4.281l2.613,1.891H113.924l-.722-.612-1.668-.945-5.56-4.893c-2.113-1.779-4-3.725-5.56-5.115l-2.447-2.335s5.56.556,11.12.945S119.762,461.48,119.762,461.48Zm-.389-23.463,2.169,2.057c1.334,1.223,3,2.947,4.837,4.5l5,4.336,1.668,1.446.611.5s.834,5.06,1.835,10.231l.779,3.836.778,3.281.834,3.224-2.613-1.834c-1.613-1.057-3.559-2.669-5.56-4.226l-5.56-4.337-2.391-2.113s-.89-5.56-1.5-10.452S119.373,438.017,119.373,438.017Zm-17.625,6.227,2.224,2.335c1.279,1.446,3.225,3.169,5.06,5s3.725,3.559,5.17,4.893l2.447,2.113s-5.56,0-11.12-.556l-7.562-.667a13.474,13.474,0,0,1-3.447-.39l-7.562-7.895-6.894-8.34s5.56,1.112,11.12,2c2.669.5,5.56.834,7.45,1.056Zm1.946-23.13,6.283,7.006,6.783,7.228v3.225s.334,4.5.612,7.117c.444,5.56,1.278,10.508,1.278,10.508l-2.39-2.113L111.2,449.3c-1.835-1.78-3.725-3.5-5-4.893l-2.224-2.335v-10.62a100.393,100.393,0,0,1-.278-10.342Zm-18.126,4.337,2,2.558c1.168,1.557,2.78,3.558,4.5,5.56l4.67,5.56,1.557,1.723.611.668-3.391-.445-7.339-1.223-7.506-1.446-3.336-.778-2.113-2.669c-1.223-1.613-3-3.725-4.559-5.949l-4.393-6.45-1.445-2-.5-.778.89.278,2.446.723,7.284,2.057c2.613.723,5.226,1.446,7.228,1.835Zm4.282-22.8.444.667,1.279,1.78,3.837,5.56c1.334,2,2.946,3.78,4,5.226l1.835,2.391v21.128l-.612-.612-1.557-1.723-4.615-5.56a57.349,57.349,0,0,1-4.448-5.56l-1.946-2.5v-3.336c0-1.946.278-4.615.556-7.284s.556-5.226.779-7.117v-2.335ZM71.335,405.1l1.723,2.724c1.057,1.612,2.391,3.836,3.892,5.949l4.115,5.56,1.334,1.891.5.722-3.225-.834-7.395-1.723c-2.669-.723-5.56-1.557-7.284-2.224l-3.28-1.112-1.835-2.891-1.89-2.947c-.667-1.112-1.335-2.28-2-3.447l-3.5-6.45c-.5-.89-.889-1.668-1.167-2.168l-.445-.834,3.169,1.39,7.061,2.78L68.11,404.1Zm6.505-22.24.389.722a5.1,5.1,0,0,0,1.057,1.891l3.28,5.56c.612,1.056,1.168,2.113,1.779,3.058l1.668,2.613,1.613,2.5-.5,3.225c-.333,1.946-.611,4.5-.889,7.117s-.5,5.226-.668,7.228a17.871,17.871,0,0,0,0,3.336l-.5-.723L83.4,417.778l-4.059-5.56c-1.5-2.057-2.78-4.281-3.836-5.893l-1.724-2.669.445-3.28c.334-2,.834-4.615,1.334-7.173s1.057-5.115,1.446-7S77.84,382.862,77.84,382.862Zm-18.515.778,4.726,9.23,5.171,8.951s-5-1.779-10.175-3.836c-2.613-1-5.059-2.113-6.95-2.947l-3.169-1.446-1.557-3.058c-1-1.779-2.057-4.336-3.225-6.783s-2.279-5-3.058-6.839l-1.278-3.169,3,1.724c1.779,1,4.337,2.279,6.728,3.5l6.727,3.28a23.979,23.979,0,0,1,3.058,1.39Zm8.952-21.684,1.112,2.78c.723,1.668,1.723,3.836,2.724,6s1.946,4.392,2.78,6l1.39,2.668-.834,3.17c-.5,1.89-1.167,4.5-1.668,7-1.056,5.115-1.946,10.453-1.946,10.453l-5.115-8.9-4.67-9.063a9.08,9.08,0,0,1,.834-3.225c.834-1.946,1.278-4.5,2.057-7s1.5-4.949,2.168-6.839ZM49.6,360.622l3.781,9.618c.945,2.391,2.113,4.726,2.836,6.506l1.334,2.946s-4.837-2.279-9.786-4.837-9.618-5.56-9.618-5.56l-1.224-3.169c-.722-1.89-1.556-4.5-2.446-7.117-1.835-5.171-3.28-10.453-3.28-10.453l2.835,2c1.668,1.223,3.948,2.724,6.339,4.226C44.98,357.9,49.6,360.622,49.6,360.622Zm11.12-20.461.834,2.891c.445,1.724,1.279,4,2.057,6.283s1.5,4.559,2.169,6.227l1.112,2.78s-1.835,4.837-3.5,9.841-3,10.175-3,10.175l-1.335-2.891c-.778-1.779-1.89-4.059-2.835-6.45l-3.726-9.507s1.946-5.06,3.948-9.9c1-2.391,2-4.782,2.891-6.561Zm122.209,159.9,9.619,3.781,9.785,3.336s-4.948,1.946-10.174,3.837c-2.614,1-5.171,1.723-7.173,2.39l-3.336,1-3.169-1.279c-1.946-.722-4.392-1.89-6.894-3l-6.839-3.114-3.058-1.556s5.56-1.057,10.786-2.5l7.228-1.946Zm-7.45-21.906,2.668,1.39,6,2.724c2.169,1,4.337,2.058,6.061,2.669l2.78,1.112,1.445,2.891c.89,1.724,2.057,4.17,3.392,6.339,2.557,4.5,5.56,9.118,5.56,9.118l-9.675-3.28L184.2,497.4s-.612-1.168-1.5-3-2-4.225-3.114-6.616C177.308,482.942,175.474,478.16,175.474,478.16Z"/>
        <path class="cls-3" d="M509.852,239.08l.5,3.169c0,1.891.723,4.393,1.057,6.95l.945,10.175s-3.836-3.836-7.617-7.339l-2.78-2.558-2.558-2.168-2.5-2.057-.445-2.947c-.333-1.779-.556-4.17-1.056-6.5l-2.057-9.4s4.17,2.947,8.395,6.172l3.114,2.391,2.558,2.168Zm13.233-20.072,2.335,10.676c.556,2.668.89,5.56,1.223,7.394l.5,3.392-1.724,3-1.779,3c-.667,1.112-1.446,2.279-2.224,3.447-3.058,4.615-6.116,9.007-6.116,9.007l-.945-10.286c-.334-2.557-.779-5.115-1.057-7l-.5-3.17,1.723-2.946,1.724-3.058,1.835-3.5C520.694,224.068,523.085,219.008,523.085,219.008Zm-18.459-4,.889,3.058c.612,1.835,1.057,4.337,1.613,6.839l1.5,6.839.5,2.279v.89s-1-.834-2.613-2.113l-5.56-4.392-5.56-4.226c-1.557-1.112-2.669-1.835-2.669-1.835l-2.613-9.229c-.334-1.168-.612-2.335-1-3.392l-1-2.891-1-2.836,2.168,1.724c1.668.945,4.059,2.224,6.227,3.614A89.651,89.651,0,0,1,504.626,215.005Zm11.064-21.183,1.112,3.224,1.168,3.281c.444,1.223.722,2.557,1.167,3.836l3,10.509s-.5,1.278-1.446,3.169-2.113,4.392-3.336,6.839-2.5,4.837-3.392,6.616-1.612,2.947-1.612,2.947v-.89l-.834-2.224-1.5-6.95c-.556-2.5-1.057-5.059-1.613-6.894l-.889-3.114s2.224-4.893,4.337-10.008c1.056-2.557,1.89-5.115,2.613-7.061Zm-18.682-2.058.334.834.778,2.169,2.28,6.561c.834,2.39,1.724,4.781,2.224,6.672l.89,3.058-2.78-1.835-2.836-1.835-3.392-2c-4.614-2.668-9.118-5.059-9.118-5.059l-1-2.836-2.557-6.116-2.558-6.116-1.112-2.613,3,1.279c1.835.778,4.115,1.89,6.45,3.058,4.559,2.057,9.4,4.781,9.4,4.781Zm8.952-22.24,1.5,3.058,2.947,6.95,2.891,6.95,1.168,3.225s-1.779,5.56-3.67,10.453l-1.39,3.725-1.39,3.225-1.334,3.114-.89-3.114c-.445-1.89-1.39-4.281-2.224-6.728l-2.335-6.727-.778-2.224-.334-.834s1.612-5.06,3.169-10.342c.723-2.613,1.557-5.56,2-7.339Zm-19.071-.111,4.5,9.174c1.112,2.28,2,4.671,2.78,6.45l1.223,2.947s-4.782-2.447-9.452-4.671c-2.335-1.112-4.837-2.113-6.672-2.835l-3-1.224-1.335-2.668-1.334-2.78c-.556-1-1.168-2-1.724-3.058L467.04,162.3s4.837,1.557,9.841,3.336l6.9,2.5Zm6.5-23.018,5.56,9.507c.668,1.168,1.335,2.391,1.946,3.5l1.557,3.114,1.5,3.058-.722,3.391c-.445,2.058-1,4.671-1.724,7.34-1.5,5.56-3.114,10.452-3.114,10.452l-1.223-3c-.778-1.779-1.668-4.226-2.835-6.505l-4.56-9.285.779-3.336c.389-1.946.834-4.615,1.334-7.34Zm-18.848,1.89,1.724,2.669c1,1.612,2.5,3.725,3.725,5.949l5.059,8.9s-5.059-1.946-10.008-3.614-9.952-3.113-9.952-3.113l-5.226-8.062-5.56-7.729s5,1,10.23,2.224c2.613.556,5.115,1.335,7.006,1.891Zm4.059-23.574,6.5,8.729,5.949,9.174s-.5,5.56-1.445,11.12-1.891,10.675-1.891,10.675l-5.115-9.007c-1.223-2.28-2.724-4.392-3.725-6.06l-1.779-2.725.389-3.391c0-2,.556-4.782.667-7.506C478.494,130.326,478.605,124.711,478.605,124.711Zm-18.459,3.781,2.057,2.446c1.223,1.446,2.669,3.558,4.225,5.56l4.17,5.56c.556.778,1,1.446,1.335,1.89l.5.723-3.169-.889-7.117-1.668-7-1.5-2.28-.444h-.89l-6.116-7.4-2.279-2.725-2.113-2.224L439.24,125.6l3.225.278a46.76,46.76,0,0,1,7.172.834C454.808,127.546,460.146,128.492,460.146,128.492Zm1.334-23.8,2.335,2.5,2.391,2.557,2.558,3.058,6.95,8.4v3.5a75.55,75.55,0,0,1-.278,7.617c-.278,2.724-.278,5.56-.445,7.45s-.334,3.392-.334,3.392l-.5-.723a15.53,15.53,0,0,0-1.335-1.946l-4.225-5.56c-1.557-2.057-3-4.225-4.281-5.56l-2.058-2.5v-11.12c0-2.78-.278-5.56-.444-7.561Zm-17.681,5.56.612.611,1.557,1.668,4.781,5.116c1.724,1.89,3.5,3.725,4.671,5.226l2.057,2.446-3.281-.556-3.336-.556-3.892-.444c-5.56-.612-10.4-1-10.4-1l-2.057-2.224-4.782-4.559-4.726-4.782-2.446-1.668h10.4C438.35,109.866,443.8,110.255,443.8,110.255ZM442.965,86.4l2.613,2.224,5.56,5.171,5.56,5.171,2.336,2.5s.5,5.56.834,11.12v10.842l-2.058-2.5c-1.167-1.557-3-3.392-4.726-5.56l-4.837-5.171-1.612-1.723-.667-.612s-.556-5.56-1.279-10.731c-.389-2.724-.723-5.56-1.112-7.561Zm-17.347,7.451,7.784,6.616c1.946,1.668,3.725,3.5,5.115,4.782l2.335,2.224s-5.56-.334-10.564-.5H419.78l-2.28-1.946-2.335-2-2.835-2.113-7.673-5.56s5.059-.5,10.341-.89l7.562-.556ZM422.56,70.112l8.729,6.56,3.225,2.391,2.669,2.28,2.613,2.224.667,3.391c.389,2.058.945,4.671,1.335,7.395.778,5.56,1.334,10.842,1.334,10.842l-2.335-2.224c-1.446-1.334-3.225-3.169-5.171-4.837l-7.895-6.672-.612-3.336c-.445-1.946-1.056-4.559-1.723-7.228C423.894,75.56,422.56,70.112,422.56,70.112Zm83.4,266.046a8.2,8.2,0,0,1-.834,3.058l-1.89,6.727c-.668,2.447-1.5,4.893-2.113,6.672l-1,3L498.9,352.5c-.779-1.835-1.724-4.281-2.78-6.672-2.224-4.837-4.5-9.452-4.5-9.452s.334-1.168.779-2.891l1.5-6.45c.556-2.335,1.112-4.67,1.39-6.449l.5-2.947,1.724,2.78c1,1.668,2.391,3.947,3.614,6.227C503.569,331.32,505.96,336.158,505.96,336.158Zm20.016-13.011-.612,3.392c-.333,2-.945,4.67-1.556,7.339l-1.668,7.339c-.5,2-.89,3.281-.89,3.281s-4.559,3.336-9.007,6.394c-2.28,1.556-4.615,3-6.339,4.058l-2.891,1.78,1.057-3.058c.611-1.835,1.5-4.282,2.168-6.784l1.946-6.838c.556-1.835.834-3.114.834-3.114s4.281-3.169,8.618-6.616a54.919,54.919,0,0,0,5.56-4.838Zm-15.29-11.009v.89a6.385,6.385,0,0,1-.334,2.28l-1.223,6.894-.667,3.67-.723,3.169-.723,3.113-1.556-2.946c-.946-1.78-2.113-4.059-3.5-6.339-2.669-4.559-5.56-8.9-5.56-8.9v-.834a5.859,5.859,0,0,1,.333-2.168l.834-6.561.445-3.5v-6.06l1.946,2.557c1.168,1.557,2.836,3.67,4.226,5.56C507.8,307.579,510.686,312.138,510.686,312.138Zm18.57-15.012v6.9l-1.056,4-.945,7.45a4.637,4.637,0,0,1-.389,2.447v.945s-4.17,3.781-8.34,7.284c-2,1.779-4.282,3.447-5.838,4.67l-2.669,2.057.723-3.169.722-3.225.668-3.725,1.223-7.006a16.732,16.732,0,0,1,.333-2.335v-.889s3.948-3.614,7.9-7.451c2.057-1.946,3.836-3.892,5.282-5.56Zm-16.346-9.4v3.225l-.556,7a48.389,48.389,0,0,1-.667,7.006l-.389,3.169-1.835-2.78c-1.112-1.668-2.558-3.836-4.17-5.949-3.169-4.281-6.283-8.284-6.283-8.284V271.884l2.224,2.391c1.279,1.445,3.225,3.391,4.837,5.56C509.574,283.56,512.91,287.73,512.91,287.73Zm16.958-16.791v21.795s-3.781,4.17-7.562,8.118a59.829,59.829,0,0,1-5.56,5.282l-2.446,2.335.389-3.225c.278-1.946.5-4.5.667-7.061l.556-7.061V287.9s3.559-4,7.117-8.229c1.835-2.113,3.392-4.281,4.671-5.949Zm-17.18-7.729.333,10.231V283.56L510.908,281c-1.223-1.556-2.891-3.558-4.726-5.56-3.558-3.947-7.172-7.617-7.172-7.617v-3c0-1.779-.389-4.17-.556-6.561l-.612-6.561a26.525,26.525,0,0,0-.333-3l.667.556,1.779,1.557,5.227,4.892,5.226,5.116,1.724,1.723Zm15.178-18.57a33.855,33.855,0,0,1,.39,3.392l.722,7.728c0,2.724.556,5.56.612,7.506v3.392s-3.336,4.559-6.616,8.84a53.869,53.869,0,0,1-4.726,5.56l-2.224,2.558V273.274l-.334-10.342.556-.722,1.39-2,4.226-6.172,4.17-6.394,1.334-2.168ZM389.2,486.667l-.778.445-2.058,1.056-6.227,3.225c-2.279,1.223-4.615,2.168-6.338,2.947l-2.891,1.334s2.335-4.837,4.448-9.619,3.836-9.73,3.836-9.73l2.669-1.39,5.56-3.28c2.057-1.223,4.17-2.335,5.56-3.392l2.5-1.612-.89,3.113-.945,3.225-1.223,3.614C391.09,481.607,389.2,486.667,389.2,486.667Zm23.13,5.893-2.892,1.835c-1.723,1.168-4.114,2.447-6.449,3.837l-6.5,3.725-3.058,1.557s-5.56-1.057-10.787-2.28-10.508-2.836-10.508-2.836l2.947-1.334c1.723-.834,4.17-1.779,6.449-3l6.339-3.225,2.057-1.057.778-.444s5.227,1,10.675,1.834l4,.612,3.5.389Zm-2.28-18.737-.723.5-1.89,1.278-5.894,3.781-3.169,2L395.538,483l-2.78,1.613,1.112-3.114c.668-1.89,1.557-4.337,2.336-6.894,1.556-5.116,2.835-10.064,2.835-10.064l.723-.445,1.779-1.223,5.56-3.836,2.891-2.058,2.447-1.89,2.335-1.835-.556,3.169c-.389,1.891-.778,4.56-1.39,7.062C411.44,468.6,410.05,473.823,410.05,473.823Zm23.63,3.5-2.669,2.113-2.78,2.168-3.28,2.335-6.116,4.337-2.057,1.39-.779.5s-5.56-.5-11.12-1.168c-2.669-.334-5.56-.834-7.45-1.112l-3.336-.556,2.78-1.612,2.891-1.668,3.225-2,6.116-3.892,1.946-1.334.723-.5s5.56.445,11.12.779h7.561Zm-4.226-18.4-2.39,2.113-5.56,4.337c-2,1.557-4,3.169-5.56,4.226l-2.614,1.834.834-3.224.779-3.281.778-3.836c1-5.227,1.835-10.231,1.835-10.231l.612-.5,1.668-1.446,5-4.336c1.834-1.557,3.5-3.281,4.837-4.5l2.168-2.057s-.389,5.115-.889,10.4S429.454,458.922,429.454,458.922Zm23.908,1.057-2.446,2.335c-1.5,1.39-3.392,3.336-5.56,5.115l-5.56,4.893-1.89,1.612-.723.612H415.165l2.613-1.89c1.613-1.057,3.614-2.725,5.56-4.282l5.56-4.392,2.558-2.5s5.56,0,11.12-.334S453.362,459.979,453.362,459.979Zm-6.06-17.9-2.224,2.335c-1.279,1.445-3.169,3.169-5,4.893l-5.115,4.837-2.391,2.113s.834-5.227,1.279-10.509c0-2.613.445-5.226.611-7.117a16.783,16.783,0,0,0,0-3.224l6.839-7.284,6.283-7.284v17.681Zm23.852-1.335-7.172,8.285-7.506,7.895a21.1,21.1,0,0,0-3.447.389l-7.562.667c-5.56.5-11.12.556-11.12.556l2.447-2.113,5.17-4.892c1.891-1.78,3.781-3.559,5.06-5l2.224-2.336,3.336-.389a46.823,46.823,0,0,0,7.45-1.056C465.65,441.853,471.154,440.741,471.154,440.741Zm-7.895-17.18-1.946,2.5c-1.167,1.5-2.724,3.5-4.448,5.56l-4.615,5.56-1.556,1.723-.334.334V418.112l1.835-2.391c1.056-1.445,2.669-3.28,4-5.226l3.836-5.56,1.279-1.779.445-.668v3.225c0,1.946.5,4.5.778,7.117s.5,5.56.556,7.284Zm23.63-3.781-.5.778-1.446,2-4.337,6.116c-1.556,2.28-3.336,4.337-4.559,5.949l-2.113,2.669-3.336.778-7.506,1.446L455.92,440.8l-3.392.445.612-.668,1.557-1.723,4.67-5.56c1.724-1.946,3.336-3.948,4.5-5.56l2-2.558,3.336-.723c2-.444,4.615-1.112,7.228-1.834l7.284-1.835,2.446-.723Zm-9.619-16.291-1.723,2.669c-1.057,1.612-2.335,3.781-3.837,5.894l-4.058,5.56-1.335,1.89-.5.723v-3.336s-.389-4.671-.667-7.228-.556-5.171-.89-7.117l-.5-3.225,1.612-2.5,1.668-2.613c.612-.945,1.168-2,1.779-3.058l3.281-5.56c.444-.778.778-1.446,1.056-1.89l.389-.723s.334,1.279.779,3.169.945,4.392,1.445,7.006,1,5.226,1.335,7.172Zm23.13-6.227-.445.834c0,.556-.667,1.279-1.167,2.168l-3.948,6.561c-.667,1.168-1.334,2.391-2,3.447l-1.89,2.947-1.835,2.891-3.28,1.112c-1.946.668-4.615,1.446-7.284,2.224l-7.228,1.946-3.225.834.5-.722,1.334-1.891,4.115-5.56c1.5-2.113,2.835-4.337,3.892-5.949l1.723-2.724,3.225-1.057,7.006-2.613,7.061-2.78Zm-11.12-15.179-4.67,9.063-5.06,8.84s-.945-5.56-1.946-10.452c-.5-2.558-1.168-5.116-1.668-7.006l-.834-3.169,1.39-2.669a63.1,63.1,0,0,0,2.78-6c.945-2.224,2-4.392,2.724-6l1.112-2.78,1.112,3.058c.668,1.891,1.39,4.282,2.169,6.839s1.5,5.06,2.057,7.006S489.28,382.083,489.28,382.083Zm22.24-8.618-1.279,3.169c-.834,1.891-1.946,4.393-3.058,6.839s-2.224,5-3.225,6.783l-1.556,3.058-3.17,1.446c-1.89.834-4.336,2-6.95,2.947-5.17,2-10.174,3.836-10.174,3.836l5.17-8.951,4.671-8.952s1.279-.5,3.058-1.39l6.727-3.28c2.447-1.224,4.949-2.5,6.728-3.5Zm-12.732-13.9-3.948,9.508c-.89,2.391-2.057,4.67-2.836,6.449l-1.334,2.892s-1.446-5.171-3-10.175-3.5-9.841-3.5-9.841l1.112-2.78c.667-1.668,1.334-4,2.168-6.228a62.542,62.542,0,0,0,2.057-6.282l.834-2.892,1.39,2.947c.89,1.779,1.891,4.17,2.892,6.561C496.842,354.506,498.788,359.565,498.788,359.565Zm21.239-10.9a102.924,102.924,0,0,1-3.281,10.452c-.889,2.558-1.723,5.171-2.446,7.117l-1.223,3.169s-4.837,2.836-9.619,5.56a105.378,105.378,0,0,1-9.786,4.838l1.335-2.947c.778-1.779,1.946-4.115,2.835-6.505l3.781-9.619s4.559-2.725,9.23-5.56c2.335-1.5,4.67-3,6.338-4.226ZM366.96,497.231l-9.508,3.725-9.674,3.28s2.836-4.614,5.56-9.118c1.334-2.224,2.5-4.615,3.392-6.338l1.445-2.892,2.78-1.112c1.724-.611,3.837-1.668,6.061-2.668l6-2.725,2.669-1.39s-1.835,4.893-4.059,9.619c-1.112,2.391-2.224,4.782-3.113,6.616S366.96,497.231,366.96,497.231Zm22.574,8.284-3.058,1.557-6.839,3.114c-2.5,1.112-4.949,2.279-6.895,3l-3.169,1.279-3.336-1c-2-.612-4.559-1.39-7.172-2.391-5.227-1.89-10.175-3.836-10.175-3.836l9.786-3.336,9.618-3.781,3.225.945,7.228,1.946C384.085,504.459,389.534,505.515,389.534,505.515ZM405.88,79.286l.723.444,1.89,1.335,5.56,4.059c2.057,1.5,4.17,2.946,5.56,4.17l2.5,2h-6.672l-3.892.334c-5.56.5-10.4,1.112-10.4,1.112l-2.446-1.724-5.56-3.5-5.56-3.5-2.614-1.446,3.225-.723c1.946-.445,4.448-.834,7.061-1.223Zm-5.56-23.241,3,1.668,6.394,3.947,6.339,4,2.78,1.946s1.612,5.56,3.058,10.619c.333,1.335.723,2.613,1,3.837l.778,3.447.723,3.336-2.5-2c-1.5-1.279-3.614-2.724-5.56-4.225l-5.56-4.115-1.891-1.334-.778-.445s-1.612-5.06-3.392-10.286c-.889-2.558-1.834-5.282-2.613-7.172ZM381.805,74l23.185,2.5-15.4-17.514-23.129-2.5ZM144.949,79.286l-.723.444-1.89,1.335-5.56,4.059c-2.057,1.5-4.17,2.946-5.56,4.17l-2.5,2h6.672l3.892.334c5.56.5,10.4,1.112,10.4,1.112l2.447-1.724,5.56-3.5,5.56-3.5,2.613-1.446-3.225-.723c-1.946-.445-4.448-.834-7.061-1.223C150.12,79.953,144.949,79.286,144.949,79.286Zm5.671-23.241-3,1.668-6.394,3.947-6.338,4-2.78,1.946s-1.613,5.56-3.058,10.619c-.334,1.335-.723,2.613-1,3.837l-.779,3.447-.722,3.336,2.5-2c1.5-1.279,3.614-2.724,5.56-4.225l5.56-4.115,1.89-1.334.778-.445s1.613-5.06,3.392-10.286c.89-2.558,1.835-5.282,2.613-7.172ZM169.135,74l-23.185,2.5,15.4-17.514,23.185-2.5ZM38.364,238.413l-.5,3.169c-.278,1.89-.723,4.448-1.057,7.006l-.945,10.286s-3.058-4.393-6.116-9.008c-.723-1.167-1.557-2.335-2.224-3.447l-1.779-3-1.724-3,.5-3.391c.333-2,.667-4.726,1.223-7.4l2.335-10.675s2.391,5.115,4.893,9.9l1.835,3.5,1.723,3.058ZM58.046,226.07l-2.057,9.4c-.5,2.335-.778,4.726-1.056,6.5l-.445,2.947-2.5,2.057-2.558,2.169-2.78,2.557c-3.892,3.67-7.728,7.451-7.728,7.451l.945-10.175c.334-2.558.779-5.06,1.057-6.95l.444-2.947,2.5-2.168,2.558-2.169,3.114-2.391C53.876,229.016,58.046,226.07,58.046,226.07Zm-14.4-11.9-.89,3.114c-.611,1.835-1.056,4.392-1.612,6.894l-1.5,6.95-.723,2.391v.89s-.723-1.168-1.612-2.947-2.169-4.17-3.392-6.617-2.446-4.948-3.336-6.838-1.446-3.17-1.446-3.17l3-10.508c.389-1.334.723-2.669,1.167-3.836l1.168-3.281,1.112-3.225,1.168,3.281c.722,1.946,1.556,4.5,2.613,7.061C41.478,209.278,43.646,214.171,43.646,214.171ZM64.552,204l-1,2.836-1,2.891c-.389,1.057-.667,2.224-1,3.392L58.88,222.4s-1.112.723-2.668,1.835l-5.56,4.225-5.56,4.393c-1.613,1.223-2.614,2.113-2.614,2.113v-.89l.5-2.28,1.5-6.838c.556-2.5,1-5,1.612-6.839l.89-3.058s4.448-3,8.84-5.56c2.169-1.39,4.56-2.669,6.228-3.614ZM51.374,190.6l-.333.834-.779,2.224-2.335,6.5c-.834,2.446-1.779,4.837-2.224,6.728L44.814,210l-1.335-3.113-1.39-3.225-1.39-3.5c-1.89-5.115-3.669-10.453-3.669-10.453l1.167-3.225,2.891-6.95,2.892-7.172,1.5-3.058.778,3.336c.445,2,1.279,4.726,2,7.339C50.04,185.537,51.374,190.6,51.374,190.6Zm21.907-7.951-1.335,2.669-2.557,6.116-2.669,6.116-1,2.835s-4.5,2.447-9.118,5.06l-3.392,2-2.835,1.834-2.78,1.835.889-3.058c.445-1.835,1.39-4.225,2.224-6.672l2.447-6.783.778-2.168.334-.834s4.781-2.5,9.507-4.782c2.391-1.112,4.671-2.28,6.45-3.058ZM61.605,168.023l-4.559,9.285c-1.112,2.336-2.058,4.726-2.836,6.506l-1.223,3s-1.613-5.115-3.114-10.453c-.723-2.669-1.279-5.56-1.723-7.339l-.723-3.392,1.5-3.058,1.557-3.113c.611-1.112,1.279-2.335,1.946-3.5l5.56-9.508s.778,5.56,1.723,11.12c.445,2.725.946,5.56,1.335,7.34ZM84.123,162.3l-4.726,8.34c-.612,1.057-1.223,2.058-1.724,3.058l-1.334,2.78L75,179.143l-3,1.223c-1.779.779-4.281,1.724-6.672,2.836-4.67,2.224-9.452,4.67-9.452,4.67l1.223-2.946c.779-1.724,1.668-4.17,2.78-6.45l4.5-9.174,3.058-1.279,6.894-2.5C79.286,163.853,84.123,162.3,84.123,162.3ZM74.115,146.617l-1.779,2.725c-1.057,1.612-2.5,3.78-3.726,6.06L63.5,164.409s-1-5.226-1.89-10.675-1.446-11.12-1.446-11.12l6.005-9.174,6.45-8.785s0,5.56.444,11.12a65.868,65.868,0,0,0,.668,7.506Zm23.018-3.391-5.56,7.728-5.226,8.062s-5.06,1.334-9.953,3.114-10.008,3.614-10.008,3.614l5.06-8.9c1.223-2.28,2.669-4.337,3.67-5.95l1.723-2.668,3.169-.946c1.891-.556,4.393-1.278,7.006-1.89C92.074,144.282,97.133,143.226,97.133,143.226Zm-8.173-16.68-2.057,2.5c-1.279,1.5-2.725,3.614-4.281,5.56l-4.226,5.56c-.612.778-1,1.445-1.334,1.946l-.5.722a22.872,22.872,0,0,0-.333-3.391c-.334-2-.278-4.671-.445-7.451s0-5.56-.278-7.617v-3.169l6.95-8.4,2.557-3.058L87.4,107.2l2.335-2.5v3.447c0,2.113-.389,4.726-.444,7.562C88.96,121.208,88.96,126.546,88.96,126.546Zm23.018-.946-2.057,2.169-2.113,2.224-2.279,2.724-6.116,7.395h-.89l-2.279.445-7.006,1.5-7.117,1.668-3.169.89.5-.723A15.6,15.6,0,0,1,80.787,142l4.17-5.56c1.557-2.057,2.947-4.17,4.225-5.56l2.058-2.446s5.56-1,10.452-1.779c2.558-.445,5.227-.612,7.173-.834Zm-6.672-17.514-.667.612-1.612,1.724-4.837,5.17a44.953,44.953,0,0,0-4.726,5.56l-2.058,2.5v-11.12c.334-5.56.834-11.12.834-11.12l2.336-2.5,5.56-5.17,5.56-5.171,2.613-2.224-.667,3.391c-.39,2-.723,4.838-1.112,7.562C105.64,102.8,105.306,108.086,105.306,108.086Zm23.241,1.446-2.335,1.668-4.782,4.559-4.781,4.559-2.057,2.224s-5.116.39-10.4,1l-3.892.445-3.336.556-3.28.556,2.057-2.446c1.168-1.5,2.947-3.336,4.671-5.227l4.781-5.115,1.557-1.668.612-.612s5.56-.389,10.619-.611H125.1Zm-4.837-18.07-7.895,6.672c-2,1.668-3.781,3.558-5.171,4.837l-2.335,2.224s.556-5.56,1.334-10.842c.389-2.724.945-5.56,1.335-7.395l.667-3.391,2.613-2.224,2.669-2.28,3.225-2.391,8.729-6.56s-1.5,5.56-2.836,10.73c-.667,2.669-1.279,5.282-1.723,7.228Zm22.907,3.725-7.673,5.56-2.835,2.113-2.335,2-2.28,1.946H121.041c-5.171,0-10.564.5-10.564.5l2.335-2.224c1.39-1.279,3.17-3.114,5.116-4.782l7.784-6.616h3.28l7.339.445C141.558,94.52,146.617,95.187,146.617,95.187ZM42.312,336.88a8.325,8.325,0,0,0,.834,3.114l1.946,6.839c.667,2.5,1.5,4.948,2.168,6.783l1.056,3.058L45.425,354.9c-1.723-1.057-4.059-2.5-6.338-4.059-4.5-3.058-9.063-6.116-9.063-6.116s-.389-1.334-.89-3.28l-1.723-7.84c-.612-2.669-1.223-5.56-1.557-7.339l-.612-3.392,2.614,2.28c1.556,1.334,3.614,3.169,5.56,4.837C38.03,333.6,42.312,336.88,42.312,336.88ZM55.6,317.7l.5,2.947c0,1.779.834,4.115,1.39,6.45l1.39,6.5c.445,1.724.779,2.891.779,2.891s-2.28,4.615-4.5,9.452c-1.056,2.391-2.057,4.837-2.78,6.672l-1.223,3.225-1.112-3.169c-.612-1.835-1.446-4.226-2.113-6.672l-1.835-6.839c-.556-1.835-.834-3.058-.834-3.058s2.447-4.837,4.893-9.4c1.223-2.28,2.558-4.56,3.614-6.228Zm-18.07-5.17v.889a6.657,6.657,0,0,0,.334,2.335l1.39,6.728.667,3.725.723,3.225.722,3.169L38.92,330.82c-1.612-1.223-3.836-2.947-5.838-4.67-4.114-3.5-8.34-7.284-8.34-7.284v-.945a6.281,6.281,0,0,0-.389-2.447l-1.335-7.45-.778-4v-6.9l2.335,2.558c1.446,1.5,3.225,3.5,5.282,5.56C33.36,308.969,37.53,312.528,37.53,312.528ZM52.6,294.68v6.06l.444,3.5.834,6.561a4.245,4.245,0,0,0,.334,2.168v.834s-2.724,4.337-5.56,8.9c-1.39,2.28-2.558,4.615-3.5,6.339l-.667,3.113-.723-3.113-.723-3.169-.667-3.67-1.334-6.95a15.616,15.616,0,0,0-.334-2.28v-.889s2.891-4.559,5.838-8.841a44.709,44.709,0,0,1,4.226-5.56ZM35.25,287.841v3.225l.556,7.061a49.2,49.2,0,0,0,.668,7.061l.389,3.225-2.447-2.335c-1.5-1.39-3.5-3.28-5.56-5.282-3.78-3.892-7.561-8.118-7.561-8.118v-21.8l2.057,2.78c1.279,1.668,2.836,3.837,4.67,5.949C31.692,283.894,35.25,287.841,35.25,287.841ZM52.1,271.773V291.01s-3.169,4-6.283,8.285c-1.612,2.113-3.058,4.337-4.17,5.949l-1.834,2.78-.39-3.169c-.055-1.835-.5-4.615-.5-6.95l-.556-7.006v-3.225s3.336-4.114,6.672-8.173c1.612-2,3.5-3.947,4.837-5.56Zm-16.624-8.729-.334,10.341V283.56L32.915,281c-1.334-1.556-3.113-3.669-4.726-5.56-3.336-4.281-6.616-8.84-6.616-8.84V263.21c.111-1.89.667-4.837.667-7.45l.723-7.506a33.514,33.514,0,0,1,.445-3.614l.5.834,1.334,2.168,4.17,6.394,3.948,6.283,1.39,2Zm18.348-14.29a26.544,26.544,0,0,0-.334,3l-.611,6.561c0,2.39-.5,4.781-.556,6.56v3s-3.559,3.669-7.173,7.617c-1.835,1.946-3.5,4-4.726,5.56l-2.168,2.5V273.385l.333-10.23.334-.556,1.724-1.724,5.5-5.115,5.226-4.893,1.78-1.557ZM160.573,489.28l.778.445,2.057,1.056,6.339,3.225c2.279,1.223,4.67,2.168,6.449,3l2.947,1.335s-5.171,1.445-10.508,2.835-10.787,2.28-10.787,2.28L154.79,501.9l-6.5-3.725c-2.391-1.39-4.781-2.669-6.449-3.836L139,492.56l3.447-.333,3.5-.389,4-.612c5.393-.89,10.62-1.946,10.62-1.946Zm-4.893-22.629,2.5,1.612c1.5,1,3.614,2.169,5.56,3.392l5.56,3.28,2.669,1.39s1.779,4.837,3.836,9.73,4.448,9.619,4.448,9.619l-2.891-1.334c-1.724-.834-4.114-1.78-6.338-2.947l-6.228-3.225-2.057-1.056-.778-.445s-1.891-5.06-3.559-10.008l-1.223-3.614-.945-3.225Zm-16.235,9.73.723.5,1.946,1.335,6,3.836,3.225,2,2.891,1.668,2.78,1.612-3.336.556c-2,.334-4.726.834-7.45,1.112-5.56.667-11.12,1.168-11.12,1.168l-.778-.5-2.058-1.39-6-4.559-3.281-2.335-2.78-2.169-2.669-2.112h11.009C134.163,476.826,139.445,476.381,139.445,476.381Zm-2.78-23.13L139,455.086l2.446,1.89,2.892,2.058,5.56,3.836,1.779,1.223.723.445s1.334,4.948,2.835,10.064c.779,2.557,1.668,4.948,2.335,6.894l1.112,3.114L155.9,483l-2.835-1.612-3.169-2L144,475.6l-1.89-1.278-.723-.5s-1.39-5.226-2.558-10.286c-.611-2.5-1.056-5.171-1.39-7.061Zm-16.9,8.229,2.447,2.113,5.56,4.392c2.057,1.613,4.059,3.225,5.56,4.281l2.613,1.891H113.924l-.722-.612-1.668-.945-5.56-4.893c-2.113-1.779-4-3.725-5.56-5.115l-2.447-2.335s5.56.556,11.12.945S119.762,461.48,119.762,461.48Zm-.389-23.463,2.169,2.057c1.334,1.223,3,2.947,4.837,4.5l5,4.336,1.668,1.446.611.5s.834,5.06,1.835,10.231l.779,3.836.778,3.281.834,3.224-2.613-1.834c-1.613-1.057-3.559-2.669-5.56-4.226l-5.56-4.337-2.391-2.113s-.89-5.56-1.5-10.452S119.373,438.017,119.373,438.017Zm-17.625,6.227,2.224,2.335c1.279,1.446,3.225,3.169,5.06,5s3.725,3.559,5.17,4.893l2.447,2.113s-5.56,0-11.12-.556l-7.562-.667a13.474,13.474,0,0,1-3.447-.39l-7.562-7.895-6.894-8.34s5.56,1.112,11.12,2c2.669.5,5.56.834,7.45,1.056Zm1.946-23.13,6.283,7.006,6.783,7.228v3.225s.334,4.5.612,7.117c.444,5.56,1.278,10.508,1.278,10.508l-2.39-2.113L111.2,449.3c-1.835-1.78-3.725-3.5-5-4.893l-2.224-2.335v-10.62a100.393,100.393,0,0,1-.278-10.342Zm-18.126,4.337,2,2.558c1.168,1.557,2.78,3.558,4.5,5.56l4.67,5.56,1.557,1.723.611.668-3.391-.445-7.339-1.223-7.506-1.446-3.336-.778-2.113-2.669c-1.223-1.613-3-3.725-4.559-5.949l-4.393-6.45-1.445-2-.5-.778.89.278,2.446.723,7.284,2.057c2.613.723,5.226,1.446,7.228,1.835Zm4.282-22.8.444.667,1.279,1.78,3.837,5.56c1.334,2,2.946,3.78,4,5.226l1.835,2.391v21.128l-.612-.612-1.557-1.723-4.615-5.56a57.349,57.349,0,0,1-4.448-5.56l-1.946-2.5v-3.336c0-1.946.278-4.615.556-7.284s.556-5.226.779-7.117v-2.335ZM71.335,405.1l1.723,2.724c1.057,1.612,2.391,3.836,3.892,5.949l4.115,5.56,1.334,1.891.5.722-3.225-.834-7.395-1.723c-2.669-.723-5.56-1.557-7.284-2.224l-3.28-1.112-1.835-2.891-1.89-2.947c-.667-1.112-1.335-2.28-2-3.447l-3.5-6.45c-.5-.89-.889-1.668-1.167-2.168l-.445-.834,3.169,1.39,7.061,2.78L68.11,404.1Zm6.505-22.24.389.722a5.1,5.1,0,0,0,1.057,1.891l3.28,5.56c.612,1.056,1.168,2.113,1.779,3.058l1.668,2.613,1.613,2.5-.5,3.225c-.333,1.946-.611,4.5-.889,7.117s-.5,5.226-.668,7.228a17.871,17.871,0,0,0,0,3.336l-.5-.723L83.4,417.778l-4.059-5.56c-1.5-2.057-2.78-4.281-3.836-5.893l-1.724-2.669.445-3.28c.334-2,.834-4.615,1.334-7.173s1.057-5.115,1.446-7S77.84,382.862,77.84,382.862Zm-18.515.778,4.726,9.23,5.171,8.951s-5-1.779-10.175-3.836c-2.613-1-5.059-2.113-6.95-2.947l-3.169-1.446-1.557-3.058c-1-1.779-2.057-4.336-3.225-6.783s-2.279-5-3.058-6.839l-1.278-3.169,3,1.724c1.779,1,4.337,2.279,6.728,3.5l6.727,3.28a23.979,23.979,0,0,1,3.058,1.39Zm8.952-21.684,1.112,2.78c.723,1.668,1.723,3.836,2.724,6s1.946,4.392,2.78,6l1.39,2.668-.834,3.17c-.5,1.89-1.167,4.5-1.668,7-1.056,5.115-1.946,10.453-1.946,10.453l-5.115-8.9-4.67-9.063a9.08,9.08,0,0,1,.834-3.225c.834-1.946,1.278-4.5,2.057-7s1.5-4.949,2.168-6.839ZM49.6,360.622l3.781,9.618c.945,2.391,2.113,4.726,2.836,6.506l1.334,2.946s-4.837-2.279-9.786-4.837-9.618-5.56-9.618-5.56l-1.224-3.169c-.722-1.89-1.556-4.5-2.446-7.117-1.835-5.171-3.28-10.453-3.28-10.453l2.835,2c1.668,1.223,3.948,2.724,6.339,4.226C44.98,357.9,49.6,360.622,49.6,360.622Zm11.12-20.461.834,2.891c.445,1.724,1.279,4,2.057,6.283s1.5,4.559,2.169,6.227l1.112,2.78s-1.835,4.837-3.5,9.841-3,10.175-3,10.175l-1.335-2.891c-.778-1.779-1.89-4.059-2.835-6.45l-3.726-9.507s1.946-5.06,3.948-9.9c1-2.391,2-4.782,2.891-6.561Zm122.209,159.9,9.619,3.781,9.785,3.336s-4.948,1.946-10.174,3.837c-2.614,1-5.171,1.723-7.173,2.39l-3.336,1-3.169-1.279c-1.946-.722-4.392-1.89-6.894-3l-6.839-3.114-3.058-1.556s5.56-1.057,10.786-2.5l7.228-1.946Zm-7.45-21.906,2.668,1.39,6,2.724c2.169,1,4.337,2.058,6.061,2.669l2.78,1.112,1.445,2.891c.89,1.724,2.057,4.17,3.392,6.339,2.557,4.5,5.56,9.118,5.56,9.118l-9.675-3.28L184.2,497.4s-.612-1.168-1.5-3-2-4.225-3.114-6.616C177.308,482.942,175.474,478.16,175.474,478.16Z"/>
        <path class="cls-1" d="M345.888,35.528a9.121,9.121,0,0,0-7.673-3.391,16.676,16.676,0,0,0-13.122,5.56,15.066,15.066,0,0,0-4.5,11.453v.89h-.556a28.968,28.968,0,0,1-11.12,2.669,4.5,4.5,0,0,1-3.948-1.835,22.239,22.239,0,0,0,11.676-5.56A9.619,9.619,0,0,0,320.7,37.7q-.446-5.561-7.562-5.56A18.068,18.068,0,0,0,299.8,37.7a16.238,16.238,0,0,0-5.226,11.12,12.96,12.96,0,0,0,0,1.89,4.108,4.108,0,0,1-1.835.834c-.945,0-1.5,0-1.724-.556a4.011,4.011,0,0,1-.278-2.113,38.466,38.466,0,0,1,.89-4.448,33.372,33.372,0,0,0,.89-5.5,6.446,6.446,0,0,0-1.168-4.559,5.56,5.56,0,0,0-5-1.668,11.113,11.113,0,0,0-5.56,2.168,18.823,18.823,0,0,0-3.28,3.114l-1.112.945a7.117,7.117,0,0,0-1.168-4.559,5.558,5.558,0,0,0-5.06-1.668,12.9,12.9,0,0,0-7.506,3.28,13.572,13.572,0,0,0-2.557,2.891,6.459,6.459,0,0,0,0-1.39,6.838,6.838,0,0,0-1.168-3.947,3.226,3.226,0,0,0-3.058-1.557q-1.112,0-4.114,2.891L247.2,39.087l1.723,1.946a8,8,0,0,1,2.447-1.446c.5,0,.722.445.667,1.279a40.625,40.625,0,0,1-.667,5.226,27.684,27.684,0,0,1-.556,3.614,8.01,8.01,0,0,1-3.614,2.169c-1.557,0-2.28-1.057-2.28-3.114q1.111-6.783,2.057-11.12a6.057,6.057,0,0,0-.834-4.225,3.556,3.556,0,0,0-3.5-1.39,10.392,10.392,0,0,0-4.67,2.891l-2.168,2c0-3.447-1.668-5.17-4.671-5.56q-6.727,0-9.118,7.618a5.991,5.991,0,0,1,2.391-.556q2.445,0,2.168,2.78a12.625,12.625,0,0,1-2.168,4.892q-2.058,3.225-3.058,3.225t-2.391-4.948q-.39-1.446-1.335-7.4t-4.67-5.171a10.679,10.679,0,0,0-4.782,2.891L203.44,38.92l1.5,1.946a9.944,9.944,0,0,1,2.557-1.5q1.668,0,3.114,5.226l2.613,9.563q1.945,5.227,4.782,5.227,4.558,0,11.12-8.563a36.5,36.5,0,0,0,6.171-9.674,7.228,7.228,0,0,1,2.28-1.39c.889,0,1.334.612,1.334,1.89,0,0-.5,2.058-1.445,5.56a34.111,34.111,0,0,0-1.5,7.395,5.566,5.566,0,0,0,1.112,3.781,4.226,4.226,0,0,0,3.448,1.446A14.956,14.956,0,0,0,250.2,55.6l.834-.834a5.9,5.9,0,0,0,1.334,2.724A8.95,8.95,0,0,0,259.43,59.6a15.231,15.231,0,0,1-.5-5.56,21.184,21.184,0,0,1,2.391-8.9q2.113-4.17,3.948-4.114c1.39,0,2.057.889,1.946,2.669a18.36,18.36,0,0,1-.723,4.114,19.537,19.537,0,0,0-.723,4.67,6.392,6.392,0,0,0,1.668,5.56,10.225,10.225,0,0,0,7.117,1.668,10.732,10.732,0,0,1-.612-4.781,20.065,20.065,0,0,1,3-9.174q2.613-4.5,4.5-4.5c1.168,0,1.724.945,1.668,2.78a26.079,26.079,0,0,1-.889,5.06,26.422,26.422,0,0,0-.89,5.56q0,5.226,4.559,5.226a14.955,14.955,0,0,0,9.73-4.281l.334.612a9.285,9.285,0,0,0,8.395,3.947,31.026,31.026,0,0,0,15.624-4.448l1.668-1a10.266,10.266,0,0,0,1.112,1.835,10.507,10.507,0,0,0,8.729,3.725,15.345,15.345,0,0,0,11.565-4.837A17.292,17.292,0,0,0,348,43.924,11.676,11.676,0,0,0,345.888,35.528ZM303.632,48.594a4.148,4.148,0,0,1,0-.945,10.115,10.115,0,0,1,2.335-5.56,6.006,6.006,0,0,1,4.392-3.169c1.112,0,1.668.667,1.613,1.946a7.06,7.06,0,0,1-2.169,3.781A16.673,16.673,0,0,1,303.632,48.594Zm34.194,1.446a6.617,6.617,0,0,1-5.56,3.836,2.445,2.445,0,0,1-2.224-1.612,6.174,6.174,0,0,1-.668-3.225,13.954,13.954,0,0,1,2.169-7.005,7.006,7.006,0,0,1,6.116-4c.778,0,1.39.556,1.779,1.613a9.228,9.228,0,0,1,.556,3.614A13.786,13.786,0,0,1,337.826,50.04ZM241.3,20.794a7.394,7.394,0,0,1,4.782-1.723,3.221,3.221,0,0,1,2.557,1.167,3.39,3.39,0,0,1,.945,2.447,5.113,5.113,0,0,1-1.834,3.447,6.45,6.45,0,0,1-4.671,1.89c-2.78,0-4.114-1.223-4-3.614A5.006,5.006,0,0,1,241.3,20.794Z"/>
      </g>
    </g>
  </g>
</svg>
