<svg xmlns="http://www.w3.org/2000/svg" width="683" height="558" viewBox="0 0 683 558">
  <defs>
    <style>
      .cls-1 {
        fill: #fff;
      }
    </style>
  </defs>
  <title>VirginiaStudentFilmFest (2)</title>
  <g id="Layer_2" data-name="Layer 2">
    <g id="VirginiaStudentFilmFest">
      <path d="M246,0C91.913,0,0,124.913,0,279S91.913,558,246,558H437c154.087,0,246-124.913,246-279S591.087,0,437,0Z"/>
      <g>
        <path class="cls-1" d="M201.383,54.31c-4.509,20.817-15.913,35.36-37.465,40.04-7.432,1.614-12.312,5.837-16.351,10.973l38.716,2.8c-8.707,17.146-25.646,27-55.649,17.127l-14.512,18.869c8.842-2.131,15-4.23,21.312-4.965,6.456-.752,13.068-.167,19.813-.167-3.307,14.959-20.827,27.814-36.775,27.9-17.172.1-17.175.094-23.569,16.587-.8,2.06-1.535,4.143-2.551,6.894l40.37-18.546c.641,9-3.728,14.337-6.7,19.73-7.262,13.168-17.554,23.081-33.219,25.15-6.4.846-10.017,3.864-11.286,9.913-1.588,7.569-3,15.175-4.729,24.006l35.8-33.4c1.168,4.981,2.555,7.525,2.164,9.757-3.639,20.78-11.907,38.647-31.433,49.528-3.076,1.714-6.879,5.129-7.242,8.133-1,8.255-.344,16.71-.344,27.341L107.2,269.3l3.071.844c.683,3.578,1.993,7.165,1.945,10.734-.279,20.618-5.453,39.331-21.988,53.3-4.564,3.855-6.661,8.689-5.025,14.595,2.386,8.609,5.009,17.153,7.651,26.135l15.791-50.754,3.334-.359c1.694,3.917,4.013,7.687,4.971,11.776,3.906,16.657,4.648,33.146-3.23,49.169-8.674,17.643-7.805,21.636,7.718,37.9,0-9.536-.338-17.9.094-26.221.44-8.465,1.638-16.889,2.5-25.331l2.521-.906c2.237,2.837,4.8,5.477,6.657,8.542,9.638,15.884,15.159,32.883,9.361,51.293-3.953,12.553-.954,21.124,10.35,27.472,4.3,2.414,8.083,5.739,12.8,8.148-10.408-15.376-10.534-32.922-12.98-51.191,10.848,2.09,17.069,8.983,22.067,16.491,6.536,9.819,10.752,20.628,10.455,32.976-.314,13.022.426,13.66,12.328,17.649,5.164,1.731,10.57,2.727,15.778,4.341,3.745,1.16,7.345,2.79,11.011,4.211l-.918,3.822c-4.622-.668-9.31-1.046-13.85-2.075-5.705-1.292-11.333-2.981-16.914-4.75-5.546-1.758-9.28-.236-13.272,4.235a33.183,33.183,0,0,1-13.336,8.747c-17.974,6.283-39.008,2.139-51.118-10.052,12.714-12.982,28.355-17.616,46.381-18.356-6.007-4.717-11.666-10.031-18.2-13.844-2.457-1.433-7.563-.429-10.407,1.25-17.2,10.156-53.04-2.075-61.115-20.169,10.261-8.426,16.376-8.99,49.8-4.027-6.124-8.373-10.969-15.7-16.651-22.312-1.585-1.845-5.821-2.573-8.534-2.089-13.28,2.369-24.1-2.58-32.906-11.544-6.481-6.6-11.711-14.492-16.976-22.167-1.489-2.172-1.139-5.6-1.635-8.475,13.451-2.111,18.025-.575,45.733,15.137-3.874-10.99-6.956-20.7-10.835-30.074a10.486,10.486,0,0,0-6.889-5.425c-15.324-2.336-23.418-13.04-30.251-25.217-3.621-6.451-6.63-13.245-9.916-19.884V288.776C51.4,293.977,63.6,307.1,73.43,324.9c-.455-9.994-.919-18.093-1.16-26.2-.176-5.892-2.141-10.094-7.695-13.292A35.746,35.746,0,0,1,52.8,274.449c-10.133-15.527-13.178-33.128-13.121-51.373.006-1.749.948-3.5,1.744-6.235,16.8,9.423,23.646,24.865,30,41.105,6.223-14.786,5.181-23.171-3.91-34.189-11.469-13.9-13.406-50.312-2.951-67.684,14.5,12.6,17.1,29.466,17.926,48.258,9.654-20.225,9.414-20.136,2.336-39.256-1.982-5.352-3.678-11.67-2.747-17.07,2.3-13.354,6.046-26.475,9.6-39.584.6-2.218,3.161-3.905,5.413-6.534,5.574,7.75,7.591,15.543,8.152,23.685.559,8.1.506,16.245.721,24.37,5.147-4.442,8.967-8.589,11.059-13.475,1.7-3.972,2.8-9.26,1.635-13.226-6.736-23.037,1.158-49.472,20.188-64.717.391-.312,1.436.193,3.043.461a114.993,114.993,0,0,1-2.51,46.8c7.89-5.9,15.452-10.942,18.11-21.611,1.525-6.12,6.88-12.446,12.249-16.179,8.193-5.7,17.891-9.231,26.95-13.684Z"/>
        <path class="cls-1" d="M538.549,107.758a43.927,43.927,0,0,0-21.74-14.077c-19.433-5.617-31.429-18.7-34.067-39.371h4.689c5.282,2.384,10.584,4.724,15.842,7.159,11.71,5.424,20.749,13.188,24.263,26.339.829,3.1,3.361,5.794,5.3,8.544,2.846,4.042,5.861,7.967,8.8,11.942Z"/>
        <path class="cls-1" d="M538.549,107.758l3.087.536,5.46,3.077c-4.679-17.689-11.565-34.331-5.373-52.929,8.525,3.33,12.706,9.883,16.417,16.423,8.644,15.235,15.474,30.743,6.558,48.7-1.51,3.043-.253,8.411,1.431,11.876,2.848,5.856,7.058,11.051,11.807,16.575-2.734-17.589-1.064-34.11,7.756-49.667,2.282,1.221,3.281,1.407,3.58,1.966,9.6,17.944,14.851,36.747,10.892,57.26-.44,2.277-.89,4.851-2.228,6.607-7.978,10.472-4.458,20.467,1.726,30.986,2.932-15.59,5.08-31.472,19.563-43.193,1.42,2.711,3.252,5.03,3.9,7.642,3.821,15.428,4.074,31.019-.139,46.338a33.5,33.5,0,0,1-7.938,14c-5.452,5.581-7.7,11.2-6.2,18.921,1.029,5.292.75,10.838,1.672,16.584,6.409-16.552,14.93-31.408,32.053-43.212.729,6.141,2.319,10.885,1.606,15.254a270.726,270.726,0,0,1-6.941,30.8c-2.763,9.658-8.671,17.136-17.343,22.793-3.475,2.267-6.816,6.76-7.582,10.747-1.669,8.692-1.647,17.71-2.451,28.382,10.437-15.921,20.954-29.606,40.231-34.569.4,3.149,1.439,5.784.915,8.059-3.955,17.161-11.479,32.49-25.4,43.755-3.736,3.023-9.217,3.786-13.507,6.262-3.462,2-7.717,4.393-9.2,7.7-3.789,8.425-6.226,17.458-9.756,27.876,8.536-5.018,15.057-10.007,22.409-12.841,6.933-2.672,14.74-3.074,23.826-4.789-.957,5.011-1.08,7.653-1.973,10-4.77,12.544-14.306,21.3-24.412,29.368-7.088,5.656-15.725,6.861-24.5,5.52-5.137-.786-9.194-.11-12.3,4.355-4.864,6.981-9.856,13.873-16.233,22.825,18.7-8,35.434-8.678,53.112-.64-1.8,3.333-2.606,6.009-4.323,7.823-15.77,16.66-38.46,21.145-59.936,12.619-2.622-1.041-6.9-.3-9.41,1.239-6.287,3.858-12,8.65-20.475,14.948,19.987-.888,36.749,1.925,49.039,16.029-.145,1.046.038,2.137-.395,2.5-16.816,14.3-49.147,13.641-64.335-1.752-4.268-4.326-8.293-5.062-13.619-3.461-6.73,2.022-13.5,3.934-20.327,5.593-2.8.68-5.783.574-8.684.825l-1.083-2.773c3.1-1.514,6.077-3.386,9.319-4.468,6.65-2.219,13.469-3.929,20.169-6.011,6.792-2.11,9.437-5.988,9.086-13.9-.953-21.562,8.84-38.278,26.389-50.515,1.4-.98,3.441-1.056,6.146-1.826-1.094,18.5-3.394,35.584-11.569,52.086,7.193-5.677,15.14-10.667,21.221-17.355,2.55-2.805,2.508-9.583,1.31-13.908-6.206-22.414-1.637-42.418,11.7-60.948,1.12-1.557,1.426-3.7,2.11-5.572l4.482,2.183,3.8,49.161c13.223-9.783,14.739-17.145,7.534-31.366-10.764-21.249-9.524-42.634.461-66.913,9.342,18.264,15.858,34.674,18.829,53.069,2.4-7.731,4.759-15.475,7.211-23.189,2.27-7.14.249-12.441-5.3-17.679-17.9-16.9-22.914-38.287-19.954-62.055.075-.607.945-1.116,2.08-2.376,12,13.445,23.138,27.026,29.174,45.787,1.171-5.8,2.314-9.948,2.8-14.169,1.309-11.352.3-20.5-12.155-27.151-17.838-9.532-30.4-36.932-25.6-54.013,13.676,8.2,25.426,17.625,35.6,30.5-1.577-8.445-2.851-16.961-4.823-25.312-1.706-7.224-8.418-7.478-14.064-8.353-14.346-2.225-35.259-23.282-35.831-42.518,14.337,4.041,27.289,8.994,40.28,17.687-3.429-7.714-6.283-15.78-10.647-22.923-1.271-2.08-6.92-2.337-10.448-2.046a42.534,42.534,0,0,1-43.661-27.049c12.831-2.974,25.178.336,37.541,3.232l1.346-2.092c-3.03-4.249-5.791-8.727-9.165-12.683-3.442-4.034-7.577-2.157-11.829-.74-17.516,5.84-34-.134-45.3-16.752C511.24,104.368,524.78,104.81,538.549,107.758Z"/>
      </g>
      <g>
        <path class="cls-1" d="M174.116,203.282h31.841l14.049,83.662,14.507-83.662h32.3l-32.3,127.272H205.135Z"/>
        <path class="cls-1" d="M274.062,292.509q14.688,13.686,27.736,13.685a16.415,16.415,0,0,0,11.4-4.288,13.515,13.515,0,0,0,4.744-10.4,12.881,12.881,0,0,0-3.376-8.758q-3.468-3.833-12.941-8.607-13.392-6.612-20.433-14.724-7.134-8.109-7.134-20.595a35.955,35.955,0,0,1,11.131-26.746q11.13-10.89,29.468-10.891,12.591,0,26.185,6.752v30.38q-12.043-11.585-23.082-11.587a14.519,14.519,0,0,0-9.489,3.285,9.933,9.933,0,0,0-4.014,7.937,10.7,10.7,0,0,0,3.284,7.846q3.193,3.285,11.859,7.12,14.321,6.39,21.714,14.6,7.391,8.3,7.392,22.351a40.767,40.767,0,0,1-12.728,30.195q-12.726,12.5-31.065,12.5-14.232,0-30.655-8.576Z"/>
        <path class="cls-1" d="M362.925,203.282h70.888v25.637H392.575v26.458h38.136v24.815H392.575v50.362h-29.65Z"/>
        <path class="cls-1" d="M446.586,203.282h70.889v25.637H476.236v26.458h38.136v24.815H476.236v50.362h-29.65Z"/>
      </g>
      <g>
        <path class="cls-1" d="M215.685,355.886h3.88l1.713,10.2,1.767-10.2h3.936l-3.936,15.51h-3.58Z"/>
        <path class="cls-1" d="M229.9,355.63a1.931,1.931,0,0,1,1.312.522,1.73,1.73,0,0,1,.589,1.357,1.788,1.788,0,0,1-.561,1.334,1.854,1.854,0,0,1-1.34.545,1.9,1.9,0,0,1-1.9-1.89,1.766,1.766,0,0,1,.567-1.323A1.864,1.864,0,0,1,229.9,355.63Zm-1.79,5.17h3.536v10.6H228.11Z"/>
        <path class="cls-1" d="M237.327,362.2a3.141,3.141,0,0,1,.79-1.234,1.6,1.6,0,0,1,1.09-.412,1.822,1.822,0,0,1,.855.245v3.336a2.28,2.28,0,0,0-.989-.267,1.385,1.385,0,0,0-1.123.55,2.165,2.165,0,0,0-.445,1.407v5.57h-3.58V360.8h3.047Z"/>
        <path class="cls-1" d="M246.934,370.117a3.32,3.32,0,0,1-1.012.957,2.393,2.393,0,0,1-1.223.322,3.1,3.1,0,0,1-2.569-1.557,6.412,6.412,0,0,1-1.078-3.747,6.958,6.958,0,0,1,1.09-3.836,3.231,3.231,0,0,1,2.79-1.7,2.689,2.689,0,0,1,1.2.273,3.156,3.156,0,0,1,1.023.828l.956-.856h2.357v10.174a6.13,6.13,0,0,1-1.311,3.985,4.522,4.522,0,0,1-3.725,1.618,8,8,0,0,1-3.681-.989V372.1a5.07,5.07,0,0,0,2.925,1.312,2.182,2.182,0,0,0,1.612-.651,2.233,2.233,0,0,0,.645-1.64Zm0-6.081a1.844,1.844,0,0,0-.49-.412,1.012,1.012,0,0,0-.489-.133,1.075,1.075,0,0,0-.967.661,3.634,3.634,0,0,0-.355,1.729,3.873,3.873,0,0,0,.344,1.763,1.024,1.024,0,0,0,.9.672.845.845,0,0,0,.795-.511,3.466,3.466,0,0,0,.262-1.524Z"/>
        <path class="cls-1" d="M254.628,355.63a1.929,1.929,0,0,1,1.311.522,1.73,1.73,0,0,1,.59,1.357,1.788,1.788,0,0,1-.561,1.334,1.857,1.857,0,0,1-1.34.545,1.895,1.895,0,0,1-1.9-1.89,1.765,1.765,0,0,1,.566-1.323A1.866,1.866,0,0,1,254.628,355.63Zm-1.79,5.17h3.535v10.6h-3.535Z"/>
        <path class="cls-1" d="M262.066,361.9a3.228,3.228,0,0,1,1.065-1.012,2.681,2.681,0,0,1,1.331-.334,2.73,2.73,0,0,1,2.1.918,3.25,3.25,0,0,1,.841,2.284V371.4h-3.535v-6.905q0-.9-.668-.9a.836.836,0,0,0-.744.489,2.794,2.794,0,0,0-.278,1.368V371.4h-3.491V360.8h3.035Z"/>
        <path class="cls-1" d="M271.462,355.63a1.929,1.929,0,0,1,1.311.522,1.73,1.73,0,0,1,.59,1.357,1.788,1.788,0,0,1-.561,1.334,1.857,1.857,0,0,1-1.34.545,1.895,1.895,0,0,1-1.9-1.89,1.765,1.765,0,0,1,.566-1.323A1.866,1.866,0,0,1,271.462,355.63Zm-1.79,5.17h3.535v10.6h-3.535Z"/>
        <path class="cls-1" d="M276.031,361.412a8.056,8.056,0,0,1,3.436-.857,4.851,4.851,0,0,1,2.1.423,3.651,3.651,0,0,1,1.507,1.368,4.36,4.36,0,0,1,.612,2.412v3.558a8.017,8.017,0,0,0,.633,3.08h-3.536a5.091,5.091,0,0,1-.322-1.007,3.954,3.954,0,0,1-1.1.936,2.47,2.47,0,0,1-1.207.316,3.029,3.029,0,0,1-2.207-.984,3.284,3.284,0,0,1-.972-2.4q0-3.18,5.481-3.881a1.273,1.273,0,0,0-.6-.867,2.524,2.524,0,0,0-1.311-.289,4.133,4.133,0,0,0-2.513,1Zm4.425,4.725q-2.223.2-2.224,1.663a1.354,1.354,0,0,0,.334.926,1.019,1.019,0,0,0,.789.379.908.908,0,0,0,.818-.457,2.155,2.155,0,0,0,.283-1.149Z"/>
        <path class="cls-1" d="M291.141,366.76a5.151,5.151,0,0,0,3.38,1.667,2,2,0,0,0,1.39-.522,1.648,1.648,0,0,0,.578-1.268,1.569,1.569,0,0,0-.411-1.067,5.636,5.636,0,0,0-1.577-1.049,7.833,7.833,0,0,1-2.49-1.794,3.66,3.66,0,0,1-.87-2.51,4.384,4.384,0,0,1,1.356-3.26,4.914,4.914,0,0,1,3.592-1.327,7.165,7.165,0,0,1,3.191.823v3.7a4.2,4.2,0,0,0-2.813-1.412,1.762,1.762,0,0,0-1.156.4,1.206,1.206,0,0,0-.49.967,1.306,1.306,0,0,0,.4.956,4.855,4.855,0,0,0,1.445.868,7.785,7.785,0,0,1,2.646,1.779,3.948,3.948,0,0,1,.9,2.724,4.971,4.971,0,0,1-1.551,3.68,5.2,5.2,0,0,1-3.786,1.523,8.133,8.133,0,0,1-3.736-1.046Z"/>
        <path class="cls-1" d="M302.894,357.609h2.935V360.8h1.757v2.591h-1.6v4.336q0,1,.8,1a1.369,1.369,0,0,0,.8-.3V371.3a5.97,5.97,0,0,1-1.99.345,3.274,3.274,0,0,1-2.419-.784,3.345,3.345,0,0,1-.773-2.43v-5.036h-1.3V360.8h1.5Z"/>
        <path class="cls-1" d="M309.32,360.8h3.514v6.56a1.885,1.885,0,0,0,.172.906.55.55,0,0,0,.506.306.785.785,0,0,0,.65-.35,1.4,1.4,0,0,0,.262-.862V360.8H318v10.6h-3.047l-.333-1.056a3.889,3.889,0,0,1-1.117.973,2.608,2.608,0,0,1-1.274.328,2.559,2.559,0,0,1-2.09-1.035,4,4,0,0,1-.823-2.568Z"/>
        <path class="cls-1" d="M325.676,355.886h3.535V371.4H326.1l-.322-1.234a3.833,3.833,0,0,1-1.091,1.106,2.333,2.333,0,0,1-1.27.373,3.011,3.011,0,0,1-2.629-1.652,7.687,7.687,0,0,1,.072-7.755,3.217,3.217,0,0,1,2.769-1.679,2.6,2.6,0,0,1,1.024.217,3.905,3.905,0,0,1,1.026.662Zm0,8.2a1.89,1.89,0,0,0-.481-.467.953.953,0,0,0-.513-.156,1.105,1.105,0,0,0-.984.7,3.994,3.994,0,0,0-.369,1.857,4.073,4.073,0,0,0,.353,1.818,1.055,1.055,0,0,0,.932.706.861.861,0,0,0,.782-.517,2.578,2.578,0,0,0,.28-1.24Z"/>
        <path class="cls-1" d="M339.829,370.5a7.827,7.827,0,0,1-3.8,1.145,4.842,4.842,0,0,1-3.724-1.546,5.594,5.594,0,0,1-1.43-3.958,5.974,5.974,0,0,1,1.352-3.958,4.465,4.465,0,0,1,3.613-1.624,4.027,4.027,0,0,1,3.2,1.39,5.494,5.494,0,0,1,1.2,3.725v.878h-5.7a2.99,2.99,0,0,0,.835,1.6,2.19,2.19,0,0,0,1.527.534,2.757,2.757,0,0,0,1.325-.322,10.213,10.213,0,0,0,1.594-1.157Zm-2.669-5.827v-.356a2.014,2.014,0,0,0-.379-1.234,1.141,1.141,0,0,0-.949-.511,1.181,1.181,0,0,0-1.032.522,3.078,3.078,0,0,0-.419,1.579Z"/>
        <path class="cls-1" d="M345.433,361.9a3.226,3.226,0,0,1,1.064-1.012,2.684,2.684,0,0,1,1.331-.334,2.733,2.733,0,0,1,2.1.918,3.254,3.254,0,0,1,.841,2.284V371.4h-3.536v-6.905q0-.9-.668-.9a.836.836,0,0,0-.744.489,2.794,2.794,0,0,0-.278,1.368V371.4h-3.491V360.8h3.035Z"/>
        <path class="cls-1" d="M353.884,357.609h2.935V360.8h1.757v2.591h-1.6v4.336q0,1,.8,1a1.369,1.369,0,0,0,.8-.3V371.3a5.97,5.97,0,0,1-1.99.345,3.276,3.276,0,0,1-2.419-.784,3.345,3.345,0,0,1-.772-2.43v-5.036h-1.3V360.8h1.5Z"/>
        <path class="cls-1" d="M366.125,355.886h8.639v3.124h-5.026v3.224h4.648v3.024h-4.648V371.4h-3.613Z"/>
        <path class="cls-1" d="M378.188,355.63a1.931,1.931,0,0,1,1.312.522,1.73,1.73,0,0,1,.59,1.357,1.789,1.789,0,0,1-.562,1.334,1.855,1.855,0,0,1-1.34.545,1.819,1.819,0,0,1-1.351-.561,1.84,1.84,0,0,1-.55-1.329,1.766,1.766,0,0,1,.567-1.323A1.864,1.864,0,0,1,378.188,355.63Zm-1.79,5.17h3.536v10.6H376.4Z"/>
        <path class="cls-1" d="M382.313,355.886h3.537V371.4h-3.537Z"/>
        <path class="cls-1" d="M396.434,362.268a3.714,3.714,0,0,1,1.17-1.285,2.751,2.751,0,0,1,1.515-.428,2.682,2.682,0,0,1,2.194,1.018,4.024,4.024,0,0,1,.825,2.618V371.4H398.6V364.88q0-1.245-.711-1.245a.787.787,0,0,0-.735.462,3.084,3.084,0,0,0-.244,1.4v5.9h-3.5V364.88q0-1.245-.7-1.245a.793.793,0,0,0-.7.473,2.356,2.356,0,0,0-.267,1.173V371.4h-3.48V360.8h2.979l.39,1.145A3.246,3.246,0,0,1,392.7,360.9a2.654,2.654,0,0,1,1.345-.345A2.532,2.532,0,0,1,396.434,362.268Z"/>
        <path class="cls-1" d="M410.121,355.886h8.639v3.124h-5.026v3.224h4.648v3.024h-4.648V371.4h-3.613Z"/>
        <path class="cls-1" d="M428.545,370.5a7.827,7.827,0,0,1-3.8,1.145,4.846,4.846,0,0,1-3.725-1.546,5.6,5.6,0,0,1-1.429-3.958,5.974,5.974,0,0,1,1.352-3.958,4.465,4.465,0,0,1,3.613-1.624,4.027,4.027,0,0,1,3.2,1.39,5.5,5.5,0,0,1,1.2,3.725v.878h-5.7a2.99,2.99,0,0,0,.835,1.6,2.19,2.19,0,0,0,1.527.534,2.76,2.76,0,0,0,1.325-.322,10.213,10.213,0,0,0,1.594-1.157Zm-2.669-5.827v-.356a2.014,2.014,0,0,0-.379-1.234,1.141,1.141,0,0,0-.949-.511,1.181,1.181,0,0,0-1.032.522,3.068,3.068,0,0,0-.419,1.579Z"/>
        <path class="cls-1" d="M430.357,367.493a5,5,0,0,0,2.947,1.4,1.362,1.362,0,0,0,.822-.251.778.778,0,0,0,.345-.662.651.651,0,0,0-.273-.527,4.249,4.249,0,0,0-1.016-.506,4.736,4.736,0,0,1-2.3-1.5,2.961,2.961,0,0,1-.523-1.613,2.821,2.821,0,0,1,1.217-2.379,4.845,4.845,0,0,1,2.964-.9,7.005,7.005,0,0,1,2.99.69v3.146a3.7,3.7,0,0,0-2.368-1.067,1.4,1.4,0,0,0-.766.167.566.566,0,0,0-.256.511q0,.466,1.1.823,2.991.99,2.991,3.169a3.288,3.288,0,0,1-1.229,2.59,4.673,4.673,0,0,1-3.163,1.057,7.865,7.865,0,0,1-3.48-.923Z"/>
        <path class="cls-1" d="M440.941,357.609h2.936V360.8h1.757v2.591h-1.6v4.336q0,1,.8,1a1.371,1.371,0,0,0,.8-.3V371.3a5.979,5.979,0,0,1-1.99.345,3.274,3.274,0,0,1-2.419-.784,3.345,3.345,0,0,1-.773-2.43v-5.036h-1.3V360.8h1.5Z"/>
        <path class="cls-1" d="M449.236,355.63a1.931,1.931,0,0,1,1.312.522,1.734,1.734,0,0,1,.59,1.357,1.789,1.789,0,0,1-.562,1.334,1.855,1.855,0,0,1-1.34.545,1.819,1.819,0,0,1-1.351-.561,1.84,1.84,0,0,1-.55-1.329,1.765,1.765,0,0,1,.566-1.323A1.868,1.868,0,0,1,449.236,355.63Zm-1.79,5.17h3.535v10.6h-3.535Z"/>
        <path class="cls-1" d="M452.388,360.8h3.747l1.023,6.871,1.122-6.871H461.9l-3.047,10.6h-3.5Z"/>
        <path class="cls-1" d="M463.735,361.412a8.056,8.056,0,0,1,3.436-.857,4.858,4.858,0,0,1,2.1.423,3.654,3.654,0,0,1,1.506,1.368,4.36,4.36,0,0,1,.612,2.412v3.558a8,8,0,0,0,.634,3.08h-3.537a5.091,5.091,0,0,1-.322-1.007,3.94,3.94,0,0,1-1.1.936,2.467,2.467,0,0,1-1.207.316,3.029,3.029,0,0,1-2.207-.984,3.284,3.284,0,0,1-.972-2.4q0-3.18,5.481-3.881a1.275,1.275,0,0,0-.6-.867,2.53,2.53,0,0,0-1.312-.289,4.133,4.133,0,0,0-2.513,1Zm4.425,4.725q-2.223.2-2.223,1.663a1.349,1.349,0,0,0,.334.926,1.016,1.016,0,0,0,.789.379.906.906,0,0,0,.817-.457,2.155,2.155,0,0,0,.283-1.149Z"/>
        <path class="cls-1" d="M473.485,355.886h3.536V371.4h-3.536Z"/>
      </g>
    </g>
  </g>
</svg>
